<svg width="140" height="140" viewBox="0 0 140 140" fill="none" xmlns="http://www.w3.org/2000/svg">
<path fill-rule="evenodd" clip-rule="evenodd" d="M75.0001 0H65V44.2772L48.4135 3.22407L39.1416 6.97014L56.1579 49.0867L24.0381 16.9669L16.967 24.0381L47.7524 54.8234L7.85687 37.3927L3.85321 46.5562L46.0673 65H0V75.0001H46.0673L3.85323 93.4437L7.85687 102.607L47.7523 85.1767L16.967 115.962L24.0381 123.033L56.1579 90.9132L39.1416 133.03L48.4135 136.776L65 95.7229V140H75.0001V95.7229L91.5866 136.776L100.858 133.03L83.8425 90.9132L115.962 123.033L123.033 115.962L92.2474 85.1767L132.143 102.607L136.146 93.4437L93.933 75.0001H140V65H93.9323L136.146 46.5562L132.143 37.3927L92.2474 54.8234L123.033 24.038L115.962 16.9669L83.8425 49.0867L100.858 6.97014L91.5866 3.22407L75.0001 44.2772V0Z" fill="#FCAD97"/>
</svg>
