<svg width="140" height="140" viewBox="0 0 140 140" fill="none" xmlns="http://www.w3.org/2000/svg">
<path d="M67.76 33.88C67.76 52.5914 52.5914 67.76 33.88 67.76C15.1686 67.76 0 52.5914 0 33.88C0 15.1686 15.1686 0 33.88 0C52.5914 0 67.76 15.1686 67.76 33.88Z" fill="#FCAD97"/>
<path d="M72.24 33.88C72.24 15.1686 87.4086 0 106.12 0C124.831 0 140 15.1686 140 33.88C140 52.5914 124.831 67.76 106.12 67.76H72.24V33.88Z" fill="#FCAD97"/>
<path d="M0 106.12C0 87.4086 15.1686 72.24 33.88 72.24H67.76V106.12C67.76 124.831 52.5914 140 33.88 140C15.1686 140 0 124.831 0 106.12Z" fill="#FCAD97"/>
<path d="M140 106.12C140 124.831 124.831 140 106.12 140C87.4086 140 72.24 124.831 72.24 106.12C72.24 87.4086 87.4086 72.24 106.12 72.24C124.831 72.24 140 87.4086 140 106.12Z" fill="#FCAD97"/>
</svg>
