<svg width="140" height="140" viewBox="0 0 140 140" fill="none" xmlns="http://www.w3.org/2000/svg">
<path fill-rule="evenodd" clip-rule="evenodd" d="M70 15.4C70 6.89482 63.1052 0 54.6 0H15.4C6.89482 0 0 6.8948 0 15.4V55.1036C0 63.6088 6.89482 70.5033 15.4 70.5033H54.6C63.1052 70.5033 70 77.3983 70 85.9033V124.6C70 133.105 76.895 140 85.4 140H124.6C133.105 140 140 133.105 140 124.6V84.896C140 76.391 133.105 69.4964 124.6 69.4964H85.4C76.895 69.4964 70 62.6016 70 54.0964V15.4Z" fill="#FCAD97"/>
</svg>
