<svg width="1920" height="685" viewBox="0 0 1920 685" fill="none" xmlns="http://www.w3.org/2000/svg">
<g clip-path="url(#clip0_1108_3352)">
<rect width="1920" height="685" fill="#7FEE64"/>
<path opacity="0.1" d="M645.915 58C647.136 58 647.503 56 646.085 56C644.864 56 644.497 58 645.915 58Z" fill="#A5CA79"/>
<path opacity="0.1" d="M751.034 89.284C753.614 90.9273 757.777 89.5515 758 87.0901C758.021 86.8694 755.56 87.0624 755.514 87.5782C755.471 88.0427 755.35 88.3495 755.087 88.755C754.624 89.4774 753.934 89.0286 753.378 88.6744C752.891 88.3651 750.704 89.0714 751.034 89.284Z" fill="#A5CA79"/>
<path opacity="0.1" d="M716.661 21.0005C710.997 21.1113 703.951 23.0354 701.009 27.8572C700.84 28.1349 703.105 28.0121 703.451 27.4491C705.713 23.7439 710.596 21.995 715.042 21.9087C715.546 21.8961 717.856 20.9759 716.661 21.0005Z" fill="#A5CA79"/>
<path opacity="0.1" d="M658 77.9731C658 88.5477 658 99.1194 658 109.695C658 110.333 661 109.902 661 109.026C661 98.4516 661 87.8799 661 77.3054C661 76.6665 658 77.0977 658 77.9731Z" fill="#A5CA79"/>
<path opacity="0.1" d="M495.483 84.1077C495.595 78.4891 497.4 73.7084 499.919 68.7397C500.476 67.649 497.991 67.8918 497.606 68.6471C495.036 73.7186 493.112 78.6365 493 84.3924C492.982 85.4601 495.461 84.9637 495.483 84.1077Z" fill="#A5CA79"/>
<path opacity="0.1" d="M590.007 66.8335C590.013 72.8092 589.718 79.2275 592.388 84.7846C592.683 85.3952 595.196 84.5579 594.988 84.1229C592.315 78.5658 592.61 72.1475 592.607 66.1717C592.607 65.764 590.007 66.1212 590.007 66.8335Z" fill="#A5CA79"/>
<path opacity="0.1" d="M560.523 108.82C557.941 116.124 552.426 121.803 547.248 127.178C546.228 128.233 548.651 128.163 549.211 127.581C554.604 121.986 560.295 116.09 562.975 108.488C563.273 107.651 560.821 107.976 560.523 108.82Z" fill="#A5CA79"/>
<path opacity="0.1" d="M762.942 147.988C757.748 142.662 753.562 136.46 748.353 131.141C747.882 130.652 745.609 131.555 746.059 132.009C751.263 137.327 755.451 143.53 760.645 148.859C761.119 149.348 763.389 148.448 762.942 147.988Z" fill="#A5CA79"/>
<path opacity="0.1" d="M861.443 151.466C866.543 152.519 871.15 155.261 873.658 160.605C874.086 161.517 876.32 160.667 875.961 159.902C873.254 154.13 868.368 151.154 862.845 150.012C862.095 149.86 860.126 151.191 861.443 151.466Z" fill="#A5CA79"/>
<path opacity="0.1" d="M915 154.119C915 149.272 915 144.427 915 139.58C915 138.536 913 139.065 913 139.883C913 144.727 913 149.574 913 154.419C913 155.463 915 154.937 915 154.119Z" fill="#A5CA79"/>
<path opacity="0.1" d="M977 151.969C977 149.253 977 146.536 977 143.819C977 142.504 975 142.92 975 144.03C975 146.747 975 149.463 975 152.18C974.999 153.495 977 153.082 977 151.969Z" fill="#A5CA79"/>
<path opacity="0.1" d="M1117.96 129.099C1118.05 123.79 1119.13 118.583 1121.91 113.764C1122.55 112.645 1119.59 112.883 1119.14 113.659C1116.28 118.612 1115.09 123.909 1115 129.379C1114.98 130.464 1117.94 129.97 1117.96 129.099Z" fill="#A5CA79"/>
<path opacity="0.1" d="M1053.88 119.941C1048.08 115.673 1042.28 111.411 1036.47 107.147C1035.78 106.641 1033.45 107.563 1034.12 108.06C1039.93 112.32 1045.73 116.58 1051.52 120.851C1052.22 121.361 1054.55 120.438 1053.88 119.941Z" fill="#A5CA79"/>
<path opacity="0.1" d="M1122.47 68.0997C1122.6 63.5141 1124.48 59.4371 1126.9 55.6553C1127.53 54.6746 1125.04 54.9117 1124.6 55.6008C1122.12 59.4756 1120.14 63.7114 1120 68.4166C1119.97 69.4659 1122.44 68.9385 1122.47 68.0997Z" fill="#A5CA79"/>
<path opacity="0.1" d="M1155.87 77C1156.99 77 1159.24 76 1157.13 76C1156.01 75.9995 1153.76 77 1155.87 77Z" fill="#A5CA79"/>
<path opacity="0.1" d="M1061.79 48.8603C1053.24 45.0866 1045.55 39.7253 1037.46 35.0889C1036.77 34.693 1034.58 35.7315 1035.07 36.0121C1043.27 40.7061 1051.07 46.128 1059.73 49.9509C1060.36 50.2279 1062.7 49.2611 1061.79 48.8603Z" fill="#A5CA79"/>
<path opacity="0.1" d="M962.399 53.6544C961.309 56.3453 960.076 58.8841 960 61.7646C959.989 62.2656 962.588 61.9191 962.605 61.1755C962.68 58.3947 963.934 55.9154 964.984 53.3194C965.224 52.7334 962.655 53.0179 962.399 53.6544Z" fill="#A5CA79"/>
<path opacity="0.1" d="M457.611 23.8602C456.456 32.5138 449.032 37.7832 442.456 42.0683C441.082 42.9609 443.182 43.2522 443.923 42.7669C450.835 38.2665 458.784 32.6297 459.995 23.5343C460.121 22.5789 457.719 23.04 457.611 23.8602Z" fill="#A5CA79"/>
<path opacity="0.1" d="M501.593 139C502.367 139 503.818 138 502.408 138C501.634 138 500.181 139 501.593 139Z" fill="#A5CA79"/>
<path opacity="0.1" d="M897.931 78C899.253 78 901.164 76 899.069 76C897.75 76 895.835 78 897.931 78Z" fill="#A5CA79"/>
<path opacity="0.1" d="M997.595 94C998.39 94 999.81 93 998.405 93C997.61 93 996.19 94 997.595 94Z" fill="#A5CA79"/>
<path opacity="0.1" d="M1235.69 156.822C1238.3 155.452 1240.49 153.423 1241.9 150.854C1242.52 149.711 1240.06 149.791 1239.59 150.645C1238.46 152.699 1236.74 154.433 1234.64 155.537C1233.18 156.308 1234.51 157.441 1235.69 156.822Z" fill="#A5CA79"/>
<path opacity="0.1" d="M1248.98 61.217C1249.04 44.3593 1249.42 27.8736 1240.36 13.1727C1240.01 12.6068 1237.86 13.5924 1238.01 13.8318C1247.07 28.5293 1246.69 45.0157 1246.63 61.8761C1246.63 62.1951 1248.98 61.8707 1248.98 61.217Z" fill="#A5CA79"/>
<path opacity="0.1" d="M1188.91 111C1190.12 111 1190.52 109 1189.09 109C1187.88 109 1187.48 111 1188.91 111Z" fill="#A5CA79"/>
<path opacity="0.1" d="M692.586 130C693.328 130 694.83 128 693.415 128C692.672 127.999 691.17 130 692.586 130Z" fill="#A5CA79"/>
<path opacity="0.1" d="M460.291 109C460.707 109 462.746 108 461.709 108C461.292 108 459.254 109 460.291 109Z" fill="#A5CA79"/>
<path opacity="0.1" d="M535.919 65C537.189 65 539.184 63 537.084 63C535.815 63 533.813 65 535.919 65Z" fill="#A5CA79"/>
<path opacity="0.1" d="M1235.86 108C1236.93 108 1239.26 106 1237.14 106C1236.07 106 1233.74 108 1235.86 108Z" fill="#A5CA79"/>
<path opacity="0.1" d="M1188.91 47C1190.13 47 1190.51 45 1189.09 45C1187.87 45 1187.49 47 1188.91 47Z" fill="#A5CA79"/>
<path opacity="0.1" d="M613 136.967C612.877 129.782 610.867 123.181 606.546 117.242C606.063 116.581 603.499 117.397 604.087 118.204C608.345 124.056 610.239 130.58 610.356 137.637C610.364 138.376 613.017 137.903 613 136.967Z" fill="#A5CA79"/>
<path opacity="0.1" d="M420.088 87.7086C425.143 84.6468 430.507 82.0919 435.747 79.3342C436.779 78.7933 434.352 79.0177 433.911 79.252C428.666 82.0097 423.3 84.567 418.244 87.6289C417.236 88.2396 419.652 87.9714 420.088 87.7086Z" fill="#A5CA79"/>
<path opacity="0.1" d="M520.052 41C527.946 41 535.831 41 543.721 41C545.116 41 545.619 39 543.947 39C536.056 39 528.171 39 520.278 39C518.882 39 518.383 41 520.052 41Z" fill="#A5CA79"/>
<path opacity="0.1" d="M577.974 32.9752C578.924 27.6163 579 22.2297 579 16.8168C579.006 15.4902 576.041 15.9341 576.041 17.0471C576.038 22.46 575.953 27.8444 575.012 33.2026C574.784 34.4753 577.774 34.094 577.974 32.9752Z" fill="#A5CA79"/>
<path opacity="0.1" d="M671.991 186.075C667.927 175.726 653.575 171.149 644.198 169.012C643.624 168.88 641.454 169.859 642.129 170.015C651.175 172.077 665.513 176.682 669.485 186.788C669.723 187.403 672.17 186.53 671.991 186.075Z" fill="#A5CA79"/>
<path opacity="0.1" d="M495.009 174.955C497.12 183.022 499.732 190.727 504.411 197.752C504.874 198.446 507.262 197.506 506.976 197.077C502.3 190.055 499.684 182.351 497.574 174.282C497.4 173.608 494.829 174.267 495.009 174.955Z" fill="#A5CA79"/>
<path opacity="0.1" d="M425.216 187.98C427.371 201.953 427.21 216.01 423.015 229.584C422.786 230.326 425.179 229.99 425.411 229.242C429.642 215.549 429.793 201.414 427.621 187.332C427.512 186.613 425.088 187.17 425.216 187.98Z" fill="#A5CA79"/>
<path opacity="0.1" d="M459.102 244.624C459.728 245.655 460.357 246.683 460.986 247.715C461.51 248.575 463.463 247.302 462.899 246.376C462.27 245.344 461.644 244.313 461.015 243.285C460.491 242.426 458.536 243.695 459.102 244.624Z" fill="#A5CA79"/>
<path opacity="0.1" d="M513.824 256.451C516.254 256.588 518.007 258.565 518.158 260.581C518.219 261.421 521.072 260.895 520.999 259.913C520.789 257.108 517.992 255.176 514.912 255.002C513.803 254.937 511.899 256.343 513.824 256.451Z" fill="#A5CA79"/>
<path opacity="0.1" d="M566 220.985C566 212.776 566 204.566 566 196.354C566 195.635 563 196.09 563 197.017C563 205.227 563 213.437 563 221.646C563 222.364 566 221.912 566 220.985Z" fill="#A5CA79"/>
<path opacity="0.1" d="M600.001 282.266C600.112 284.499 601.8 285.321 601.911 287.51C601.958 288.491 604.056 287.878 603.999 286.735C603.888 284.499 602.2 283.68 602.089 281.494C602.042 280.507 599.944 281.121 600.001 282.266Z" fill="#A5CA79"/>
<path opacity="0.1" d="M595.833 334.831C608.512 328.574 619.531 319.46 633.059 314.842C634.584 314.324 634.136 312.568 632.574 313.099C618.77 317.813 607.606 326.947 594.684 333.327C593.134 334.093 594.524 335.482 595.833 334.831Z" fill="#A5CA79"/>
<path opacity="0.1" d="M689.997 307.155C687.479 293.138 683.049 279.661 678.517 266.187C678.338 265.649 675.852 266.396 676.007 266.859C680.542 280.329 684.971 293.809 687.487 307.829C687.574 308.292 690.1 307.729 689.997 307.155Z" fill="#A5CA79"/>
<path opacity="0.1" d="M694.661 249C704.858 249 715.055 249 725.247 249C725.99 249 728.047 248 726.339 248C716.139 248 705.945 248 695.756 248C695.01 248 692.952 249 694.661 249Z" fill="#A5CA79"/>
<path opacity="0.1" d="M758.4 240.325C760.441 235.982 760.89 231.138 762.923 226.797C763.463 225.645 760.983 225.865 760.604 226.674C758.564 231.017 758.118 235.864 756.077 240.202C755.535 241.356 758.017 241.134 758.4 240.325Z" fill="#A5CA79"/>
<path opacity="0.1" d="M661.236 369.177C670.147 373.661 676.318 380.457 676.57 390.665C676.586 391.354 679.021 390.902 679 390.022C678.74 379.562 672.28 372.642 663.177 368.069C662.514 367.736 660.275 368.694 661.236 369.177Z" fill="#A5CA79"/>
<path opacity="0.1" d="M626.855 376.249C610.671 387.481 592.652 391.774 573.279 392.031C571.83 392.053 571.409 394.019 573.091 394C593.158 393.728 611.787 389.123 628.526 377.505C629.916 376.54 627.91 375.517 626.855 376.249Z" fill="#A5CA79"/>
<path opacity="0.1" d="M563 336.083C563 334.607 563 333.132 563 331.654C563 330.531 561 331.011 561 331.915C561 333.395 561 334.871 561 336.346C561 337.469 563 336.989 563 336.083Z" fill="#A5CA79"/>
<path opacity="0.1" d="M504.842 340C505.807 340 508.292 338 506.16 338C505.192 338.001 502.707 340 504.842 340Z" fill="#A5CA79"/>
<path opacity="0.1" d="M496.324 412.65C490.573 412.472 486.1 408.661 483.495 403.327C483.092 402.509 480.718 403.407 481.028 404.039C483.967 410.065 488.947 413.804 495.329 414C496.159 414.025 497.988 412.702 496.324 412.65Z" fill="#A5CA79"/>
<path opacity="0.1" d="M442.638 373.274C448.004 362.591 449.848 350.597 450 338.858C450.02 337.52 447.332 337.877 447.318 339.037C447.164 350.611 445.394 362.428 440.103 372.965C439.447 374.274 442.123 374.301 442.638 373.274Z" fill="#A5CA79"/>
<path opacity="0.1" d="M486.579 483C487.294 483 488.839 482 487.422 482C486.703 482 485.161 483 486.579 483Z" fill="#A5CA79"/>
<path opacity="0.1" d="M533.135 501.625C535.807 499.066 539.878 499.262 542.58 496.658C543.879 495.413 541.839 494.434 540.864 495.375C538.201 497.943 534.124 497.747 531.419 500.341C530.123 501.587 532.159 502.566 533.135 501.625Z" fill="#A5CA79"/>
<path opacity="0.1" d="M559.109 445.088C569.016 452.812 576.863 462.871 585.654 471.811C586.228 472.396 588.506 471.491 587.898 470.871C579.109 461.931 571.265 451.875 561.355 444.145C560.7 443.634 558.488 444.601 559.109 445.088Z" fill="#A5CA79"/>
<path opacity="0.1" d="M620 483.128C620 483.952 620 484.782 620 485.603C620 486.407 622 485.903 622 484.876C622 484.046 622 483.225 622 482.395C622.001 481.594 620 482.097 620 483.128Z" fill="#A5CA79"/>
<path opacity="0.1" d="M601.897 545.204C595.154 549.209 587.426 551.078 579.924 553.378C578.441 553.828 578.858 555.376 580.36 554.915C588.31 552.483 596.382 550.459 603.519 546.221C604.932 545.384 602.879 544.623 601.897 545.204Z" fill="#A5CA79"/>
<path opacity="0.1" d="M672 563.183C672 560.531 672 557.881 672 555.231C672 554.733 669 555.092 669 555.818C669 558.467 669 561.12 669 563.767C669 564.268 672 563.909 672 563.183Z" fill="#A5CA79"/>
<path opacity="0.1" d="M485.844 572.651C485.064 571.85 484.288 571.055 483.51 570.254C482.785 569.516 480.366 570.54 481.157 571.349C481.935 572.15 482.713 572.945 483.488 573.745C484.211 574.484 486.633 573.461 485.844 572.651Z" fill="#A5CA79"/>
<path opacity="0.1" d="M433.91 502.757C432.019 500.511 431.28 497.467 429.391 495.206C428.858 494.565 426.518 495.565 427.089 496.244C428.973 498.502 429.712 501.544 431.608 503.796C432.146 504.434 434.483 503.433 433.91 502.757Z" fill="#A5CA79"/>
<path opacity="0.1" d="M942.055 593.8C952.37 587.77 960.732 578.921 971.331 573.332C972.851 572.529 971.46 571.593 970.328 572.189C959.523 577.887 950.992 586.822 940.489 592.959C939.036 593.806 941.2 594.299 942.055 593.8Z" fill="#A5CA79"/>
<path opacity="0.1" d="M1028.06 572.037C1030.21 574.183 1033.11 575.982 1034.58 578.745C1034.95 579.44 1037.23 578.546 1036.98 578.07C1035.45 575.207 1032.54 573.37 1030.31 571.145C1029.81 570.643 1027.6 571.569 1028.06 572.037Z" fill="#A5CA79"/>
<path opacity="0.1" d="M1066.57 581.169C1068.96 571.032 1072.25 561.173 1075.98 551.439C1076.27 550.671 1073.72 550.99 1073.41 551.784C1069.69 561.521 1066.4 571.373 1064.01 581.515C1063.81 582.382 1066.38 581.975 1066.57 581.169Z" fill="#A5CA79"/>
<path opacity="0.1" d="M1100.02 570.019C1102.12 576.121 1103.4 582.203 1103.48 588.644C1103.49 589.366 1106.01 588.908 1106 587.998C1105.92 581.557 1104.64 575.478 1102.54 569.37C1102.26 568.549 1099.75 569.24 1100.02 570.019Z" fill="#A5CA79"/>
<path opacity="0.1" d="M997.418 521.296C1004.21 505.701 1013.95 492.037 1023.91 478.462C1024.48 477.693 1022.09 478 1021.7 478.543C1011.65 492.22 1001.86 505.964 995.019 521.68C994.766 522.259 997.113 522.004 997.418 521.296Z" fill="#A5CA79"/>
<path opacity="0.1" d="M1077.45 507C1078.12 507 1081.13 506 1079.54 506C1078.87 506 1075.87 507 1077.45 507Z" fill="#A5CA79"/>
<path opacity="0.1" d="M1110.9 493C1112.09 493 1112.54 491 1111.1 491C1109.91 491 1109.46 493 1110.9 493Z" fill="#A5CA79"/>
<path opacity="0.1" d="M1084 408.017C1083.7 399.713 1079.76 392.375 1077.42 384.568C1077.09 383.463 1074.7 384.129 1075.03 385.217C1077.32 392.84 1081.28 400.1 1081.58 408.206C1081.63 409.475 1084.04 409.082 1084 408.017Z" fill="#A5CA79"/>
<path opacity="0.1" d="M1018.66 437.328C1021.62 437.377 1024.47 438.471 1025.6 441.651C1025.89 442.465 1028.24 441.697 1027.98 440.963C1026.63 437.184 1023.1 436.058 1019.61 436C1018.79 435.989 1017.05 437.303 1018.66 437.328Z" fill="#A5CA79"/>
<path opacity="0.1" d="M960.667 393.661C953.015 390.102 946.233 385.24 938.34 382.07C937.443 381.709 935.14 382.839 936.338 383.32C944.228 386.486 951.015 391.351 958.664 394.911C959.55 395.32 961.855 394.213 960.667 393.661Z" fill="#A5CA79"/>
<path opacity="0.1" d="M907.032 449.294C907.793 452.214 907.944 455.072 907.944 458.121C907.946 459.477 910 459.14 910 457.956C909.998 454.743 909.86 451.71 909.055 448.628C908.742 447.429 906.723 448.112 907.032 449.294Z" fill="#A5CA79"/>
<path opacity="0.1" d="M928.149 494C928.368 494 929.374 493 928.851 493C928.632 492.999 927.626 494 928.149 494Z" fill="#A5CA79"/>
<path opacity="0.1" d="M898.9 361.451C895.514 354.877 891.031 349.098 886.431 343.356C885.701 342.447 883.353 343.448 884.171 344.464C888.768 350.209 893.254 355.991 896.639 362.567C897.164 363.586 899.51 362.642 898.9 361.451Z" fill="#A5CA79"/>
<path opacity="0.1" d="M939.04 345.984C940.334 341.169 940.312 336.447 939.021 331.637C938.696 330.424 935.718 331.106 936.049 332.327C937.299 336.984 937.276 341.531 936.027 346.177C935.683 347.449 938.728 347.138 939.04 345.984Z" fill="#A5CA79"/>
<path opacity="0.1" d="M999.928 337.711C998.877 335.517 998.726 333.288 998.717 330.899C998.717 329.501 995.997 329.868 996 331.081C996 333.624 996.125 336.058 997.249 338.406C997.808 339.58 1000.47 338.837 999.928 337.711Z" fill="#A5CA79"/>
<path opacity="0.1" d="M1020.06 373.863C1020.17 372.435 1020.88 371.314 1021 369.867C1021.11 368.462 1019.04 368.92 1018.94 370.136C1018.83 371.561 1018.12 372.687 1018 374.132C1017.89 375.54 1019.96 375.078 1020.06 373.863Z" fill="#A5CA79"/>
<path opacity="0.1" d="M1050.07 340.072C1050.99 336.429 1051 332.583 1051 328.8C1051 327.52 1048.95 327.916 1048.95 329.001C1048.95 332.784 1048.95 336.627 1048.03 340.273C1047.74 341.406 1049.81 341.119 1050.07 340.072Z" fill="#A5CA79"/>
<path opacity="0.1" d="M1104.62 350.064C1106.66 340.324 1105.86 330.591 1105.78 320.734C1105.78 319.517 1103.18 319.967 1103.18 320.97C1103.26 330.825 1104.05 340.561 1102.02 350.297C1101.78 351.431 1104.41 351.075 1104.62 350.064Z" fill="#A5CA79"/>
<path opacity="0.1" d="M1135.07 389.375C1136.71 391.387 1138.85 392.622 1140.83 393.924C1141.41 394.315 1143.67 393.097 1142.8 392.527C1140.93 391.289 1138.92 390.114 1137.37 388.193C1136.83 387.528 1134.56 388.745 1135.07 389.375Z" fill="#A5CA79"/>
<path opacity="0.1" d="M1133.62 266.095C1135.89 258.812 1136 251.256 1136 243.696C1136 242.501 1133.4 243.012 1133.4 243.974C1133.39 251.536 1133.28 259.094 1131.03 266.376C1130.71 267.404 1133.33 267.057 1133.62 266.095Z" fill="#A5CA79"/>
<path opacity="0.1" d="M1042 246.965C1042 244.892 1042 242.822 1042 240.752C1042 239.473 1040 239.999 1040 241.036C1040 243.105 1040 245.178 1040 247.248C1040 248.527 1042 247.999 1042 246.965Z" fill="#A5CA79"/>
<path opacity="0.1" d="M1094.91 254.922C1089.24 250.46 1083.13 246.606 1077.46 242.136C1076.83 241.638 1074.53 242.636 1075.09 243.078C1080.75 247.548 1086.86 251.4 1092.54 255.864C1093.17 256.362 1095.47 255.364 1094.91 254.922Z" fill="#A5CA79"/>
<path opacity="0.1" d="M995.722 208.532C994.567 210.006 993.408 211.473 992.256 212.947C991.204 214.284 993.696 214.218 994.277 213.472C995.432 212.001 996.596 210.532 997.746 209.054C998.792 207.713 996.306 207.783 995.722 208.532Z" fill="#A5CA79"/>
<path opacity="0.1" d="M950.469 237.733C949.256 244.785 948.061 251.841 947 258.916C946.967 259.123 949.422 258.961 949.526 258.259C950.589 251.183 951.784 244.129 953 237.075C953.03 236.89 950.592 237.025 950.469 237.733Z" fill="#A5CA79"/>
<path opacity="0.1" d="M888.907 231.978C888.975 222.813 889.739 213.8 885.375 205.421C884.857 204.428 882.491 205.354 883.099 206.523C887.282 214.548 886.456 223.41 886.391 232.164C886.386 233.482 888.903 233.106 888.907 231.978Z" fill="#A5CA79"/>
<path opacity="0.1" d="M865.317 230.648C864.087 232.691 861.966 233.708 859.749 234.712C858.045 235.489 859.609 236.389 860.864 235.821C863.598 234.579 866.372 233.27 867.901 230.738C868.556 229.653 865.776 229.887 865.317 230.648Z" fill="#A5CA79"/>
<path opacity="0.1" d="M855.174 267.33C856.997 269.399 857.871 272.051 859.012 274.577C859.455 275.559 861.427 274.671 860.916 273.544C859.775 271.015 858.904 268.368 857.078 266.297C856.38 265.502 854.408 266.462 855.174 267.33Z" fill="#A5CA79"/>
<path opacity="0.1" d="M785.226 275.61C787.781 273.034 789.728 269.983 790.966 266.594C791.314 265.639 788.876 265.923 788.546 266.826C787.423 269.914 785.576 272.707 783.259 275.046C782.227 276.086 784.567 276.278 785.226 275.61Z" fill="#A5CA79"/>
<path opacity="0.1" d="M819.372 201C821.194 201 821.765 200 819.624 200C817.805 200 817.238 201 819.372 201Z" fill="#A5CA79"/>
<path opacity="0.1" d="M946.302 186C946.746 186 948.75 185 947.699 185C947.253 185 945.249 186 946.302 186Z" fill="#A5CA79"/>
<path opacity="0.1" d="M1020.49 210.3C1022.67 200.67 1024.87 190.685 1031.93 183.284C1032.44 182.747 1030.06 183.061 1029.66 183.486C1022.49 190.989 1020.23 200.969 1018 210.747C1017.88 211.276 1020.35 210.902 1020.49 210.3Z" fill="#A5CA79"/>
<path opacity="0.1" d="M1077.99 194.022C1075.66 181.196 1071.64 168.864 1068.35 156.304C1068.16 155.587 1065.83 156.272 1066.01 156.979C1069.3 169.539 1073.32 181.87 1075.66 194.696C1075.78 195.39 1078.13 194.781 1077.99 194.022Z" fill="#A5CA79"/>
<path opacity="0.1" d="M1116.94 186.87C1113.97 182.545 1110.13 178.844 1106.46 175.16C1105.92 174.622 1103.56 175.57 1104.07 176.094C1107.76 179.781 1111.6 183.477 1114.56 187.804C1114.95 188.382 1117.41 187.565 1116.94 186.87Z" fill="#A5CA79"/>
<path opacity="0.1" d="M459 291.126C459 291.828 459 292.524 459 293.227C459 294.586 461 293.952 461 292.869C461 292.177 461 291.474 461 290.778C461 289.416 459 290.043 459 291.126Z" fill="#A5CA79"/>
<path opacity="0.1" d="M472 324.018C472.061 326.898 472.792 329.585 474.614 331.724C475.276 332.5 477.594 331.481 476.857 330.613C475.243 328.719 474.501 326.318 474.446 323.75C474.414 322.48 471.977 322.997 472 324.018Z" fill="#A5CA79"/>
<path opacity="0.1" d="M528.007 411.922C528.922 415.359 530.496 418.79 533.483 420.9C534.089 421.325 536.337 420.277 535.957 420.01C533.024 417.945 531.521 414.585 530.628 411.227C530.468 410.632 527.849 411.328 528.007 411.922Z" fill="#A5CA79"/>
<path opacity="0.1" d="M456.53 431.665C454.633 438.154 449 441.981 442.727 444.31C441.064 444.929 442.646 445.194 443.59 444.843C450.371 442.324 456.91 438.349 458.994 431.239C459.135 430.752 456.706 431.067 456.53 431.665Z" fill="#A5CA79"/>
<path opacity="0.1" d="M432.561 573C433.218 573 434.858 572 433.438 572C432.781 572 431.143 573 432.561 573Z" fill="#A5CA79"/>
<path opacity="0.1" d="M1028.9 536C1030.08 536 1030.55 535 1029.1 535C1027.92 535 1027.45 536 1028.9 536Z" fill="#A5CA79"/>
<path opacity="0.1" d="M941.315 531C941.79 531 943.756 530 942.685 530C942.21 530 940.244 531 941.315 531Z" fill="#A5CA79"/>
<path opacity="0.1" d="M1093.85 461.069C1087.95 460.154 1083.29 457.037 1078.42 454.086C1077.8 453.717 1075.64 454.637 1076.05 454.886C1081.02 457.901 1085.77 461.06 1091.78 461.993C1092.4 462.087 1094.59 461.184 1093.85 461.069Z" fill="#A5CA79"/>
<path opacity="0.1" d="M1012.86 288C1013.9 288 1016.27 286 1014.14 286C1013.1 286 1010.73 288 1012.86 288Z" fill="#A5CA79"/>
<path opacity="0.1" d="M1057.86 288C1058.93 288 1061.26 287 1059.14 287C1058.06 287 1055.74 288 1057.86 288Z" fill="#A5CA79"/>
<path opacity="0.1" d="M1131.32 305.357L1130.31 306.129C1129.07 307.088 1131.88 307.248 1132.68 306.643L1133.69 305.871C1134.93 304.915 1132.12 304.75 1131.32 305.357Z" fill="#A5CA79"/>
<path opacity="0.1" d="M980.553 308C981.176 308 982.868 307 981.447 307C980.824 307 979.132 308 980.553 308Z" fill="#A5CA79"/>
<path opacity="0.1" d="M871.905 299C873.109 299 873.524 297 872.094 297C870.89 297 870.477 299 871.905 299Z" fill="#A5CA79"/>
<path opacity="0.1" d="M753.008 348.766C754.002 350.806 755.173 352.644 755.9 354.83C756.06 355.319 758.128 354.638 757.994 354.234C757.269 352.049 756.101 350.209 755.103 348.169C754.849 347.65 752.856 348.463 753.008 348.766Z" fill="#A5CA79"/>
<path opacity="0.1" d="M777.001 415.92C777.004 419.772 776.895 423.75 778.258 427.47C778.635 428.501 781.336 427.881 780.965 426.865C779.646 423.268 779.743 419.463 779.743 415.737C779.743 414.561 777.001 414.919 777.001 415.92Z" fill="#A5CA79"/>
<path opacity="0.1" d="M848.418 398.393C850.361 395.382 852.057 392.209 853.985 389.187C854.205 388.842 851.991 388.97 851.582 389.608C849.652 392.628 847.958 395.801 846.015 398.818C845.794 399.156 848.008 399.028 848.418 398.393Z" fill="#A5CA79"/>
<path opacity="0.1" d="M848.917 442.648C847.957 446.044 846.98 449.435 846.004 452.827C845.894 453.195 847.914 452.948 848.083 452.356C849.059 448.967 850.041 445.576 850.996 442.177C851.103 441.801 849.082 442.056 848.917 442.648Z" fill="#A5CA79"/>
<path opacity="0.1" d="M851.163 519.135C833.45 526.864 813.353 524.797 794.946 530.141C793.4 530.59 793.882 532.38 795.436 531.927C814.093 526.509 834.318 528.529 852.303 520.678C853.871 519.993 852.486 518.553 851.163 519.135Z" fill="#A5CA79"/>
<path opacity="0.1" d="M744.849 495.743C743.524 494.44 742.401 493.084 741.535 491.436C741.036 490.49 738.615 491.257 739.053 492.094C739.988 493.874 741.128 495.356 742.562 496.763C743.264 497.451 745.613 496.494 744.849 495.743Z" fill="#A5CA79"/>
<path opacity="0.1" d="M1268.99 555.287C1264.62 558.684 1259.83 561.423 1255.44 564.809C1254.09 565.856 1256.17 566.357 1257.01 565.714C1261.39 562.325 1266.18 559.587 1270.56 556.19C1271.91 555.143 1269.83 554.643 1268.99 555.287Z" fill="#A5CA79"/>
<path opacity="0.1" d="M1213.31 475.464C1216.29 471.36 1217.74 466.41 1216.62 461.411C1216.43 460.562 1214.07 461.156 1214.27 462.038C1215.33 466.806 1213.96 471.464 1211.11 475.379C1210.46 476.276 1212.84 476.108 1213.31 475.464Z" fill="#A5CA79"/>
<path opacity="0.1" d="M1184.26 398.358C1189.63 387.158 1187.67 374.46 1187.56 362.386C1187.55 361.613 1185.2 362.089 1185.21 363.045C1185.33 374.83 1187.33 387.359 1182.07 398.305C1181.56 399.361 1183.91 399.078 1184.26 398.358Z" fill="#A5CA79"/>
<path opacity="0.1" d="M1237.23 335.161C1243.6 338.329 1248.62 342.983 1253.65 347.825C1254.22 348.374 1256.5 347.509 1255.9 346.932C1250.78 342.002 1245.63 337.291 1239.16 334.068C1238.51 333.74 1236.28 334.683 1237.23 335.161Z" fill="#A5CA79"/>
<path opacity="0.1" d="M1246.7 263.833C1251.4 261.351 1254.87 257.532 1255 251.829C1255.03 250.529 1252.61 250.887 1252.59 252.013C1252.47 256.95 1249.75 260.189 1245.64 262.362C1244.19 263.126 1245.49 264.472 1246.7 263.833Z" fill="#A5CA79"/>
<path opacity="0.1" d="M1228.09 192.97C1228.16 187.817 1229.15 182.8 1229.99 177.777C1230.19 176.548 1228.07 176.896 1227.89 177.994C1227.06 183.02 1226.07 188.034 1226 193.19C1225.99 194.495 1228.08 194.077 1228.09 192.97Z" fill="#A5CA79"/>
<path opacity="0.1" d="M1226.93 225C1228.24 225 1230.17 223 1228.07 223C1226.77 222.999 1224.83 225 1226.93 225Z" fill="#A5CA79"/>
<path opacity="0.1" d="M1186.53 266.9C1186.39 274.051 1184.36 280.698 1182.03 287.424C1181.7 288.365 1184.19 288.061 1184.5 287.175C1186.83 280.448 1188.86 273.801 1189 266.651C1189.02 265.546 1186.55 265.996 1186.53 266.9Z" fill="#A5CA79"/>
<path opacity="0.1" d="M1208 351.981C1208 352.74 1208 353.497 1208 354.255C1208 355.486 1210 355.039 1210 354.017C1210 353.26 1210 352.504 1210 351.745C1210 350.514 1208 350.961 1208 351.981Z" fill="#A5CA79"/>
<path opacity="0.1" d="M1229.11 412.529C1240.76 433.854 1263.02 446.321 1281.76 460.796C1282.67 461.498 1284.82 460.233 1283.67 459.344C1265.06 444.964 1242.95 432.599 1231.38 411.427C1230.83 410.42 1228.47 411.361 1229.11 412.529Z" fill="#A5CA79"/>
<path opacity="0.1" d="M1209.45 468C1210.06 468 1210.26 466 1209.54 466C1208.94 466 1208.74 468 1209.45 468Z" fill="#A5CA79"/>
<path opacity="0.1" d="M1153.62 522C1154.52 522 1155.77 520 1154.38 520C1153.48 520 1152.23 522 1153.62 522Z" fill="#A5CA79"/>
<path opacity="0.1" d="M1175.57 563C1176.27 563 1177.85 562 1176.43 562C1175.73 562 1174.16 563 1175.57 563Z" fill="#A5CA79"/>
<path opacity="0.1" d="M1226.95 521C1228.33 521 1230.14 519 1228.05 519C1226.67 519 1224.87 521 1226.95 521Z" fill="#A5CA79"/>
<path opacity="0.1" d="M822.017 590.056C824.913 577.98 820.807 567.127 817.495 555.576C817.172 554.462 814.713 555.119 815.028 556.225C818.284 567.578 822.376 578.34 819.517 590.245C819.238 591.422 821.761 591.117 822.017 590.056Z" fill="#A5CA79"/>
<path opacity="0.1" d="M728.552 525C729.175 525 730.867 523 729.448 523C728.825 523.001 727.133 525 728.552 525Z" fill="#A5CA79"/>
<path opacity="0.1" d="M671.384 499.953C671.381 509.502 671.141 518.907 669.017 528.284C668.763 529.42 671.404 529.094 671.636 528.077C673.754 518.7 673.997 509.291 674 499.746C674 498.538 671.387 498.937 671.384 499.953Z" fill="#A5CA79"/>
<path opacity="0.1" d="M807.014 463.197C808.027 468.278 808.878 473.41 809.888 478.496C810.093 479.517 812.192 478.835 811.986 477.799C810.973 472.715 810.124 467.586 809.109 462.503C808.906 461.485 806.808 462.164 807.014 463.197Z" fill="#A5CA79"/>
<path opacity="0.1" d="M726.316 473C726.795 473 728.756 472 727.684 472C727.207 472 725.244 473 726.316 473Z" fill="#A5CA79"/>
<path opacity="0.1" d="M744.003 393.829C745.278 400.821 747.314 407.714 747.475 414.85C747.486 415.223 750.019 414.861 750 414.198C749.841 407.061 747.805 400.17 746.528 393.179C746.443 392.706 743.897 393.256 744.003 393.829Z" fill="#A5CA79"/>
<path opacity="0.1" d="M610.011 226.902C612.111 233.37 612.389 240.102 613.477 246.758C613.575 247.332 616.108 246.792 615.996 246.104C614.908 239.451 614.631 232.721 612.528 226.252C612.32 225.617 609.817 226.312 610.011 226.902Z" fill="#A5CA79"/>
<path opacity="0.1" d="M735.56 190C736.212 190 737.86 189 736.438 189C735.789 189 734.141 190 735.56 190Z" fill="#A5CA79"/>
<path opacity="0.1" d="M500.473 568.21C501.538 561.262 505.127 555.246 508.922 549.485C509.465 548.663 507.011 549.017 506.642 549.578C502.785 555.427 499.088 561.539 498.004 568.596C497.881 569.374 500.365 568.909 500.473 568.21Z" fill="#A5CA79"/>
<path opacity="0.1" d="M503.893 518C505.072 518 507.221 516 505.106 516C503.928 516 501.779 518 503.893 518Z" fill="#A5CA79"/>
<path opacity="0.1" d="M542.014 527.09C543.697 533.875 544.735 540.795 546.421 547.58C546.64 548.465 549.214 547.81 548.986 546.912C547.3 540.124 546.265 533.207 544.579 526.416C544.363 525.537 541.787 526.189 542.014 527.09Z" fill="#A5CA79"/>
<path opacity="0.1" d="M429.483 535.399C426.667 538.019 423.985 540.666 422.119 543.976C421.411 545.237 424.073 545.317 424.642 544.307C426.41 541.171 429.029 538.667 431.692 536.192C432.87 535.095 430.352 534.587 429.483 535.399Z" fill="#A5CA79"/>
<path opacity="0.1" d="M507.028 448.067C507.986 450.742 509.91 452.807 511.78 454.788C512.384 455.42 514.527 454.504 513.879 453.817C512.093 451.936 510.201 449.966 509.289 447.421C508.967 446.519 506.725 447.223 507.028 448.067Z" fill="#A5CA79"/>
<path opacity="0.1" d="M598.642 432.316C603.257 424.331 607.151 416.057 613.885 409.428C614.572 408.746 611.981 408.968 611.464 409.476C604.633 416.205 600.711 424.585 596.028 432.686C595.708 433.239 598.23 433.028 598.642 432.316Z" fill="#A5CA79"/>
<path opacity="0.1" d="M642.355 354C644.16 354 644.788 352 642.645 352C640.84 352 640.212 354 642.355 354Z" fill="#A5CA79"/>
<path opacity="0.1" d="M592.827 360.274C589.646 362.616 586.192 364.43 582.681 366.196C581.14 366.968 582.515 368.5 583.838 367.838C587.543 365.975 591.177 364.034 594.53 361.562C595.919 360.539 593.891 359.489 592.827 360.274Z" fill="#A5CA79"/>
<path opacity="0.1" d="M543.15 310.726C546.736 308.11 549.952 305.068 553.541 302.452C554.908 301.457 552.883 300.521 551.85 301.273C548.263 303.889 545.047 306.93 541.458 309.547C540.092 310.543 542.118 311.48 543.15 310.726Z" fill="#A5CA79"/>
<path opacity="0.1" d="M432 283.033C431.874 278.548 430.213 274.425 428.545 270.312C428.236 269.558 425.758 270.327 426.019 270.979C427.694 275.092 429.35 279.216 429.475 283.703C429.493 284.335 432.022 283.886 432 283.033Z" fill="#A5CA79"/>
<path opacity="0.1" d="M564.695 262.072C564.845 258.145 567.684 255.099 571.28 253.338C572.92 252.532 571.414 251.589 570.185 252.191C565.989 254.248 562.181 257.654 562.001 262.357C561.957 263.472 564.657 262.979 564.695 262.072Z" fill="#A5CA79"/>
<path opacity="0.1" d="M650.064 222.085C651.012 223.727 651.05 225.511 651.053 227.284C651.059 228.439 654.003 228.066 654 227.091C653.997 225.196 653.994 223.234 652.979 221.478C652.416 220.507 649.538 221.171 650.064 222.085Z" fill="#A5CA79"/>
<path opacity="0.1" d="M613.046 26.1152C616.209 32.6381 618.043 39.7405 620.607 46.5403C620.977 47.5226 623.306 46.7591 622.966 45.8521C620.405 39.0523 618.566 31.947 615.408 25.427C614.946 24.4781 612.648 25.2914 613.046 26.1152Z" fill="#A5CA79"/>
<path opacity="0.1" d="M535.465 103C536.166 103 539.13 102 537.535 102C536.831 102 533.87 103 535.465 103Z" fill="#A5CA79"/>
<path opacity="0.1" d="M423 22.1005C423 23.7792 423 25.4602 423 27.1412C423 28.5376 426 28.0673 426 26.8988C426 25.2201 426 23.5391 426 21.8581C426.001 20.464 423 20.9313 423 22.1005Z" fill="#A5CA79"/>
<path opacity="0.1" d="M433.91 128C435.121 128 435.515 126 434.09 126C432.878 125.999 432.486 128 433.91 128Z" fill="#A5CA79"/>
<path opacity="0.1" d="M428.117 144.165C433.393 149.257 438.705 154.306 444.507 158.839C445.203 159.385 447.565 158.41 446.875 157.87C441.078 153.342 435.766 148.29 430.488 143.199C429.861 142.589 427.444 143.518 428.117 144.165Z" fill="#A5CA79"/>
<path opacity="0.1" d="M561.898 159C563.088 159 563.538 157 562.104 157C560.911 157.001 560.462 159 561.898 159Z" fill="#A5CA79"/>
<path opacity="0.1" d="M598.007 157.303C598.69 162.754 600.34 168.011 601.464 173.379C601.712 174.56 604.236 173.901 603.982 172.699C602.861 167.335 601.206 162.078 600.527 156.623C600.38 155.45 597.854 156.079 598.007 157.303Z" fill="#A5CA79"/>
<path opacity="0.1" d="M638.595 151.214C638.466 141.667 646.944 134.161 653.929 128.218C654.44 127.786 652.034 128.068 651.591 128.444C644.468 134.508 635.873 142.146 636.001 151.869C636.005 152.205 638.607 151.861 638.595 151.214Z" fill="#A5CA79"/>
<path opacity="0.1" d="M659.767 249.001C658.791 249.03 658.142 249.389 657.439 250.096C656.066 251.491 658.255 252.661 659.328 251.572C659.773 251.145 659.85 251.061 659.552 251.313C661.189 251.268 661.671 248.949 659.767 249.001Z" fill="#A5CA79"/>
<path opacity="0.1" d="M587.691 281.689C588.759 281.692 589.708 281.747 590.703 281.974C591.362 282.127 593.72 281.57 592.783 281.356C591.462 281.055 590.16 281.003 588.745 281C587.916 280.998 585.964 281.685 587.691 281.689Z" fill="#A5CA79"/>
<path opacity="0.1" d="M528.551 245.837C530.761 244.712 532.939 243.561 534.752 241.82C535.74 240.865 533.493 240.79 532.902 241.358C531.359 242.842 529.499 243.813 527.621 244.769C526.21 245.489 527.501 246.369 528.551 245.837Z" fill="#A5CA79"/>
<path opacity="0.1" d="M507.006 278.846C508.849 284.686 511.926 289.931 515.517 294.836C515.932 295.401 518.126 294.338 517.994 294.159C514.403 289.256 511.328 284.009 509.483 278.169C509.323 277.667 506.864 278.401 507.006 278.846Z" fill="#A5CA79"/>
<path opacity="0.1" d="M451.218 307.342C452.207 305.559 453.341 304.133 454.767 302.903C455.167 302.557 455.017 302.105 454.582 302.023C454.013 301.919 453.413 302.177 452.949 302.573C451.408 303.9 450.159 305.465 449.084 307.385C448.535 308.376 450.835 308.026 451.218 307.342Z" fill="#A5CA79"/>
<path opacity="0.1" d="M419.014 321.918C421.729 328.26 422.908 334.918 423.534 341.768C423.582 342.31 426.066 341.827 425.999 341.099C425.375 334.249 424.195 327.591 421.479 321.246C421.197 320.588 418.793 321.403 419.014 321.918Z" fill="#A5CA79"/>
<path opacity="0.1" d="M514.094 374.099C517.46 376.719 520.755 378.861 525.185 379C526.065 379.022 528.072 377.769 526.278 377.713C522.445 377.597 519.466 375.378 516.582 373.142C515.925 372.627 513.496 373.644 514.094 374.099Z" fill="#A5CA79"/>
<path opacity="0.1" d="M574.91 371C576.113 371 576.521 369 575.09 369C573.888 369 573.478 371 574.91 371Z" fill="#A5CA79"/>
<path opacity="0.1" d="M639.066 414.17C642.598 421.239 647.015 427.895 649.444 435.423C649.804 436.537 652.322 435.882 651.965 434.78C649.528 427.241 645.12 420.607 641.585 413.527C641.06 412.47 638.565 413.169 639.066 414.17Z" fill="#A5CA79"/>
<path opacity="0.1" d="M407.091 405.488C410.95 413.111 414.861 420.677 419.674 427.659C420.281 428.533 422.568 427.568 421.868 426.558C417.052 419.575 413.144 412.013 409.288 404.39C408.811 403.452 406.518 404.359 407.091 405.488Z" fill="#A5CA79"/>
<path opacity="0.1" d="M420.001 455.979C420.059 457.267 420.317 458.475 420.373 459.763C420.398 460.324 422.035 459.813 421.999 459.018C421.941 457.733 421.683 456.522 421.627 455.239C421.603 454.675 419.965 455.184 420.001 455.979Z" fill="#A5CA79"/>
<path opacity="0.1" d="M459.582 509C460.316 509 461.832 508 460.418 508C459.684 508 458.167 509 459.582 509Z" fill="#A5CA79"/>
<path opacity="0.1" d="M454.744 481.829C465.036 476.614 472.723 468.648 476.932 457.967C477.44 456.68 474.954 456.759 474.577 457.722C470.588 467.849 463.455 475.501 453.663 480.46C452.159 481.228 453.516 482.452 454.744 481.829Z" fill="#A5CA79"/>
<path opacity="0.1" d="M587.541 491.882C587.541 494.501 587.477 497.076 587.004 499.66C586.882 500.334 589.317 499.904 589.437 499.252C589.923 496.585 589.995 493.92 590 491.218C590 490.729 587.541 491.111 587.541 491.882Z" fill="#A5CA79"/>
<path opacity="0.1" d="M611.207 512.541C614.764 508.218 616.897 502.581 622.312 500.385C623.862 499.755 622.47 498.639 621.299 499.115C615.367 501.525 613.119 507.224 609.232 511.953C608.267 513.125 610.583 513.301 611.207 512.541Z" fill="#A5CA79"/>
<path opacity="0.1" d="M652.949 479.02C652.949 483.79 652.901 488.55 652.018 493.223C651.788 494.433 653.861 494.123 654.069 493.029C654.952 488.358 654.998 483.598 655 478.823C655 477.515 652.949 477.906 652.949 479.02Z" fill="#A5CA79"/>
<path opacity="0.1" d="M722.899 564C724.084 564 724.542 562 723.102 562C721.917 562 721.457 564 722.899 564Z" fill="#A5CA79"/>
<path opacity="0.1" d="M759.031 537.116C760.765 541.288 762.751 545.229 765.533 548.752C766.086 549.455 768.535 548.52 767.894 547.717C765.192 544.292 763.264 540.462 761.577 536.409C761.197 535.484 758.693 536.307 759.031 537.116Z" fill="#A5CA79"/>
<path opacity="0.1" d="M705.871 459C706.954 459 709.254 458 707.131 458C706.048 458 703.744 459 705.871 459Z" fill="#A5CA79"/>
<path opacity="0.1" d="M666.37 474C668.194 474 668.764 472 666.628 472C664.805 472 664.238 474 666.37 474Z" fill="#A5CA79"/>
<path opacity="0.1" d="M688.202 401.926C692.816 400.742 697.258 399.011 700.766 395.683C701.734 394.763 699.422 394.89 698.911 395.374C695.805 398.319 692 399.812 687.917 400.861C686.516 401.221 686.807 402.289 688.202 401.926Z" fill="#A5CA79"/>
<path opacity="0.1" d="M688 340.938C688.118 345.56 691.594 348.408 696.698 347.952C698.113 347.824 698.638 346.105 696.917 346.258C692.991 346.61 690.651 344.217 690.561 340.77C690.53 339.557 687.973 339.903 688 340.938Z" fill="#A5CA79"/>
<path opacity="0.1" d="M716.307 306C716.768 306 718.753 305 717.692 305C717.236 305 715.247 306 716.307 306Z" fill="#A5CA79"/>
<path opacity="0.1" d="M921.675 64.7907C921.096 66.5165 920.244 68.0099 919.114 69.3393C918.722 69.8006 919.444 70.0028 919.712 70C920.269 69.9942 920.861 69.7725 921.246 69.3141C922.455 67.8941 923.362 66.2639 923.981 64.4222C924.229 63.6751 921.945 63.9954 921.675 64.7907Z" fill="#A5CA79"/>
<path opacity="0.1" d="M745.699 37.3747C735.809 43.7591 728.908 53.2744 720.061 60.8065C719.601 61.203 721.881 60.9232 722.303 60.5658C731.148 53.0344 738.048 43.5184 747.939 37.1367C748.396 36.841 746.17 37.0737 745.699 37.3747Z" fill="#A5CA79"/>
<path opacity="0.1" d="M698.559 85.82C698.076 90.8247 698.003 95.8324 698 100.863C698 101.215 700.44 100.857 700.44 100.15C700.44 95.1226 700.514 90.1149 701 85.1072C701.026 84.8413 698.631 85.0669 698.559 85.82Z" fill="#A5CA79"/>
<path opacity="0.1" d="M732.55 149.669C730.869 153.117 730.722 156.79 731.322 160.509C731.481 161.476 733.998 160.885 733.833 159.86C733.279 156.439 733.369 153.007 734.918 149.828C735.484 148.668 732.957 148.833 732.55 149.669Z" fill="#A5CA79"/>
<path opacity="0.1" d="M799 135.947C799.05 138.838 799.626 141.653 800.254 144.483C800.478 145.499 803.217 144.876 802.986 143.829C802.39 141.141 801.797 138.456 801.753 135.71C801.729 134.525 798.985 134.976 799 135.947Z" fill="#A5CA79"/>
<path opacity="0.1" d="M799.048 88.8575C800.863 89.8753 802.666 90.8974 804.475 91.9171C805.112 92.2756 807.356 91.3694 806.952 91.1418C805.143 90.1221 803.337 89.0994 801.525 88.0822C800.883 87.7255 798.644 88.6317 799.048 88.8575Z" fill="#A5CA79"/>
<path opacity="0.1" d="M831.639 126.903C831.596 129 830.933 130.827 830.023 132.689C829.748 133.242 832.032 133.016 832.363 132.339C833.329 130.372 833.952 128.471 834 126.269C834.012 125.704 831.657 126.085 831.639 126.903Z" fill="#A5CA79"/>
<path opacity="0.1" d="M838.206 169.104C853.521 177.073 871.239 176.85 887.785 180.982C888.449 181.146 890.675 180.162 889.799 179.942C873.274 175.82 855.497 176.015 840.216 168.066C839.612 167.751 837.306 168.637 838.206 169.104Z" fill="#A5CA79"/>
<path opacity="0.1" d="M787.909 172C789.117 172 789.518 169 788.091 169C786.883 169 786.482 172 787.909 172Z" fill="#A5CA79"/>
<path opacity="0.1" d="M687.008 186.956C688.942 195.59 688.183 204.991 692.712 212.742C693.124 213.446 695.244 212.534 694.977 212.081C690.45 204.329 691.206 194.931 689.275 186.294C689.118 185.607 686.849 186.247 687.008 186.956Z" fill="#A5CA79"/>
<path opacity="0.1" d="M538.559 166.904C538.084 169.044 538 171.162 538 173.355C538 174.491 540.425 173.958 540.425 173.053C540.425 170.863 540.509 168.745 540.985 166.605C541.215 165.581 538.769 165.977 538.559 166.904Z" fill="#A5CA79"/>
<path opacity="0.1" d="M527.667 218C527.35 218 527.033 218 526.716 218C526.217 218 525.656 218.183 525.222 218.496C524.885 218.741 524.94 219 525.334 219C525.651 219 525.967 219 526.284 219C526.783 219 527.344 218.817 527.776 218.504C528.116 218.26 528.061 218 527.667 218Z" fill="#A5CA79"/>
<path opacity="0.1" d="M472.602 208C473.415 208 474.804 207 473.398 207C472.585 207 471.196 208 472.602 208Z" fill="#A5CA79"/>
<path opacity="0.1" d="M427.621 241C428.504 241 429.775 240 428.379 240C427.496 240 426.225 241 427.621 241Z" fill="#A5CA79"/>
<path opacity="0.1" d="M405.312 166C405.787 166 407.755 164 406.687 164C406.214 164 404.247 166 405.312 166Z" fill="#A5CA79"/>
<path opacity="0.1" d="M434.554 120C435.178 120 436.867 119 435.446 119C434.822 119 433.133 120 434.554 120Z" fill="#A5CA79"/>
<path opacity="0.1" d="M486.143 129C486.351 129 487.371 128 486.857 128C486.649 128 485.629 129 486.143 129Z" fill="#A5CA79"/>
<path opacity="0.1" d="M485.553 32C486.184 32 487.866 31 486.446 31C485.817 31 484.136 32 485.553 32Z" fill="#A5CA79"/>
<path opacity="0.1" d="M1258.62 527C1259.49 527 1260.78 525 1259.38 525C1258.51 525 1257.22 527 1258.62 527Z" fill="#A5CA79"/>
<path opacity="0.1" d="M467.032 536.009C469.216 538.26 471.741 539.709 474.536 540.917C475.018 541.123 475.689 540.902 476.151 540.727C476.202 540.707 477.306 540.189 476.917 540.023C474.122 538.818 471.606 537.366 469.413 535.119C468.963 534.656 466.705 535.672 467.032 536.009Z" fill="#A5CA79"/>
<path opacity="0.1" d="M588.129 508.039C590.543 509.693 592.686 511.61 594.535 513.775C595.064 514.397 597.522 513.609 596.9 512.88C595.051 510.712 592.91 508.795 590.493 507.141C589.779 506.65 587.429 507.558 588.129 508.039Z" fill="#A5CA79"/>
<path opacity="0.1" d="M631.102 558.389C632.558 560.773 632.982 563.456 632.558 566.314C632.392 567.459 634.685 567.035 634.837 566.034C635.299 562.896 634.79 559.927 633.19 557.318C632.69 556.495 630.505 557.42 631.102 558.389Z" fill="#A5CA79"/>
<path opacity="0.1" d="M781.959 481.1C773.823 476.644 765.867 471.9 757.383 468.058C756.711 467.753 754.716 468.74 755.034 468.883C763.515 472.727 771.474 477.468 779.61 481.925C780.247 482.276 782.315 481.297 781.959 481.1Z" fill="#A5CA79"/>
<path opacity="0.1" d="M844.761 488.806C850.038 486.006 851.623 480.319 854.864 475.792C855.621 474.733 853.002 474.805 852.433 475.601C849.666 479.466 848.168 485.131 843.676 487.513C842.136 488.332 843.543 489.456 844.761 488.806Z" fill="#A5CA79"/>
<path opacity="0.1" d="M881.586 431C882.33 431 883.829 430 882.414 430C881.669 430 880.171 431 881.586 431Z" fill="#A5CA79"/>
<path opacity="0.1" d="M912.588 397C913.342 397 914.826 396 913.412 396C912.658 396 911.174 397 912.588 397Z" fill="#A5CA79"/>
<path opacity="0.1" d="M874.301 394C874.752 394 876.748 392 875.699 392C875.249 392 873.251 394 874.301 394Z" fill="#A5CA79"/>
<path opacity="0.1" d="M889.84 323C890.808 323 893.29 322 891.162 322C890.193 322 887.708 323 889.84 323Z" fill="#A5CA79"/>
<path opacity="0.1" d="M845.851 328C846.877 328 849.275 327 847.147 327C846.125 327 843.727 328 845.851 328Z" fill="#A5CA79"/>
<path opacity="0.1" d="M818.001 336.102C818.568 346.009 819.262 355.854 821.465 365.553C821.673 366.475 824.2 365.831 823.987 364.888C821.781 355.186 821.09 345.335 820.523 335.437C820.471 334.569 817.944 335.1 818.001 336.102Z" fill="#A5CA79"/>
<path opacity="0.1" d="M814.582 401C815.304 401 816.836 399 815.42 399C814.693 398.999 813.164 401 814.582 401Z" fill="#A5CA79"/>
<path opacity="0.1" d="M749.841 373C750.826 373 753.286 371 751.159 371C750.174 370.999 747.714 373 749.841 373Z" fill="#A5CA79"/>
<path opacity="0.1" d="M630.863 353C631.93 353 634.26 352 632.137 352C631.07 352 628.74 353 630.863 353Z" fill="#A5CA79"/>
<path opacity="0.1" d="M645.554 310C646.182 310 647.866 309 646.446 309C645.817 309 644.134 310 645.554 310Z" fill="#A5CA79"/>
<path opacity="0.1" d="M629.354 270C631.154 270 631.793 268 629.644 268C627.847 268 627.208 270 629.354 270Z" fill="#A5CA79"/>
<path opacity="0.1" d="M780.511 202.744C793.6 207.194 806.79 210.945 820.35 212.989C821.43 213.153 822.918 211.43 821.254 211.178C807.88 209.157 794.89 205.429 781.974 201.042C781.06 200.73 779.063 202.253 780.511 202.744Z" fill="#A5CA79"/>
<path opacity="0.1" d="M683.874 158C684.981 158 687.245 156 685.128 156C684.018 156 681.754 158 683.874 158Z" fill="#A5CA79"/>
<path opacity="0.1" d="M762.216 351.658C759.914 347.925 758.071 343.904 756.738 339.723C753.156 328.491 753.356 316.313 755.796 304.838C758.244 293.361 762.864 282.492 768.013 272C784.945 281.917 798.382 304.405 802.535 323.698C806.694 342.999 801.793 360.114 790.418 376C790.418 376 768.301 361.514 762.216 351.658Z" fill="#98BF13"/>
<path opacity="0.1" d="M468.065 295.922C467.298 296.445 473.549 311.483 474.039 312.819C477.192 321.296 480.639 329.039 488.768 333.7C490.958 334.954 493.306 335.89 495.728 336.433C505.793 338.686 516.396 334.071 521.65 325.307C525.819 318.362 525.644 310.109 523.581 302.199C521.671 294.861 518.973 286.879 515.742 280C499.849 285.303 483.963 290.607 468.065 295.922Z" fill="#98BF13"/>
<path opacity="0.1" d="M508.709 380.347C506.198 378.263 503.466 376.311 500.304 375.494C497.367 374.734 494.266 375.007 491.237 375.288C484.827 375.885 478.41 376.482 472 377.077C472.874 380.239 473.762 383.435 475.308 386.327C479.026 393.272 486.682 397.919 494.537 397.999C502.401 398.079 510.15 393.59 514 386.724C514 386.724 510.824 382.112 508.709 380.347Z" fill="#98BF13"/>
<path opacity="0.1" d="M540 380.343C540.057 376.496 540.832 372.664 542.268 369.113C543.306 366.572 544.746 364.082 546.997 362.591C547.966 361.944 549.053 361.509 550.146 361.139C554.529 359.664 559.388 359.097 562.967 356.116C564.017 355.243 564.909 354.181 565.614 353C567.068 356.035 567.968 359.379 567.999 362.763C568.033 366.151 567.172 369.569 565.36 372.39C563.143 375.844 559.644 378.232 555.95 379.868C551.877 381.678 547.268 382.669 542.986 381.485C541.895 381.184 540 380.343 540 380.343Z" fill="#98BF13"/>
<path opacity="0.1" d="M1155.15 87.9606C1155.15 87.9606 1158.84 84.7804 1162.59 86.5833C1166.25 88.3411 1165.91 91.3911 1165.33 94.3532C1167.32 94.3027 1169.53 94.345 1170.88 95.8663C1172.4 97.5737 1172.17 100.445 1171.37 102.773C1170 106.79 1167.18 110.25 1163.68 112.205C1165.8 113.18 1166.77 116.123 1166.1 118.626C1165.45 121.128 1163.44 123.093 1161.21 123.985C1158.98 124.881 1156.55 124.817 1154.27 124.324C1155.6 125.805 1155.72 128.356 1154.71 130.237C1153.71 132.117 1151.75 133.289 1149.8 133.406C1147.86 133.523 1145.97 132.666 1144.55 131.296C1144.39 132.818 1144.2 134.418 1143.38 135.688C1141.91 137.939 1138.99 138.333 1136.61 137.771C1135.26 137.454 1133.95 136.887 1132.96 135.875C1131.98 134.866 1131.35 133.36 1131.53 131.843C1131.53 131.843 1121.1 124.31 1128.9 115.435C1128.9 115.435 1125.85 104.711 1136.07 103.531C1136.07 103.531 1133.46 93.6011 1142.55 91.9312C1142.55 91.9325 1147.35 81.864 1155.15 87.9606Z" fill="#98BF13"/>
<path opacity="0.1" d="M1085.91 130.152C1081.25 134.332 1073.1 134.72 1070.82 134.926C1067.19 135.254 1062.85 134.535 1060.19 131.986C1057.52 129.434 1057.08 124.489 1059.84 122.051C1056.42 123.572 1052.43 123.991 1048.94 122.647C1045.44 121.303 1042.58 118.031 1042.18 114.224C1041.79 110.42 1044.28 105.459 1047.9 104.576C1045.4 103.812 1042.89 103.831 1040.47 102.834C1038.16 101.891 1035.79 100.745 1034.4 98.648C1033.35 97.0792 1032.98 95.1205 1033 93.2187C1033.07 88.4372 1036.25 83.4378 1040.88 82.8448C1038.95 80.4201 1037.99 77.1443 1038.54 74.0641C1039.09 70.984 1041.21 68.1902 1044.08 67.1097C1046.94 66.0291 1050.46 66.8169 1052.45 69.1848C1055.2 66.1532 1059.41 64.3811 1063.35 65.1995C1067.31 66.0179 1070.69 69.732 1070.64 73.8665C1071.16 72.4065 1093.38 69.4123 1085.52 90.9729C1090.93 92.9801 1094.86 98.5967 1094.98 104.489C1095.1 110.38 1094.86 122.124 1085.91 130.152Z" fill="#98BF13"/>
<path opacity="0.1" d="M1080.33 43.3394C1081.05 40.1865 1082.75 37.2772 1085.26 35.2146C1086.34 34.3209 1087.57 33.5527 1088.93 33.2044C1091.57 32.5335 1094.46 33.5741 1096.43 35.4482C1098.4 37.3249 1099.53 39.9275 1100.1 42.5745C1100.95 41.0467 1101.88 39.4344 1103.42 38.5883C1104.53 37.9804 1105.83 37.8335 1107.09 37.8281C1111.11 37.8147 1115.36 39.3197 1117.64 42.6195C1119.91 45.914 1119.43 51.1167 1116.01 53.2188C1116.65 54.1018 1117.83 54.3796 1118.89 54.6869C1121.98 55.5779 1124.91 57.3211 1126.62 60.0104C1128.33 62.6996 1128.57 66.4269 1126.68 69.0001C1124.8 71.5739 1120.65 72.3837 1118.24 70.287C1118.51 74.8268 1115.4 79.3424 1111.09 80.7971C1111.09 80.7971 1103.39 82.3383 1102.35 76.9262C1102.35 76.9262 1106.68 64.1724 1099.52 57.615C1092.33 51.0549 1081.6 52.1238 1081.6 52.1238C1081.6 52.1238 1079.12 48.6649 1080.33 43.3394Z" fill="#98BF13"/>
<path opacity="0.1" d="M990.126 282.763C997.353 279.121 1004.84 289.42 1011.41 294.553C1013.74 296.373 1016.23 298.851 1016.25 302.194C1016.28 307.108 1011.04 309.996 1010.47 314.862C1009.86 320.204 1014.84 323.595 1017.95 327.46C1023.47 334.29 1023.32 346.548 1017.64 353.192C1016.17 354.92 1014.35 356.345 1013.4 358.534C1010.31 365.53 1017.71 373.027 1017.72 380.946C1017.72 385.74 1014.89 390.007 1011.43 392.375C1007.98 394.752 1003.96 395.587 1000.03 396.385C992.754 397.868 985.469 399.348 978.184 400.827C971.723 402.144 964.139 404.54 961.96 411.977C959.55 420.199 968.315 432.131 975.038 435.385C977.508 436.584 992.218 440.152 995.581 449.19C996.307 451.152 994.035 461.796 996.381 464.208C1007.95 476.054 1002.41 486.912 1001.14 491.786C996.111 511.062 992.624 530.921 990.757 551C990.757 551 948.366 538.538 926.61 463.809C904.851 389.078 939.601 308.217 990.126 282.763Z" fill="#98BF13"/>
<path opacity="0.1" d="M1188.07 300.194C1180.16 294.541 1171.58 310.627 1162.35 313.703C1155.86 315.863 1148.93 317.381 1143.51 321.521C1138.09 325.658 1134.74 333.546 1138.27 339.352C1139.54 341.442 1141.63 343.25 1141.75 345.682C1141.83 347.119 1141.17 348.485 1140.47 349.739C1136.94 355.947 1131.61 361.126 1125.27 364.497C1123.5 365.437 1121.6 366.283 1120.25 367.781C1116.84 371.61 1118.6 377.48 1119.54 382.507C1119.74 383.607 1119.9 384.774 1119.5 385.818C1118.81 387.613 1116.8 388.449 1115.18 389.519C1110.92 392.359 1108.91 397.738 1109 402.834C1109.09 407.931 1110.98 412.818 1113.1 417.458C1114.53 420.579 1116.14 423.735 1118.75 425.992C1125.35 431.698 1135.33 429.753 1144.06 429.075C1145.26 428.984 1146.5 428.928 1147.6 429.378C1149.7 430.239 1150.69 432.66 1150.86 434.901C1151.02 437.135 1150.59 439.394 1150.87 441.623C1151.75 448.691 1159.07 452.922 1165.63 455.839C1168.26 457.01 1170.99 458.165 1173.87 458.152C1180.7 458.119 1186.04 451.66 1192.84 451.084C1200.22 450.459 1206.11 456.756 1210.74 462.489C1215.36 468.22 1221.22 474.533 1228.61 473.964C1228.61 473.964 1256.73 430.948 1245.24 385.088C1233.74 339.223 1219.2 322.464 1188.07 300.194Z" fill="#98BF13"/>
<path opacity="0.1" d="M1523.06 573.086C1521.41 573.434 1520.15 574.806 1518.77 577.164C1507.26 596.87 1506.93 622.733 1518.66 642.412C1528.4 658.765 1548.23 672.671 1567.89 672.991C1586.64 673.298 1605.54 665.531 1618.27 651.798C1622.11 647.656 1625.13 642.89 1627.61 637.849C1628.38 636.284 1631.3 631.844 1630.98 630.156C1630.58 628.052 1626.93 627.003 1624.95 625.943C1606.56 616.108 1588.2 606.231 1569.81 596.413C1560.34 591.361 1550.88 586.322 1541.39 581.313C1536.7 578.827 1532.02 575.959 1527.15 573.82C1525.49 573.095 1524.18 572.852 1523.06 573.086Z" fill="#98BF13"/>
<path opacity="0.1" d="M824.771 205.033C814.967 202.994 802.363 203.889 793.353 208.471C786.602 211.91 781.235 215.778 775.627 220.879C771.902 224.275 763.525 239.14 756.346 234.785C737.864 223.581 718.717 217.285 697.653 227.082C677.493 236.457 663.573 253.589 659.091 275.425C653.633 302.034 669.422 323.561 689.202 339.165C716.224 360.469 751.632 376.417 782.869 390.568C786.498 392.217 789.583 393.082 792.437 392.733C792.458 392.746 792.482 392.76 792.501 392.773C793.115 393.117 794.102 393.103 794.583 392.504C794.695 392.362 794.797 392.217 794.907 392.077C796.502 391.419 798.063 390.347 799.624 388.641C813.704 373.274 827.044 356.995 840.645 341.184C861.947 316.426 883.593 291.176 878.149 256.573C871.466 229.526 852.072 210.712 824.771 205.033ZM754.08 359.644C749.473 352.184 746.583 344.575 745.055 336.906C758.376 343.954 771.75 350.893 785.202 357.699C785.349 357.774 785.523 357.829 785.696 357.869C787.458 367.609 789.168 377.343 790.881 387.056C790.462 387.094 790.042 387.137 789.62 387.145C776.806 379.726 763.031 371.291 754.08 359.644ZM811.49 352.999C810.867 356.259 802.782 375.995 797.279 384.865C796.287 385.507 795.269 385.996 794.229 386.353C792.415 376.094 790.61 365.809 788.742 355.524C796.61 345.418 804.322 335.197 811.923 324.888C813.564 334.155 813.275 343.613 811.49 352.999ZM787.807 350.492C785.687 338.982 783.439 327.488 780.999 316.039C782.934 314.266 784.658 311.209 785.642 310.006C790.295 304.333 794.734 298.49 799.093 292.597C803.129 299.412 806.428 306.683 809.068 314.019C809.835 316.149 810.439 318.301 810.976 320.458C807.721 324.939 795.972 344.097 787.807 350.492ZM779.917 311.006C776.245 294.265 772.046 277.665 766.997 261.338C773.54 260.701 780.9 270.001 786.513 275.817C790.527 279.975 794.06 284.59 797.195 289.481C794.63 293.107 786.615 306.56 779.917 311.006ZM763.782 262.582C768.839 278.946 773.034 295.587 776.707 312.365C775.922 312.478 775.159 312.449 774.472 312.105C765.356 307.533 756.418 302.609 747.579 297.53C750.484 287.354 754.785 277.319 759.745 267.622C761.002 265.166 762.363 263.584 763.782 262.582ZM746.649 300.927C752.955 304.532 759.289 308.056 765.706 311.446C769.021 313.195 773.759 316.942 777.771 317.302C780.249 328.941 782.52 340.629 784.672 352.327C783.723 352.65 782.868 352.682 782.147 352.314C769.494 345.912 756.919 339.34 744.4 332.691C742.972 322.121 743.993 311.46 746.649 300.927ZM838.225 338.759C830.089 348.333 821.716 357.694 813.449 367.144C810.624 370.372 807.842 373.644 805.056 376.913C815.189 358.881 819.118 339.396 813.748 317.621C807.322 291.552 788.314 267.548 764.947 254.762C764.132 254.318 763.065 254.547 762.6 255.377C744.006 288.27 729.471 326.322 751.118 361.374C758.27 370.687 768.2 378.055 778.468 384.476C775.421 383.162 772.417 381.542 769.582 379.987C728.031 357.182 650.672 333.46 663.212 272.365C667.646 250.747 685.874 234.123 706.248 227.643C716.057 224.522 726.39 225.231 736.177 227.837C743.065 229.669 753.858 240.867 760.24 240.867C763.546 240.867 765.666 239.97 767.465 237.034C776.159 222.795 788.4 212.515 804.848 208.437C837.597 200.317 867.54 227.92 874.831 257.484C880.096 290.883 858.345 315.038 838.225 338.759Z" fill="black"/>
<path opacity="0.1" d="M708.756 243.319C710.933 242.8 710.015 239.539 707.832 240.055C690.847 244.095 677.689 257.234 674.044 273.884C673.578 276.011 676.929 276.915 677.403 274.782C680.807 259.224 692.868 247.097 708.756 243.319Z" fill="black"/>
<path opacity="0.1" d="M725.618 241.005C723.455 240.865 723.466 243.88 725.618 244.017C730.267 244.312 734.536 245.89 738.067 248.614C739.708 249.874 742.09 247.753 740.446 246.484C736.208 243.211 731.206 241.359 725.618 241.005Z" fill="black"/>
<path opacity="0.1" d="M729.822 254.984C723.653 252.861 717.923 251.309 711.392 252.313C705.488 253.223 700.495 258.191 696.505 262.119C694.94 263.662 697.373 266.043 698.935 264.5C702.387 261.104 705.877 257.927 710.475 256.078C716.398 253.699 723.251 256.286 728.906 258.23C731.007 258.95 731.894 255.696 729.822 254.984Z" fill="black"/>
<path opacity="0.1" d="M694.416 274.637C695.493 272.661 692.618 270.89 691.548 272.857C686.71 281.78 686.818 292.37 691.881 301.164C693 303.098 695.867 301.329 694.744 299.386C690.285 291.645 690.151 282.504 694.416 274.637Z" fill="black"/>
<path opacity="0.1" d="M448.302 289.455C448.569 289.455 448.848 289.428 449.115 289.42C449.353 298.931 458.026 313.268 461.443 321.38C468.547 338.206 482.814 348.073 501.255 348.119C504.354 348.127 507.577 347.591 510.757 346.646C514.32 356.942 517.895 367.238 521.459 377.537C520.6 376.591 519.787 375.616 518.857 374.719C500.925 360.765 479.424 367.059 458.169 369.007C457.061 369.106 456.164 370.022 456.497 371.171C461.222 387.691 469.29 399.756 486.67 404.798C501.571 409.125 516.803 401.307 525.698 389.77C530.094 402.456 534.484 415.137 538.883 427.818C539.597 429.897 542.947 429.005 542.217 426.91C537.764 414.053 533.309 401.192 528.854 388.332C542.134 392.841 558.031 389.23 568.611 379.986C581.807 368.452 582.628 352.388 575.709 337.089C575.136 335.817 573.369 336.152 572.715 337.089C564.034 349.438 547.678 346.791 536.543 355.338C529.643 360.642 527.006 371.142 526.009 380.115C522.014 368.586 518.023 357.058 514.027 345.529C523.921 341.644 532.932 333.775 536.261 324.596C543.715 304.057 535.325 282.337 526.828 263.215C526.993 263.065 527.109 262.899 527.177 262.714C530.379 258.499 529.414 247.022 522.762 247.022C518.771 247.022 514.378 248.083 509.915 249.578C507.035 240.836 503.939 232.112 500.818 223.45C498.857 218.025 494.388 215.426 488.693 216.106C483.114 216.771 480.95 221.899 481.049 226.773C481.139 230.834 483.303 235.175 484.602 238.941C486.699 244.981 488.788 251.022 490.876 257.064C490.154 257.329 489.412 257.621 488.72 257.854C484.162 259.389 479.134 260.748 474.016 262.143C471.926 253.792 468.426 245.47 465.73 237.278C463.814 231.453 459.673 227.946 453.437 228.131C447.636 228.305 445.102 233.805 444.959 238.684C444.832 242.907 447.331 247.477 448.674 251.349C450.622 256.986 452.576 262.624 454.532 268.257C451.443 269.473 448.48 270.8 445.797 272.351C440.186 275.587 440.61 289.455 448.302 289.455ZM516.412 377.138C518.916 379.56 521.029 382.11 523.118 384.84C511.548 386.3 500.298 387.144 488.699 384.94C479.324 383.155 471.221 377.36 463.364 372.122C465.863 370.865 470.408 371.305 473.75 370.999C489.405 369.566 503.095 366.783 516.412 377.138ZM512.005 397.757C499.058 406.031 482.842 402.325 471.73 393.133C466.942 389.171 464.249 383.427 462.112 377.798C461.688 376.677 461.522 375.769 461.539 374.998C469.909 380.42 477.923 385.602 487.781 388.241C499.283 391.322 511.817 389.761 523.483 388.228C520.805 391.697 512.275 397.583 512.005 397.757ZM563.967 379.158C554.964 385.746 543.257 388.447 532.526 385.827C553.224 381.449 572.442 364.549 574.509 343.45C578.953 356.824 576.335 370.103 563.967 379.158ZM534.143 364.433C538.201 355.685 546.99 353.585 555.547 351.334C561.48 349.777 566.689 347.624 570.999 343.953C568.556 363.9 549.049 379.983 529.253 382.97C529.848 376.495 531.339 370.47 534.143 364.433ZM530.639 327.792C524.163 339.747 509.395 344.72 496.61 344.685C478.973 344.641 468.836 330.066 462.933 316.06C459.982 309.072 452.773 297.174 452.598 289.125C464.557 287.488 478.79 279.823 489.468 276.227C498.208 273.283 507.248 270.7 516.007 267.587C527.552 266.019 529.948 280.23 532.791 289.813C536.732 303.114 537.445 315.242 530.639 327.792ZM488.893 240.771C487.37 236.377 479.58 220.615 490.525 219.31C497.809 218.437 500.014 231.656 501.637 236.366C503.291 241.167 505.053 245.947 506.655 250.761C502.35 252.374 498.084 254.212 494.11 255.817C492.366 250.802 490.634 245.787 488.893 240.771ZM452.957 253.17C452.014 250.438 451.063 247.707 450.12 244.975C449.809 244.064 449.487 243.153 449.177 242.244C446.624 236.063 450.482 233.614 460.773 234.887C463.518 238.445 464.159 244.291 465.601 248.468C467.276 253.301 469.394 258.113 470.675 263.067C466.301 264.281 461.943 265.574 457.763 267.054C456.161 262.424 454.559 257.8 452.957 253.17ZM453.2 273.43C465.345 269.336 477.498 265.242 489.643 261.154C495.713 259.108 501.787 257.063 507.861 255.019C511.911 253.658 515.953 252.294 520.003 250.931C525.261 252.94 526.698 256.196 524.347 260.689C523.645 260.997 522.91 261.251 522.194 261.546C505.946 267.028 489.694 272.52 473.448 278.007C472.278 278.401 471.108 278.795 469.936 279.189C465.804 280.582 461.674 281.976 457.529 283.366C457.488 283.39 457.456 283.401 457.412 283.422C455.465 284.081 453.513 284.741 451.563 285.4C449.056 285.01 449.55 281.08 453.2 273.43Z" fill="black"/>
<path opacity="0.1" d="M511.895 291.099C501.324 294.621 490.76 298.14 480.188 301.659C478.098 302.357 478.996 305.607 481.099 304.9C491.679 301.38 502.242 297.862 512.814 294.342C514.9 293.644 514.007 290.396 511.895 291.099Z" fill="black"/>
<path opacity="0.1" d="M514.918 302.103C505.005 305.59 495.092 309.072 485.171 312.556C483.111 313.28 483.993 316.63 486.079 315.895C496 312.415 505.905 308.929 515.826 305.449C517.892 304.721 517.005 301.374 514.918 302.103Z" fill="black"/>
<path opacity="0.1" d="M517.846 313.106C507.962 316.544 498.092 319.981 488.214 323.422C486.074 324.169 487.001 327.646 489.155 326.894C499.033 323.453 508.909 320.016 518.779 316.578C520.928 315.833 520.003 312.353 517.846 313.106Z" fill="black"/>
<path opacity="0.1" d="M472.166 297.986C473.714 297.486 475.235 296.936 476.797 296.491C478.907 295.896 478.009 292.474 475.896 293.069C473.996 293.608 472.106 294.24 470.241 294.903C468.955 295.357 467.863 296.31 468.014 297.85C468.259 300.248 469.306 303.05 470.46 305.137C471.553 307.119 474.477 305.332 473.384 303.344C472.594 301.905 472.092 300.212 471.632 298.633C471.593 298.495 471.566 298.339 471.527 298.189L472.166 297.986Z" fill="black"/>
<path opacity="0.1" d="M475.744 308.892C474.95 306.879 472.355 308.628 473.149 310.63C474.75 314.676 475.646 319.056 477.254 323.108C478.048 325.121 480.645 323.372 479.851 321.368C478.247 317.321 477.352 312.947 475.744 308.892Z" fill="black"/>
<path opacity="0.1" d="M470.747 314.19C469.965 312.097 466.321 312.995 467.112 315.105C467.823 317.007 468.534 318.909 469.245 320.812C470.03 322.903 473.675 322.005 472.89 319.897C472.173 317.995 471.467 316.09 470.747 314.19Z" fill="black"/>
<path opacity="0.1" d="M466.999 293.905C471.624 292.346 476.252 290.783 480.869 289.221C482.857 288.55 482.006 285.418 480.003 286.095C475.375 287.657 470.755 289.221 466.128 290.784C464.143 291.453 464.996 294.582 466.999 293.905Z" fill="black"/>
<path opacity="0.1" d="M466.898 308.001C466.199 306.043 465.536 304.076 464.898 302.098C464.457 300.732 462.585 296.789 463.3 295.471C464.319 293.616 461.541 291.956 460.527 293.81C459.448 295.782 460.264 297.977 460.872 299.996C461.771 302.982 462.757 305.94 463.796 308.875C464.499 310.855 467.598 310.005 466.898 308.001Z" fill="black"/>
<path opacity="0.1" d="M1042.13 62.0969C1044.08 57.6785 1048.93 57.5974 1052.5 60.1246C1054.32 61.4138 1056.04 58.4095 1054.24 57.139C1049.25 53.6089 1041.84 54.2941 1039.17 60.3492C1038.27 62.3702 1041.23 64.131 1042.13 62.0969Z" fill="black"/>
<path opacity="0.1" d="M1032.16 80.1693C1024.84 83.1834 1022.09 92.746 1028.91 97.6073C1030.78 98.9335 1033.41 96.5845 1031.54 95.2449C1026.48 91.6368 1028.77 85.2243 1034.03 83.0555C1036.21 82.1573 1034.32 79.2772 1032.16 80.1693Z" fill="black"/>
<path opacity="0.1" d="M1053.48 65.7312C1045.29 62.232 1036.74 67.6847 1037.01 77.2861C1037.06 79.567 1040.51 79.5756 1040.45 77.2861C1040.26 70.2492 1046.41 65.901 1052.81 69.2752C1053.54 69.6666 1054.28 69.5445 1054.9 69.0003C1058.6 65.7454 1063.09 65.5593 1066.96 68.6593C1068.69 70.0467 1071.15 67.5547 1069.4 66.1539C1064.32 62.0934 1058.5 61.9549 1053.48 65.7312Z" fill="black"/>
<path opacity="0.1" d="M1157.18 79.743C1158.98 75.9915 1163.75 77.2991 1164.77 80.8093C1165.02 81.6974 1165.99 82.3245 1166.9 82.0341C1169.51 81.1958 1172.04 82.7875 1171.53 85.8017C1171.17 88.0072 1174.51 88.9556 1174.88 86.7305C1175.7 81.8173 1172.19 77.8301 1167.53 78.3618C1166.57 76.1585 1165.09 74.7534 1162.44 74.1859C1159.1 73.4683 1155.69 74.8488 1154.19 77.9753C1153.22 79.9956 1156.22 81.7738 1157.18 79.743Z" fill="black"/>
<path opacity="0.1" d="M1155.58 89.3766C1156.81 88.6905 1158.02 88.0901 1159.36 87.6757C1163.45 86.4166 1164.94 91.5437 1163.86 94.147C1163.25 95.5845 1164.22 97.0164 1165.79 96.72C1168.3 96.2453 1171.19 96.937 1171.53 100.05C1171.7 101.669 1169.59 103.197 1168.51 104.096C1166.81 105.528 1169.24 107.995 1170.93 106.573C1173.58 104.354 1176.31 100.914 1174.31 97.2411C1172.78 94.4103 1170.33 93.2088 1167.53 93.1266C1167.83 90.2488 1166.83 87.3794 1164.55 85.3499C1161.44 82.5767 1156.88 84.6694 1153.85 86.3513C1151.9 87.4293 1153.64 90.4545 1155.58 89.3766Z" fill="black"/>
<path opacity="0.1" d="M1085.48 37.1386C1091.68 32.9403 1096.68 36.2495 1098.98 41.8292C1099.49 43.0448 1101.35 43.534 1102.13 42.2137C1104.62 37.9601 1110.84 38.5553 1114.06 41.538C1115.63 42.9947 1118.06 40.7268 1116.49 39.2708C1112.36 35.4441 1105.18 34.8238 1101.01 38.4319C1097.39 32.5057 1090.73 29.6381 1083.75 34.3718C1081.97 35.5739 1083.69 38.3586 1085.48 37.1386Z" fill="black"/>
<path opacity="0.1" d="M1078.52 40.8258C1077.56 36.8693 1078.21 33.0033 1081.93 31.4964C1083.82 30.7302 1083 27.3423 1081.1 28.1133C1075.73 30.2881 1074.04 35.8149 1075.5 41.7593C1076.03 43.9368 1079.06 43.0083 1078.52 40.8258Z" fill="black"/>
<path opacity="0.1" d="M1142.4 596.228C1190.54 582.105 1228.02 546.738 1249.64 503.202C1268.86 467.889 1276.07 424.758 1267.31 385.875C1261.38 359.528 1251.63 333.261 1236.02 311.038C1222.75 292.137 1204.21 277.668 1185.66 264.222C1185.41 264.042 1185.16 263.959 1184.93 263.927C1184.41 263.703 1183.9 263.481 1183.39 263.325C1166.69 252.806 1148.07 244.675 1127.89 239.486C1119.33 237.286 1110.74 235.808 1102.15 234.968C1102.09 220.78 1102.02 206.592 1101.96 192.41C1101.91 180.845 1100.52 168.381 1110.31 160.22C1112.55 158.346 1114.79 156.472 1117.03 154.602C1118.08 162.292 1123.32 165.246 1132.11 166.105C1136.12 166.499 1141.45 164.7 1144.3 161.868C1145.44 160.734 1148.48 151.824 1148.88 151.984C1155.4 154.569 1167.36 150.313 1167.93 142.381C1168.07 140.467 1166.39 132.906 1167.34 132.831C1173.17 132.37 1177.43 129.445 1181.7 125.829C1187.81 120.658 1187.27 108.745 1180.24 104.647C1179.17 104.021 1186.09 94.6507 1186.48 93.5832C1189.06 86.4026 1189.84 81.1857 1187.65 73.938C1186.45 70.001 1182.76 69.1575 1179.51 68.0551C1173.14 65.89 1172.87 68.6841 1169.25 61.6234C1164.42 52.2078 1152.83 54.1776 1146.5 59.9023C1144 56.5141 1140.42 53.7248 1136.58 51.6131C1125.62 45.5993 1137.39 42.5585 1132.65 32.6153C1128.13 23.1298 1120.19 19.7978 1110.03 19.0592C1107.9 18.9036 1103.77 19.4449 1102.12 20.9434C1096.01 26.4994 1099.26 24.4042 1094.9 19.0324C1079.83 0.46291 1058.17 17.2955 1059.74 37.0634C1055.16 36.4509 1050.28 37.2217 1046.89 39.258C1038.68 44.2146 1032.76 36.4961 1024.81 40.786C1018.11 44.4016 1011.56 51.8748 1013.93 60.3189C1017.35 72.5019 1009.47 68.9534 1005.95 79.2919C1003.47 86.5931 1002.58 97.2325 1010.39 102.071C1016.09 105.596 1021.01 107.307 1027.61 108.454C1026.93 108.336 1023.36 113.475 1022.22 115.448C1013.53 130.436 1040.59 153.21 1050.29 140.529C1046.98 144.852 1049.56 154.415 1053.84 157.227C1062.98 163.255 1072.39 162.634 1080.9 156.551C1080.8 182.432 1081.38 208.31 1082.61 234.184C1039.4 234.907 997.654 251.813 964.762 279.951C964.706 280.002 964.65 280.048 964.591 280.099C963.12 281.357 961.675 282.647 960.238 283.95C959.676 284.464 959.095 284.964 958.539 285.489C950.133 293.32 942.381 301.909 935.43 311.18C910.261 344.727 899.393 384.764 901.191 424.568C901.466 437.008 902.978 449.443 905.844 461.637C916.367 506.468 949.453 563.2 996.378 580.806C1040.03 604.654 1093.13 610.684 1142.4 596.228ZM903.929 415.48C905.551 349.949 944.986 285.07 1005.78 258.399C1017.4 255.789 1027.3 266.671 1035.65 272.533C1051.24 283.488 1032.63 287.586 1033.43 295.693C1033.91 300.698 1035.29 302.884 1038.8 306.639C1045.31 313.615 1049.31 313.066 1050.33 326.662C1051.1 336.86 1043.38 341.161 1038.21 347.453C1026.73 361.408 1059.13 371.453 1035.68 388.235C1025.72 395.357 1005.55 395.244 993.715 397.233C985.694 398.582 978.178 399.92 970.807 403.4C964.137 406.547 959.203 415.641 962.261 422.812C965.057 429.353 968.701 433.049 974.413 437.077C980.907 441.662 996.586 441.295 993.375 454.918C993.266 455.244 992.337 458.791 992.643 459.647C994.684 465.41 997.145 467.318 1002.48 470.527C1009.19 474.561 1014.88 478.297 1019.72 484.632C1026.53 493.521 1020.77 506.614 1017.99 515.687C1016.15 521.696 999.869 578.741 1006.58 580.433C1003.54 579.67 1000.57 578.731 997.659 577.649C941.395 545.221 904.224 482.8 903.929 415.48ZM1132.37 451.593C1127.64 443.561 1115.55 447.827 1108.26 448.301C1095.32 449.142 1086.11 443.454 1080.25 431.469C1077.06 425.201 1075.19 418.56 1074.69 411.551C1073.4 398.688 1079.61 399.676 1086.47 391.595C1086.67 391.357 1089.5 388.842 1089.52 387.372C1089.68 375.494 1088.98 363.244 1101.21 355.942C1110.64 350.311 1117.69 341.051 1120.95 330.789C1121.57 328.846 1119.99 326.287 1118.92 324.794C1101.83 300.802 1133.61 291.405 1148.87 286.545C1159.36 283.207 1171.36 262.323 1183.09 266.876C1185.3 268.34 1187.48 269.841 1189.62 271.396C1189.92 271.624 1190.23 271.846 1190.53 272.071C1191.82 273.018 1193.07 274.011 1194.33 274.991C1195.53 275.917 1196.72 276.848 1197.9 277.785C1238.11 310.596 1264.72 360.236 1266.77 414.718C1266.78 416.567 1266.8 418.414 1266.82 420.261C1266.28 445.377 1260.86 469.237 1251.49 490.925C1250.13 493.981 1248.71 497.006 1247.24 499.974C1246.94 500.558 1246.67 501.122 1246.42 501.668C1245.08 504.291 1243.68 506.877 1242.22 509.424C1240.19 511.469 1237.33 511.183 1230.72 507.634C1218.77 501.216 1214.14 483.907 1200.43 479.861C1187.87 476.148 1180.43 483.292 1168.93 487.799C1159.49 491.506 1146.01 482.042 1139.21 476.322C1128.81 467.56 1137.38 460.117 1132.37 451.593ZM1078.05 20.9968C1073.01 22.5063 1068.83 27.2038 1068.07 32.3823C1067.76 34.5365 1071.06 35.4656 1071.38 33.2922C1072.07 28.5954 1076.23 23.9568 1081.17 23.8711C1082.03 23.8581 1082.55 23.3305 1082.74 22.6933C1086.5 24.3096 1090.78 26.6783 1095.63 29.8958C1096.05 31.3361 1097.99 31.5663 1098.77 30.3056C1111.54 9.77166 1139.05 34.5934 1125.09 47.6863C1124.22 48.5079 1124.58 49.7446 1125.44 50.3708C1126.23 51.2382 1127.16 51.872 1128.21 52.2763C1129.18 52.5922 1130.15 52.9108 1131.12 53.2239C1146.56 57.2171 1146.6 65.6776 1131.25 78.6074C1130.06 78.0024 1128.75 78.7548 1128.67 80.082C1128.22 88.6843 1124.41 94.4493 1117.3 97.4332C1115.7 93.5147 1112.97 89.8909 1108.82 86.9549C1100.19 80.85 1107.04 70.1737 1103.2 60.9773C1101.24 56.2613 1096.61 53.6384 1092.05 51.9522C1087.1 50.1187 1081.26 50.3222 1076.15 51.1924C1075.13 51.3637 1073.38 51.7357 1072.6 52.5599C1076.55 48.3338 1072.28 44.8943 1069.35 41.5862C1067.81 39.8356 1065.65 38.6475 1063.27 37.8712C1062.34 23.6279 1067.27 18.0102 1078.05 20.9968ZM1085.46 103.285C1085.55 101.079 1082.12 101.087 1082.03 103.285C1081.39 119.702 1081.03 136.117 1080.92 152.531C1080.68 152.593 1080.44 152.7 1080.21 152.888C1072 148.337 1063.79 143.791 1055.56 139.24C1056.49 138.039 1054.97 136.278 1053.63 136.73C1052.03 137.271 1050.43 137.808 1048.84 138.346C1026.06 140.268 1020.93 130.579 1033.44 109.283C1034.78 108.654 1034.42 106.464 1033.03 106.159C1030.06 105.433 1027.06 104.839 1024.04 104.382C1009.33 101.818 996.451 78.2676 1020.37 71.4399C1021.42 71.1425 1021.98 69.8845 1021.4 68.9294C1023.1 66.8869 1024.8 64.8451 1026.5 62.8005C1026.39 64.5244 1026.52 66.3847 1026.9 68.3491C1027.79 73.0219 1020.44 74.5985 1018.26 79.1165C1016.63 82.5212 1017.85 86.1745 1020.06 88.9015C1021.45 90.6199 1023.87 88.1841 1022.49 86.4849C1016.14 78.6348 1026.67 76.2498 1030.68 74.4512C1031.19 74.2182 1031.55 73.52 1031.53 72.974C1031.44 71.0123 1030.73 69.3336 1030.21 67.4391C1029.59 65.0787 1029.56 62.7074 1030.11 60.3332C1031.3 53.9769 1036.38 54.4373 1040.61 54.7662C1042.82 54.9375 1042.8 51.5199 1040.61 51.3486C1038.85 51.2122 1037.26 51.3109 1035.83 51.5815C1037.07 50.0851 1038.31 48.5949 1039.55 47.1012C1040.3 47.7192 1041.23 47.7679 1041.98 47.1012C1052.39 36.5482 1062.34 39.0265 1071.88 54.5394C1072.07 55.8241 1073.92 56.164 1074.74 55.2945C1077.29 52.5696 1086.08 54.1304 1089.08 54.695C1103.95 57.4836 1102.39 72.5177 1098.7 83.5578C1098.47 84.232 1098.83 85.1769 1099.49 85.4873C1119.5 94.8632 1120.09 118.97 1101.91 129.681C1101.91 129.046 1101.9 128.415 1101.9 127.783C1101.82 119.411 1101.74 111.041 1101.66 102.67C1101.64 100.467 1098.2 100.464 1098.22 102.67C1098.31 112.238 1098.41 121.804 1098.5 131.37C1098.55 136.506 1096.25 146.361 1100.86 150C1101.62 150.589 1102.56 150.696 1103.29 150C1114.14 139.811 1126.22 131.701 1139.73 125.481C1141.74 124.555 1140 121.609 1138.01 122.529C1126.19 127.968 1115.45 134.873 1105.56 143.282C1101.04 147.125 1102.03 142.305 1102 138.542C1101.99 136.883 1101.97 135.223 1101.95 133.561C1102.05 133.529 1102.14 133.529 1102.24 133.478C1114.07 127.309 1121.35 113.009 1118.35 100.667C1121.07 99.1229 1135.87 84.7747 1133.29 83.4708C1139.69 86.7041 1147.73 80.0689 1149.32 74.3279C1150.42 70.3559 1150.01 66.7643 1148.63 63.5769C1151.71 64.7142 1154.78 65.8489 1157.85 66.9869C1155.4 67.4556 1153.04 68.6546 1151.82 70.2442C1150.47 71.9948 1153.45 73.6941 1154.78 71.9709C1156.04 70.3354 1161.43 69.2144 1162.55 71.4008C1163.53 73.3117 1166.33 71.7249 1165.56 69.8352C1166.69 70.2497 1167.81 70.6677 1168.93 71.0795C1169.12 72.0455 1170.18 72.4416 1171.04 72.2758C1175.64 77.5406 1180.23 82.8075 1184.82 88.0751C1183.09 94.2547 1179.73 99.4072 1174.78 103.524C1173.77 104.506 1174.41 105.914 1175.54 106.382C1171.15 114.189 1166.74 121.999 1162.35 129.809C1160.89 129.924 1160.04 131.597 1161.14 132.726C1158.86 146.906 1153.8 151.719 1145.95 147.16C1144.96 146.772 1143.67 147.773 1143.77 148.809C1136.85 166.302 1129.12 167.231 1120.58 151.649C1123.16 149.491 1125.74 147.334 1128.33 145.175C1130.03 143.756 1127.59 141.353 1125.9 142.758C1117.08 150.124 1098.38 159.358 1098.44 172.392C1098.53 193.15 1098.63 213.912 1098.72 234.67C1094.49 234.343 1090.26 234.161 1086.04 234.148C1083.97 190.54 1083.77 146.916 1085.46 103.285ZM1082.76 237.506C1082.82 238.684 1082.86 239.859 1082.92 241.034C1083.04 243.228 1086.47 243.239 1086.36 241.034C1086.3 239.837 1086.25 238.641 1086.19 237.445C1090.41 237.436 1094.59 237.619 1098.73 237.913C1098.74 238.315 1098.74 238.719 1098.74 239.123C1098.76 241.326 1102.19 241.326 1102.17 239.123C1102.17 238.805 1102.17 238.489 1102.17 238.173C1129.19 240.643 1154.58 249.443 1176.98 263.04C1169.28 264.608 1162.68 272.6 1156.83 277.712C1144.98 288.051 1109.21 288.985 1110.65 312.413C1111.01 318.331 1110.51 316.251 1112.71 321.796C1118.96 337.598 1110.41 344.966 1099.47 352.993C1095.12 356.183 1086.31 358.423 1085.14 364.865C1083.61 373.307 1088.03 384.869 1080.5 391.419C1074.06 397.018 1071.79 403.224 1071.25 411.551C1070.3 426.386 1080.41 444.688 1094.09 450.343C1102.57 453.841 1113.83 451.326 1122.55 450.544C1126.28 450.212 1132.75 474.062 1136.78 478.738C1147.58 491.224 1165.1 494.266 1179.01 486.895C1209.28 470.847 1214.83 510.129 1239.48 514.051C1206.56 567.837 1147.12 603.067 1078.56 600.829C1053.04 599.997 1029.11 593.608 1007.6 582.982C1007.76 582.723 1007.88 582.431 1007.92 582.102C1011.39 553.384 1020.46 526.796 1026.13 498.68C1027.62 491.314 1024.21 484.901 1019.93 479.305C1014.98 472.828 994.869 465.307 996.67 455.932C1000.26 437.191 975.779 437.477 966.936 425.08C951.632 403.663 999.434 399.724 1007.46 398.374C1019.14 396.407 1031.13 395.676 1040.99 388.619C1057.9 376.527 1032.96 359.205 1043.48 346.419C1051.05 337.21 1059.33 325.147 1049.98 313.151C1047.31 309.736 1044.46 307.102 1041.23 304.222C1034.37 298.115 1040.96 289.625 1044.31 284.508C1045.89 282.112 1045.57 277.527 1043.74 275.403C1036.18 266.648 1022.96 255.278 1010.31 254.655C1027.6 246.566 1046.17 241.066 1065.4 238.711C1071.23 237.996 1077.02 237.632 1082.76 237.506Z" fill="black"/>
<path opacity="0.1" d="M967.173 315.547C955.901 328.264 949.132 343.391 947.016 360.373C946.741 362.556 950.106 362.529 950.373 360.373C952.379 344.361 958.931 329.946 969.551 317.965C970.994 316.329 968.624 313.905 967.173 315.547Z" fill="black"/>
<path opacity="0.1" d="M979.955 307.491C986.711 300.742 994.446 295.297 1003.11 291.104C1005.12 290.132 1003.36 287.227 1001.37 288.195C992.429 292.513 984.452 298.161 977.499 305.107C975.94 306.667 978.391 309.053 979.955 307.491Z" fill="black"/>
<path opacity="0.1" d="M974.074 339.072C978.835 327.624 988.067 319.835 997.294 312.406C998.99 311.035 997.315 307.961 995.588 309.354C985.914 317.14 976.141 325.282 971.158 337.288C970.296 339.357 973.206 341.16 974.074 339.072Z" fill="black"/>
<path opacity="0.1" d="M961.641 353.818C956.755 361.733 955.151 371.353 955 380.373C954.964 382.544 958.556 382.541 958.589 380.373C958.729 371.967 960.171 362.912 964.746 355.516C965.903 353.633 962.8 351.94 961.641 353.818Z" fill="black"/>
<path opacity="0.1" d="M993.943 336.512C985.938 344.276 979.355 353.435 981.365 364.768C981.748 366.928 985.205 366.006 984.828 363.865C983.042 353.843 989.507 345.685 996.481 338.917C998.097 337.345 995.568 334.94 993.943 336.512Z" fill="black"/>
<path opacity="0.1" d="M1645.27 636.725C1649.97 624.881 1651.24 610.184 1648.94 597.714C1645.84 580.815 1636.25 570.182 1630.18 554.805C1629.33 540.471 1647.78 516.843 1655.58 505.473C1659.7 499.473 1665 494.146 1664.07 487.307C1664.25 487.428 1664.45 487.517 1664.71 487.562C1665 487.667 1665.25 487.683 1665.49 487.656C1673.13 488.541 1679.82 483.055 1675.79 474.958C1674.95 473.261 1672.12 471.857 1670.61 470.967C1664.91 467.611 1658.95 464.652 1653.14 461.506C1646.32 457.817 1639.61 453.409 1632.41 450.523C1626.45 448.135 1616.35 454.294 1620.85 461.447C1621.83 463.01 1623.09 464.338 1624.49 465.543C1622.04 466.131 1619.85 467.7 1618.37 470.429C1610.54 484.86 1603.24 499.611 1595.47 514.089C1588.44 527.208 1580.07 532.85 1564.74 531.978C1557.57 531.569 1550.19 534.186 1543.51 536.378C1517.49 544.922 1500.98 569.187 1495.65 594.994C1488.2 631.095 1506.79 663.296 1535.38 678.587C1535.64 679.24 1535.9 679.907 1536.16 680.558C1536.51 681.451 1537.27 681.994 1538.27 681.76C1539.06 681.569 1539.84 681.359 1540.61 681.155C1555.46 687.754 1572.55 689.959 1589.91 686.101C1615.62 680.385 1635.8 660.651 1645.27 636.725ZM1631.49 453.833C1636.97 455.232 1643 459.925 1647.91 462.579C1651.41 464.472 1654.9 466.363 1658.39 468.256C1660.72 469.517 1663.05 470.778 1665.38 472.04C1671.27 473.755 1671.35 477.824 1665.63 484.249C1664.54 483.845 1663.5 483.326 1662.45 482.826C1661.47 481.616 1659.73 480.666 1658.47 480.169C1657.17 479.656 1655.92 479.075 1654.66 478.519C1652.24 477.023 1649.83 475.501 1647.35 474.145C1643.9 472.26 1640.41 470.429 1636.95 468.594C1634.62 467.376 1632.28 466.171 1629.96 464.977C1621.37 457.816 1621.88 454.1 1631.49 453.833ZM1553.2 655.265C1563.07 652.882 1572.89 650.351 1582.69 647.713C1578.29 656.165 1571.31 662.881 1563.52 668.254C1560.45 670.379 1546.13 676.994 1540.83 678.139C1544.95 670.532 1549.1 662.918 1553.2 655.265ZM1584.57 643.68C1580.09 645.011 1563.67 650.895 1555.42 651.091C1559.81 642.849 1564.11 634.553 1568.27 626.194C1570.36 625.96 1572.86 625.005 1573.71 624.823C1579.58 623.567 1585.42 622.099 1591.22 620.55C1590.08 628.523 1587.71 636.34 1584.57 643.68ZM1591.63 616.891C1584.56 618.784 1577.48 620.5 1570.33 622.031C1576.38 609.695 1582.03 597.184 1587.04 584.427C1587.35 584.467 1587.64 584.451 1587.95 584.504C1590.57 590.926 1591.28 598.381 1591.8 605.158C1592.09 609.063 1591.99 612.99 1591.63 616.891ZM1567.14 620.807C1562.68 616.356 1558.15 601.813 1556.54 597.276C1561.71 593.586 1567.31 590.311 1573.15 587.358C1576.34 585.331 1579.78 584.311 1583.45 584.209C1578.54 596.617 1573.03 608.794 1567.14 620.807ZM1553.68 599.374C1556.81 607.756 1559.86 618.037 1565.05 625.016C1560.77 633.589 1556.34 642.095 1551.83 650.548C1551.36 650.314 1550.98 650.029 1550.79 649.62C1545.97 639.099 1541.28 628.517 1536.66 617.905C1541 610.714 1546.87 604.623 1553.68 599.374ZM1534.6 621.654C1539.46 632.788 1544.4 643.881 1549.46 654.923C1549.47 654.931 1549.48 654.937 1549.48 654.944C1545.69 661.998 1541.86 669.025 1538.06 676.039C1533.6 664.609 1529.09 652.075 1529.17 639.823C1529.98 633.095 1531.87 627.081 1534.6 621.654ZM1589 682.789C1572.04 687.703 1556.53 686.21 1543.3 680.418C1562.07 675.007 1577.11 665.075 1586.78 647.221C1597.82 626.847 1597.88 599.831 1589.3 578.765C1588.97 577.98 1588.12 577.184 1587.18 577.563C1558.3 589.275 1529.77 606.167 1525.73 639.823C1525.65 651.924 1529.74 664.134 1534.16 675.507C1503.42 655.708 1489.08 610.889 1506.01 574.414C1518.17 548.218 1546.15 534.081 1574.17 536.004C1594.26 537.381 1599.51 513.825 1607.34 499.228C1611.73 491.012 1620.24 463.574 1635.56 472.494C1645.29 478.171 1666.06 485.281 1654.98 500.626C1647.86 510.474 1642.09 521.218 1635.98 531.708C1631.59 539.249 1626.24 545.765 1626.76 554.659C1626.69 554.928 1626.68 555.229 1626.81 555.573C1629.69 562.917 1634.62 568.968 1638.41 575.866C1645.35 588.495 1647.02 603.334 1646.11 617.467C1644.01 649.76 1618.77 674.154 1589 682.789Z" fill="black"/>
<path opacity="0.1" d="M1566.34 548.016C1553.94 547.681 1542.41 552.721 1534.43 562.059C1533.01 563.708 1535.43 566.1 1536.86 564.437C1544.29 555.737 1554.76 551.066 1566.34 551.382C1568.56 551.44 1568.55 548.076 1566.34 548.016Z" fill="black"/>
<path opacity="0.1" d="M1600.84 530.87C1598.73 534.972 1596.58 538.957 1593.35 542.281C1589.58 546.171 1584.74 546.674 1579.65 546.5C1577.45 546.427 1577.45 549.898 1579.65 549.971C1585.25 550.159 1589.84 549.514 1594.37 545.961C1598.69 542.577 1601.31 537.424 1603.79 532.623C1604.81 530.644 1601.87 528.888 1600.84 530.87Z" fill="black"/>
<path opacity="0.1" d="M1589.93 554.112C1584.36 556.118 1578.84 557.069 1572.9 557.313C1568.29 557.497 1564.04 557.922 1559.87 559.949C1557.9 560.903 1559.63 563.761 1561.59 562.808C1566.29 560.525 1571.42 560.735 1576.52 560.444C1581.45 560.167 1586.23 558.962 1590.84 557.303C1592.88 556.564 1592 553.366 1589.93 554.112Z" fill="black"/>
<path opacity="0.1" d="M1614.76 526.873C1613.38 529.434 1612.02 532.001 1610.65 534.562C1609.22 537.241 1607.94 541.105 1605.58 543.092C1603.86 544.542 1606.35 547.005 1608.06 545.562C1610.17 543.784 1611.22 540.913 1612.5 538.524C1614.26 535.23 1616.02 531.933 1617.78 528.635C1618.84 526.649 1615.82 524.884 1614.76 526.873Z" fill="black"/>
<path opacity="0.1" d="M1549.24 565.184C1545.27 566.939 1542.06 569.867 1540.19 573.496C1539.2 575.4 1542.33 577.066 1543.32 575.154C1544.96 571.975 1547.58 569.559 1551.07 568.016C1553.17 567.091 1551.33 564.256 1549.24 565.184Z" fill="black"/>
<path opacity="0.1" d="M490.189 556.561C491.42 543.518 486.994 531.983 481.916 520.206C481.424 519.073 477.885 520.218 478.299 521.171C483.307 532.776 487.811 544.202 486.592 557.077C486.471 558.373 490.084 557.639 490.189 556.561Z" fill="#A5CA79"/>
<path opacity="0.1" d="M552.006 522.089C554.123 522.089 554.733 519.292 552.287 519.292C550.17 519.292 549.557 522.089 552.006 522.089Z" fill="#A5CA79"/>
<path opacity="0.1" d="M322.646 544.167C326.107 562.663 326.13 582.526 337.537 598.378C338.162 599.245 341.408 597.765 341.15 597.409C329.748 581.557 329.728 561.698 326.263 543.202C326.127 542.483 322.486 543.312 322.646 544.167Z" fill="#A5CA79"/>
<path opacity="0.1" d="M295.658 617.111C286.685 620.795 278.357 625.685 270.045 630.646C268.467 631.591 272.131 631.31 272.85 630.88C280.666 626.212 288.51 621.567 296.952 618.107C299.318 617.135 297.096 616.525 295.658 617.111Z" fill="#A5CA79"/>
<path opacity="0.1" d="M437.201 478.814C438.779 478.814 440.955 476.417 438.514 476.417C436.935 476.417 434.76 478.814 437.201 478.814Z" fill="#A5CA79"/>
<path opacity="0.1" d="M374.267 523.12C375.798 523.12 378.037 520.792 375.591 520.792C374.064 520.792 371.822 523.12 374.267 523.12Z" fill="#A5CA79"/>
<path opacity="0.1" d="M316.435 663.736C317.478 661.572 317.798 659.627 317.798 657.236C317.81 655.416 314.153 656.021 314.153 657.549C314.145 659.69 313.938 661.444 313.005 663.397C312.135 665.209 315.787 665.096 316.435 663.736Z" fill="#A5CA79"/>
<path opacity="0.1" d="M226.974 563.439C227.74 560.439 228.544 557.521 228.611 554.408C228.65 552.635 224.998 553.263 224.966 554.74C224.9 557.857 224.095 560.779 223.329 563.783C222.92 565.397 226.603 564.908 226.974 563.439Z" fill="#A5CA79"/>
<path opacity="0.1" d="M255.096 511.292C256.498 511.292 258.928 509.159 256.479 509.159C255.076 509.159 252.654 511.292 255.096 511.292Z" fill="#A5CA79"/>
<path opacity="0.1" d="M410.471 596.939C410.58 604.068 412.147 610.806 414.604 617.478C415.006 618.568 418.573 617.482 418.217 616.505C415.764 609.837 414.19 603.099 414.088 595.966C414.072 595.064 410.455 595.697 410.471 596.939Z" fill="#A5CA79"/>
<path opacity="0.1" d="M346.142 669.925C347.654 676.405 347.849 683.03 348.626 689.62C348.767 690.815 352.399 690.003 352.239 688.643C351.466 682.061 351.27 675.432 349.751 668.952C349.463 667.702 345.842 668.64 346.142 669.925Z" fill="#A5CA79"/>
<path opacity="0.1" d="M225.26 649.132C223.729 665.374 213.67 679.007 207.049 693.484C206.541 694.574 210.127 694.179 210.655 693.023C217.276 678.57 227.335 664.918 228.866 648.675C229.002 647.226 225.369 647.925 225.26 649.132Z" fill="#A5CA79"/>
<path opacity="0.1" d="M643.036 594.437C626.286 537.406 551.079 530.832 534.505 524.499C537.021 532.671 539.552 540.894 540.693 549.394C542.564 563.242 540.693 577.265 540.189 591.21C539.669 605.167 540.693 619.87 547.603 631.788C550.291 636.444 553.81 640.518 557.599 644.194C577.779 663.757 606.837 672.167 633.216 666.077C633.216 666.077 657.973 645.273 643.036 594.437Z" fill="#98BF13"/>
<path opacity="0.1" d="M674.079 625.308C678.017 611.73 687.497 599.96 699.493 592.386C705.231 588.757 711.536 583.847 717.442 580.484C730.676 572.961 741.872 561.949 749.587 548.894C751.927 556.249 757.896 580.269 760.286 595.109C763.434 614.773 761.845 637.39 749.638 653.164C723.95 686.363 678.447 672.769 673.193 665.754C673.193 665.754 668.293 645.241 674.079 625.308Z" fill="#98BF13"/>
<path opacity="0.1" d="M763.454 503.522C736.845 545.659 688.626 559.116 658.095 596.088C657.197 592.936 656.243 589.822 655.247 586.775C641.634 551.443 613.688 527.064 578.657 513.209C548.821 501.408 517.598 499.045 487.208 490.088C485.474 489.58 483.466 491.35 484.13 493.154C494.946 522.842 497.946 550.529 497.72 581.939C497.595 600.166 497.935 620.931 505.462 637.962C510.278 648.892 517.411 658.735 526.064 667.224C526.31 667.755 526.72 668.189 527.322 668.412C546.681 686.807 573.322 698.553 599.385 700.525C616.131 701.787 631.549 702.869 643.248 695.58C675.061 721.455 730.428 708.35 758.123 684.06C807.869 640.466 784.178 557.466 768.045 504.119C767.399 502.018 764.622 501.682 763.454 503.522ZM753.25 526.299C756 523.264 758.551 519.787 760.984 516.365C755.89 533.611 750.039 550.287 743.203 566.24C741.722 564.365 740.57 561.865 739.18 559.689C736.422 555.373 733.676 551.06 730.907 546.74C730.805 546.584 730.669 546.494 730.544 546.369C738.664 540.365 746.383 533.861 753.25 526.299ZM738.618 618.865C753.106 617.783 767.595 616.697 782.083 615.615C780.993 629.416 777.677 642.717 772.005 654.717C747.618 655.182 723.275 655.002 698.9 654.158C697.486 654.107 696.103 653.553 694.74 652.607C703.881 642.552 712.15 631.888 719.627 620.673C725.129 621.6 734.231 619.189 738.618 618.865ZM718.141 613.924C717.508 612.936 717.082 611.615 716.895 609.869C714.52 604.744 712.305 599.545 710.262 594.279C706.617 585.209 703.723 575.865 701.012 566.478C701.012 566.47 701.004 566.47 701.004 566.458C709.531 560.751 718.207 555.192 726.57 549.231C726.574 549.243 726.574 549.251 726.582 549.262C730.711 555.731 734.851 562.211 738.996 568.684C739.676 569.762 740.254 570.707 740.859 571.575C734.247 586.373 726.739 600.529 718.141 613.924ZM696.676 569.393C699.824 580.131 703.43 590.651 707.609 601.053C709.316 605.287 711.433 614.194 715.218 618.338C707.98 629.162 699.988 639.463 691.155 649.182C680.409 636.053 671.889 600.838 669.479 591.041C677.758 582.9 687.059 575.967 696.676 569.393ZM659.969 601.564C661.723 599.345 663.567 597.232 665.465 595.181C669.012 608.302 674.176 620.72 679.176 633.384C680.961 637.888 681.981 649.669 685.375 655.404C676.379 664.662 666.566 673.353 655.801 681.4C668.617 656.959 666.445 628.064 659.66 601.826C659.762 601.732 659.872 601.686 659.969 601.564ZM655.149 670.029C652.047 679.931 648.817 685.799 643.786 689.49C642.091 681.002 639.782 672.799 636.954 664.845C637.735 664.154 638.317 663.142 638.864 661.431C644.587 643.65 650.302 625.868 656.024 608.087C660.672 628.561 661.645 649.299 655.149 670.029ZM650.411 588.104C651.626 591.795 652.747 595.499 653.774 599.209C653.629 599.42 653.473 599.623 653.383 599.904C648.082 616.4 644.93 640.787 632.629 653.662C626.457 639.142 618.649 625.404 609.945 612.096C611.863 607.432 612.164 599.573 612.613 597.467C616.211 580.92 620.078 564.44 623.593 547.877C634.95 558.865 644.239 572.084 650.411 588.104ZM619.348 543.857C616.766 556.189 613.989 568.478 611.219 580.771C609.227 589.603 608.328 598.064 604.41 603.853C598.047 594.626 591.305 585.58 584.433 576.615C578.148 568.408 571.726 560.302 565.035 552.467C565.402 551.932 565.75 551.279 566.074 550.42C570.121 539.666 573.34 528.795 575.875 517.619C591.84 524.229 606.727 532.764 619.348 543.857ZM532.879 608.604C532.477 605.581 532.547 602.514 532.762 599.479C532.985 596.268 527.965 596.288 527.742 599.479C527.449 603.506 527.703 607.44 528.308 611.413C520.206 611.413 512.101 611.413 503.995 611.413C501.69 592.706 502.948 572.921 502.737 555.276C502.737 555.147 502.725 555.026 502.717 554.905C509.346 554.94 516.354 555.346 523.479 555.721C525.85 569.409 520.94 584.186 517.569 597.366C516.768 600.483 521.604 601.804 522.393 598.69C525.928 584.901 530.514 570.081 528.491 555.956C539.444 556.456 550.432 556.604 560.366 554.831C565.589 560.878 570.663 567.097 575.655 573.397C584.444 584.506 593.077 595.815 601.069 607.495C597.925 609.968 593.499 611.413 587.065 611.413C569.108 611.413 551.155 611.413 533.21 611.413C533.075 610.33 532.969 609.326 532.879 608.604ZM571.227 515.756C569.219 525.979 567.411 539.873 559.672 546.33C542.484 527.08 523.324 509.99 500.09 498.115C512.805 500.623 525.57 502.763 538.219 505.705C549.438 508.318 560.543 511.635 571.227 515.756ZM492.223 499.814C517.164 511.396 537.184 528.959 555.161 548.931C553.442 549.552 551.517 549.9 549.345 549.9C541.958 549.9 534.583 549.9 527.204 549.896C526.552 547.685 525.708 545.49 524.626 543.333C523.185 540.454 518.856 542.978 520.29 545.853C520.95 547.181 521.489 548.537 521.966 549.896C515.478 549.896 508.985 549.896 502.497 549.896C501.958 539.412 500.356 529.244 497.993 518.919C497.176 515.342 495.485 505.607 492.223 499.814ZM504.739 616.4C508.333 616.4 511.922 616.4 515.52 616.4C517.137 625.994 519.618 635.447 526.954 642.341C529.302 644.548 532.848 641.032 530.501 638.814C524.142 632.841 522.044 624.666 520.583 616.4C523.458 616.4 526.341 616.4 529.224 616.4C529.736 618.466 530.474 620.498 531.806 621.877C534.056 624.205 537.595 620.674 535.353 618.35C534.908 617.885 534.544 617.198 534.255 616.401C543.294 616.401 552.337 616.401 561.372 616.401C575.548 616.401 592.704 619.089 606.509 615.651C615.079 628.897 622.665 642.667 628.646 657.159C624.474 660.19 619.474 662.128 613.248 662.354C585.357 663.358 557.439 663.655 529.529 663.6C528.459 662.659 527.381 661.729 526.341 660.76C513.372 648.682 507.43 633.096 504.739 616.4ZM535.489 668.572C551.966 668.568 568.438 668.431 584.911 668.119C599.63 667.842 617.88 669.932 632.274 666.631C635.176 674.85 637.524 683.311 639.208 692.053C634.798 693.944 629.247 694.983 621.892 695.823C590.653 699.42 559.715 687.643 535.489 668.572ZM723.864 698.893C703.032 706.592 667.407 707.241 648.005 692.979C663.349 682.651 677.013 671.178 689.153 658.655C696.005 661.518 708.45 659.468 715.227 659.655C733.309 660.159 751.407 660.065 769.485 659.737C760.024 676.982 745.161 691.022 723.864 698.893ZM782.333 610.607C763.501 612.013 744.673 613.423 725.833 614.83C724.747 615.318 723.786 615.592 722.895 615.74C731.204 602.705 738.5 588.951 744.969 574.611C745.004 574.623 745.028 574.646 745.067 574.654C748.77 575.588 754.528 572.896 758.087 572.033C764.771 570.42 771.4 568.627 778.009 566.783C778.825 571.021 779.611 575.275 780.341 579.533C782.11 589.85 782.762 600.322 782.333 610.607ZM777.024 561.9C776.969 561.908 776.93 561.896 776.879 561.908C767.973 564.404 759.008 566.713 749.992 568.838C749.043 569.061 748.234 569.053 747.465 568.947C754.738 552.107 760.918 534.478 766.258 516.22C767.008 519.017 767.762 521.806 768.473 524.611C771.657 536.955 774.512 549.393 777.024 561.9Z" fill="black"/>
<path opacity="0.1" d="M519.071 569.854C520.278 566.87 515.438 565.588 514.227 568.526C510.008 578.854 506.297 589.393 509.629 600.506C510.543 603.58 515.387 602.272 514.461 599.182C511.411 588.979 515.211 579.279 519.071 569.854Z" fill="black"/>
<path opacity="0.1" d="M546.364 648.019C548.977 649.929 551.469 645.593 548.899 643.714C544.942 640.827 543.004 636.054 541.231 631.679C540.04 628.738 535.176 630.023 536.395 633.003C538.723 638.745 541.211 644.257 546.364 648.019Z" fill="black"/>
</g>
<defs>
<clipPath id="clip0_1108_3352">
<rect width="1920" height="685" fill="white"/>
</clipPath>
</defs>
</svg>
