<svg width="102" height="60" viewBox="0 0 102 60" fill="none" xmlns="http://www.w3.org/2000/svg">
<path d="M62.9269 51.1858H57.502V33.0133H63.1086C69.0771 33.0133 71.1568 35.445 71.1568 42.0967C71.1568 48.5725 68.8049 51.18 62.9269 51.18M57.502 8.72583H62.2049C68.1709 8.72583 70.4314 10.8858 70.4314 16.4633C70.4314 19.4317 69.5294 21.95 67.902 23.1192C66.5435 24.2025 66.3642 24.2025 61.6605 24.2025H57.502V8.72583ZM71.5169 28.25C79.8331 26.9025 82.9982 23.2133 82.9982 14.8475C82.9982 10.2642 81.6431 6.30083 79.2887 3.7825C76.4895 0.900833 73.2339 0 65.9103 0H45.2057V60H63.1086C72.0588 60 75.5883 59.2783 78.7484 56.7617C81.9086 54.245 83.6297 49.4758 83.6297 43.2675C83.6297 33.7325 80.4671 29.775 71.5169 28.2458M89.2498 60H102V0H89.2523L89.2498 60ZM26.7626 34.2742C26.7626 35.8017 26.7626 34.6367 26.673 38.0525V39.7625L26.5834 41.4708C26.5834 42.0992 26.4896 42.7292 26.4896 43.4483C25.8597 48.935 23.9601 50.5558 17.9917 50.5558H12.7502V9.44583H18.3543C25.5884 9.44583 26.7626 12.4125 26.7626 30.3167V34.2742ZM32.2796 2.52417C29.2921 0.45 26.4904 0 16.8199 0H0V60H21.2464C28.4805 60 34.175 57.3008 36.8879 52.5317C38.8796 49.0267 39.6016 43.6275 39.6016 32.4767C39.625 26.9161 39.3227 21.3589 38.6962 15.8333C37.7037 8.815 35.8937 5.04 32.2796 2.52" fill="white"/>
</svg>
