<svg width="37" height="32" viewBox="0 0 37 32" fill="none" xmlns="http://www.w3.org/2000/svg">
<path d="M34.7556 11.1087C34.8759 13.113 34.6232 15.0115 34.0756 16.6161C34.0094 16.8336 33.9312 17.0452 33.847 17.2509C33.7748 17.4214 33.7026 17.5918 33.6243 17.7623C33.3596 17.6976 33.0948 17.6506 32.8301 17.5977C32.788 17.5977 32.7458 17.5859 32.7157 17.5801C32.5352 17.5507 32.3607 17.5272 32.1922 17.5037C32.1441 17.5037 32.102 17.4919 32.0539 17.486C31.9215 17.4684 31.7831 17.4508 31.6507 17.4449C31.6086 17.4449 31.5665 17.4449 31.5303 17.4331C31.0911 17.4037 30.6398 17.3861 30.1885 17.392H30.1404C29.8876 17.392 29.6289 17.4096 29.3762 17.4214C29.1596 17.4331 28.9309 17.4566 28.7083 17.4743C28.2028 17.5213 27.7034 17.5859 27.204 17.6741C27.1739 17.6741 27.1317 17.6859 27.1017 17.6976C26.867 17.727 26.6323 17.774 26.3976 17.8269C26.1389 17.874 25.8922 17.9269 25.6395 17.9915C25.489 18.0268 25.3326 18.062 25.1822 18.1032C25.0077 18.1443 24.8392 18.1855 24.6587 18.2384C24.436 18.2972 24.2194 18.3618 23.9908 18.4265C23.8824 18.256 23.7741 18.0856 23.6718 17.9092C23.5455 17.6859 23.4251 17.4449 23.3108 17.2039C22.5827 15.6698 22.1074 13.8242 21.987 11.8258C21.6561 6.23013 24.2314 1.53969 27.7575 1.33985C31.2836 1.14 34.4126 5.50717 34.7436 11.0969L34.7556 11.1087Z" fill="#7FEE64"/>
<path d="M14.8144 12.1021C14.9348 14.1064 14.682 16.0049 14.1345 17.6095C14.0683 17.827 13.9901 18.0386 13.9058 18.2443C13.8336 18.4148 13.7614 18.5852 13.6832 18.7557C13.4184 18.691 13.1537 18.644 12.8889 18.5911C12.8468 18.5911 12.8047 18.5794 12.7746 18.5735C12.5941 18.5441 12.4196 18.5206 12.2511 18.4971C12.2029 18.4971 12.1608 18.4853 12.1127 18.4794C11.9803 18.4618 11.8419 18.4442 11.7095 18.4383C11.6674 18.4383 11.6253 18.4383 11.5892 18.4265C11.1499 18.3972 10.6986 18.3795 10.2473 18.3854H10.1992C9.94648 18.3854 9.68774 18.403 9.43502 18.4148C9.21839 18.4265 8.98974 18.4501 8.7671 18.4677C8.26165 18.5147 7.76223 18.5794 7.2628 18.6675C7.23271 18.6675 7.19059 18.6793 7.1605 18.691C6.92583 18.7204 6.69116 18.7675 6.45648 18.8204C6.19774 18.8674 5.95104 18.9203 5.69831 18.9849C5.54788 19.0202 5.39144 19.0555 5.241 19.0966C5.0665 19.1377 4.89802 19.1789 4.7175 19.2318C4.49487 19.2906 4.27824 19.3552 4.04959 19.4199C3.94128 19.2494 3.83297 19.079 3.73068 18.9026C3.60431 18.6793 3.48397 18.4383 3.36964 18.1973C2.64156 16.6632 2.16619 14.8176 2.04585 12.8192C1.7149 7.22355 4.29028 2.5331 7.81638 2.33325C11.3425 2.13341 14.4714 6.50058 14.8024 12.0903L14.8144 12.1021Z" fill="#7FEE64"/>
<path d="M14.0743 12.5135C14.1826 14.2886 13.9539 15.9578 13.4725 17.3802C13.4124 17.5742 13.3462 17.7623 13.268 17.9386C13.2078 18.0915 13.1416 18.2384 13.0694 18.3912C12.8347 18.3324 12.6 18.2913 12.3714 18.2502C12.3353 18.2502 12.2992 18.2384 12.2691 18.2325C12.1066 18.209 11.9562 18.1855 11.8058 18.1679C11.7636 18.1679 11.7275 18.1561 11.6854 18.1561C11.5711 18.1444 11.4447 18.1267 11.3304 18.1208C11.2943 18.1208 11.2582 18.1208 11.2221 18.115C10.831 18.0856 10.4338 18.0738 10.0367 18.0797H9.99458C9.77194 18.0797 9.54328 18.0915 9.32064 18.1091C9.12809 18.1208 8.9235 18.1385 8.73095 18.1561C8.28568 18.1973 7.84642 18.256 7.40114 18.3324C7.37106 18.3324 7.33495 18.3442 7.31088 18.3501C7.1063 18.3736 6.8957 18.4147 6.69111 18.4618C6.46245 18.5029 6.24583 18.5499 6.0232 18.6028C5.89082 18.6322 5.75242 18.6675 5.62004 18.7027C5.46359 18.738 5.31316 18.7792 5.15672 18.8203C4.95815 18.8732 4.76559 18.9261 4.56703 18.9849C4.47075 18.8379 4.37447 18.6851 4.29023 18.5323C4.17591 18.3324 4.07361 18.1208 3.97132 17.9092C3.32748 16.5515 2.90627 14.9234 2.80397 13.16C2.50913 8.21684 4.78966 4.07302 7.90058 3.89668C11.0115 3.72035 13.7794 7.57616 14.0743 12.5193V12.5135Z" fill="white"/>
<path d="M11.8059 13.3655C11.9082 15.0583 11.5231 16.5924 10.8491 17.6386C10.6566 17.9384 10.44 18.197 10.1993 18.4027C9.22448 18.4086 8.24367 18.5144 7.26286 18.679C6.99209 18.5203 6.74538 18.3028 6.50469 18.0383C5.63219 17.0861 5.01843 15.5344 4.91012 13.7593C4.7296 10.7029 6.1256 8.14019 8.02103 8.03439C9.92248 7.92859 11.6133 10.315 11.7938 13.3655H11.8059Z" fill="#FA7854"/>
<path d="M8.49635 16.5855C9.65419 16.5195 10.5113 15.1025 10.4109 13.4206C10.3104 11.7387 9.2903 10.4287 8.13246 10.4947C6.97462 10.5608 6.11747 11.9777 6.21796 13.6596C6.31844 15.3415 7.33851 16.6515 8.49635 16.5855Z" fill="black"/>
<path d="M7.90388 11.691C8.1857 11.1427 8.08433 10.5365 7.67745 10.3369C7.27057 10.1374 6.71227 10.4201 6.43045 10.9684C6.14863 11.5167 6.25 12.1229 6.65688 12.3225C7.06376 12.522 7.62206 12.2393 7.90388 11.691Z" fill="#FBFEF3"/>
<path d="M9.90558 16.2482C10.0742 16.0268 10.0681 15.7436 9.89215 15.6158C9.71615 15.4879 9.43682 15.5637 9.26824 15.7852C9.09967 16.0066 9.10569 16.2897 9.28168 16.4175C9.45767 16.5454 9.737 16.4696 9.90558 16.2482Z" fill="#FBFEF3"/>
<path d="M17.0589 20.2133C16.1803 19.696 15.2718 19.314 14.3391 19.0495C14.1044 18.973 13.8637 18.9143 13.629 18.8614C13.3643 18.7967 13.0995 18.7497 12.8348 18.6968C12.7926 18.6968 12.7505 18.685 12.7204 18.6792C12.5399 18.6498 12.3654 18.6263 12.1969 18.6028C12.1488 18.6028 12.1067 18.591 12.0585 18.5851C11.9262 18.5675 11.7878 18.5498 11.6554 18.544C11.6133 18.544 11.5711 18.544 11.535 18.5322C11.0958 18.5028 10.6445 18.4852 10.1932 18.4911H10.1451C9.89234 18.4911 9.6336 18.5087 9.38087 18.5205C9.16425 18.5322 8.9356 18.5557 8.71296 18.5734C8.20751 18.6204 7.70808 18.685 7.20865 18.7732C7.17856 18.7732 7.13644 18.785 7.10636 18.7967C6.87168 18.8261 6.63701 18.8731 6.40234 18.926C6.1436 18.9731 5.89689 19.026 5.64417 19.0906C5.49374 19.1259 5.33729 19.1611 5.18686 19.2023C5.01236 19.2434 4.84388 19.2846 4.66336 19.3375C4.44072 19.3962 4.2241 19.4609 3.99545 19.5256C3.7367 19.602 3.49 19.6843 3.24329 19.7607C2.1301 20.1192 1.04098 20.5248 0 20.9539C0.758172 20.4425 1.58855 19.9664 2.46105 19.5491C2.85819 19.3492 3.26736 19.1788 3.68255 19.0083C4.57911 18.6439 5.51179 18.3441 6.45048 18.1325C7.8886 17.7975 9.3568 17.6506 10.7889 17.7328C11.8419 17.7975 12.8769 17.9973 13.8457 18.3383C14.0803 18.4205 14.303 18.5028 14.5316 18.6086C15.4342 18.9848 16.2826 19.5197 17.0529 20.2074L17.0589 20.2133Z" fill="#7FEE64"/>
<path d="M34.0154 11.4261C34.1237 13.2011 33.8951 14.8704 33.4137 16.2928C33.3535 16.4868 33.2873 16.6749 33.2091 16.8512C33.1489 17.0041 33.0828 17.151 33.0105 17.3038C32.7759 17.245 32.5412 17.2039 32.3125 17.1628C32.2764 17.1628 32.2403 17.151 32.2102 17.1451C32.0478 17.1216 31.8974 17.0981 31.7469 17.0805C31.7048 17.0805 31.6687 17.0687 31.6266 17.0687C31.5122 17.057 31.3859 17.0393 31.2716 17.0334C31.2355 17.0334 31.1994 17.0334 31.1632 17.0276C30.7721 16.9982 30.375 16.9864 29.9779 16.9923H29.9357C29.7131 16.9923 29.4844 17.004 29.2618 17.0217C29.0692 17.0334 28.8647 17.0511 28.6721 17.0687C28.2268 17.1098 27.7876 17.1686 27.3423 17.245C27.3122 17.245 27.2761 17.2568 27.252 17.2627C27.0475 17.2862 26.8369 17.3273 26.6323 17.3744C26.4036 17.4155 26.187 17.4625 25.9644 17.5154C25.832 17.5448 25.6936 17.5801 25.5612 17.6153C25.4048 17.6506 25.2543 17.6918 25.0979 17.7329C24.8993 17.7858 24.7068 17.8387 24.5082 17.8975C24.4119 17.7505 24.3156 17.5977 24.2314 17.4449C24.1171 17.245 24.0148 17.0334 23.9125 16.8218C23.2686 15.4641 22.8474 13.8359 22.7451 12.0726C22.4503 7.12943 24.7308 2.98561 27.8417 2.80928C30.9527 2.63295 33.7206 6.48875 34.0154 11.4319V11.4261Z" fill="white"/>
<path d="M2.60547 3.67919C5.15076 0.223074 10.0127 0.0643741 12.6843 3.46759C12.1007 3.09142 11.511 2.65646 10.8852 2.3567C8.1654 0.78146 4.86795 1.75129 2.60547 3.67332V3.67919Z" fill="#F4F4F4"/>
<path d="M31.7469 12.3723C31.8492 14.0651 31.4641 15.5992 30.7902 16.6455C30.5976 16.9452 30.381 17.2039 30.1403 17.4096C29.1655 17.4155 28.1847 17.5213 27.2039 17.6858C26.9331 17.5271 26.6864 17.3097 26.4457 17.0452C25.5732 16.093 24.9595 14.5412 24.8512 12.7662C24.6706 9.70972 26.0666 7.14703 27.9621 7.04123C29.8575 6.93543 31.5544 9.32179 31.7349 12.3723H31.7469Z" fill="#FA7854"/>
<path d="M28.4407 15.5877C29.5985 15.5217 30.4557 14.1047 30.3552 12.4228C30.2547 10.7409 29.2346 9.43094 28.0768 9.49694C26.919 9.56295 26.0618 10.9799 26.1623 12.6618C26.2628 14.3437 27.2829 15.6537 28.4407 15.5877Z" fill="black"/>
<path d="M27.8447 10.7008C28.1265 10.1525 28.0251 9.54623 27.6182 9.34668C27.2114 9.14713 26.6531 9.42985 26.3712 9.97816C26.0894 10.5265 26.1908 11.1327 26.5977 11.3323C27.0046 11.5318 27.5629 11.2491 27.8447 10.7008Z" fill="#FBFEF3"/>
<path d="M29.8511 15.2501C30.0197 15.0287 30.0137 14.7456 29.8377 14.6177C29.6617 14.4899 29.3824 14.5657 29.2138 14.7871C29.0452 15.0085 29.0512 15.2916 29.2272 15.4195C29.4032 15.5474 29.6826 15.4715 29.8511 15.2501Z" fill="#FBFEF3"/>
<path d="M37 19.214C36.1215 18.6967 35.2129 18.3147 34.2802 18.0502C34.0456 17.9738 33.8049 17.915 33.5702 17.8621C33.3054 17.7975 33.0407 17.7504 32.7759 17.6975C32.7338 17.6975 32.6917 17.6858 32.6616 17.6799C32.4811 17.6505 32.3066 17.627 32.1381 17.6035C32.09 17.6035 32.0478 17.5917 31.9997 17.5859C31.8673 17.5682 31.7289 17.5506 31.5965 17.5447C31.5544 17.5447 31.5123 17.5447 31.4762 17.533C31.0369 17.5036 30.5857 17.4859 30.1344 17.4918H30.0862C29.8335 17.4918 29.5748 17.5094 29.322 17.5212C29.1054 17.533 28.8768 17.5565 28.6541 17.5741C28.1487 17.6211 27.6492 17.6858 27.1498 17.7739C27.1197 17.7739 27.0776 17.7857 27.0475 17.7975C26.8128 17.8268 26.5782 17.8739 26.3435 17.9268C26.0848 17.9738 25.8381 18.0267 25.5853 18.0913C25.4349 18.1266 25.2784 18.1619 25.128 18.203C24.9535 18.2442 24.785 18.2853 24.6045 18.3382C24.3819 18.397 24.1653 18.4616 23.9366 18.5263C23.6779 18.6027 23.4312 18.685 23.1845 18.7614C22.0713 19.12 20.9821 19.5255 19.9412 19.9546C20.6993 19.4432 21.5297 18.9671 22.4022 18.5498C22.7993 18.35 23.2085 18.1795 23.6237 18.0091C24.5203 17.6446 25.453 17.3449 26.3916 17.1333C27.8298 16.7982 29.298 16.6513 30.7301 16.7336C31.7831 16.7982 32.818 16.9981 33.7868 17.339C34.0215 17.4213 34.2441 17.5036 34.4728 17.6094C35.3754 17.9855 36.2238 18.5204 36.994 19.2081L37 19.214Z" fill="#7FEE64"/>
<path d="M22.5466 2.67992C25.0919 -0.776194 29.9539 -0.934893 32.6255 2.46833C32.0418 2.09215 31.4521 1.6572 30.8263 1.35743C28.1066 -0.217807 24.8091 0.752016 22.5466 2.67404V2.67992Z" fill="#F4F4F4"/>
<path d="M4.65128 24.0336C6.17966 24.9682 7.64185 25.9557 9.1943 26.7844C11.2702 27.8953 13.5267 28.5419 15.8855 28.6477C19.0987 28.7887 22.1193 28.1775 24.6526 26.0203C26.2652 24.6449 27.2099 22.7993 28.1005 20.9184C28.6841 19.6724 29.2678 18.4145 29.9658 17.2331C30.3509 16.5807 30.9165 15.987 31.5122 15.5109C32.7397 14.5293 34.0335 14.7585 34.9541 16.0399C35.8807 17.333 36.1636 18.8142 36.1214 20.3659C36.0492 23.2108 34.8518 25.4208 32.4028 26.9314C30.7841 27.9306 29.0572 28.6594 27.1557 29.259C29.2558 26.9725 31.7409 25.0505 32.0839 21.7766C32.0237 21.7413 31.9635 21.7002 31.9034 21.6649C31.8251 21.806 31.7529 21.947 31.6747 22.0881C30.032 25.2092 27.8899 27.9012 24.8933 29.8174C20.8136 32.4212 16.4992 32.6034 12.0585 30.8518C9.39888 29.7997 7.14242 28.2068 5.57794 25.7617C5.22292 25.2033 4.94613 24.592 4.64526 24.0336H4.65128Z" fill="#FA7854"/>
</svg>
