<svg width="62" height="55" viewBox="0 0 62 55" fill="none" xmlns="http://www.w3.org/2000/svg">
<path d="M57.76 18.8995C57.96 22.3095 57.54 25.5395 56.63 28.2695C56.52 28.6395 56.39 28.9995 56.25 29.3495C56.13 29.6395 56.01 29.9295 55.88 30.2195C55.44 30.1095 55 30.0295 54.56 29.9395C54.49 29.9395 54.42 29.9195 54.37 29.9095C54.07 29.8595 53.78 29.8195 53.5 29.7795C53.42 29.7795 53.35 29.7595 53.27 29.7495C53.05 29.7195 52.82 29.6895 52.6 29.6795C52.53 29.6795 52.46 29.6795 52.4 29.6595C51.67 29.6095 50.92 29.5795 50.17 29.5895H50.09C49.67 29.5895 49.24 29.6195 48.82 29.6395C48.46 29.6595 48.08 29.6995 47.71 29.7295C46.87 29.8095 46.04 29.9195 45.21 30.0695C45.16 30.0695 45.09 30.0895 45.04 30.1095C44.65 30.1595 44.26 30.2395 43.87 30.3295C43.44 30.4095 43.03 30.4995 42.61 30.6095C42.36 30.6695 42.1 30.7295 41.85 30.7995C41.56 30.8695 41.28 30.9395 40.98 31.0295C40.61 31.1295 40.25 31.2395 39.87 31.3495C39.69 31.0595 39.51 30.7695 39.34 30.4695C39.13 30.0895 38.93 29.6795 38.74 29.2695C37.53 26.6595 36.74 23.5195 36.54 20.1195C35.99 10.5995 40.27 2.61953 46.13 2.27953C51.99 1.93953 57.19 9.36952 57.74 18.8795L57.76 18.8995Z" fill="black"/>
<path d="M24.62 20.5895C24.82 23.9995 24.4 27.2295 23.49 29.9595C23.38 30.3295 23.25 30.6895 23.11 31.0395C22.99 31.3295 22.87 31.6195 22.74 31.9095C22.3 31.7995 21.86 31.7195 21.42 31.6295C21.35 31.6295 21.28 31.6095 21.23 31.5995C20.93 31.5495 20.64 31.5095 20.36 31.4695C20.28 31.4695 20.21 31.4495 20.13 31.4395C19.91 31.4095 19.68 31.3795 19.46 31.3695C19.39 31.3695 19.32 31.3695 19.26 31.3495C18.53 31.2995 17.78 31.2695 17.03 31.2795H16.95C16.53 31.2795 16.1 31.3095 15.68 31.3295C15.32 31.3495 14.94 31.3895 14.57 31.4195C13.73 31.4995 12.9 31.6095 12.07 31.7595C12.02 31.7595 11.95 31.7795 11.9 31.7995C11.51 31.8495 11.12 31.9295 10.73 32.0195C10.3 32.0995 9.89001 32.1895 9.47001 32.2995C9.22001 32.3595 8.96001 32.4195 8.71001 32.4895C8.42001 32.5595 8.14001 32.6295 7.84001 32.7195C7.47001 32.8195 7.11001 32.9295 6.73001 33.0395C6.55001 32.7495 6.37001 32.4595 6.20001 32.1595C5.99001 31.7795 5.79001 31.3695 5.60001 30.9595C4.39001 28.3495 3.60001 25.2095 3.40001 21.8095C2.85001 12.2895 7.13001 4.30947 12.99 3.96947C18.85 3.62947 24.05 11.0595 24.6 20.5695L24.62 20.5895Z" fill="black"/>
<path d="M23.3899 21.2895C23.5699 24.3095 23.1899 27.1495 22.3899 29.5695C22.2899 29.8995 22.18 30.2195 22.05 30.5195C21.95 30.7795 21.84 31.0295 21.7199 31.2895C21.33 31.1895 20.9399 31.1195 20.5599 31.0495C20.4999 31.0495 20.4399 31.0295 20.3899 31.0195C20.1199 30.9795 19.8699 30.9395 19.6199 30.9095C19.5499 30.9095 19.4899 30.8895 19.4199 30.8895C19.2299 30.8695 19.0199 30.8395 18.8299 30.8295C18.7699 30.8295 18.7099 30.8295 18.6499 30.8195C17.9999 30.7695 17.3399 30.7495 16.6799 30.7595H16.6099C16.2399 30.7595 15.8599 30.7795 15.4899 30.8095C15.1699 30.8295 14.8299 30.8595 14.5099 30.8895C13.7699 30.9595 13.0399 31.0595 12.2999 31.1895C12.2499 31.1895 12.1899 31.2095 12.1499 31.2195C11.8099 31.2595 11.4599 31.3295 11.1199 31.4095C10.7399 31.4795 10.3799 31.5595 10.0099 31.6495C9.78994 31.6995 9.55994 31.7595 9.33994 31.8195C9.07994 31.8795 8.82995 31.9495 8.56995 32.0195C8.23995 32.1095 7.91994 32.1995 7.58994 32.2995C7.42994 32.0495 7.26994 31.7895 7.12994 31.5295C6.93994 31.1895 6.76995 30.8295 6.59995 30.4695C5.52995 28.1595 4.82994 25.3895 4.65994 22.3895C4.16994 13.9795 7.95994 6.92952 13.1299 6.62952C18.2999 6.32952 22.8999 12.8895 23.3899 21.2995V21.2895Z" fill="white"/>
<path d="M19.62 22.7393C19.79 25.6193 19.15 28.2293 18.03 30.0093C17.71 30.5193 17.35 30.9593 16.95 31.3093C15.33 31.3193 13.7 31.4993 12.07 31.7793C11.62 31.5093 11.21 31.1393 10.81 30.6893C9.36002 29.0693 8.34002 26.4293 8.16002 23.4093C7.86002 18.2093 10.18 13.8493 13.33 13.6693C16.49 13.4893 19.3 17.5493 19.6 22.7393H19.62Z" fill="#FA7854"/>
<path d="M14.1201 28.2174C16.0443 28.1051 17.4688 25.6944 17.3018 22.8329C17.1348 19.9714 15.4395 17.7427 13.5153 17.855C11.5911 17.9673 10.1666 20.378 10.3336 23.2395C10.5006 26.101 12.1959 28.3297 14.1201 28.2174Z" fill="black"/>
<path d="M13.1355 19.8905C13.6038 18.9576 13.4353 17.9262 12.7592 17.5867C12.083 17.2472 11.1551 17.7282 10.6868 18.661C10.2184 19.5939 10.3869 20.6253 11.0631 20.9648C11.7393 21.3043 12.6671 20.8233 13.1355 19.8905Z" fill="#FBFEF3"/>
<path d="M16.4621 27.6433C16.7422 27.2666 16.7322 26.7849 16.4398 26.5674C16.1473 26.3499 15.683 26.4789 15.4029 26.8556C15.1227 27.2322 15.1327 27.7139 15.4252 27.9315C15.7177 28.149 16.1819 28.02 16.4621 27.6433Z" fill="#FBFEF3"/>
<path d="M28.35 34.3895C26.89 33.5095 25.38 32.8594 23.83 32.4094C23.44 32.2794 23.04 32.1795 22.65 32.0895C22.21 31.9795 21.77 31.8995 21.33 31.8095C21.26 31.8095 21.19 31.7895 21.14 31.7795C20.84 31.7295 20.55 31.6895 20.27 31.6495C20.19 31.6495 20.12 31.6295 20.04 31.6195C19.82 31.5895 19.59 31.5594 19.37 31.5494C19.3 31.5494 19.23 31.5495 19.17 31.5295C18.44 31.4795 17.69 31.4494 16.94 31.4594H16.86C16.44 31.4594 16.01 31.4895 15.59 31.5095C15.23 31.5295 14.85 31.5694 14.48 31.5994C13.64 31.6794 12.81 31.7894 11.98 31.9394C11.93 31.9394 11.86 31.9595 11.81 31.9795C11.42 32.0295 11.03 32.1095 10.64 32.1995C10.21 32.2795 9.8 32.3695 9.38 32.4795C9.13 32.5395 8.87 32.5995 8.62 32.6695C8.33 32.7395 8.05 32.8095 7.75 32.8995C7.38 32.9995 7.02 33.1094 6.64 33.2194C6.21 33.3494 5.8 33.4895 5.39 33.6195C3.54 34.2295 1.73 34.9195 0 35.6495C1.26 34.7795 2.64 33.9695 4.09 33.2595C4.75 32.9195 5.43 32.6295 6.12 32.3395C7.60999 31.7195 9.15999 31.2094 10.72 30.8494C13.11 30.2794 15.55 30.0295 17.93 30.1695C19.68 30.2795 21.4 30.6195 23.01 31.1995C23.4 31.3395 23.77 31.4794 24.15 31.6594C25.65 32.2994 27.06 33.2094 28.34 34.3794L28.35 34.3895Z" fill="black"/>
<path d="M56.53 19.4394C56.71 22.4594 56.33 25.2994 55.53 27.7194C55.43 28.0494 55.32 28.3694 55.19 28.6694C55.09 28.9294 54.98 29.1794 54.86 29.4394C54.47 29.3394 54.08 29.2694 53.7 29.1994C53.64 29.1994 53.58 29.1794 53.53 29.1694C53.26 29.1294 53.0099 29.0894 52.7599 29.0594C52.6899 29.0594 52.63 29.0394 52.56 29.0394C52.37 29.0194 52.16 28.9894 51.97 28.9794C51.91 28.9794 51.8499 28.9794 51.7899 28.9694C51.1399 28.9194 50.4799 28.8994 49.8199 28.9094H49.75C49.38 28.9094 48.9999 28.9294 48.6299 28.9594C48.3099 28.9794 47.9699 29.0094 47.6499 29.0394C46.9099 29.1094 46.18 29.2094 45.44 29.3394C45.39 29.3394 45.3299 29.3594 45.2899 29.3694C44.9499 29.4094 44.5999 29.4794 44.2599 29.5594C43.8799 29.6294 43.5199 29.7094 43.1499 29.7994C42.9299 29.8494 42.7 29.9094 42.48 29.9694C42.22 30.0294 41.9699 30.0994 41.7099 30.1694C41.3799 30.2594 41.06 30.3494 40.73 30.4494C40.57 30.1994 40.41 29.9394 40.27 29.6794C40.08 29.3394 39.9099 28.9794 39.7399 28.6194C38.6699 26.3094 37.97 23.5394 37.8 20.5394C37.31 12.1294 41.1 5.07942 46.27 4.77942C51.44 4.47942 56.04 11.0394 56.53 19.4494V19.4394Z" fill="white"/>
<path d="M4.32996 6.25939C8.55996 0.379389 16.64 0.109388 21.08 5.89939C20.11 5.25939 19.13 4.51939 18.09 4.00939C13.57 1.32939 8.08996 2.97939 4.32996 6.24939V6.25939Z" fill="black"/>
<path d="M52.76 21.0494C52.93 23.9294 52.29 26.5394 51.17 28.3194C50.85 28.8294 50.49 29.2694 50.09 29.6194C48.47 29.6294 46.84 29.8094 45.21 30.0894C44.76 29.8194 44.35 29.4494 43.95 28.9994C42.5 27.3794 41.48 24.7394 41.3 21.7194C41 16.5194 43.32 12.1594 46.47 11.9794C49.62 11.7994 52.44 15.8594 52.74 21.0494H52.76Z" fill="#FA7854"/>
<path d="M47.2653 26.5196C49.1895 26.4073 50.614 23.9966 50.447 21.1351C50.28 18.2736 48.5848 16.045 46.6606 16.1573C44.7364 16.2696 43.3119 18.6803 43.4789 21.5418C43.6459 24.4033 45.3411 26.6319 47.2653 26.5196Z" fill="black"/>
<path d="M46.2749 18.2054C46.7432 17.2726 46.5747 16.2411 45.8986 15.9016C45.2224 15.5621 44.2945 16.0431 43.8262 16.976C43.3578 17.9088 43.5263 18.9403 44.2025 19.2797C44.8787 19.6192 45.8065 19.1382 46.2749 18.2054Z" fill="#FBFEF3"/>
<path d="M49.6094 25.9453C49.8896 25.5686 49.8796 25.0869 49.5871 24.8694C49.2946 24.6519 48.8304 24.7809 48.5502 25.1576C48.2701 25.5342 48.2801 26.0159 48.5726 26.2335C48.865 26.451 49.3293 26.322 49.6094 25.9453Z" fill="#FBFEF3"/>
<path d="M61.49 32.6895C60.03 31.8095 58.52 31.1595 56.97 30.7095C56.58 30.5795 56.18 30.4795 55.79 30.3895C55.35 30.2795 54.91 30.1995 54.47 30.1095C54.4 30.1095 54.33 30.0895 54.28 30.0795C53.98 30.0295 53.69 29.9895 53.41 29.9495C53.33 29.9495 53.26 29.9295 53.18 29.9195C52.96 29.8895 52.73 29.8595 52.51 29.8495C52.44 29.8495 52.37 29.8495 52.31 29.8295C51.58 29.7795 50.83 29.7495 50.08 29.7595H50C49.58 29.7595 49.15 29.7895 48.73 29.8095C48.37 29.8295 47.99 29.8695 47.62 29.8995C46.78 29.9795 45.95 30.0895 45.12 30.2395C45.07 30.2395 45 30.2595 44.95 30.2795C44.56 30.3295 44.17 30.4095 43.78 30.4995C43.35 30.5795 42.94 30.6695 42.52 30.7795C42.27 30.8395 42.01 30.8995 41.76 30.9695C41.47 31.0395 41.19 31.1095 40.89 31.1995C40.52 31.2995 40.16 31.4095 39.78 31.5195C39.35 31.6495 38.94 31.7895 38.53 31.9195C36.68 32.5295 34.87 33.2195 33.14 33.9495C34.4 33.0795 35.78 32.2695 37.23 31.5595C37.89 31.2195 38.57 30.9295 39.26 30.6395C40.75 30.0195 42.3 29.5095 43.86 29.1495C46.25 28.5795 48.69 28.3295 51.07 28.4695C52.82 28.5795 54.54 28.9195 56.15 29.4995C56.54 29.6395 56.91 29.7795 57.29 29.9595C58.79 30.5995 60.2 31.5095 61.48 32.6795L61.49 32.6895Z" fill="black"/>
<path d="M37.47 4.55944C41.7 -1.32056 49.78 -1.59056 54.22 4.19944C53.25 3.55944 52.27 2.81944 51.23 2.30944C46.71 -0.370562 41.23 1.27943 37.47 4.54943V4.55944Z" fill="black"/>
<path d="M7.72997 40.8893C10.27 42.4793 12.7 44.1593 15.28 45.5693C18.73 47.4593 22.48 48.5593 26.4 48.7393C31.74 48.9793 36.76 47.9393 40.97 44.2693C43.65 41.9293 45.22 38.7893 46.7 35.5893C47.67 33.4693 48.64 31.3293 49.8 29.3193C50.44 28.2093 51.38 27.1993 52.37 26.3893C54.41 24.7193 56.56 25.1093 58.09 27.2893C59.63 29.4893 60.1 32.0093 60.03 34.6493C59.91 39.4893 57.92 43.2493 53.85 45.8193C51.16 47.5193 48.29 48.7593 45.13 49.7793C48.62 45.8893 52.75 42.6193 53.32 37.0493C53.22 36.9893 53.12 36.9193 53.02 36.8593C52.89 37.0993 52.77 37.3393 52.64 37.5793C49.91 42.8893 46.35 47.4693 41.37 50.7293C34.59 55.1593 27.42 55.4693 20.04 52.4893C15.62 50.6993 11.87 47.9893 9.26997 43.8293C8.67997 42.8793 8.21997 41.8393 7.71997 40.8893H7.72997Z" fill="#FA7854"/>
</svg>
