<svg width="70" height="94" viewBox="0 0 70 94" fill="none" xmlns="http://www.w3.org/2000/svg">
<path d="M13.5703 59.4375L9.05713 69.0731C8.3822 70.5145 10.1978 72.1449 11.5622 71.3227L20.6836 65.8254C19.3562 65.4215 17.8671 64.5662 16.4944 63.3334C15.122 62.101 14.1125 60.7126 13.5703 59.4375Z" fill="#E58423"/>
<path opacity="0.29" d="M10.5151 69.5569C10.1326 69.2147 9.85621 68.5515 9.65691 67.7388L9.027 69.0787C8.35025 70.5184 10.1707 72.1471 11.5388 71.3259L20.6848 65.8354C20.1996 65.6885 19.6927 65.4812 19.1777 65.2176C16.2272 67.3954 11.5945 70.5227 10.5151 69.5569Z" fill="#C17223"/>
<path d="M27.0801 31.584C26.0634 33.7891 25.1166 35.8437 24.3464 37.5146C27.1129 42.4644 36.6687 51.1791 41.8155 53.4453C46.5992 50.5146 46.5107 50.5692 47.2979 50.0865C44.1789 50.8427 26.4025 34.5807 27.0801 31.584Z" fill="#FFA348"/>
<path d="M24.0781 37.4648C17.7828 50.9296 17.2617 52.0446 13.7669 59.5199C14.9302 62.2599 18.0215 65.0423 20.8715 65.9111C27.8071 61.7238 29.0159 60.9939 41.7125 53.3285C36.5168 51.071 26.8706 42.393 24.0781 37.4648Z" fill="#F7931E"/>
<g opacity="0.63">
<path d="M30.9661 45.4559C30.7498 45.2533 30.5351 45.05 30.3229 44.846C30.315 45.7304 30.3513 46.7498 30.4588 47.9076C28.2172 47.1477 26.3472 46.3456 24.8149 45.5831C24.6577 42.7719 24.8205 40.5874 25.0661 38.9907C24.8772 38.7289 24.7014 38.4737 24.5391 38.2256C24.2347 39.8435 24.0012 42.1617 24.1575 45.2483C22.9587 44.6219 21.9934 44.0322 21.2406 43.5259C21.155 43.7093 21.0707 43.8894 20.9879 44.0664C21.8105 44.6233 22.872 45.2704 24.1992 45.9511C24.3009 47.4584 24.4943 49.1374 24.8124 50.9943C22.7423 50.2186 21.0365 49.4198 19.6607 48.6802C19.6168 48.1366 19.5849 47.6144 19.5627 47.1125C19.2709 47.7368 18.9993 48.3166 18.7438 48.8631C18.8458 48.9212 18.95 48.98 19.0564 49.039C19.2251 50.8834 19.5285 52.9625 20.0182 55.2863C18.7335 54.7192 17.5745 54.1495 16.5319 53.5913C16.4466 53.7733 16.3614 53.9557 16.2757 54.1392C17.4295 54.7553 18.7252 55.3843 20.1748 56.0086C20.5648 57.7606 21.0593 59.6471 21.6792 61.6717C19.7191 60.8672 18.02 60.0476 16.5578 59.2541C16.2075 57.9052 15.9168 56.6272 15.6776 55.4176C15.5376 55.7165 15.3948 56.0217 15.2475 56.3371C15.4221 57.1474 15.6187 57.9868 15.8404 58.8561C15.3485 58.5774 14.8868 58.3032 14.4532 58.0349C14.3694 58.2145 14.2835 58.3977 14.1959 58.585C14.7657 58.9369 15.3835 59.2987 16.0517 59.6659C16.4151 61.0271 16.838 62.4587 17.3285 63.9624C17.5929 64.1724 17.8632 64.3714 18.1382 64.5582C17.6105 62.9797 17.1571 61.4781 16.7699 60.0523C18.2481 60.831 19.9533 61.6282 21.9084 62.4085C22.1541 63.186 22.4184 63.9839 22.7018 64.8015C22.8741 64.6973 23.0433 64.595 23.2095 64.4949C22.9982 63.8798 22.7978 63.2755 22.6083 62.6831C23.3254 62.959 24.0747 63.2321 24.857 63.5011C25.0804 63.3663 25.3002 63.2338 25.5178 63.1024C24.4075 62.7274 23.362 62.3432 22.3787 61.9538C21.7527 59.9342 21.253 58.05 20.8577 56.2976C22.5425 56.9976 24.4245 57.6878 26.5197 58.3422C26.8426 59.4629 27.2051 60.6285 27.6107 61.8397C27.7796 61.738 27.9492 61.6353 28.1211 61.5315C27.7809 60.5048 27.4719 59.5106 27.1924 58.5487C28.4628 58.9323 29.809 59.3022 31.2341 59.6533C31.4636 59.515 31.699 59.373 31.9414 59.2266C30.178 58.8038 28.5327 58.3503 27.0002 57.8765C26.3968 55.7286 25.9408 53.7476 25.6027 51.9281C27.3077 52.5248 29.2367 53.0988 31.4076 53.6136C31.7672 55.1618 32.2353 56.8518 32.8383 58.6856C33.0101 58.5819 33.1853 58.476 33.3645 58.3678C32.8321 56.7172 32.4105 55.1845 32.0789 53.769C33.4906 54.0883 35.0011 54.3821 36.6148 54.6408C36.7148 55.145 36.8264 55.6659 36.9514 56.2039C37.1342 56.0934 37.3202 55.9812 37.5098 55.8671C37.4241 55.4837 37.345 55.1091 37.2721 54.7433C37.8277 54.8278 38.3951 54.9078 38.9746 54.9836C39.2397 54.8234 39.5109 54.66 39.788 54.4926C38.8817 54.382 38.0034 54.26 37.1538 54.1282C36.8866 52.6829 36.7186 51.3844 36.6217 50.2319C36.6433 50.2364 36.6654 50.2412 36.6874 50.2461C36.3052 49.9643 35.9189 49.6709 35.5299 49.3674C33.9299 48.9813 32.4625 48.5628 31.1212 48.1276C31.0233 47.1367 30.9774 46.2468 30.9661 45.4559ZM26.3273 57.6645C24.2408 56.997 22.3708 56.2937 20.7004 55.5821C20.2103 53.2897 19.9018 51.2317 19.7247 49.4004C21.1316 50.1414 22.8568 50.9293 24.9357 51.6892C25.2713 53.514 25.7252 55.5036 26.3273 57.6645ZM25.4786 51.2388C25.163 49.4191 24.9672 47.7685 24.8596 46.2816C26.4113 47.0395 28.2883 47.8268 30.5266 48.5699C30.672 49.872 30.9052 51.3348 31.2608 52.9625C29.0938 52.4341 27.172 51.8464 25.4786 51.2388ZM35.9678 50.0843C36.0615 51.2483 36.2278 52.5601 36.4968 54.0227C34.871 53.7556 33.3507 53.4517 31.9316 53.1216C31.5782 51.5191 31.3424 50.0742 31.1919 48.7855C32.6379 49.245 34.227 49.684 35.9678 50.0843Z" fill="#FCBB38"/>
</g>
<path opacity="0.14" d="M20.8739 65.9131C27.8084 61.7254 29.017 60.9954 41.7115 53.3294C36.5168 51.0718 26.8721 42.3934 24.0801 37.4648C23.8746 37.9043 23.6753 38.3305 23.4819 38.7443C25.1615 40.3047 33.2141 48.0641 31.8319 52.148C30.8588 55.0241 24.3069 61.2292 19.6096 65.4125C20.0318 65.6165 20.4555 65.7857 20.8739 65.9131Z" fill="#C17223"/>
<path d="M11.3928 71.3174C10.4496 71.8328 9.09634 70.9493 9.05108 69.853C9.0049 69.4247 8.88506 69.8397 13.1869 60.4132C13.1681 60.4521 8.99963 69.0144 9.01876 68.9752C8.14869 70.6182 10.1373 72.3069 11.5263 71.584C21.0481 66.1594 47.2575 50.0513 47.2968 50.0274C47.2968 50.0274 50.6936 47.8294 11.3928 71.3174Z" fill="#AD5012"/>
<path d="M15.7019 63.7928C13.3545 61.5134 13.1287 60.836 13.0725 60.711C12.2014 58.7719 13.853 57.8186 14.2522 59.0601C14.3095 59.2307 15.8378 62.9532 21.6164 65.5488C22.0349 65.7366 21.0695 67.1627 19.8369 66.6142C17.5456 65.5969 16.9533 64.9352 15.7019 63.7928Z" fill="#FFB303"/>
<path d="M31.1781 47.8339C26.001 43.0935 23.6458 38.0797 23.5009 37.7646C23.0948 36.8793 24.0081 36.3297 24.6639 36.6868C24.8397 36.7825 30.28 48.1433 41.9509 52.5903C43.0913 53.0223 42.6429 54.6941 41.4996 54.2584C37.2567 52.6422 33.8431 50.2741 31.1781 47.8339Z" fill="#FFB303"/>
<g opacity="0.31">
<path d="M14.2587 60.1432C14.7249 62.3061 16.4028 63.5325 17.9469 64.95L18.6853 65.5378C16.7013 64.403 14.1063 62.7155 13.1758 60.5065C13.0548 60.1901 12.9565 59.7313 12.968 59.7772C12.7431 58.8675 13.9599 58.4538 14.1851 59.3647C14.2334 59.5607 14.2014 59.8775 14.2587 60.1432Z" fill="#FFB303"/>
</g>
<g opacity="0.31">
<path d="M26.9141 41.1372C29.7441 45.7675 33.8979 48.9758 33.6797 48.7889C34.2106 49.2245 34.7631 49.633 35.3053 50.0575C34.7361 49.6745 31.9861 47.7265 31.139 47.0003C27.5682 43.9766 25.0272 40.3228 24.0428 37.9226C23.917 37.6158 24.0587 37.2656 24.3593 37.1407C24.6748 37.0094 25.0362 37.1783 25.1465 37.5091C25.3995 38.0619 25.6566 39.0873 26.9141 41.1372Z" fill="#FFB303"/>
</g>
<path d="M30.7941 22.8545C30.7941 22.8545 21.8128 30.6772 21.3632 33.3679C20.9139 36.0585 23.4082 36.1978 25.8183 34.6787C28.2288 33.1596 24.5647 38.0623 24.7267 40.8852C24.8888 43.7084 29.0991 44.4515 31.4511 41.8296C33.8031 39.2076 31.4317 43.3727 32.5745 44.4035C33.7173 45.4342 36.5869 42.9207 36.6759 44.472C36.7652 46.0234 37.2754 49.2041 40.3179 49.8272C43.3604 50.4506 40.6002 53.0739 42.5373 54.2877C44.4749 55.5013 48.7529 53.6357 50.4653 51.7267C52.1779 49.8175 60.1722 44.4092 57.55 35.7997C54.9283 27.1902 39.5216 17.0667 30.7941 22.8545Z" fill="#FFD09F"/>
<path d="M50.2277 51.7204C48.1508 53.6539 43.7735 55.287 42.2718 53.8013C41.4703 52.7921 42.5302 51.3883 41.7164 50.2835C40.9452 49.0563 38.788 49.9764 37.4866 47.1642C36.6116 45.271 37.1139 44.1181 36.4492 43.7257C35.2341 43.078 31.9727 46.2416 32.2575 42.762C32.3229 41.9351 32.5539 41.0331 32.3265 40.9475C32.6036 41.0968 31.907 42.5159 31.987 43.6876C32.1594 45.9594 35.3228 44.1475 36.057 44.2324C36.2052 44.2573 36.1967 44.3205 36.2105 44.6356C36.3236 47.1055 37.3396 49.4056 39.6864 50.0967C40.1356 50.2143 40.8877 50.3639 41.1071 50.7254C41.6841 51.4835 40.6677 53.0706 41.7974 54.2829C43.8033 56.1642 48.5603 53.8507 50.2277 51.7204Z" fill="#D38319"/>
<path d="M27.3155 42.9982C22.4069 41.9742 27.2097 35.9192 26.9191 34.3214C26.4469 33.0138 24.8626 35.4857 22.679 35.3189C21.5744 35.2565 21.2712 34.3595 21.3415 33.2494C20.7368 35.9419 23.1696 36.3029 25.6226 35.0082C25.6751 34.9791 26.1405 34.7205 26.2298 34.6804C25.7169 36.5587 22.5468 41.0668 25.7025 43.083C26.9103 43.8364 28.779 43.8262 30.2285 42.8974L30.5495 42.6863L30.8426 42.4385C31.3916 42.0218 32.0759 40.8653 32.4037 40.8714C31.7946 40.7657 30.4357 43.4853 27.3155 42.9982Z" fill="#D38319"/>
<path d="M42.9691 17.8404C42.9691 17.8404 38.1626 16.6794 34.3779 18.7232C30.5933 20.7671 25.8006 25.2543 26.8909 27.1035C27.9812 28.9526 31.5735 27.1244 33.4711 25.0004C35.3686 22.8766 36.0724 25.5968 34.8427 26.2424C33.6129 26.8878 27.6108 32.2643 30.7685 32.9091C33.926 33.5538 36.4307 27.6803 37.5859 28.7262C38.7411 29.7722 35.5155 30.8975 36.6706 31.9433C37.8255 32.9891 40.2796 29.6519 40.3268 30.4815C40.3745 31.3115 32.8289 35.6865 36.2884 37.6467C39.7483 39.6072 43.4218 30.783 45.0549 32.2617C46.6875 33.7399 38.7461 36.9285 41.8968 38.5178C45.0476 40.1071 48.2979 32.4995 49.2781 33.387C50.2582 34.2745 48.0423 35.7317 45.3272 38.7707C42.6123 41.8097 44.5438 43.2299 45.9763 43.1603C45.9763 43.1603 47.6724 46.7093 50.6902 41.9236C53.7076 37.1373 53.8962 41.4577 52.4441 43.0831C50.9921 44.7083 46.0838 46.2557 48.0329 48.0206C49.982 49.7854 52.1396 46.5949 53.0965 44.8884C54.0533 43.1817 55.8179 44.5765 54.835 45.6767C53.852 46.777 50.7415 48.5433 51.6486 50.7202C52.5556 52.8972 56.5492 49.2626 58.9708 44.0677C63.4198 34.5234 60.2531 26.5219 42.9691 17.8404Z" fill="#B70800"/>
<path d="M51.6141 49.4356C52.1654 47.9838 54.7126 46.4478 55.0054 45.4625C55.1442 45.0522 54.9694 44.5803 54.6394 44.3968C54.9006 44.8031 54.8461 45.2545 54.3291 45.6373C53.2522 46.5151 50.9271 47.8268 50.9751 49.8665C50.9647 50.2294 51.266 51.1363 51.8736 51.2735C51.4122 50.8978 51.3765 49.9817 51.6141 49.4356Z" fill="#7F0505"/>
<path d="M53.494 44.1434C52.7489 44.4688 52.571 45.4346 51.1019 46.9594C50.086 47.9978 48.8816 48.7093 47.9269 47.6038C46.7643 46.2067 51.9055 44.7378 52.846 42.5819C53.1592 41.8898 53.3761 40.807 53.0608 40.1173C53.1557 40.5219 53.0724 40.9301 52.9761 41.3152C52.5482 42.8013 51.8826 43.1984 50.7331 43.9045C48.3875 45.2605 45.3599 46.7394 47.9165 48.5698C49.2675 49.3877 50.544 48.5512 51.5587 47.3641C52.928 45.7458 52.925 44.788 53.6 44.3318C53.9041 44.1152 54.3669 44.1054 54.6979 44.373C54.4129 44.0467 53.9548 43.9321 53.494 44.1434Z" fill="#7F0505"/>
<path d="M51.9846 39.8742C51.2404 40.3558 50.7121 41.0967 50.2225 41.7575C50.1995 41.7888 49.6563 42.5404 49.6908 42.4927C49.2523 42.981 48.6545 43.8395 47.7519 44.0906C46.9805 44.2775 46.2978 43.7705 45.7907 43.1566C46.0622 44.0671 46.8901 44.7988 47.8522 44.6853C49.2342 44.4699 49.999 43.2819 50.309 42.9583C51.4753 41.1462 52.5591 39.1413 53.1313 40.0956C52.9798 39.5022 52.5164 39.5728 51.9846 39.8742Z" fill="#7F0505"/>
<path d="M49.1992 33.4088C49.5852 33.8405 49.2245 34.3217 48.8246 34.7334C47.4737 36.1511 41.5321 40.5016 44.1994 42.7488C44.6947 43.1221 45.311 43.2337 45.8584 43.132C45.5803 43.0972 45.3176 43.0238 45.0755 42.9168C40.9543 40.8016 51.5152 34.9795 49.1992 33.4088Z" fill="#7F0505"/>
<path d="M41.6722 37.9583C40.0951 36.9144 46.7272 33.572 44.9974 32.2607C46.2046 33.6494 40.0163 35.7742 40.7344 37.9275C40.9818 38.5726 41.7473 38.9728 42.4245 39.0695C45.7851 39.4879 48.3328 32.7551 49.2673 33.3816C48.168 32.3843 44.424 40.0056 41.6722 37.9583Z" fill="#7F0505"/>
<path d="M36.0223 36.9723C34.3206 35.3457 39.9921 31.8363 40.5371 30.7266L40.5768 30.6479C40.6883 30.3295 40.5311 30.0474 40.2865 29.9905C40.0535 29.9494 39.8925 30.0543 39.7029 30.1843C38.7949 30.8392 37.3052 32.5196 36.6133 31.6108C35.9925 30.9009 38.6731 29.6115 37.5304 28.683C38.5356 29.7326 35.5382 30.6326 36.2962 31.8156C36.5548 32.2736 37.1485 32.5302 38.0962 32.0624C36.3024 33.5541 33.7625 35.9195 35.5102 37.5159C36.2999 38.2715 37.4818 38.4044 38.433 37.9474C41.3681 36.6437 43.7383 31.1405 45.0483 32.2091C43.3147 30.7075 38.8233 39.872 36.0223 36.9723Z" fill="#7F0505"/>
<path d="M31.7885 32.4879C31.3862 32.5763 30.5813 32.5334 30.3357 32.2394C30.0501 31.9288 30.3669 31.3012 30.5771 30.9413C31.386 29.5993 33.0738 27.9908 34.2691 27.0381C34.9862 26.4717 35.2584 26.4022 35.4292 26.1889C36.2128 25.3414 35.8556 23.7279 34.7113 23.7872C33.8472 23.914 33.4429 24.5483 33.0402 24.958C31.4918 26.5946 28.1163 28.8113 26.8828 27.0119C27.4985 28.2077 29.0912 27.9524 30.3361 27.4663C32.5299 26.5581 33.6598 25.1392 34.1195 24.77C34.5097 24.4583 34.9134 24.2841 35.0886 24.7526C35.1919 25.0633 35.1296 25.5363 34.707 25.8174C32.8187 27.049 28.2608 31.1148 29.8504 32.7118C30.3468 33.1914 31.2766 33.2541 31.9282 33.0785C34.7618 32.3565 36.587 27.8007 37.6347 28.6319C36.6506 27.6119 34.2747 32.0039 31.7885 32.4879Z" fill="#7F0505"/>
<path d="M55.4154 19.8872C51.1665 16.0321 43.9069 14.8053 39.8196 16.1722C35.7322 17.5392 38.6626 19.5178 38.6626 19.5178C38.6626 19.5178 33.8922 22.0897 36.4153 24.3789C38.9384 26.6681 41.4503 24.4269 41.4503 24.4269C41.4503 24.4269 41.2633 25.816 43.0352 25.7292C43.0352 25.7292 41.6764 27.8384 42.7577 28.8195C43.8389 29.8005 47.0018 26.4607 48.0679 27.4281C49.1341 28.3954 46.0835 31.2323 48.0548 32.2389C50.0262 33.2455 50.5337 31.3598 51.2546 32.0138C51.9755 32.6679 48.9871 36.3116 51.7727 37.356C54.5585 38.4004 56.3299 33.6845 56.4421 35.6492C56.5542 37.614 54.5021 40.6205 56.0075 41.799C58.3944 43.6678 59.2124 40.5425 59.2124 40.5425C59.2124 40.5425 60.0387 42.1995 61.1543 41.3869C62.2701 40.5743 64.0796 27.7482 55.4154 19.8872Z" fill="#6F3404"/>
<path d="M60.4149 41.5273C59.5015 41.4601 59.089 39.9617 59.0214 39.8694C58.9474 40.0166 58.3902 42.0154 57.2908 42.0209C56.9649 42.0409 56.6033 41.8784 56.276 41.6466C56.0868 41.5015 55.735 41.3268 55.6701 40.848C55.4169 39.5635 56.5468 37.3382 56.2559 35.6611C55.9747 37.9487 53.6281 40.7505 55.8556 42.2932C56.965 43.1303 58.4736 42.9389 59.1365 41.0944C59.473 41.4677 59.9357 41.7816 60.4278 41.692C60.6542 41.6623 60.8285 41.5191 60.9819 41.3909C60.7947 41.475 60.6038 41.5451 60.4149 41.5273Z" fill="#441F04"/>
<path d="M51.351 36.7911C49.8563 35.7079 52.0647 32.9685 51.5608 31.9368C51.4902 31.7301 51.1235 31.4556 50.8346 31.4766C49.9619 31.4824 49.6406 32.7056 47.991 31.8895C46.5269 31.1107 49.0958 28.2507 47.9626 27.4019C48.8982 28.4293 45.6715 31.1035 47.682 32.4057C49.6094 33.5467 50.5986 32.1042 50.8249 32.2273C50.8381 32.2241 50.8441 32.2318 50.8814 32.2582C50.8822 32.2648 50.8834 32.2737 50.8858 32.2808C50.9187 32.8909 49.8755 34.676 50.1255 36.0705C50.3238 37.4007 52.1302 38.3185 53.7184 37.4323C55.503 36.4414 56.1073 34.2978 56.334 35.6242C56.351 33.4415 53.9168 38.6272 51.351 36.7911ZM50.8802 32.2518C50.8803 32.2486 50.8804 32.2491 50.8807 32.2518C50.8805 32.2519 50.8805 32.2519 50.8802 32.2518ZM50.8887 32.2633C50.8944 32.2687 50.9019 32.2697 50.8887 32.2633V32.2633Z" fill="#441F04"/>
<path d="M42.6803 27.8051C42.6229 26.8264 43.3162 25.6824 43.4503 25.3821C42.932 25.4131 42.361 25.5059 41.9515 25.2893C41.6499 25.1342 41.4406 24.778 41.4104 24.3747C41.2452 25.0373 41.5864 25.7084 42.5365 25.8929C41.3611 27.8421 42.0043 29.8808 44.0238 29.161C45.6954 28.4966 47.1937 26.8642 48.0484 27.3719C47.1477 26.2249 42.9081 29.7549 42.6803 27.8051Z" fill="#441F04"/>
<path d="M37.4604 24.6351C36.0958 23.7085 35.5557 22.9055 36.6693 21.533C37.5524 20.4338 39.2352 19.5209 39.3218 19.463C39.0813 19.2887 38.4667 18.9916 38.1001 18.4228C37.4173 17.3591 38.8387 16.637 39.8613 16.1137L39.2619 16.2695C38.7173 16.4071 38.2061 16.7476 38.1148 16.7982C37.8114 17.064 37.6377 17.1804 37.4898 17.614C37.3679 17.8798 37.4715 18.3031 37.4783 18.3546C37.5817 18.6625 37.7404 18.9916 38.1292 19.3851C35.1515 21.1154 34.0631 23.5399 37.1701 25.1898C38.8204 25.9428 40.4101 25.4505 41.5033 24.3426C40.2417 25.1351 38.7854 25.3937 37.4604 24.6351Z" fill="#441F04"/>
<path opacity="0.52" d="M30.8784 34.3829C28.5535 36.1662 24.7731 39.8893 27.0499 41.7987L27.0536 41.802C27.4644 42.1464 26.9162 42.7449 26.5289 42.3716C23.963 39.8837 27.9112 36.3077 30.8784 34.3829Z" fill="#00B3D9"/>
<path opacity="0.52" d="M26.1122 28.8996C25.4207 29.5213 22.0641 32.7341 22.6164 33.3779C22.6237 33.4129 22.7669 33.4988 22.8196 33.5392C23.6355 34.0172 24.3992 33.1292 24.3663 33.1517C24.5122 32.995 24.7598 32.9863 24.9194 33.1322C25.5803 33.7365 23.3576 35.0654 22.2397 33.793C21.9686 33.4971 22.039 33.1059 22.1956 32.7429C22.8086 31.4935 24.9938 29.7362 26.1122 28.8996Z" fill="#00B3D9"/>
<path opacity="0.52" d="M39.5686 47.3997C40.121 47.9695 42.155 48.8499 42.8721 48.6231C42.2589 48.8921 40.791 48.4167 40.161 48.1798C38.5869 47.5348 37.8188 45.8486 37.6355 44.2122C37.5753 43.6752 38.4 43.6232 38.4051 44.1725C38.4156 45.3141 38.7679 46.5979 39.5686 47.3997Z" fill="#00B3D9"/>
<path opacity="0.52" d="M34.8742 19.9048C33.7885 20.5984 28.6842 23.9542 28.724 25.1543C28.7686 25.36 28.7806 25.6019 29.0165 25.662C29.3918 25.7695 30.0725 25.378 30.0333 25.3952C30.4789 25.1367 30.882 25.8049 30.436 26.0637C30.3115 26.136 30 26.2601 29.6701 26.3315C29.172 26.4268 28.7017 26.387 28.3732 26.0041C27.4937 24.8342 28.979 23.6607 30.2299 22.7502C31.7128 21.6863 33.2804 20.7698 34.8742 19.9048Z" fill="#00B3D9"/>
<path opacity="0.52" d="M35.15 26.9741C34.2131 27.7929 32.3492 29.4877 31.7061 30.5512C31.3618 31.4697 33.0367 30.7906 32.9929 30.8136C33.4074 30.5091 33.8797 31.1325 33.4651 31.4378C33.2965 31.5619 32.8279 31.7821 32.3636 31.8745C31.434 32.0374 30.9557 31.4416 30.9539 31.1336C30.9005 30.6044 31.5929 29.9061 31.9973 29.5093C32.9833 28.5695 34.0567 27.7577 35.15 26.9741Z" fill="#00B3D9"/>
<path opacity="0.52" d="M42.4484 30.2435C42.4484 30.2435 36.5593 34.2493 36.6371 35.5797C36.7149 36.9101 41.5967 32.3361 42.4484 30.2435Z" fill="#00B3D9"/>
<path opacity="0.52" d="M47.9257 36.822C44.9482 39.83 45.2865 40.8615 45.2942 40.8099C45.432 41.701 43.0098 41.4118 45.9592 38.483C46.5807 37.8815 47.2384 37.3314 47.9257 36.822Z" fill="#00B3D9"/>
<path opacity="0.52" d="M49.634 38.4002C48.8201 39.1516 47.5866 40.4328 47.1536 41.4439C47.0369 41.7173 46.9161 42.1207 47.1332 42.3273C47.5357 42.7098 46.8944 43.2899 46.5473 42.8393C46.5311 42.7988 46.2092 42.4572 46.333 41.8895C46.4646 41.2243 47.0468 40.5746 47.5254 40.0988C48.18 39.4626 48.8926 38.9086 49.634 38.4002Z" fill="#00B3D9"/>
<path opacity="0.57" d="M48.1844 19.2668C45.773 19.2968 40.7449 19.5447 38.6603 21.0659C37.4012 21.9625 37.5991 22.5431 38.3398 23.1692L38.3413 23.1705C38.7481 23.5141 38.2084 24.1114 37.821 23.7431C37.2915 23.2359 36.8824 22.648 37.101 21.9458C37.3555 21.0925 38.5494 20.3882 39.0891 20.1769C40.646 19.4672 43.1474 19.298 44.8632 19.2431C45.9709 19.21 47.0789 19.216 48.1844 19.2668Z" fill="#EDA269"/>
<path opacity="0.57" d="M46.2691 25.2014C43.7648 26.0513 44.162 26.7112 44.2028 26.6397C44.519 27.0476 43.9005 27.5158 43.5838 27.1071C43.2588 26.5883 43.4905 25.8677 44.6064 25.4913C45.1619 25.3075 45.718 25.2544 46.2691 25.2014Z" fill="#EDA269"/>
</svg>
