<svg width="103" height="65" viewBox="0 0 103 65" fill="none" xmlns="http://www.w3.org/2000/svg">
<path d="M7.36839 30.1174C7.36839 30.1174 6.48771 30.0929 5.73047 30.4164C6.25616 30.5201 6.88472 30.7346 7.63846 31.1005C15.5703 34.9305 25.9353 39.4206 30.5378 41.5229C37.7548 44.8219 41.3183 44.2862 53.9712 41.2559C66.6229 38.2282 95.0479 31.3662 97.8988 30.5639C98.8845 30.2868 99.5875 30.0767 100.13 29.9594C99.8361 29.8552 99.6072 29.8066 99.6072 29.8066L7.36839 30.1174Z" fill="url(#paint0_linear_2006_9622)"/>
<path d="M22.8906 38.3376L30.7423 41.9662C32.1631 40.7734 36.1402 37.5593 40.6158 35.0972C35.1291 35.3388 28.6851 36.1687 22.8906 38.3376Z" fill="url(#paint1_linear_2006_9622)"/>
<path d="M22.8906 38.3376L30.7423 41.9662C32.1631 40.7734 36.1402 37.5593 40.6158 35.0972C35.1291 35.3388 28.6851 36.1687 22.8906 38.3376Z" fill="url(#paint2_linear_2006_9622)"/>
<path d="M53.6801 35.5244C53.6801 35.5244 48.017 34.7733 40.6157 35.0972C36.1401 37.5593 32.163 40.7739 30.7422 41.9662L32.9237 42.973L53.6801 35.5244Z" fill="url(#paint3_linear_2006_9622)"/>
<path d="M36.3652 40.3042C35.5949 40.2403 33.6773 40.6885 34.6376 39.6643C35.3388 38.7748 36.2764 37.8893 36.7321 37.4735C33.9613 39.3272 31.7325 41.1367 30.7441 41.9666L32.9257 42.9734L48.2807 37.4639C47.9209 37.4766 47.5309 37.5409 47.1111 37.681C44.0397 38.7022 37.1304 40.3681 36.3652 40.3042Z" fill="url(#paint4_linear_2006_9622)"/>
<g opacity="0.5">
<path d="M35.2363 37.8225C33.8777 38.7548 31.0789 41.0454 29.9759 40.4514C28.8715 39.8574 26.4116 38.9251 27.8556 38.2449C29.6349 37.3983 32.4371 36.8871 32.4371 36.8871C32.4371 36.8871 32.0883 36.5601 31.5473 36.0519C28.6312 36.5601 25.6837 37.2928 22.8906 38.3385L30.7423 41.9672C32.1631 40.7744 36.1402 37.5603 40.6158 35.0981C39.8078 35.134 38.9753 35.1839 38.1278 35.2483C37.0279 36.3102 35.8517 37.3979 35.2363 37.8225Z" fill="url(#paint5_linear_2006_9622)"/>
</g>
<path d="M63.2812 8.27626C63.2812 8.27626 67.524 4.79775 72.7639 2.08306C74.0267 1.49565 75.1919 -0.149275 75.9141 0.0109277C76.6363 0.170693 80.2098 1.49609 81.1325 2.70023C81.6148 3.54283 80.3315 8.52094 80.3315 8.52094L65.7561 13.9009L63.2812 8.27626Z" fill="url(#paint6_linear_2006_9622)"/>
<path d="M80.9936 2.53955C76.4909 4.77145 67.9682 11.5219 65.5625 13.457L65.7555 13.8999L80.3309 8.52002C80.3309 8.52002 81.6143 3.54191 81.1319 2.69931C81.0917 2.64766 81.0431 2.59251 80.9936 2.53955Z" fill="url(#paint7_linear_2006_9622)"/>
<path d="M77.2262 8.16658C74.8087 8.66339 71.7728 9.84171 73.8186 7.98099C75.6942 6.24852 77.8487 4.51606 78.7171 3.82666C74.0603 6.69981 67.6049 11.8123 65.5625 13.4577L65.7555 13.9006L80.3309 8.52069C80.3309 8.52069 80.6719 7.19136 80.9363 5.79024C80.517 7.28678 79.5054 7.70217 77.2262 8.16658Z" fill="url(#paint8_linear_2006_9622)"/>
<path d="M69.4766 10.3712C69.4766 10.3712 78.2094 3.90751 80.8895 2.6167C78.525 3.4663 73.0382 7.06211 69.4766 10.3712Z" fill="#FFF26B"/>
<path d="M74.9437 0.724157C74.9437 0.724157 73.8441 1.78386 71.8893 2.84094C69.934 3.9002 68.6345 4.75418 67.1668 5.93513C66.0288 6.955 67.0053 7.0351 67.5354 7.93066C68.0619 8.82578 73.8848 4.06172 75.4733 3.04666C77.0609 2.02679 80.5009 2.41811 76.9795 0.929883C75.8357 0.444022 75.7167 0.276815 74.9437 0.724157Z" fill="url(#paint9_linear_2006_9622)"/>
<path d="M75.988 0.674316C75.988 0.674316 71.5688 3.29359 68.8169 5.31976C67.4425 6.25953 72.0367 2.48776 75.988 0.674316Z" fill="white"/>
<path d="M68.3828 11.2311C68.5111 11.1352 68.6437 11.0324 68.7899 10.9111C68.6498 11.0206 68.5154 11.1239 68.3828 11.2311Z" fill="url(#paint10_linear_2006_9622)"/>
<path d="M66.3941 10.2327C66.2163 8.62196 66.2163 8.30067 65.6434 8.15798C65.0722 8.01353 64.5347 7.97808 64.8577 7.54912C65.1536 7.15255 66.2759 6.08848 66.4409 5.92871C64.5018 7.2738 63.2793 8.27616 63.2793 8.27616L65.5497 13.4285C66.3183 12.8319 67.2511 12.1066 68.3822 11.2312C66.9071 12.3119 66.5582 11.7118 66.3941 10.2327Z" fill="url(#paint11_linear_2006_9622)"/>
<path d="M55.4125 18.4872C55.4125 18.4872 72.0197 8.10769 86.2274 7.45068C86.8814 11.2763 86.8814 11.2763 86.8814 11.2763L82.9455 16.4487L54.7012 25.4275L55.4125 18.4872Z" fill="url(#paint12_linear_2006_9622)"/>
<path d="M54.6992 25.4276L82.9435 16.4488L86.8794 11.2764C71.1423 13.5328 58.2281 22.5886 54.7158 25.249L54.6992 25.4276Z" fill="url(#paint13_linear_2006_9622)"/>
<path d="M80.8941 15.7663C75.7922 16.9813 69.9623 18.9239 69.4768 17.9526C69.2357 17.3455 68.2644 17.5486 71.5836 15.6848C71.7197 15.6091 71.8563 15.5303 71.9924 15.4493C63.411 18.9782 57.0279 23.4993 54.7163 25.2489L54.6992 25.4274L82.9435 16.4486L83.9507 15.125C83.0254 15.2922 82.0011 15.5036 80.8941 15.7663Z" fill="url(#paint14_linear_2006_9622)"/>
<path d="M85.1356 7.87061C85.1356 7.87061 77.8665 8.41775 69.6533 12.102C67.9103 12.6977 68.1104 13.4948 68.2614 14.1912C68.4085 14.8885 75.8745 11.7536 80.1085 10.8081C84.5863 9.91122 85.534 10.3603 85.534 9.31462C85.534 8.26892 85.4337 7.87061 85.1356 7.87061Z" fill="url(#paint15_linear_2006_9622)"/>
<path d="M63.8127 18.1924C65.6498 16.403 67.0714 14.5209 66.9808 14.1081C66.9331 13.0983 66.9331 12.7757 68.129 12.1345C68.2292 12.0745 68.3342 12.0106 68.4367 11.9458C60.9855 15.005 55.413 18.4865 55.413 18.4865L54.7188 25.2672C57.9018 22.7621 63.8328 19.4189 68.5872 16.9541C66.0621 17.9184 61.9756 19.9376 63.8127 18.1924Z" fill="url(#paint16_linear_2006_9622)"/>
<path d="M71.0469 15.8365C71.0469 15.8365 80.2121 12.4402 86.8798 11.2764C81.1016 11.5552 74.1332 14.3924 71.0469 15.8365Z" fill="#FFF26B"/>
<path d="M30.3047 20.1379C30.3047 20.1379 42.9274 14.6525 53.7937 3.46631C53.7937 3.46631 55.8719 4.42446 56.4046 5.06396C56.9391 5.7039 56.6712 7.56768 56.7242 8.47156C56.7771 9.37806 50.3865 14.5453 46.4974 16.7828C42.6075 19.0213 30.3047 20.1379 30.3047 20.1379Z" fill="url(#paint17_linear_2006_9622)"/>
<path d="M56.4042 5.06445C56.4042 5.06445 51.0904 12.4552 39.7852 18.8043C42.4732 18.2843 45.0609 17.6093 46.497 16.7838C50.3861 14.5462 56.7767 9.37899 56.7238 8.47249C56.6708 7.56817 56.9387 5.70439 56.4042 5.06445Z" fill="url(#paint18_linear_2006_9622)"/>
<path d="M54.027 10.8999C52.3738 12.0156 51.2108 12.9996 50.4531 12.9996C49.6915 12.9996 48.9329 12.9996 49.5864 12.4152C50.8133 11.2457 51.8078 10.196 52.6005 9.29346C49.8661 11.9653 45.6291 15.5239 39.7852 18.8045C42.4732 18.2845 45.0609 17.6096 46.497 16.784C49.6302 14.982 54.3833 11.2789 56.0869 9.43527C55.4351 9.91326 54.6932 10.449 54.027 10.8999Z" fill="url(#paint19_linear_2006_9622)"/>
<path d="M55.9025 5.72168C55.9025 5.72168 50.8018 11.1384 48.2285 13.1234C53.2521 9.56743 55.9025 5.72168 55.9025 5.72168Z" fill="#FFF26B"/>
<path d="M53.2849 4.3519C53.2849 4.3519 47.7789 10.1814 41.2207 14.4714C38.7918 16.2537 44.4597 15.6852 48.671 11.7182C53.0424 7.75205 55.3903 5.56568 55.0659 5.24177C54.7433 4.91742 53.6911 3.94614 53.2849 4.3519Z" fill="url(#paint20_linear_2006_9622)"/>
<path d="M44.884 15.5928C44.884 15.5928 42.133 16.9125 39.4341 17.4631C36.7377 18.0146 34.6477 18.2887 36.2436 17.299C37.3506 16.5833 38.2724 15.8939 38.7836 15.4956C33.8405 18.6016 30.3047 20.138 30.3047 20.138C30.3047 20.138 37.1151 19.5195 42.2026 18.2816C43.0474 16.8363 44.884 15.5928 44.884 15.5928Z" fill="url(#paint21_linear_2006_9622)"/>
<path d="M12.7768 20.9486C12.7768 20.9486 33.8759 23.2352 58.2788 10.0181C53.5143 17.2631 35.4652 27.0482 15.1934 26.8599C11.8874 26.6682 12.7768 25.7144 12.7768 23.9995C12.7768 22.2828 12.7768 20.9486 12.7768 20.9486Z" fill="url(#paint22_linear_2006_9622)"/>
<path d="M12.7766 23.9993C12.7766 25.4512 12.1398 26.3555 13.9497 26.7166L12.7766 22.0996C12.7766 22.6139 12.7766 23.2709 12.7766 23.9993Z" fill="url(#paint23_linear_2006_9622)"/>
<g opacity="0.5">
<path d="M45.8122 15.6479C48.6683 14.7095 52.1713 13.5285 53.505 12.956C55.9142 11.9252 45.0777 20.4396 30.5426 22.7599C20.5658 24.1365 15.3194 24.5663 14.0308 22.5025C13.7195 22.0088 13.4368 21.4888 13.1812 20.9832C12.9168 20.9631 12.7767 20.9486 12.7767 20.9486C12.7767 20.9486 12.7767 22.2828 12.7767 23.9995C12.7767 25.7144 11.8877 26.6687 15.1933 26.8599C35.4651 27.0486 53.5142 17.2631 58.2787 10.0181C53.9887 12.3419 49.802 14.1838 45.8122 15.6479Z" fill="url(#paint24_linear_2006_9622)"/>
</g>
<path d="M19.9442 21.4289C19.9442 21.4289 34.9564 20.4681 45.3827 16.105C49.3751 14.4784 43.9028 19.6535 31.9257 21.6504C19.9442 23.6455 19.9442 23.7225 19.278 22.5385C18.6157 21.5768 19.056 21.4289 19.9442 21.4289Z" fill="url(#paint25_linear_2006_9622)"/>
<path d="M16.2288 24.1351C16.2288 24.1351 44.2739 27.1938 60.3887 7.30811C64.1596 7.81804 65.7927 8.53195 65.7927 8.53195C65.7927 8.53195 66.5067 11.9995 66.4038 13.9373C64.6709 17.4035 49.4735 35.5577 21.2275 30.7629C15.4133 29.642 14.3926 28.0097 14.3926 28.0097L16.2288 24.1351Z" fill="url(#paint26_linear_2006_9622)"/>
<path d="M22.6325 27.8764C22.6325 27.8764 22.0639 29.3388 21.1543 30.7482C21.1784 30.7539 21.202 30.7583 21.227 30.7622C49.473 35.5565 64.6704 17.4028 66.4033 13.9366C66.5057 11.9988 65.7922 8.53125 65.7922 8.53125C65.7922 8.53125 57.3593 27.3012 22.6325 27.8764Z" fill="url(#paint27_linear_2006_9622)"/>
<path d="M60.6268 7.90918C60.6268 7.90918 53.4251 18.427 37.2902 22.3716C26.9825 24.4337 44.3014 25.8077 55.2316 17.0618C63.0027 10.6243 64.3399 9.04723 63.2474 8.5605C62.1527 8.07376 60.6268 7.90918 60.6268 7.90918Z" fill="url(#paint28_linear_2006_9622)"/>
<path d="M60.737 8.23633C60.737 8.23633 57.3369 12.2847 53.6115 14.795C51.5884 16.0906 57.7352 13.2801 60.737 8.23633Z" fill="white"/>
<g opacity="0.5">
<path d="M55.4771 22.5202C53.6965 22.1144 52.154 21.759 55.2316 20.0563C62.0485 15.8621 64.8407 11.2035 65.8693 8.92305C65.8207 8.6775 65.7922 8.53174 65.7922 8.53174C65.7922 8.53174 57.3593 27.3013 22.6325 27.8764C22.6325 27.8764 22.0639 29.3388 21.1543 30.7483C21.1784 30.754 21.202 30.7584 21.227 30.7623C49.0747 35.4896 64.237 17.9141 66.321 14.0938C62.5422 18.9738 57.1741 22.904 55.4771 22.5202Z" fill="url(#paint29_linear_2006_9622)"/>
</g>
<path d="M14.3926 28.0094C14.3926 28.0094 15.4063 29.6272 21.1548 30.7487C22.0644 29.3388 22.633 27.8768 22.633 27.8768C22.633 27.8768 17.5712 24.608 16.2288 24.1353L14.3926 28.0094Z" fill="url(#paint30_linear_2006_9622)"/>
<g opacity="0.6">
<path d="M22.1861 27.59C21.4498 29.3348 19.4582 28.0413 17.9858 27.2631C16.4476 26.4546 15.5578 26.2104 15.8007 25.2395C15.8296 25.1235 15.851 25.0067 15.869 24.8911L14.3926 28.0098C14.3926 28.0098 15.4063 29.6276 21.1548 30.749C22.0644 29.3392 22.633 27.8772 22.633 27.8772C22.633 27.8772 22.464 27.7699 22.1861 27.59Z" fill="url(#paint31_linear_2006_9622)"/>
</g>
<g opacity="0.5">
<path d="M29.681 27.4926C34.1907 27.2054 40.6102 25.6161 40.6102 25.6161C40.6102 25.6161 39.5619 25.4905 36.7588 25.4546C33.8778 25.4191 34.0095 25.8459 31.0642 26.3042C26.7487 27.0881 24.1299 27.2194 22.8868 26.4373C21.6446 25.6502 19.6149 24.7332 21.2506 24.6046C23.1612 24.4991 24.5379 24.2347 25.0355 24.1274C19.7598 24.5192 16.2266 24.1349 16.2266 24.1349C17.9288 24.8431 22.6307 27.8764 22.6307 27.8764C22.6307 27.8764 25.1682 27.7771 29.681 27.4926Z" fill="url(#paint32_linear_2006_9622)"/>
</g>
<path d="M2.43815 21.272C2.43815 21.272 0.413727 24.188 0.0101563 25.3204C-0.395166 25.889 11.4248 33.8234 18.7132 36.0899C30.3725 33.4977 31.5062 31.7184 31.5062 31.7184C31.5062 31.7184 21.3036 32.0397 8.10653 21.5149C6.72992 20.9489 2.43815 21.272 2.43815 21.272Z" fill="url(#paint33_linear_2006_9622)"/>
<path d="M6.04188 25.4022C6.64812 24.3097 8.1057 21.5149 8.1057 21.5149C6.72909 20.9489 2.43776 21.272 2.43776 21.272C2.43776 21.272 0.413337 24.188 0.00976562 25.3204C0.00976562 25.3204 5.83922 25.8075 6.04188 25.4022Z" fill="url(#paint34_linear_2006_9622)"/>
<path d="M6.04227 25.4022C5.83961 25.8075 0.0101563 25.3203 0.0101563 25.3203C-0.395166 25.8889 11.4248 33.8233 18.7132 36.0898C20.6299 35.6626 22.2595 35.2612 23.6466 34.8817C12.7406 32.4441 6.04227 25.4022 6.04227 25.4022Z" fill="url(#paint35_linear_2006_9622)"/>
<path d="M23.6466 34.8818C15.3966 33.0381 9.55444 28.5594 7.19998 26.4873C7.17854 26.5044 7.15621 26.5184 7.13477 26.5355C11.3434 30.6657 14.7855 32.3649 13.9955 32.9733C13.4772 33.3717 12.3291 33.2163 10.8488 32.5833C13.5691 34.0488 16.374 35.3611 18.7131 36.0894C20.6299 35.6626 22.2591 35.2613 23.6466 34.8818Z" fill="url(#paint36_linear_2006_9622)"/>
<path d="M8.85059 22.4644C8.85059 22.4644 14.7895 27.8098 22.4258 30.1835C26.1573 31.2029 23.1883 32.7296 17.3365 30.7788C11.4812 28.8266 7.15357 25.3494 7.4092 24.4166C7.66263 23.4812 8.17388 22.2088 8.85059 22.4644Z" fill="url(#paint37_linear_2006_9622)"/>
<path d="M9.10547 23.2285C9.10547 23.2285 13.4305 26.7915 18.9466 29.1678C21.3225 30.3558 11.99 27.4708 9.10547 23.2285Z" fill="url(#paint38_linear_2006_9622)"/>
<g opacity="0.5">
<path d="M7.5161 21.3535C7.18081 22.7844 6.57983 23.7583 4.46306 24.2682C3.10439 24.5952 1.42314 24.7335 0.243942 24.7935C0.143268 24.9922 0.0618534 25.1734 0.00976562 25.3205C0.00976562 25.3205 5.83922 25.8072 6.04188 25.4024C6.64812 24.3098 8.1057 21.515 8.1057 21.515C7.94594 21.4502 7.7459 21.396 7.5161 21.3535Z" fill="url(#paint39_linear_2006_9622)"/>
</g>
<path d="M6.04102 25.4023C6.04102 25.4023 10.5411 29.8548 15.7315 32.0643C13.5959 30.7372 8.31099 27.4644 6.04102 25.4023Z" fill="#FFF26B"/>
<path d="M30.8839 31.5701C30.8839 31.5701 30.2514 30.6851 30.5665 30.2434C30.8839 29.7992 33.4734 26.8288 34.5497 26.1346C35.6234 25.4409 42.9218 26.9418 55.1458 23.9439C67.3738 20.949 83.3254 15.6855 83.3254 15.6855C83.3254 15.6855 83.8904 17.3878 83.8904 19.0043C83.8904 20.6251 64.9441 35.2005 52.4767 33.3368C40.0067 31.4743 30.8839 31.5701 30.8839 31.5701Z" fill="url(#paint40_linear_2006_9622)"/>
<g opacity="0.5">
<path d="M82.6755 15.8982C81.7857 16.7977 80.6082 17.9717 79.2745 19.248C76.362 22.0415 75.1307 22.607 64.2001 25.889C53.2691 29.1679 47.2948 28.8838 41.6995 28.8191C38.7629 28.7849 36.5008 27.3484 35.5439 25.9415C35.0559 25.9674 34.7215 26.0221 34.5499 26.1341C33.4735 26.8284 30.884 29.7987 30.5667 30.2429C30.2511 30.6846 30.884 31.5697 30.884 31.5697C30.884 31.5697 40.0068 31.4738 52.4768 33.3363C64.9438 35.2 83.8906 20.6246 83.8906 19.0038C83.8906 17.3873 83.3255 15.6851 83.3255 15.6851C83.3255 15.6851 83.0957 15.7621 82.6755 15.8982Z" fill="url(#paint41_linear_2006_9622)"/>
</g>
<path d="M34.7146 26.0605C34.6507 26.082 34.5933 26.1061 34.5504 26.1345C33.4741 26.8287 30.8846 29.7991 30.5672 30.2433C30.4937 30.3488 30.4714 30.4775 30.4836 30.6163C32.0432 30.7235 34.7977 30.8763 38.2198 30.8933C36.9784 29.0484 35.5121 26.9066 34.9864 26.2921C34.9037 26.1945 34.8104 26.1174 34.7146 26.0605Z" fill="url(#paint42_linear_2006_9622)"/>
<g opacity="0.5">
<path d="M34.986 26.2917C34.9032 26.1945 34.81 26.1174 34.7141 26.0605C34.6502 26.082 34.5929 26.1061 34.55 26.1345C34.5329 26.1446 34.5159 26.159 34.4988 26.1704C35.0245 26.3486 35.2818 27.3728 36.0058 28.5568C36.9241 30.0608 34.5023 29.6419 32.1658 29.8091C31.5954 29.8503 31.2785 29.7443 31.1262 29.5662C30.8456 29.8901 30.6417 30.1387 30.5672 30.2429C30.4937 30.3484 30.4714 30.4771 30.4836 30.6158C32.0432 30.7231 34.7977 30.8758 38.2198 30.8929C36.978 29.0479 35.5121 26.9058 34.986 26.2917Z" fill="url(#paint43_linear_2006_9622)"/>
</g>
<path d="M38.8294 26.116C38.8294 26.116 52.3928 26.6316 71.1129 19.911C76.1199 18.2643 69.1918 23.1356 59.6623 25.6017C50.1316 28.0721 42.9229 28.0152 40.4529 27.9167C38.7405 27.848 37.5924 26.116 38.8294 26.116Z" fill="url(#paint44_linear_2006_9622)"/>
<path d="M32.2181 29.3004C32.2181 29.3004 33.7221 27.8454 34.2075 27.7482C34.6929 27.6524 35.0317 27.8454 35.3232 28.2822C35.6147 28.7191 35.4217 27.7482 35.0317 27.0671C34.6434 26.39 34.5949 26.4876 33.8683 27.0203C33.1399 27.5539 31.1015 30.1259 32.2181 29.3004Z" fill="url(#paint45_linear_2006_9622)"/>
<path opacity="0.5" d="M63.3258 27.6684C51.3324 31.6901 35.2723 30.9499 30.4824 30.6155C30.5166 31.0541 30.8834 31.5697 30.8834 31.5697C30.8834 31.5697 40.0062 31.4739 52.4762 33.3363C63.0299 34.9125 78.2233 24.7147 82.639 20.563C78.8646 22.1002 72.1921 24.6954 63.3258 27.6684Z" fill="url(#paint46_linear_2006_9622)"/>
<path opacity="0.5" d="M77.6116 22.5485C76.0214 23.4484 72.2111 25.5761 69.8225 26.6826C66.7449 28.1096 62.5044 30.6085 59.4688 30.654C57.971 30.6772 55.0576 30.3713 52.4926 30.0574C43.1308 31.3027 33.916 30.8541 30.4844 30.6155C30.5185 31.0541 30.8853 31.5697 30.8853 31.5697C30.8853 31.5697 40.0081 31.4739 52.4781 33.3363C63.0318 34.9125 78.2253 24.7147 82.6409 20.563C81.3142 21.1049 79.6251 21.775 77.6116 22.5485Z" fill="url(#paint47_linear_2006_9622)"/>
<path d="M40.4082 26.3116C40.4082 26.3116 50.4139 25.9917 61.3803 22.9482C59.2202 24.3905 46.0114 26.7113 40.4082 26.3116Z" fill="white"/>
<path d="M46.3237 36.1714C46.3237 36.1714 41.6262 36.4139 40.0067 36.4139C39.2783 36.4139 38.5517 36.4953 36.7693 38.275C34.9861 40.0587 38.5517 39.0857 40.8996 38.5193C43.2444 37.9507 49.0765 36.4957 46.3237 36.1714Z" fill="url(#paint48_linear_2006_9622)"/>
<path d="M35.6758 46.2707C33.4273 45.3598 6.59375 34.0738 6.59375 34.0738C6.59375 34.0738 9.84989 49.0471 10.3161 50.9078C10.7813 52.7716 12.0231 54.1666 14.8923 55.4867C17.7633 56.8047 31.806 62.5457 34.4415 63.6308C37.0804 64.7163 39.719 64.5618 45.769 63.1655C51.8204 61.7701 83.8588 55.0197 87.5837 53.8571C91.3069 52.6932 94.4121 51.6834 95.3413 48.1931C96.2723 44.7015 99.2969 32.9883 99.2969 32.9883C99.2969 32.9883 49.5194 44.3889 44.9654 45.604C40.4128 46.8178 37.9204 47.1829 35.6758 46.2707Z" fill="url(#paint49_linear_2006_9622)"/>
<path d="M44.9634 45.6035C40.4112 46.8173 37.9189 47.1828 35.6739 46.2701C33.4253 45.3593 6.5918 34.0733 6.5918 34.0733C6.5918 34.0733 6.71042 34.62 6.90301 35.5125C6.90651 35.5125 31.3379 45.3593 34.7516 47.5955C37.7644 49.8121 37.6445 55.5527 36.5707 64.2269C38.6901 64.5512 41.2976 64.1958 45.7671 63.1645C51.8185 61.7691 83.8568 55.0187 87.5818 53.8561C91.305 52.6923 94.4101 51.6825 95.3394 48.1921C96.2704 44.7005 99.295 32.9873 99.295 32.9873C99.295 32.9873 49.5178 44.3884 44.9634 45.6035Z" fill="url(#paint50_linear_2006_9622)"/>
<g opacity="0.4">
<path d="M37.0036 60.6574C38.853 49.6668 39.0701 48.1414 43.965 46.9465C48.4883 45.8425 92.2333 35.9257 98.9282 34.4104C99.158 33.5292 99.295 32.9878 99.295 32.9878C99.295 32.9878 49.5174 44.3885 44.9634 45.6036C40.4112 46.8173 37.9189 47.1828 35.6739 46.2702C33.4253 45.3593 6.5918 34.0733 6.5918 34.0733C6.5918 34.0733 6.71042 34.62 6.90301 35.5125C11.0219 37.2349 26.4281 43.6829 31.1269 45.7493C36.4591 48.0342 37.3302 48.0342 37.0036 60.6574Z" fill="url(#paint51_linear_2006_9622)"/>
</g>
<path d="M8.38281 37.8008C8.38281 37.8008 10.1227 46.3362 11.0699 50.2875C12.3354 53.9209 20.0789 56.6085 28.4554 59.9277C30.6707 60.8775 27.5082 58.5082 21.6608 55.5033C15.8108 52.4984 14.706 50.762 12.1782 44.124C9.64737 37.4848 8.38281 36.535 8.38281 37.8008Z" fill="url(#paint52_linear_2006_9622)"/>
<g opacity="0.5">
<path d="M59.4512 42.1694L61.0585 43.0522C61.0585 43.0522 76.1175 40.8672 82.6766 39.8963C89.2331 38.925 88.5061 40.6242 88.0189 46.4528C87.5326 52.2849 80.2478 55.9267 63.0001 59.3286C62.9393 59.3702 62.8789 59.41 62.8163 59.4511C73.5136 57.1334 85.4014 54.5369 87.5821 53.8576C91.3053 52.6937 94.4104 51.6839 95.3397 48.1936C96.2707 44.702 99.2953 32.9888 99.2953 32.9888C99.2953 32.9888 75.6404 38.4063 59.4512 42.1694Z" fill="url(#paint53_linear_2006_9622)"/>
</g>
<path d="M71.5059 36.8196C71.5059 36.8196 92.4758 32.284 99.4389 30.2605C100.734 29.9366 103.001 26.7789 103.001 26.7789C103.001 26.7789 102.841 23.7828 101.464 22.4858C95.9569 22.4858 89.5624 23.4602 84.7852 25.078C81.4638 26.536 71.5059 36.8196 71.5059 36.8196Z" fill="url(#paint54_linear_2006_9622)"/>
<path d="M77.1747 31.2344C74.1545 34.0835 71.5059 36.8196 71.5059 36.8196C71.5059 36.8196 92.4758 32.284 99.4389 30.2605C100.734 29.9366 103.001 26.7789 103.001 26.7789C103.001 26.7789 89.8762 26.0887 77.1747 31.2344Z" fill="url(#paint55_linear_2006_9622)"/>
<g opacity="0.5">
<path d="M82.6063 32.3669C82.7695 31.1557 82.285 31.0748 84.463 29.8619C86.3268 28.8267 91.4905 27.6168 92.9529 27.2842C88.3679 27.848 82.7332 28.9834 77.1747 31.2341C74.1545 34.0832 71.5059 36.8193 71.5059 36.8193C71.5059 36.8193 92.4758 32.2837 99.4389 30.2602C99.8648 30.1534 100.395 29.7402 100.918 29.2333C98.7894 29.5962 95.2977 30.1757 92.299 30.5902C87.6146 31.2358 82.4447 33.5767 82.6063 32.3669Z" fill="url(#paint56_linear_2006_9622)"/>
</g>
<path d="M84.5238 27.3688C85.9788 26.0824 87.8023 24.7329 88.9285 23.9258C87.4639 24.2602 86.0646 24.6445 84.7864 25.0783C83.2518 25.751 80.3008 28.3086 77.5703 30.8666C87.3847 27.8503 89.6613 27.8061 97.8224 26.7867C90.6177 26.9429 82.3514 29.3298 84.5238 27.3688Z" fill="url(#paint57_linear_2006_9622)"/>
<path d="M101.546 24.5125C101.546 24.5125 95.3922 24.5913 89.6432 25.9674C85.9183 26.7785 88.8343 24.674 90.8579 24.1067C92.8814 23.5386 101.166 22.2906 101.49 23.019C101.816 23.7482 102.193 24.4311 101.546 24.5125Z" fill="url(#paint58_linear_2006_9622)"/>
<path d="M100.048 23.136C100.048 23.136 97.2527 23.3172 92.7605 24.1682C89.1161 24.8339 94.7643 22.8301 100.048 23.136Z" fill="url(#paint59_linear_2006_9622)"/>
<path d="M89.2363 27.6286C89.2363 27.6286 99.8644 26.5947 102.779 26.779C101.503 26.4144 92.7595 26.7173 89.2363 27.6286Z" fill="#FFF26B"/>
<path d="M75.877 23.862C75.877 23.862 87.0513 12.931 88.5912 11.0703C88.5912 11.0703 93.6608 12.1488 94.2653 13.5994C94.9091 15.3717 94.9494 17.548 94.9494 17.548C94.9494 17.548 87.0124 25.3621 80.8888 29.5939C80.5653 26.2095 78.4805 24.2945 75.877 23.862Z" fill="url(#paint60_linear_2006_9622)"/>
<g opacity="0.5">
<path d="M92.106 15.575C91.4451 16.4233 90.6913 17.697 87.152 20.4787C85.1626 22.047 81.9441 24.2846 79.5117 25.9427C80.248 26.8662 80.743 28.0835 80.8888 29.5941C87.0124 25.3627 94.9494 17.5482 94.9494 17.5482C94.9494 17.5482 94.9126 15.5461 94.3397 13.8193C92.8703 14.001 92.6873 14.8234 92.106 15.575Z" fill="url(#paint61_linear_2006_9622)"/>
</g>
<g opacity="0.5">
<path d="M92.349 19.3222C90.0654 21.0205 86.2595 25.0007 85.2646 24.6505C84.2705 24.2964 83.9764 24.1808 86.9043 20.9614C87.1984 20.6393 87.4838 20.3145 87.7609 19.9919C87.5678 20.1491 87.3652 20.3119 87.152 20.4786C85.1626 22.047 81.9441 24.2846 79.5117 25.9426C80.248 26.8662 80.743 28.0835 80.8888 29.594C87.0124 25.3627 94.9494 17.5482 94.9494 17.5482C94.9494 17.5482 94.9494 17.5166 94.9477 17.4663C94.151 18.0143 93.2331 18.6639 92.349 19.3222Z" fill="url(#paint62_linear_2006_9622)"/>
</g>
<path d="M88.5691 12.0819C88.5691 12.0819 85.7147 14.8767 83.7104 16.9401C81.7057 19.0039 78.9135 21.252 79.216 21.9803C79.5202 22.71 80.5532 23.3171 84.437 19.4906C88.3244 15.6663 90.695 14.0866 91.0583 13.2974C91.4229 12.5074 88.9932 11.5947 88.5691 12.0819Z" fill="url(#paint63_linear_2006_9622)"/>
<path d="M92.6137 14.8306C92.6137 14.8306 90.7823 17.1982 89.1317 18.6562C87.4824 20.1129 81.9668 24.2803 81.9668 24.2803C81.9668 24.2803 86.997 21.0697 89.4132 18.7678C91.8307 16.4659 92.6137 14.8306 92.6137 14.8306Z" fill="#FFF26B"/>
<path d="M88.5112 12.4474C88.5112 12.4474 81.8291 18.5797 81.8891 18.9452C81.9512 19.3081 89.6637 11.839 88.5112 12.4474Z" fill="url(#paint64_linear_2006_9622)"/>
<path d="M76.3764 22.9341C76.3764 22.9341 59.2229 35.3743 32.6953 42.239C37.6682 45.3594 39.4431 45.8961 56.2373 41.1193C76.4618 36.2681 76.6141 34.6998 80.8656 32.2407C81.3878 30.6728 81.7607 25.8961 81.4622 25.447C81.1637 24.9992 76.3764 22.9341 76.3764 22.9341Z" fill="url(#paint65_linear_2006_9622)"/>
<path d="M75.8749 23.8623C75.8749 23.8623 61.5442 33.095 48.6715 37.3451C41.7477 40.0169 55.1058 38.3164 67.7391 31.5157C78.3042 25.6862 79.641 25.6862 78.5484 24.7123C77.4559 23.741 76.7275 23.4994 75.8749 23.8623Z" fill="url(#paint66_linear_2006_9622)"/>
<g opacity="0.5">
<path d="M41.8613 44.5083C44.956 44.1525 49.3239 43.0888 56.238 41.1196C76.4625 36.2684 76.6148 34.7001 80.8664 32.241C81.3885 30.6731 81.7615 25.8964 81.463 25.4473C81.463 25.4473 62.7643 38.1519 41.8613 44.5083Z" fill="url(#paint67_linear_2006_9622)"/>
</g>
<path opacity="0.5" d="M80.9791 25.5649C80.9791 25.5649 64.1083 37.5495 45.3418 43.3934C61.2956 37.4712 76.4479 28.8482 80.9791 25.5649Z" fill="#FFF26B"/>
<path opacity="0.5" d="M78.6301 31.2311C78.6301 31.2311 67.9508 35.1084 59.481 38.4376C49.2775 42.4462 43.6923 43.783 46.1212 43.5383C48.5492 43.2954 71.7457 37.3451 75.9973 34.6716C80.2505 31.9998 81.9064 29.6475 78.6301 31.2311Z" fill="url(#paint68_linear_2006_9622)"/>
<path d="M52.082 40.6856C53.119 40.2987 54.1927 39.8675 55.3014 39.3804C54.1568 39.8461 53.0866 40.2799 52.082 40.6856Z" fill="url(#paint69_linear_2006_9622)"/>
<path opacity="0.5" d="M39.247 43.3201C37.9645 42.973 35.6008 42.186 37.3259 41.5465C39.0487 40.9052 40.9685 39.8714 40.9685 39.8714L40.9615 39.8398C38.3225 40.6881 35.5645 41.4966 32.6953 42.2389C35.807 44.1898 37.6664 45.1309 42.7338 44.3938C44.6703 43.644 47.7325 42.442 52.0816 40.6851C45.3815 43.1761 40.3531 43.6173 39.247 43.3201Z" fill="url(#paint70_linear_2006_9622)"/>
<path d="M75.1274 24.6155C75.1274 24.6155 64.0804 30.7478 61.3053 32.2058C59.8442 33.0813 63.3 31.6701 69.0944 28.5072C74.8849 25.3421 77.123 23.5912 75.1274 24.6155Z" fill="url(#paint71_linear_2006_9622)"/>
<path d="M53.9731 41.2554C41.3202 44.2861 37.7568 44.8215 30.5398 41.5224C25.9368 39.4201 15.5722 34.93 7.64037 31.1C6.8862 30.7341 6.25808 30.5201 5.73238 30.4159C5.15898 30.6588 4.6543 31.1 4.6543 31.9019C4.6543 33.3757 6.59512 34.073 6.59512 34.073C6.59512 34.073 33.4291 45.359 35.6772 46.2699C37.9222 47.1825 40.4141 46.817 44.9668 45.6032C49.5207 44.3881 99.2983 32.9875 99.2983 32.9875C99.2983 32.9875 101.394 32.5217 101.471 31.3579C101.524 30.591 100.701 30.1642 100.133 29.9585C99.5898 30.0758 98.8869 30.2859 97.9011 30.563C95.0499 31.3657 66.6252 38.2278 53.9731 41.2554Z" fill="url(#paint72_linear_2006_9622)"/>
<path d="M96.848 32.6891C92.6376 33.7414 88.4281 34.5529 74.7435 37.7902C64.2655 40.2695 43.0053 45.4804 40.5747 45.5618C39.2327 45.6078 39.0025 44.6396 39.0668 43.7628C38.412 43.7471 37.7751 43.6972 37.1474 43.6096C36.7653 46.7717 32.1973 43.7768 26.8909 41.5962C19.6039 38.5996 11.1018 35.4424 7.05468 33.3361C5.9442 32.7579 5.18171 32.3092 4.6582 31.9604C4.71117 33.3925 6.59464 34.0728 6.59464 34.0728C6.59464 34.0728 33.4286 45.3587 35.6767 46.2696C37.9217 47.1823 40.4136 46.8168 44.9663 45.603C49.5203 44.3879 99.2978 32.9872 99.2978 32.9872C99.2978 32.9872 101.394 32.5215 101.47 31.3576C101.485 31.1663 101.442 30.9952 101.363 30.8438C100.903 31.6111 99.6423 31.9897 96.848 32.6891Z" fill="url(#paint73_linear_2006_9622)"/>
<path d="M6.2954 30.866C6.2954 30.866 32.7941 42.2264 33.631 43.4034C34.4705 44.5774 13.8459 35.5631 8.81312 33.2139C3.77986 30.866 5.28997 30.6975 6.2954 30.866Z" fill="url(#paint74_linear_2006_9622)"/>
<path d="M98.6646 30.8232C98.6646 30.8232 44.038 43.4491 43.0028 44.4532C41.9659 45.4586 90.0771 33.9166 95.4509 32.5084C100.823 31.1025 99.6853 30.8403 98.6646 30.8232Z" fill="url(#paint75_linear_2006_9622)"/>
<path d="M51.7372 35.9299C54.9815 34.6146 58.1764 33.1833 61.3371 31.6754C47.4984 28.7563 30.453 30.6327 26.1214 31.474C21.7478 32.3236 18.4785 33.6709 17.5816 34.0618C16.6812 34.4505 16.3529 34.8383 16.9517 36.3668C17.8202 38.2848 18.1804 40.6498 18.6881 40.6809C19.1994 40.7098 20.2525 40.4611 22.6796 39.2456C35.7642 35.2729 48.2088 35.7054 51.7298 35.933C51.7328 35.9326 51.7337 35.9299 51.7372 35.9299Z" fill="url(#paint76_linear_2006_9622)"/>
<path d="M21.9815 39.5684C23.1252 38.9412 22.4612 37.5374 21.4046 34.4288C20.8601 32.825 20.4915 33.032 19.3408 33.3975C19.2348 33.4321 19.1425 33.4536 19.051 33.4689C18.3612 33.7289 17.8582 33.939 17.5816 34.062C16.6812 34.4507 16.3529 34.8385 16.9517 36.367C17.8202 38.285 18.1804 40.65 18.6881 40.6811C19.1368 40.7069 20.0122 40.5152 21.883 39.6354C21.9115 39.6082 21.9456 39.5868 21.9815 39.5684Z" fill="url(#paint77_linear_2006_9622)"/>
<path opacity="0.5" d="M21.4051 34.4291C21.0436 33.3689 20.7604 33.1024 20.2785 33.1479C21.378 35.2283 22.0705 37.996 20.2706 39.8072C19.9694 40.1084 19.6438 40.3754 19.2949 40.617C19.8232 40.5041 20.6295 40.2253 21.8827 39.6357C21.9116 39.6085 21.9461 39.5875 21.982 39.5691C23.1262 38.9414 22.4618 37.5377 21.4051 34.4291Z" fill="url(#paint78_linear_2006_9622)"/>
<path d="M51.7365 35.9299C54.9809 34.6146 58.1757 33.1833 61.3365 31.6754C47.4977 28.7563 30.4523 30.6327 26.1207 31.474C23.0979 32.061 20.6016 32.8878 19.0508 33.4691C19.1423 33.4538 19.2346 33.4323 19.3405 33.3978C20.4913 33.0323 20.8598 32.8252 21.4044 34.429C22.461 37.5381 23.1254 38.9418 21.9813 39.5686C21.9454 39.587 21.9112 39.6085 21.8819 39.6352C22.1305 39.5183 22.3932 39.3896 22.6785 39.2452C35.7631 35.2725 48.2077 35.7049 51.7287 35.9326C51.7322 35.9326 51.733 35.9299 51.7365 35.9299Z" fill="url(#paint79_linear_2006_9622)"/>
<g opacity="0.5">
<path d="M51.739 35.9302C54.9815 34.6149 58.1782 33.1853 61.3354 31.6756C58.4509 31.0685 55.428 30.6658 52.4069 30.4233C53.2626 30.6374 54.1486 30.8694 55.0196 31.1145C59.3267 32.323 55.5497 33.0781 53.1313 34.2862C50.7541 35.4759 46.985 31.473 22.3295 37.1711C22.7064 38.4479 22.7134 39.168 21.9841 39.5693C21.9482 39.5877 21.9141 39.6092 21.8848 39.6359C22.1334 39.519 22.396 39.3903 22.6814 39.2459C35.766 35.2732 48.2106 35.7057 51.7315 35.9333C51.7346 35.9328 51.7355 35.9302 51.739 35.9302Z" fill="url(#paint80_linear_2006_9622)"/>
</g>
<path d="M23.0038 35.2003C23.0038 35.2003 39.2797 31.2315 49.8058 32.4453C56.1207 33.2551 54.987 30.3416 43.3263 30.4231C31.6678 30.5032 21.709 32.6081 21.7895 33.0953C21.8705 33.579 22.3586 35.0374 23.0038 35.2003Z" fill="url(#paint81_linear_2006_9622)"/>
<path d="M22.9219 33.0951C22.9219 33.0951 32.7201 30.6658 43.7321 30.7446C46.2419 30.6658 27.2145 30.3419 22.9219 33.0951Z" fill="white"/>
<path d="M19.7653 33.8232C19.7653 33.8232 18.1256 34.9757 18.4281 36.5549C18.7314 38.1342 18.4898 39.1654 18.4898 39.1654C17.6393 37.6475 15.878 34.7945 17.5177 34.186C19.1582 33.5789 20.4337 33.0318 19.7653 33.8232Z" fill="url(#paint82_linear_2006_9622)"/>
<path d="M75.4766 10.2878C75.4766 10.2878 81.2806 8.50276 85.073 8.20424C83.5856 7.83481 77.1132 9.32128 75.4766 10.2878Z" fill="white"/>
<g opacity="0.7">
<path d="M41.7101 18.3487C41.7101 18.3487 41.4501 18.6087 41.5503 18.6783C41.6506 18.747 41.83 18.6586 41.858 18.5373C41.8896 18.4174 41.7784 18.2576 41.7101 18.3487Z" fill="#AE4319"/>
<path d="M37.2444 28.0099L37.2912 28.3014L37.0015 28.3798C37.0015 28.3798 36.9503 28.2415 36.9844 28.2016C37.0159 28.1609 37.2365 27.9526 37.2444 28.0099Z" fill="#AE4319"/>
<path d="M90.2724 25.8075C90.2724 25.8075 90.1341 25.9458 90.1298 26.029C90.121 26.1161 90.181 26.1634 90.2812 26.1376C90.3836 26.1104 90.4156 25.9935 90.441 25.9248C90.4681 25.8561 90.3407 25.7217 90.2724 25.8075Z" fill="#AE4319"/>
<path d="M93.3632 25.7615C93.3632 25.7615 93.2734 25.8574 93.2734 25.8889C93.2734 25.9217 93.4069 26.0102 93.4332 25.9848C93.459 25.9572 93.5453 25.906 93.5076 25.8359C93.4691 25.7677 93.3802 25.7462 93.3632 25.7615Z" fill="#AE4319"/>
<path d="M35.4938 31.6842C35.4938 31.6842 35.4023 31.7827 35.4023 31.8142C35.4023 31.844 35.5367 31.9355 35.5621 31.9101C35.5879 31.8834 35.6733 31.83 35.6365 31.7617C35.6006 31.6917 35.5091 31.6702 35.4938 31.6842Z" fill="#AE4319"/>
<path d="M49.7471 37.9864C49.7471 37.9864 49.6582 38.0822 49.6582 38.1146C49.6582 38.1461 49.79 38.2376 49.8188 38.2105C49.8447 38.1846 49.9274 38.1291 49.8924 38.0608C49.8539 37.9921 49.7624 37.9706 49.7471 37.9864Z" fill="#AE4319"/>
<path d="M41.7692 33.1279C41.7692 33.1279 41.6777 33.2238 41.6777 33.2579C41.6777 33.2877 41.8121 33.3792 41.8375 33.352C41.866 33.3262 41.9504 33.2719 41.9145 33.2024C41.876 33.1336 41.7863 33.1135 41.7692 33.1279Z" fill="#AE4319"/>
<path d="M77.4762 25.5007C77.4762 25.5007 77.3848 25.5948 77.3848 25.6263C77.3848 25.6605 77.5191 25.7506 77.5445 25.7222C77.5717 25.6964 77.6575 25.6434 77.6189 25.5734C77.5831 25.5051 77.4916 25.4836 77.4762 25.5007Z" fill="#AE4319"/>
<path d="M69.1227 30.869C69.1227 30.869 69.0312 30.9645 69.0312 30.9973C69.0312 31.0288 69.1656 31.1185 69.191 31.0931C69.2186 31.0673 69.3039 31.0117 69.2654 30.943C69.2295 30.8734 69.1372 30.8515 69.1227 30.869Z" fill="#AE4319"/>
<path d="M10.7712 26.6978C10.7712 26.6978 10.6797 26.7936 10.6797 26.8247C10.6797 26.8576 10.8141 26.949 10.8395 26.9206C10.8653 26.893 10.9506 26.8418 10.9139 26.7722C10.8753 26.7035 10.7865 26.682 10.7712 26.6978Z" fill="#AE4319"/>
<path d="M5.76161 22.7814C5.76161 22.7814 5.67188 22.8799 5.67188 22.9114C5.67188 22.9412 5.8045 23.0326 5.83164 23.0055C5.85965 22.9797 5.94457 22.9272 5.90518 22.8584C5.87016 22.7888 5.77868 22.7674 5.76161 22.7814Z" fill="#AE4319"/>
<path d="M61.325 11.6823C61.325 11.6823 61.2344 11.7769 61.2344 11.811C61.2344 11.8408 61.3679 11.9323 61.3941 11.9069C61.423 11.8793 61.5062 11.825 61.4703 11.7554C61.4327 11.6867 61.3421 11.6653 61.325 11.6823Z" fill="#AE4319"/>
<path d="M49.3024 20.4908C49.3024 20.4908 49.2109 20.5866 49.2109 20.6208C49.2109 20.6505 49.3453 20.742 49.3707 20.7153C49.3974 20.689 49.4836 20.6352 49.4451 20.5652C49.4097 20.4964 49.3182 20.475 49.3024 20.4908Z" fill="#AE4319"/>
<path d="M50.9404 39.5373C50.9404 39.5373 50.9207 39.6673 50.9404 39.6957C50.9592 39.7185 51.1185 39.7172 51.1264 39.6787C51.1308 39.6397 51.1693 39.55 51.1002 39.5141C51.0275 39.48 50.9421 39.5158 50.9404 39.5373Z" fill="#AE4319"/>
<path d="M82.9233 22.0235C82.9233 22.0235 82.9063 22.1548 82.9242 22.1802C82.9413 22.2078 83.1028 22.2017 83.1116 22.1662C83.1159 22.129 83.1545 22.0349 83.084 22.0021C83.0131 21.9662 82.9277 22.0021 82.9233 22.0235Z" fill="#AE4319"/>
<path d="M55.7063 37.9367C55.7063 37.9367 55.6892 38.068 55.7081 38.0934C55.726 38.121 55.8858 38.1148 55.8919 38.0781C55.8989 38.0422 55.9379 37.9481 55.8678 37.9122C55.796 37.8793 55.7107 37.9152 55.7063 37.9367Z" fill="#AE4319"/>
<path d="M72.8451 13.7047C72.8451 13.7047 72.8245 13.836 72.8451 13.8631C72.863 13.8859 73.0228 13.8846 73.0307 13.8487C73.035 13.8102 73.0762 13.7174 73.0048 13.6832C72.9331 13.6473 72.846 13.6832 72.8451 13.7047Z" fill="#AE4319"/>
<path d="M88.4629 16.5095C88.4629 16.5095 88.4476 16.6408 88.4664 16.6662C88.4817 16.692 88.645 16.6877 88.652 16.6522C88.6564 16.6132 88.6949 16.5235 88.6262 16.4876C88.5544 16.4522 88.4673 16.4881 88.4629 16.5095Z" fill="#AE4319"/>
<path d="M56.6814 15.5066C56.6814 15.5066 56.6643 15.6384 56.6814 15.6638C56.7002 15.6905 56.8626 15.6852 56.867 15.6493C56.874 15.6108 56.9125 15.518 56.8412 15.4852C56.7711 15.4497 56.6858 15.4856 56.6814 15.5066Z" fill="#AE4319"/>
<path d="M29.9881 25.6751C29.9881 25.6751 29.971 25.8051 29.9881 25.8318C30.0069 25.8563 30.1693 25.8533 30.1736 25.8148C30.1815 25.7793 30.2196 25.6861 30.1483 25.6506C30.0782 25.6165 29.9924 25.6506 29.9881 25.6751Z" fill="#AE4319"/>
<path d="M74.908 32.5912C74.908 32.5912 74.8909 32.7212 74.908 32.747C74.9268 32.7728 75.0866 32.7715 75.0936 32.7326C75.1014 32.6941 75.1395 32.6043 75.0677 32.5684C74.9968 32.5339 74.9119 32.568 74.908 32.5912Z" fill="#AE4319"/>
<path d="M70.8982 29.495C70.8982 29.495 70.8811 29.6233 70.8982 29.6491C70.917 29.6767 71.0794 29.6736 71.0838 29.6351C71.0917 29.5966 71.1298 29.5064 71.058 29.471C70.9897 29.4368 70.9026 29.4709 70.8982 29.495Z" fill="#AE4319"/>
<path d="M33.5341 24.338C33.5341 24.338 33.5144 24.4667 33.5341 24.4926C33.553 24.5201 33.7127 24.5171 33.7197 24.4786C33.7259 24.4427 33.7626 24.3499 33.6939 24.3144C33.6239 24.2811 33.5368 24.314 33.5341 24.338Z" fill="#AE4319"/>
<path d="M54.6965 26.0918C54.6965 26.0918 54.6795 26.2231 54.6983 26.2489C54.7154 26.276 54.8778 26.2704 54.8821 26.2332C54.8891 26.1959 54.9285 26.1032 54.8581 26.0673C54.7863 26.0349 54.7005 26.0703 54.6965 26.0918Z" fill="#AE4319"/>
<path d="M56.1744 40.0885C56.1744 40.0885 56.1556 40.2168 56.1744 40.2439C56.1941 40.2697 56.3538 40.2653 56.3617 40.2295C56.3661 40.1909 56.4046 40.0981 56.3341 40.0653C56.2624 40.0285 56.1766 40.0657 56.1744 40.0885Z" fill="#AE4319"/>
<path d="M88.2524 26.6217C88.2524 26.6217 88.2765 26.7613 88.3868 26.7543C88.4936 26.7456 88.6083 26.7285 88.5978 26.6042C88.5916 26.4786 88.5098 26.4873 88.4336 26.5158C88.3575 26.5442 88.231 26.5569 88.2524 26.6217Z" fill="#AE4319"/>
<path d="M27.3612 33.4821C27.3612 33.4821 27.3082 33.5294 27.292 33.5894C27.275 33.6467 27.292 33.7535 27.3178 33.8323C27.345 33.9137 27.5853 33.775 27.5989 33.7496C27.6168 33.7211 27.5253 33.5728 27.4776 33.504C27.4303 33.4336 27.3612 33.4821 27.3612 33.4821Z" fill="#AE4319"/>
<path d="M24.4372 34.4188C24.4372 34.4188 24.5431 34.4761 24.5357 34.6171C24.5287 34.7602 24.4372 34.7383 24.3444 34.6818C24.252 34.6245 24.259 34.4831 24.3015 34.4402C24.344 34.3978 24.4372 34.4188 24.4372 34.4188Z" fill="#AE4319"/>
<path d="M30.1863 34.5507C30.1863 34.5507 30.3119 34.4548 30.3771 34.5117C30.438 34.5704 30.4765 34.6435 30.4266 34.7205C30.3771 34.7962 30.3198 34.7704 30.2309 34.7319C30.1434 34.6934 30.1863 34.5507 30.1863 34.5507Z" fill="#AE4319"/>
<path d="M24.9988 36.0783C24.9988 36.0783 25.1485 36.1729 25.2015 36.2468C25.2571 36.3243 25.1765 36.3755 25.1126 36.4456C25.0487 36.5169 24.91 36.5353 24.9205 36.3712C24.9288 36.2083 24.9341 36.0131 24.9988 36.0783Z" fill="#AE4319"/>
<path d="M39.9759 18.8045C39.9759 18.8045 40.123 18.9962 40.0971 19.0645C40.0722 19.1363 39.8013 19.2216 39.7312 19.0645C39.6612 18.9074 39.863 18.6377 39.9759 18.8045Z" fill="#AE4319"/>
<path d="M24.7647 22.525C24.7647 22.525 24.6247 22.6817 24.6076 22.7347C24.5905 22.7872 24.6247 22.8476 24.7547 23.0301C24.8523 23.136 24.8864 23.0148 24.8864 22.813C24.886 22.6134 24.7989 22.4917 24.7647 22.525Z" fill="#AE4319"/>
<path d="M53.3809 17.7621C53.3809 17.7621 53.4159 17.9459 53.5297 17.9459C53.6409 17.9459 53.7039 17.8146 53.7126 17.692C53.7196 17.5708 53.6509 17.5349 53.5656 17.5949C53.4767 17.6557 53.3883 17.6986 53.3809 17.7621Z" fill="#AE4319"/>
<path d="M41.5872 28.7307C41.5872 28.7307 41.4914 28.8795 41.4318 28.9832C41.3959 29.0861 41.6052 29.0962 41.6857 29.0266C41.7627 28.9579 41.7899 28.8423 41.754 28.7736C41.7181 28.7053 41.6489 28.6528 41.5872 28.7307Z" fill="#AE4319"/>
<path d="M43.6774 28.7909C43.6774 28.7909 43.5373 28.9647 43.5474 29.0592C43.5544 29.1551 43.7142 29.1722 43.7903 29.0435C43.8678 28.9122 43.7374 28.7191 43.6774 28.7909Z" fill="#AE4319"/>
<path d="M50.9144 28.1971C50.9144 28.1971 50.7494 28.4654 50.798 28.5328C50.8492 28.6024 50.9819 28.6528 50.9819 28.6528C50.9819 28.6528 51.1175 28.6528 51.1346 28.5525C51.1517 28.4497 50.9819 28.0299 50.9144 28.1971Z" fill="#AE4319"/>
<path d="M45.9254 26.9641C45.9254 26.9641 45.8681 26.9987 45.9342 27.07C45.9981 27.1383 46.0812 27.1532 46.1241 27.1199C46.1653 27.0845 46.0195 26.8713 45.9254 26.9641Z" fill="#AE4319"/>
<path d="M53.4496 28.2037C53.4496 28.2037 53.3196 28.1937 53.4172 28.3539C53.5139 28.5136 53.5752 28.5754 53.6395 28.4922C53.7052 28.4068 53.5327 28.2471 53.4496 28.2037Z" fill="#AE4319"/>
<path d="M34.2088 32.5084C34.2088 32.5084 34.0867 32.6726 34.0867 32.7351C34.0867 32.7969 34.0652 33.0481 34.2508 32.9426C34.4391 32.8398 34.3835 32.8398 34.3533 32.694C34.3252 32.5513 34.2609 32.4414 34.2088 32.5084Z" fill="#AE4319"/>
<path d="M80.536 11.2315C80.536 11.2315 80.413 11.3956 80.413 11.4569C80.413 11.5199 80.3898 11.7685 80.5772 11.6657C80.7663 11.5628 80.7098 11.5628 80.6813 11.4175C80.6516 11.2739 80.5872 11.1636 80.536 11.2315Z" fill="#AE4319"/>
<path d="M36.0369 32.4723C36.0369 32.4723 35.8421 32.5441 35.808 32.5966C35.7756 32.6465 35.6197 32.8439 35.8329 32.8597C36.0465 32.8755 36.0023 32.844 36.0544 32.7083C36.106 32.5726 36.1139 32.4456 36.0369 32.4723Z" fill="#AE4319"/>
<path d="M48.111 40.2756C48.111 40.2756 47.9162 40.3469 47.883 40.3986C47.8471 40.4498 47.6947 40.6467 47.9088 40.6612C48.1215 40.6782 48.0764 40.6472 48.1285 40.511C48.181 40.3758 48.1872 40.2489 48.111 40.2756Z" fill="#AE4319"/>
<path d="M9.32713 26.2634C9.32713 26.2634 9.13147 26.3334 9.09733 26.3846C9.06494 26.4376 8.91174 26.6328 9.12447 26.6503C9.3372 26.6644 9.29299 26.6359 9.34595 26.5002C9.39804 26.3619 9.40242 26.2345 9.32713 26.2634Z" fill="#AE4319"/>
<path d="M9.95049 27.1415C9.95049 27.1415 9.75658 27.2128 9.72244 27.2653C9.68918 27.3183 9.53335 27.514 9.74827 27.5297C9.96099 27.5437 9.91766 27.5153 9.97063 27.3796C10.0232 27.2417 10.0275 27.1161 9.95049 27.1415Z" fill="#AE4319"/>
<path d="M62.3193 35.4074C62.3193 35.4074 62.1783 35.5606 62.174 35.6215C62.1652 35.6841 62.1228 35.9301 62.3193 35.8443C62.5132 35.7589 62.4593 35.7528 62.4423 35.6057C62.4261 35.4617 62.374 35.3475 62.3193 35.4074Z" fill="#AE4319"/>
<path d="M48.4168 22.0518C48.4168 22.0518 48.2785 22.2072 48.2706 22.2672C48.2662 22.3289 48.2238 22.5771 48.4168 22.4887C48.6125 22.4046 48.5595 22.3972 48.5442 22.2532C48.5262 22.1074 48.4742 21.9919 48.4168 22.0518Z" fill="#AE4319"/>
<path d="M81.5001 22.386C81.5001 22.386 81.3618 22.5387 81.3539 22.6C81.3487 22.6631 81.3027 22.9082 81.5019 22.8228C81.6941 22.737 81.6428 22.7313 81.6258 22.5856C81.6087 22.4416 81.5575 22.3256 81.5001 22.386Z" fill="#AE4319"/>
<path d="M50.4066 21.2267C50.4066 21.2267 50.2775 21.3694 50.2705 21.4294C50.2661 21.4867 50.2259 21.7161 50.4066 21.6368C50.5905 21.5563 50.5432 21.5511 50.5261 21.4154C50.5091 21.2766 50.4596 21.1694 50.4066 21.2267Z" fill="#AE4319"/>
<path d="M4.93526 23.4597C4.93526 23.4597 4.80438 23.6055 4.8 23.6624C4.79563 23.7197 4.75405 23.9508 4.93832 23.8698C5.11954 23.791 5.0727 23.784 5.05563 23.6484C5.03812 23.5127 4.98822 23.4054 4.93526 23.4597Z" fill="#AE4319"/>
<path d="M71.8056 21.6917C71.8056 21.6917 71.6739 21.8344 71.6695 21.8943C71.6643 21.9517 71.624 22.1828 71.8056 22.1018C71.9904 22.0199 71.9383 22.016 71.9243 21.8803C71.9081 21.7442 71.8586 21.6361 71.8056 21.6917Z" fill="#AE4319"/>
<path d="M65.232 31.9026C65.232 31.9026 65.1002 32.0471 65.095 32.1057C65.0871 32.1631 65.0473 32.3942 65.232 32.3128C65.4149 32.234 65.3646 32.2287 65.3493 32.093C65.3344 31.9547 65.2832 31.847 65.232 31.9026Z" fill="#AE4319"/>
<path d="M71.315 4.90347C71.315 4.90347 71.1832 5.04616 71.1793 5.10613C71.1749 5.16347 71.132 5.39152 71.315 5.31054C71.4997 5.23175 71.4494 5.22738 71.4345 5.09212C71.4179 4.95337 71.3684 4.84613 71.315 4.90347Z" fill="#AE4319"/>
<path d="M50.2579 18.9709C50.2579 18.9709 50.1262 19.1136 50.1218 19.174C50.1156 19.2309 50.0732 19.4607 50.2579 19.3811C50.4417 19.301 50.3905 19.2957 50.3761 19.1596C50.3603 19.0239 50.3109 18.9167 50.2579 18.9709Z" fill="#AE4319"/>
<path d="M74.4888 14.6286C74.4888 14.6286 74.3588 14.774 74.3531 14.8313C74.3488 14.8913 74.3059 15.1198 74.4888 15.0383C74.6727 14.96 74.6258 14.953 74.6083 14.8169C74.5917 14.6816 74.5422 14.5744 74.4888 14.6286Z" fill="#AE4319"/>
<path d="M89.0751 15.1627C89.0751 15.1627 88.9451 15.3068 88.939 15.3641C88.9346 15.4228 88.8921 15.6526 89.0751 15.5738C89.2589 15.4923 89.2095 15.4884 89.1924 15.351C89.1766 15.2126 89.128 15.1054 89.0751 15.1627Z" fill="#AE4319"/>
<path d="M54.2718 26.5905C54.2718 26.5905 54.14 26.7332 54.1356 26.7936C54.1286 26.8505 54.0879 27.0817 54.2718 27.002C54.4565 26.9206 54.4061 26.9153 54.3891 26.7792C54.3742 26.6435 54.3247 26.5336 54.2718 26.5905Z" fill="#AE4319"/>
<path d="M31.0291 24.6721C31.0291 24.6721 30.8991 24.8179 30.8939 24.8752C30.8895 24.9352 30.8479 25.1636 31.0291 25.0822C31.2138 25.0034 31.1635 24.9969 31.1495 24.8607C31.1329 24.7251 31.0825 24.6165 31.0291 24.6721Z" fill="#AE4319"/>
<path d="M67.7526 31.7902C67.7526 31.7902 67.6209 31.9329 67.6165 31.9929C67.6121 32.0502 67.5705 32.2796 67.7526 32.1999C67.9365 32.1198 67.887 32.1146 67.8721 31.9784C67.855 31.8397 67.8047 31.7329 67.7526 31.7902Z" fill="#AE4319"/>
<path d="M45.4389 33.0596C45.4389 33.0596 45.596 33.1738 45.6525 33.1708C45.7133 33.1708 45.9475 33.1878 45.8473 33.0141C45.7457 32.8399 45.7457 32.8898 45.6131 32.9213C45.4792 32.9524 45.3759 33.0136 45.4389 33.0596Z" fill="#AE4319"/>
<path d="M42.0798 34.2879C42.0798 34.2879 41.8662 34.3934 41.9156 34.5247C41.9668 34.6578 42.1113 34.6074 42.1516 34.4962C42.194 34.3816 42.1831 34.2292 42.0798 34.2879Z" fill="#AE4319"/>
<path d="M75.7495 11.638C75.7495 11.638 75.5342 11.7391 75.5863 11.8722C75.6366 12.0066 75.7793 11.9563 75.8222 11.8438C75.8642 11.7295 75.8515 11.5768 75.7495 11.638Z" fill="#AE4319"/>
<path d="M51.33 32.5838C51.33 32.5838 51.1155 32.6866 51.1659 32.821C51.2171 32.9536 51.3615 32.9037 51.4009 32.7895C51.4429 32.6783 51.4329 32.5251 51.33 32.5838Z" fill="#AE4319"/>
<path d="M52.307 8.19519C52.307 8.19519 52.1923 8.40529 52.3131 8.48496C52.4313 8.56068 52.5184 8.43637 52.4869 8.31907C52.4523 8.20526 52.3556 8.08664 52.307 8.19519Z" fill="#AE4319"/>
<path d="M56.2634 27.2975C56.2634 27.2975 56.1036 27.586 56.2205 27.6473C56.3378 27.712 56.4122 27.6691 56.4888 27.4363C56.5623 27.2017 56.3378 27.1491 56.2634 27.2975Z" fill="#AE4319"/>
</g>
<path d="M41.6858 18.2315C41.6858 18.2315 41.4284 18.4898 41.526 18.5611C41.6254 18.6298 41.8057 18.5397 41.8355 18.4202C41.8635 18.3011 41.7567 18.1414 41.6858 18.2315Z" fill="white"/>
<path d="M37.223 27.8913L37.2689 28.1842L36.9774 28.2612C36.9774 28.2612 36.9306 28.1259 36.9621 28.0843C36.9945 28.0441 37.2177 27.8353 37.223 27.8913Z" fill="white"/>
<path d="M90.251 25.6891C90.251 25.6891 90.114 25.8262 90.1057 25.9137C90.1013 25.999 90.1613 26.0463 90.2611 26.0174C90.3613 25.9916 90.3946 25.8747 90.4208 25.8051C90.4467 25.736 90.321 25.602 90.251 25.6891Z" fill="white"/>
<path d="M93.3434 25.6433C93.3434 25.6433 93.252 25.7391 93.252 25.7719C93.252 25.803 93.3863 25.8932 93.4117 25.8678C93.4375 25.8407 93.5246 25.789 93.4861 25.7177C93.4476 25.6472 93.3605 25.6288 93.3434 25.6433Z" fill="white"/>
<path d="M35.4699 31.5687C35.4699 31.5687 35.3828 31.6628 35.3828 31.697C35.3828 31.7285 35.5128 31.8182 35.5417 31.7928C35.568 31.7644 35.6529 31.7114 35.6152 31.6414C35.5785 31.5727 35.487 31.5538 35.4699 31.5687Z" fill="white"/>
<path d="M49.7234 37.8692C49.7234 37.8692 49.6328 37.965 49.6328 37.9961C49.6328 38.0289 49.7663 38.1204 49.7934 38.092C49.8193 38.0648 49.9046 38.0132 49.8661 37.9436C49.832 37.8749 49.7405 37.8534 49.7234 37.8692Z" fill="white"/>
<path d="M41.746 33.0113C41.746 33.0113 41.6562 33.1072 41.6562 33.1382C41.6562 33.1711 41.7898 33.2625 41.816 33.2341C41.8436 33.2074 41.9289 33.1553 41.8904 33.0857C41.8545 33.0166 41.7631 32.9955 41.746 33.0113Z" fill="white"/>
<path d="M77.4548 25.3803C77.4548 25.3803 77.3633 25.4762 77.3633 25.509C77.3633 25.5405 77.4977 25.6303 77.523 25.6049C77.5489 25.5791 77.6334 25.5261 77.5975 25.4561C77.5589 25.3847 77.4701 25.3663 77.4548 25.3803Z" fill="white"/>
<path d="M69.1006 30.7521C69.1006 30.7521 69.0117 30.8475 69.0117 30.879C69.0117 30.9118 69.1435 31.0033 69.1715 30.9762C69.1973 30.9477 69.2818 30.8948 69.2459 30.826C69.2074 30.756 69.1176 30.7341 69.1006 30.7521Z" fill="white"/>
<path d="M10.7479 26.5786C10.7479 26.5786 10.6582 26.6744 10.6582 26.7073C10.6582 26.7388 10.79 26.8285 10.818 26.8031C10.8438 26.776 10.9291 26.7243 10.8906 26.6547C10.8539 26.5829 10.7624 26.5646 10.7479 26.5786Z" fill="white"/>
<path d="M5.74012 22.6657C5.74012 22.6657 5.65039 22.7603 5.65039 22.7914C5.65039 22.8255 5.78302 22.9157 5.81015 22.8903C5.83598 22.8627 5.92133 22.8084 5.88282 22.7388C5.84692 22.6701 5.75719 22.6487 5.74012 22.6657Z" fill="white"/>
<path d="M61.3046 11.5647C61.3046 11.5647 61.2148 11.6605 61.2148 11.6903C61.2148 11.7218 61.3475 11.8115 61.3746 11.7861C61.4004 11.7603 61.4858 11.7074 61.4499 11.6378C61.4114 11.569 61.3216 11.5476 61.3046 11.5647Z" fill="white"/>
<path d="M49.2809 20.3726C49.2809 20.3726 49.1895 20.4698 49.1895 20.5009C49.1895 20.5324 49.3238 20.6221 49.3492 20.5967C49.375 20.5709 49.4604 20.5184 49.4236 20.4483C49.3856 20.3796 49.2958 20.3577 49.2809 20.3726Z" fill="white"/>
<path d="M50.9185 39.4185C50.9185 39.4185 50.8997 39.5499 50.9185 39.5752C50.9356 39.6011 51.098 39.5967 51.1024 39.5612C51.1102 39.5227 51.1479 39.4295 51.0783 39.3971C51.0065 39.3612 50.9211 39.3971 50.9185 39.4185Z" fill="white"/>
<path d="M82.9016 21.9058C82.9016 21.9058 82.8836 22.0345 82.9051 22.0642C82.9221 22.087 83.0828 22.0857 83.0872 22.0472C83.0955 22.0113 83.1331 21.9185 83.0613 21.883C82.993 21.8489 82.9077 21.8835 82.9016 21.9058Z" fill="white"/>
<path d="M55.6853 37.8194C55.6853 37.8194 55.6683 37.9481 55.6853 37.9748C55.705 38.0006 55.8665 37.9993 55.8709 37.9608C55.8797 37.9249 55.9164 37.829 55.8451 37.7962C55.7759 37.762 55.6906 37.7962 55.6853 37.8194Z" fill="white"/>
<path d="M60.1404 34.3604C60.1404 34.3604 60.1233 34.4904 60.1404 34.5175C60.1592 34.5433 60.3207 34.5389 60.3269 34.5031C60.3339 34.4645 60.3724 34.3717 60.3019 34.3358C60.231 34.3017 60.1448 34.3376 60.1404 34.3604Z" fill="#AE4319"/>
<path d="M60.1216 34.2431C60.1216 34.2431 60.1028 34.3745 60.1216 34.4003C60.1413 34.4261 60.3029 34.4217 60.3072 34.3832C60.316 34.3473 60.3532 34.2545 60.2814 34.2186C60.2131 34.1862 60.1243 34.2217 60.1216 34.2431Z" fill="white"/>
<path d="M72.8228 13.5884C72.8228 13.5884 72.804 13.7171 72.8228 13.7429C72.8434 13.7705 73.0032 13.7643 73.0084 13.7289C73.0145 13.6899 73.0531 13.5971 72.9826 13.5643C72.9117 13.5288 72.8254 13.5643 72.8228 13.5884Z" fill="white"/>
<path d="M88.4424 16.3927C88.4424 16.3927 88.4253 16.524 88.445 16.5494C88.4604 16.5765 88.6236 16.5708 88.628 16.5323C88.635 16.4968 88.6735 16.4036 88.6022 16.3712C88.5321 16.3353 88.4468 16.3712 88.4424 16.3927Z" fill="white"/>
<path d="M56.6611 15.3895C56.6611 15.3895 56.6414 15.5212 56.6611 15.5466C56.6799 15.5737 56.8397 15.5681 56.8467 15.5308C56.8511 15.4954 56.8896 15.4008 56.8209 15.3654C56.7482 15.3326 56.6628 15.368 56.6611 15.3895Z" fill="white"/>
<path d="M29.9677 25.5576C29.9677 25.5576 29.948 25.6859 29.9677 25.7117C29.9866 25.7388 30.1463 25.7336 30.1542 25.6977C30.1612 25.6605 30.1997 25.569 30.1284 25.5336C30.0588 25.5003 29.9695 25.5336 29.9677 25.5576Z" fill="white"/>
<path d="M74.888 32.4721C74.888 32.4721 74.8675 32.6038 74.888 32.6292C74.906 32.655 75.0658 32.6506 75.0736 32.6148C75.0806 32.5762 75.1192 32.4834 75.0478 32.4506C74.976 32.4152 74.892 32.4506 74.888 32.4721Z" fill="white"/>
<path d="M70.8779 29.3751C70.8779 29.3751 70.8626 29.5064 70.8779 29.5322C70.8976 29.5594 71.0609 29.5537 71.0652 29.5178C71.0722 29.4806 71.1099 29.3865 71.0377 29.3536C70.9694 29.3177 70.8805 29.3536 70.8779 29.3751Z" fill="white"/>
<path d="M33.5123 24.2183C33.5123 24.2183 33.4934 24.3497 33.5123 24.3768C33.532 24.4026 33.6917 24.3996 33.6987 24.3624C33.7031 24.3238 33.7416 24.231 33.672 24.1969C33.6003 24.161 33.5149 24.1969 33.5123 24.2183Z" fill="white"/>
<path d="M54.6752 25.9745C54.6752 25.9745 54.659 26.1063 54.6752 26.1299C54.6949 26.1562 54.8564 26.1531 54.8616 26.1159C54.8695 26.08 54.9076 25.9859 54.8349 25.95C54.7658 25.9176 54.68 25.9535 54.6752 25.9745Z" fill="white"/>
<path d="M56.1548 39.97C56.1548 39.97 56.136 40.1018 56.1548 40.1272C56.1737 40.1517 56.3334 40.1486 56.3396 40.1101C56.3466 40.0742 56.3851 39.9814 56.3146 39.946C56.2437 39.9131 56.1575 39.946 56.1548 39.97Z" fill="white"/>
<path d="M88.2329 26.5013C88.2329 26.5013 88.257 26.6457 88.3647 26.6357C88.4741 26.6282 88.5888 26.6111 88.5783 26.4873C88.5713 26.3617 88.4903 26.3687 88.4115 26.3971C88.3345 26.426 88.2115 26.4374 88.2329 26.5013Z" fill="white"/>
<path d="M27.3417 33.3648C27.3417 33.3648 27.287 33.412 27.2717 33.4689C27.2564 33.5293 27.2717 33.6348 27.2993 33.7149C27.3251 33.795 27.5637 33.6563 27.5807 33.6296C27.596 33.6033 27.5063 33.4554 27.4595 33.3867C27.41 33.3166 27.3417 33.3648 27.3417 33.3648Z" fill="white"/>
<path d="M24.4149 34.3018C24.4149 34.3018 24.5217 34.3605 24.5164 34.5001C24.5077 34.6415 24.4149 34.6213 24.3252 34.5644C24.2319 34.5071 24.2398 34.3675 24.2823 34.3228C24.3252 34.2804 24.4149 34.3018 24.4149 34.3018Z" fill="white"/>
<path d="M30.1641 34.4318C30.1641 34.4318 30.2914 34.3359 30.3523 34.3933C30.4171 34.4506 30.4556 34.5263 30.4026 34.6029C30.3523 34.6774 30.2958 34.6528 30.207 34.6143C30.1185 34.5776 30.1641 34.4318 30.1641 34.4318Z" fill="white"/>
<path d="M24.9792 35.9614C24.9792 35.9614 25.1263 36.056 25.1818 36.1299C25.2366 36.2044 25.1578 36.2604 25.093 36.3287C25.0291 36.3969 24.8877 36.4184 24.8991 36.2543C24.9092 36.0901 24.9135 35.8971 24.9792 35.9614Z" fill="white"/>
<path d="M39.9529 18.6856C39.9529 18.6856 40.1018 18.8761 40.0742 18.947C40.0484 19.017 39.7792 19.1054 39.71 18.947C39.6391 18.7898 39.8418 18.5202 39.9529 18.6856Z" fill="white"/>
<path d="M24.742 22.4076C24.742 22.4076 24.6037 22.5643 24.5871 22.6173C24.5674 22.6672 24.6033 22.7302 24.7341 22.9128C24.83 23.0187 24.8659 22.8974 24.8659 22.6957C24.8659 22.493 24.777 22.3717 24.742 22.4076Z" fill="white"/>
<path d="M53.3574 17.6448C53.3574 17.6448 53.3933 17.826 53.508 17.826C53.6209 17.826 53.6822 17.6974 53.6892 17.573C53.6993 17.4518 53.6301 17.4177 53.5421 17.4776C53.4568 17.5406 53.3675 17.5831 53.3574 17.6448Z" fill="white"/>
<path d="M52.8574 6.16421C52.8574 6.16421 52.8933 6.34849 53.0062 6.34849C53.12 6.34849 53.1805 6.21717 53.1892 6.09593C53.1984 5.97468 53.1284 5.93879 53.0421 6.00007C52.9533 6.0596 52.8679 6.10249 52.8574 6.16421Z" fill="#AE4319"/>
<path d="M52.8398 6.0453C52.8398 6.0453 52.8757 6.23001 52.9869 6.23001C53.1016 6.23001 53.1611 6.09826 53.1716 5.9757C53.1817 5.85445 53.1099 5.82119 53.0246 5.88116C52.9357 5.94287 52.8503 5.98533 52.8398 6.0453Z" fill="white"/>
<path d="M60.2578 9.44588C60.2578 9.44588 60.2911 9.63015 60.4049 9.63015C60.5178 9.63015 60.5791 9.49884 60.587 9.37628C60.5962 9.25504 60.5261 9.21914 60.4382 9.28174C60.3524 9.33995 60.2635 9.3846 60.2578 9.44588Z" fill="#AE4319"/>
<path d="M60.2383 9.32851C60.2383 9.32851 60.2724 9.51016 60.3871 9.51016C60.4983 9.51016 60.5582 9.38147 60.5683 9.26022C60.5784 9.13591 60.5048 9.10177 60.4195 9.1613C60.3341 9.22477 60.2448 9.26723 60.2383 9.32851Z" fill="white"/>
<path d="M63.6035 10.7724C63.6035 10.7724 63.6377 10.9567 63.7515 10.9567C63.8635 10.9567 63.9257 10.8254 63.9344 10.7024C63.9423 10.5798 63.8727 10.5457 63.7847 10.6052C63.6994 10.6669 63.6105 10.7107 63.6035 10.7724Z" fill="#AE4319"/>
<path d="M63.582 10.6556C63.582 10.6556 63.617 10.8368 63.7317 10.8368C63.8447 10.8368 63.9029 10.7055 63.9129 10.5842C63.923 10.463 63.8547 10.4271 63.7659 10.4884C63.6805 10.5514 63.5917 10.5943 63.582 10.6556Z" fill="white"/>
<path d="M62.4688 9.33994C62.4688 9.33994 62.5029 9.52421 62.6176 9.52421C62.7287 9.52421 62.7918 9.3929 62.7988 9.26859C62.8089 9.14734 62.7388 9.11408 62.65 9.17273C62.5646 9.23576 62.4775 9.27866 62.4688 9.33994Z" fill="#AE4319"/>
<path d="M62.4473 9.22187C62.4473 9.22187 62.4832 9.40615 62.5961 9.40615C62.7108 9.40615 62.7707 9.27439 62.7799 9.15183C62.7887 9.03059 62.72 8.99513 62.632 9.05772C62.5453 9.119 62.4573 9.16146 62.4473 9.22187Z" fill="white"/>
<path d="M41.5677 28.6109C41.5677 28.6109 41.4718 28.7597 41.4123 28.8639C41.3764 28.9693 41.5865 28.9794 41.6618 28.9098C41.7423 28.8385 41.7677 28.7268 41.7336 28.6542C41.6994 28.585 41.6294 28.5325 41.5677 28.6109Z" fill="white"/>
<path d="M43.6546 28.6713C43.6546 28.6713 43.5163 28.845 43.5237 28.9409C43.5325 29.0385 43.6905 29.0556 43.7693 28.9238C43.8476 28.7956 43.7163 28.6021 43.6546 28.6713Z" fill="white"/>
<path d="M50.8931 28.08C50.8931 28.08 50.7229 28.3496 50.7758 28.4157C50.8253 28.4827 50.9597 28.533 50.9597 28.533C50.9597 28.533 51.0958 28.533 51.1124 28.4328C51.1286 28.3326 50.9597 27.9097 50.8931 28.08Z" fill="white"/>
<path d="M45.9042 26.8459C45.9042 26.8459 45.8468 26.8818 45.912 26.9531C45.9759 27.0232 46.06 27.0372 46.1029 27.0013C46.1427 26.9672 45.9956 26.7544 45.9042 26.8459Z" fill="white"/>
<path d="M53.4247 28.0867C53.4247 28.0867 53.2973 28.074 53.3932 28.2337C53.489 28.3939 53.5529 28.4583 53.6173 28.3725C53.682 28.2898 53.5105 28.1296 53.4247 28.0867Z" fill="white"/>
<path d="M34.188 32.388C34.188 32.388 34.0632 32.5552 34.0632 32.6178C34.0632 32.6795 34.0418 32.9277 34.2291 32.8252C34.4147 32.7211 34.3618 32.7211 34.3316 32.5766C34.3009 32.4335 34.2375 32.3236 34.188 32.388Z" fill="white"/>
<path d="M80.5146 11.1111C80.5146 11.1111 80.3872 11.2783 80.3872 11.3409C80.3872 11.4022 80.3692 11.6508 80.5557 11.5479C80.7422 11.4424 80.6892 11.4424 80.659 11.2997C80.6275 11.157 80.564 11.0467 80.5146 11.1111Z" fill="white"/>
<path d="M76.6739 3.56336C76.6739 3.56336 76.5474 3.72926 76.5474 3.79316C76.5474 3.85488 76.5286 4.10306 76.7159 3.99757C76.9015 3.89471 76.8486 3.89471 76.8166 3.7507C76.7864 3.60626 76.7242 3.49946 76.6739 3.56336Z" fill="#AE4319"/>
<path d="M76.6537 3.44544C76.6537 3.44544 76.5298 3.61265 76.5298 3.67349C76.5298 3.73652 76.511 3.98339 76.6966 3.88096C76.8831 3.77941 76.831 3.77679 76.7999 3.63409C76.7679 3.48921 76.704 3.38066 76.6537 3.44544Z" fill="white"/>
<path d="M74.1963 3.24669C74.1963 3.24669 74.0689 3.41083 74.0689 3.4743C74.0689 3.53558 74.0501 3.78683 74.2365 3.68134C74.423 3.57848 74.3709 3.57847 74.339 3.43315C74.3074 3.28915 74.2462 3.18234 74.1963 3.24669Z" fill="#AE4319"/>
<path d="M74.1763 3.1267C74.1763 3.1267 74.0515 3.2939 74.0515 3.35649C74.0515 3.41777 74.0301 3.66639 74.2192 3.56353C74.4048 3.45936 74.3518 3.45936 74.3216 3.31535C74.2896 3.17266 74.2257 3.06235 74.1763 3.1267Z" fill="white"/>
<path d="M67.395 7.00529C67.395 7.00529 67.2703 7.16943 67.2703 7.23334C67.2703 7.29505 67.2488 7.54324 67.4379 7.43906C67.6252 7.33664 67.5723 7.33664 67.5403 7.19351C67.5088 7.0495 67.4449 6.94094 67.395 7.00529Z" fill="#AE4319"/>
<path d="M67.3766 6.88532C67.3766 6.88532 67.2527 7.05252 67.2527 7.11512C67.2527 7.17684 67.2313 7.42633 67.4169 7.32216C67.6051 7.21973 67.5512 7.21667 67.5219 7.07397C67.4913 6.93128 67.4265 6.82141 67.3766 6.88532Z" fill="white"/>
<path d="M89.8881 13.1492C89.8881 13.1492 89.7625 13.3164 89.7625 13.379C89.7625 13.4407 89.741 13.6889 89.9301 13.5865C90.1157 13.4805 90.0627 13.4805 90.0308 13.3379C90.001 13.1947 89.9393 13.0849 89.8881 13.1492Z" fill="#AE4319"/>
<path d="M89.8648 13.0316C89.8648 13.0316 89.7409 13.1988 89.7409 13.2592C89.7409 13.3205 89.7203 13.5717 89.9094 13.4662C90.095 13.3651 90.0394 13.3651 90.0105 13.2194C89.9803 13.0749 89.9151 12.9677 89.8648 13.0316Z" fill="white"/>
<path d="M36.0148 32.353C36.0148 32.353 35.8209 32.4243 35.788 32.4769C35.7521 32.5298 35.5989 32.7255 35.8121 32.7426C36.0231 32.7566 35.9806 32.7281 36.0336 32.5894C36.0865 32.4528 36.0918 32.3272 36.0148 32.353Z" fill="white"/>
<path d="M48.089 40.1585C48.089 40.1585 47.8968 40.2298 47.8622 40.2797C47.8263 40.3327 47.6732 40.5297 47.8863 40.5441C48.099 40.5585 48.0566 40.5301 48.1095 40.3944C48.1608 40.2552 48.1678 40.1296 48.089 40.1585Z" fill="white"/>
<path d="M9.30594 26.1448C9.30594 26.1448 9.10941 26.2161 9.07614 26.266C9.04375 26.3203 8.89055 26.5155 9.10197 26.533C9.3147 26.5471 9.27224 26.5186 9.3252 26.3798C9.37466 26.245 9.3821 26.1177 9.30594 26.1448Z" fill="white"/>
<path d="M9.92964 27.0244C9.92964 27.0244 9.73399 27.0957 9.7016 27.1487C9.66745 27.1982 9.5125 27.3969 9.72567 27.4113C9.94015 27.4284 9.89419 27.3973 9.94715 27.2612C9.99968 27.1242 10.0058 26.9986 9.92964 27.0244Z" fill="white"/>
<path d="M62.2933 35.2871C62.2933 35.2871 62.1563 35.443 62.148 35.506C62.1436 35.5647 62.0994 35.8128 62.2933 35.727C62.4907 35.6417 62.4378 35.6342 62.4207 35.4885C62.4036 35.3432 62.3506 35.2285 62.2933 35.2871Z" fill="white"/>
<path d="M48.3962 21.9346C48.3962 21.9346 48.2579 22.0874 48.2509 22.15C48.2448 22.2117 48.1997 22.4568 48.3962 22.3715C48.5901 22.2861 48.5389 22.2818 48.5219 22.136C48.503 21.9902 48.4536 21.876 48.3962 21.9346Z" fill="white"/>
<path d="M42.8915 23.0398C42.8915 23.0398 42.7514 23.1939 42.747 23.2538C42.74 23.3168 42.6976 23.5637 42.8915 23.4779C43.0889 23.3926 43.0359 23.3851 43.0189 23.2394C43 23.0936 42.9471 22.9798 42.8915 23.0398Z" fill="#AE4319"/>
<path d="M42.8719 22.9232C42.8719 22.9232 42.7319 23.076 42.7275 23.1372C42.7205 23.2003 42.678 23.4454 42.8728 23.36C43.0685 23.2747 43.0172 23.2686 43.0002 23.1228C42.9805 22.9775 42.9293 22.8628 42.8719 22.9232Z" fill="white"/>
<path d="M41.5221 24.1149C41.5221 24.1149 41.3803 24.2681 41.3759 24.3276C41.3689 24.392 41.3264 24.6375 41.5221 24.5522C41.7169 24.4664 41.6648 24.4589 41.6477 24.3136C41.6289 24.1679 41.5759 24.054 41.5221 24.1149Z" fill="#AE4319"/>
<path d="M41.5011 23.9968C41.5011 23.9968 41.361 24.1522 41.3558 24.2108C41.3497 24.2738 41.3072 24.5194 41.5011 24.4336C41.6985 24.3482 41.6456 24.3421 41.625 24.1968C41.6097 24.051 41.5567 23.9368 41.5011 23.9968Z" fill="white"/>
<path d="M40.2738 41.5594C40.2738 41.5594 40.1346 41.7109 40.1302 41.7735C40.1232 41.8352 40.079 42.0803 40.2764 41.995C40.4703 41.9092 40.4191 41.9048 40.3994 41.759C40.3832 41.6137 40.3302 41.499 40.2738 41.5594Z" fill="#AE4319"/>
<path d="M40.2536 41.4394C40.2536 41.4394 40.1166 41.5948 40.1091 41.6535C40.1039 41.7183 40.0614 41.9621 40.2536 41.8763C40.451 41.7909 40.3998 41.7852 40.381 41.6395C40.3643 41.4942 40.3122 41.3799 40.2536 41.4394Z" fill="white"/>
<path d="M38.9601 23.1827C38.9601 23.1827 38.8218 23.3355 38.8174 23.398C38.8104 23.4598 38.768 23.7049 38.9601 23.6195C39.1593 23.5342 39.1063 23.528 39.0875 23.3823C39.0704 23.2383 39.0175 23.1214 38.9601 23.1827Z" fill="#AE4319"/>
<path d="M38.9436 23.0642C38.9436 23.0642 38.8053 23.2187 38.7974 23.2786C38.7921 23.3399 38.7462 23.5868 38.9436 23.4997C39.1401 23.4174 39.0863 23.413 39.0692 23.2642C39.0521 23.1184 39 23.0042 38.9436 23.0642Z" fill="white"/>
<path d="M81.479 22.2673C81.479 22.2673 81.3399 22.4218 81.3337 22.4844C81.3294 22.5461 81.2843 22.7912 81.479 22.7059C81.6747 22.6201 81.6226 22.6144 81.6064 22.4673C81.5894 22.3216 81.5364 22.2073 81.479 22.2673Z" fill="white"/>
<path d="M50.3862 21.1062C50.3862 21.1062 50.2545 21.2519 50.2501 21.3106C50.2448 21.3675 50.2024 21.599 50.3862 21.5176C50.5709 21.4362 50.5206 21.4323 50.5057 21.2948C50.4886 21.1591 50.4392 21.0519 50.3862 21.1062Z" fill="white"/>
<path d="M4.91455 23.3429C4.91455 23.3429 4.78368 23.4856 4.7793 23.5456C4.77317 23.6029 4.73334 23.834 4.91762 23.7531C5.09883 23.673 5.05024 23.6673 5.03317 23.5316C5.01785 23.3928 4.96752 23.2856 4.91455 23.3429Z" fill="white"/>
<path d="M71.7849 21.5749C71.7849 21.5749 71.654 21.7176 71.6479 21.7749C71.6435 21.8349 71.6011 22.0647 71.7849 21.9846C71.9679 21.9045 71.9184 21.8988 71.9035 21.7631C71.8865 21.6248 71.837 21.5175 71.7849 21.5749Z" fill="white"/>
<path d="M65.2059 31.7857C65.2059 31.7857 65.0777 31.9284 65.0733 31.9884C65.0654 32.0457 65.0265 32.2768 65.2094 32.1954C65.3933 32.1144 65.3438 32.11 65.3268 31.9739C65.3088 31.8369 65.2615 31.7297 65.2059 31.7857Z" fill="white"/>
<path d="M71.2957 4.78294C71.2957 4.78294 71.1648 4.9287 71.1573 4.98604C71.153 5.04294 71.1118 5.27406 71.2957 5.19308C71.4804 5.11429 71.4291 5.10772 71.413 4.9716C71.3959 4.8359 71.3491 4.72867 71.2957 4.78294Z" fill="white"/>
<path d="M50.24 18.854C50.24 18.854 50.1082 18.9967 50.103 19.0553C50.0986 19.114 50.0562 19.3438 50.24 19.2654C50.423 19.1836 50.3726 19.1783 50.3555 19.0409C50.3415 18.9039 50.2912 18.7971 50.24 18.854Z" fill="white"/>
<path d="M74.4686 14.5116C74.4686 14.5116 74.3369 14.657 74.3329 14.7143C74.3259 14.7716 74.2852 15.0028 74.4686 14.9231C74.6533 14.8412 74.603 14.836 74.5859 14.7003C74.5715 14.5642 74.522 14.4543 74.4686 14.5116Z" fill="white"/>
<path d="M89.0554 15.0442C89.0554 15.0442 88.9245 15.1895 88.9171 15.2469C88.9127 15.3042 88.8716 15.5353 89.0554 15.4543C89.2401 15.3755 89.1898 15.3685 89.1723 15.2329C89.157 15.0967 89.1058 14.9886 89.0554 15.0442Z" fill="white"/>
<path d="M54.2507 26.4731C54.2507 26.4731 54.1198 26.6176 54.1124 26.6745C54.108 26.7331 54.0669 26.9629 54.2507 26.882C54.4337 26.8032 54.3851 26.7992 54.368 26.6605C54.354 26.523 54.3011 26.4162 54.2507 26.4731Z" fill="white"/>
<path d="M31.0086 24.5549C31.0086 24.5549 30.8769 24.6976 30.8703 24.758C30.8659 24.8149 30.8244 25.0465 31.0086 24.965C31.1907 24.8836 31.143 24.8797 31.1259 24.7436C31.1115 24.6079 31.0612 24.4993 31.0086 24.5549Z" fill="white"/>
<path d="M67.7302 31.6702C67.7302 31.6702 67.5984 31.8159 67.594 31.8729C67.5888 31.9315 67.5455 32.163 67.7302 32.0816C67.9131 32.0002 67.8628 31.9963 67.8488 31.8588C67.8317 31.7227 67.7831 31.6159 67.7302 31.6702Z" fill="white"/>
<path d="M79.2359 22.6958C79.2359 22.6958 79.1042 22.8402 79.0968 22.8976C79.0924 22.9545 79.0512 23.1856 79.2359 23.1046C79.418 23.0258 79.3703 23.0215 79.3524 22.8831C79.3353 22.7457 79.288 22.6389 79.2359 22.6958Z" fill="#AE4319"/>
<path d="M79.2115 22.5774C79.2115 22.5774 79.0833 22.7231 79.0763 22.7805C79.0702 22.8374 79.0303 23.0685 79.2115 22.9875C79.3963 22.9061 79.3477 22.9022 79.3302 22.766C79.3153 22.6303 79.2645 22.5218 79.2115 22.5774Z" fill="white"/>
<path d="M81.8599 20.9062C81.8599 20.9062 81.7281 21.0489 81.7237 21.1063C81.7167 21.1649 81.6751 21.396 81.8599 21.315C82.0428 21.2336 81.9942 21.231 81.9772 21.0922C81.9627 20.9566 81.9128 20.8493 81.8599 20.9062Z" fill="#AE4319"/>
<path d="M81.8375 20.788C81.8375 20.788 81.7066 20.9337 81.7023 20.9906C81.6944 21.048 81.6554 21.2791 81.8375 21.1981C82.0205 21.1167 81.9719 21.1123 81.9548 20.9766C81.9395 20.8392 81.89 20.7324 81.8375 20.788Z" fill="white"/>
<path d="M45.4186 32.9424C45.4186 32.9424 45.5749 33.0566 45.6339 33.0553C45.6922 33.0553 45.9263 33.0693 45.8261 32.8969C45.7259 32.7227 45.7259 32.7726 45.5919 32.8041C45.4597 32.8352 45.3573 32.8969 45.4186 32.9424Z" fill="white"/>
<path d="M42.0598 34.1718C42.0598 34.1718 41.8453 34.2729 41.8939 34.4072C41.9468 34.5403 42.0904 34.4891 42.1307 34.3762C42.1705 34.2645 42.1622 34.1087 42.0598 34.1718Z" fill="white"/>
<path d="M75.7294 11.5194C75.7294 11.5194 75.514 11.6222 75.567 11.7553C75.6164 11.8897 75.7591 11.8367 75.8012 11.7251C75.8405 11.6126 75.8314 11.4563 75.7294 11.5194Z" fill="white"/>
<path d="M51.3078 32.468C51.3078 32.468 51.0937 32.5695 51.1445 32.7039C51.1966 32.8352 51.3393 32.7853 51.3822 32.6724C51.4225 32.5612 51.4106 32.4054 51.3078 32.468Z" fill="white"/>
<path d="M52.2856 8.07939C52.2856 8.07939 52.1718 8.28905 52.29 8.36478C52.4104 8.44357 52.4962 8.31794 52.4629 8.20195C52.4318 8.0877 52.3325 7.96952 52.2856 8.07939Z" fill="white"/>
<path d="M56.2427 27.1797C56.2427 27.1797 56.0856 27.4651 56.1998 27.5299C56.3171 27.5925 56.3907 27.5527 56.4664 27.3185C56.5377 27.0843 56.3171 27.0313 56.2427 27.1797Z" fill="white"/>
<path d="M9.08008 39.6084C9.08008 39.6084 10.0606 44.6298 11.2831 48.9124C12.5082 52.9525 9.44688 38.1385 9.08008 39.6084Z" fill="url(#paint83_linear_2006_9622)"/>
<defs>
<linearGradient id="paint0_linear_2006_9622" x1="55.0136" y1="19.0622" x2="49.3051" y2="49.5478" gradientUnits="userSpaceOnUse">
<stop stop-color="white"/>
<stop offset="0.8344" stop-color="#7E7E7D"/>
</linearGradient>
<linearGradient id="paint1_linear_2006_9622" x1="35.1548" y1="21.8341" x2="31.2688" y2="38.835" gradientUnits="userSpaceOnUse">
<stop offset="0.1403" stop-color="#FFE45D"/>
<stop offset="0.487" stop-color="#FCD146"/>
<stop offset="1" stop-color="#E2871C"/>
</linearGradient>
<linearGradient id="paint2_linear_2006_9622" x1="33.3032" y1="27.5946" x2="31.0976" y2="40.5736" gradientUnits="userSpaceOnUse">
<stop offset="0.1403" stop-color="#FFE45D"/>
<stop offset="0.487" stop-color="#FCD146"/>
<stop offset="1" stop-color="#BA6C1C"/>
</linearGradient>
<linearGradient id="paint3_linear_2006_9622" x1="41.499" y1="32.1745" x2="42.4226" y2="40.693" gradientUnits="userSpaceOnUse">
<stop offset="0.1403" stop-color="#FFE45D"/>
<stop offset="0.487" stop-color="#FCD146"/>
<stop offset="1" stop-color="#E2871C"/>
</linearGradient>
<linearGradient id="paint4_linear_2006_9622" x1="39.7056" y1="36.6816" x2="39.2186" y2="44.3338" gradientUnits="userSpaceOnUse">
<stop offset="0.1403" stop-color="#FFE45D"/>
<stop offset="0.487" stop-color="#FCD146"/>
<stop offset="1" stop-color="#E2871C"/>
</linearGradient>
<linearGradient id="paint5_linear_2006_9622" x1="33.3032" y1="27.5947" x2="31.0976" y2="40.5737" gradientUnits="userSpaceOnUse">
<stop offset="0.1403" stop-color="#FFE45D"/>
<stop offset="0.487" stop-color="#FCD146"/>
<stop offset="1" stop-color="#BA6C1C"/>
</linearGradient>
<linearGradient id="paint6_linear_2006_9622" x1="77.2524" y1="-1.10209" x2="68.7095" y2="13.8006" gradientUnits="userSpaceOnUse">
<stop offset="0.1403" stop-color="#FFE45D"/>
<stop offset="0.487" stop-color="#FCD146"/>
<stop offset="1" stop-color="#E2871C"/>
</linearGradient>
<linearGradient id="paint7_linear_2006_9622" x1="77.5474" y1="2.36241" x2="69.9538" y2="16.6005" gradientUnits="userSpaceOnUse">
<stop offset="0.1403" stop-color="#FFE45D"/>
<stop offset="0.487" stop-color="#FCD146"/>
<stop offset="1" stop-color="#E2871C"/>
</linearGradient>
<linearGradient id="paint8_linear_2006_9622" x1="77.5474" y1="2.36347" x2="69.9544" y2="16.6005" gradientUnits="userSpaceOnUse">
<stop offset="0.1403" stop-color="#FFE45D"/>
<stop offset="0.487" stop-color="#FCD146"/>
<stop offset="1" stop-color="#E2871C"/>
</linearGradient>
<linearGradient id="paint9_linear_2006_9622" x1="75.3193" y1="-0.0544897" x2="69.8058" y2="8.58338" gradientUnits="userSpaceOnUse">
<stop offset="0.1403" stop-color="#FFE45D"/>
<stop offset="1" stop-color="#E2871C"/>
</linearGradient>
<linearGradient id="paint10_linear_2006_9622" x1="76.0033" y1="-1.86768" x2="67.4355" y2="13.0787" gradientUnits="userSpaceOnUse">
<stop offset="0.1403" stop-color="#FFE45D"/>
<stop offset="0.487" stop-color="#FCD146"/>
<stop offset="1" stop-color="#E2871C"/>
</linearGradient>
<linearGradient id="paint11_linear_2006_9622" x1="70.53" y1="3.86529" x2="60.9393" y2="15.884" gradientUnits="userSpaceOnUse">
<stop offset="0.1403" stop-color="#FFE45D"/>
<stop offset="0.487" stop-color="#FCD146"/>
<stop offset="1" stop-color="#E2871C"/>
</linearGradient>
<linearGradient id="paint12_linear_2006_9622" x1="71.6927" y1="7.40936" x2="70.8426" y2="17.7325" gradientUnits="userSpaceOnUse">
<stop offset="0.1403" stop-color="#FFE45D"/>
<stop offset="0.487" stop-color="#FCD146"/>
<stop offset="1" stop-color="#E2871C"/>
</linearGradient>
<linearGradient id="paint13_linear_2006_9622" x1="77.1777" y1="5.7474" x2="66.5716" y2="26.5547" gradientUnits="userSpaceOnUse">
<stop offset="0.1403" stop-color="#FFE45D"/>
<stop offset="0.487" stop-color="#FCD146"/>
<stop offset="1" stop-color="#E2871C"/>
</linearGradient>
<linearGradient id="paint14_linear_2006_9622" x1="74.5352" y1="13.4713" x2="65.1434" y2="25.6158" gradientUnits="userSpaceOnUse">
<stop offset="0.1403" stop-color="#FFE45D"/>
<stop offset="0.487" stop-color="#FCD146"/>
<stop offset="1" stop-color="#BA6C1C"/>
</linearGradient>
<linearGradient id="paint15_linear_2006_9622" x1="84.3819" y1="8.75238" x2="67.3587" y2="13.6802" gradientUnits="userSpaceOnUse">
<stop offset="0.1403" stop-color="#FFE45D"/>
<stop offset="1" stop-color="#E2871C"/>
</linearGradient>
<linearGradient id="paint16_linear_2006_9622" x1="67.191" y1="12.5857" x2="44.6025" y2="34.9315" gradientUnits="userSpaceOnUse">
<stop offset="0.1403" stop-color="#FFE45D"/>
<stop offset="0.487" stop-color="#FCD146"/>
<stop offset="1" stop-color="#E2871C"/>
</linearGradient>
<linearGradient id="paint17_linear_2006_9622" x1="49.2325" y1="-1.46334" x2="40.003" y2="24.0392" gradientUnits="userSpaceOnUse">
<stop offset="0.1403" stop-color="#FFE45D"/>
<stop offset="0.487" stop-color="#FCD146"/>
<stop offset="1" stop-color="#E2871C"/>
</linearGradient>
<linearGradient id="paint18_linear_2006_9622" x1="53.2104" y1="-0.0241759" x2="43.9807" y2="25.4789" gradientUnits="userSpaceOnUse">
<stop offset="0.1403" stop-color="#FFE45D"/>
<stop offset="0.487" stop-color="#FCD146"/>
<stop offset="1" stop-color="#E2871C"/>
</linearGradient>
<linearGradient id="paint19_linear_2006_9622" x1="53.0718" y1="-0.0722809" x2="43.8428" y2="25.4289" gradientUnits="userSpaceOnUse">
<stop offset="0.1403" stop-color="#FFE45D"/>
<stop offset="0.487" stop-color="#FCD146"/>
<stop offset="1" stop-color="#E2871C"/>
</linearGradient>
<linearGradient id="paint20_linear_2006_9622" x1="52.4521" y1="1.86858" x2="44.5171" y2="16.3619" gradientUnits="userSpaceOnUse">
<stop offset="0.1403" stop-color="#FFE45D"/>
<stop offset="1" stop-color="#E2871C"/>
</linearGradient>
<linearGradient id="paint21_linear_2006_9622" x1="38.1724" y1="15.1316" x2="35.5012" y2="27.7593" gradientUnits="userSpaceOnUse">
<stop offset="0.1403" stop-color="#FFE45D"/>
<stop offset="0.487" stop-color="#FCD146"/>
<stop offset="1" stop-color="#E2871C"/>
</linearGradient>
<linearGradient id="paint22_linear_2006_9622" x1="33.7029" y1="10.9832" x2="36.6988" y2="22.6427" gradientUnits="userSpaceOnUse">
<stop offset="0.1403" stop-color="#FFE45D"/>
<stop offset="0.487" stop-color="#FCD146"/>
<stop offset="1" stop-color="#E2871C"/>
</linearGradient>
<linearGradient id="paint23_linear_2006_9622" x1="11.1774" y1="16.6202" x2="13.549" y2="27.2928" gradientUnits="userSpaceOnUse">
<stop offset="0.1403" stop-color="#FFE45D"/>
<stop offset="0.487" stop-color="#FCD146"/>
<stop offset="1" stop-color="#E2871C"/>
</linearGradient>
<linearGradient id="paint24_linear_2006_9622" x1="34.0665" y1="11.5319" x2="36.4385" y2="22.2063" gradientUnits="userSpaceOnUse">
<stop offset="0.1403" stop-color="#FFE45D"/>
<stop offset="0.487" stop-color="#FCD146"/>
<stop offset="1" stop-color="#E2871C"/>
</linearGradient>
<linearGradient id="paint25_linear_2006_9622" x1="0.664142" y1="6.97264" x2="48.0308" y2="25.1906" gradientUnits="userSpaceOnUse">
<stop offset="0.1403" stop-color="#FFE45D"/>
<stop offset="1" stop-color="#E2871C"/>
</linearGradient>
<linearGradient id="paint26_linear_2006_9622" x1="47.1841" y1="-1.12982" x2="34.4322" y2="40.4051" gradientUnits="userSpaceOnUse">
<stop offset="0.1403" stop-color="#FFE45D"/>
<stop offset="0.487" stop-color="#FCD146"/>
<stop offset="1" stop-color="#E2871C"/>
</linearGradient>
<linearGradient id="paint27_linear_2006_9622" x1="45.3577" y1="7.05883" x2="42.3215" y2="36.4488" gradientUnits="userSpaceOnUse">
<stop offset="0.1403" stop-color="#FFE45D"/>
<stop offset="0.487" stop-color="#FCD146"/>
<stop offset="1" stop-color="#E2871C"/>
</linearGradient>
<linearGradient id="paint28_linear_2006_9622" x1="48.3253" y1="5.93164" x2="49.5726" y2="30.1414" gradientUnits="userSpaceOnUse">
<stop offset="0.1403" stop-color="#FFE45D"/>
<stop offset="1" stop-color="#E2871C"/>
</linearGradient>
<linearGradient id="paint29_linear_2006_9622" x1="45.8982" y1="18.712" x2="34.8369" y2="36.4919" gradientUnits="userSpaceOnUse">
<stop offset="0.1403" stop-color="#FFE45D"/>
<stop offset="0.487" stop-color="#FCD146"/>
<stop offset="1" stop-color="#BA6C1C"/>
</linearGradient>
<linearGradient id="paint30_linear_2006_9622" x1="18.7385" y1="15.6367" x2="18.4956" y2="28.8727" gradientUnits="userSpaceOnUse">
<stop offset="0.1403" stop-color="#FFE45D"/>
<stop offset="0.487" stop-color="#FCD146"/>
<stop offset="1" stop-color="#E2871C"/>
</linearGradient>
<linearGradient id="paint31_linear_2006_9622" x1="18.7389" y1="15.6357" x2="18.496" y2="28.8729" gradientUnits="userSpaceOnUse">
<stop offset="0.1403" stop-color="#FFE45D"/>
<stop offset="0.487" stop-color="#FCD146"/>
<stop offset="1" stop-color="#E2871C"/>
</linearGradient>
<linearGradient id="paint32_linear_2006_9622" x1="37.332" y1="-4.15737" x2="24.5788" y2="37.3818" gradientUnits="userSpaceOnUse">
<stop offset="0.1403" stop-color="#FFE45D"/>
<stop offset="0.487" stop-color="#FCD146"/>
<stop offset="1" stop-color="#E2871C"/>
</linearGradient>
<linearGradient id="paint33_linear_2006_9622" x1="18.6374" y1="22.261" x2="12.5043" y2="35.5595" gradientUnits="userSpaceOnUse">
<stop offset="0.1403" stop-color="#FFE45D"/>
<stop offset="0.487" stop-color="#FCD146"/>
<stop offset="1" stop-color="#E2871C"/>
</linearGradient>
<linearGradient id="paint34_linear_2006_9622" x1="2.50438" y1="19.5858" x2="4.93395" y2="25.5787" gradientUnits="userSpaceOnUse">
<stop offset="0.1403" stop-color="#FFE45D"/>
<stop offset="0.487" stop-color="#FCD146"/>
<stop offset="1" stop-color="#E2871C"/>
</linearGradient>
<linearGradient id="paint35_linear_2006_9622" x1="8.89032e-05" y1="30.7051" x2="23.6467" y2="30.7051" gradientUnits="userSpaceOnUse">
<stop offset="0.1403" stop-color="#FFE45D"/>
<stop offset="0.487" stop-color="#FCD146"/>
<stop offset="1" stop-color="#E2871C"/>
</linearGradient>
<linearGradient id="paint36_linear_2006_9622" x1="0.000223146" y1="31.2886" x2="23.6466" y2="31.2886" gradientUnits="userSpaceOnUse">
<stop offset="0.1403" stop-color="#FFE45D"/>
<stop offset="0.487" stop-color="#FCD146"/>
<stop offset="1" stop-color="#E2871C"/>
</linearGradient>
<linearGradient id="paint37_linear_2006_9622" x1="0.191182" y1="27.0755" x2="24.0786" y2="27.0755" gradientUnits="userSpaceOnUse">
<stop offset="0.1403" stop-color="#FFE45D"/>
<stop offset="1" stop-color="#E2871C"/>
</linearGradient>
<linearGradient id="paint38_linear_2006_9622" x1="13.5756" y1="25.3379" x2="24.0113" y2="41.2883" gradientUnits="userSpaceOnUse">
<stop offset="0.1403" stop-color="#FFE45D"/>
<stop offset="1" stop-color="#E2871C"/>
</linearGradient>
<linearGradient id="paint39_linear_2006_9622" x1="2.50503" y1="19.5876" x2="4.93395" y2="25.5789" gradientUnits="userSpaceOnUse">
<stop offset="0.1403" stop-color="#FFE45D"/>
<stop offset="0.487" stop-color="#FCD146"/>
<stop offset="1" stop-color="#E2871C"/>
</linearGradient>
<linearGradient id="paint40_linear_2006_9622" x1="52.1064" y1="14.5092" x2="62.6724" y2="33.8195" gradientUnits="userSpaceOnUse">
<stop offset="0.1403" stop-color="#FFE45D"/>
<stop offset="0.487" stop-color="#FCD146"/>
<stop offset="1" stop-color="#E2871C"/>
</linearGradient>
<linearGradient id="paint41_linear_2006_9622" x1="52.106" y1="14.5089" x2="62.6721" y2="33.8195" gradientUnits="userSpaceOnUse">
<stop offset="0.1403" stop-color="#FFE45D"/>
<stop offset="0.487" stop-color="#FCD146"/>
<stop offset="1" stop-color="#E2871C"/>
</linearGradient>
<linearGradient id="paint42_linear_2006_9622" x1="30.0658" y1="24.9849" x2="34.5599" y2="30.8151" gradientUnits="userSpaceOnUse">
<stop offset="0.1403" stop-color="#FFE45D"/>
<stop offset="0.487" stop-color="#FCD146"/>
<stop offset="1" stop-color="#E2871C"/>
</linearGradient>
<linearGradient id="paint43_linear_2006_9622" x1="30.0661" y1="24.9858" x2="34.5596" y2="30.8153" gradientUnits="userSpaceOnUse">
<stop offset="0.1403" stop-color="#FFE45D"/>
<stop offset="0.487" stop-color="#FCD146"/>
<stop offset="1" stop-color="#E2871C"/>
</linearGradient>
<linearGradient id="paint44_linear_2006_9622" x1="45.2916" y1="17.5632" x2="66.1572" y2="29.3278" gradientUnits="userSpaceOnUse">
<stop offset="0.1403" stop-color="#FFE45D"/>
<stop offset="1" stop-color="#E2871C"/>
</linearGradient>
<linearGradient id="paint45_linear_2006_9622" x1="32.8616" y1="25.4278" x2="33.7348" y2="29.0664" gradientUnits="userSpaceOnUse">
<stop offset="0.1403" stop-color="#FFE45D"/>
<stop offset="1" stop-color="#E2871C"/>
</linearGradient>
<linearGradient id="paint46_linear_2006_9622" x1="54.6372" y1="14.1549" x2="57.0662" y2="28.608" gradientUnits="userSpaceOnUse">
<stop offset="0.1403" stop-color="#FFE45D"/>
<stop offset="0.487" stop-color="#FCD146"/>
<stop offset="1" stop-color="#BA6C1C"/>
</linearGradient>
<linearGradient id="paint47_linear_2006_9622" x1="54.6391" y1="14.1548" x2="57.0682" y2="28.6079" gradientUnits="userSpaceOnUse">
<stop offset="0.1403" stop-color="#FFE45D"/>
<stop offset="0.487" stop-color="#FCD146"/>
<stop offset="1" stop-color="#BA6C1C"/>
</linearGradient>
<linearGradient id="paint48_linear_2006_9622" x1="44.1311" y1="32.1275" x2="39.8397" y2="41.844" gradientUnits="userSpaceOnUse">
<stop offset="0.1403" stop-color="#FFE45D"/>
<stop offset="1" stop-color="#E2871C"/>
</linearGradient>
<linearGradient id="paint49_linear_2006_9622" x1="-2.08447" y1="46.208" x2="146.407" y2="51.368" gradientUnits="userSpaceOnUse">
<stop offset="0.0456" stop-color="#D73202"/>
<stop offset="0.1738" stop-color="#EB5E0E"/>
<stop offset="0.3612" stop-color="#D73202"/>
<stop offset="1" stop-color="#891005"/>
</linearGradient>
<linearGradient id="paint50_linear_2006_9622" x1="17.9012" y1="50.3626" x2="90.1867" y2="35.24" gradientUnits="userSpaceOnUse">
<stop offset="0.0456" stop-color="#D73202"/>
<stop offset="0.2771" stop-color="#EB5E0E"/>
<stop offset="0.5814" stop-color="#D73202"/>
<stop offset="1" stop-color="#891005"/>
</linearGradient>
<linearGradient id="paint51_linear_2006_9622" x1="34.5762" y1="72.3798" x2="46.626" y2="47.1073" gradientUnits="userSpaceOnUse">
<stop offset="0.0456" stop-color="#D73202"/>
<stop offset="0.2771" stop-color="#EB5E0E"/>
<stop offset="0.5814" stop-color="#D73202"/>
<stop offset="1" stop-color="#891005"/>
</linearGradient>
<linearGradient id="paint52_linear_2006_9622" x1="7.423" y1="41.977" x2="29.1638" y2="61.3512" gradientUnits="userSpaceOnUse">
<stop offset="0.0854" stop-color="#FF7C67"/>
<stop offset="1" stop-color="#891005"/>
</linearGradient>
<linearGradient id="paint53_linear_2006_9622" x1="19.7163" y1="59.0518" x2="92.0036" y2="43.9288" gradientUnits="userSpaceOnUse">
<stop offset="0.0456" stop-color="#D73202"/>
<stop offset="0.2771" stop-color="#EB5E0E"/>
<stop offset="0.5814" stop-color="#D73202"/>
<stop offset="1" stop-color="#891005"/>
</linearGradient>
<linearGradient id="paint54_linear_2006_9622" x1="101.167" y1="25.2531" x2="75.6393" y2="31.968" gradientUnits="userSpaceOnUse">
<stop offset="0.1403" stop-color="#FFE45D"/>
<stop offset="0.487" stop-color="#FCD146"/>
<stop offset="1" stop-color="#E2871C"/>
</linearGradient>
<linearGradient id="paint55_linear_2006_9622" x1="97.2548" y1="19.345" x2="83.2004" y2="36.8726" gradientUnits="userSpaceOnUse">
<stop offset="0.1403" stop-color="#FFE45D"/>
<stop offset="0.487" stop-color="#FCD146"/>
<stop offset="1" stop-color="#E2871C"/>
</linearGradient>
<linearGradient id="paint56_linear_2006_9622" x1="96.2494" y1="23.717" x2="87.2614" y2="31.8547" gradientUnits="userSpaceOnUse">
<stop offset="0.1403" stop-color="#FFE45D"/>
<stop offset="0.487" stop-color="#FCD146"/>
<stop offset="1" stop-color="#E2871C"/>
</linearGradient>
<linearGradient id="paint57_linear_2006_9622" x1="100.686" y1="23.4186" x2="75.1586" y2="30.1336" gradientUnits="userSpaceOnUse">
<stop offset="0.1403" stop-color="#FFE45D"/>
<stop offset="0.487" stop-color="#FCD146"/>
<stop offset="1" stop-color="#E2871C"/>
</linearGradient>
<linearGradient id="paint58_linear_2006_9622" x1="103.923" y1="22.3734" x2="78.8451" y2="28.6663" gradientUnits="userSpaceOnUse">
<stop offset="0.1403" stop-color="#FFE45D"/>
<stop offset="1" stop-color="#E2871C"/>
</linearGradient>
<linearGradient id="paint59_linear_2006_9622" x1="97.5151" y1="22.726" x2="82.7579" y2="31.1674" gradientUnits="userSpaceOnUse">
<stop offset="0.1403" stop-color="#FFE45D"/>
<stop offset="1" stop-color="#E2871C"/>
</linearGradient>
<linearGradient id="paint60_linear_2006_9622" x1="87.5158" y1="9.4341" x2="83.8116" y2="29.2909" gradientUnits="userSpaceOnUse">
<stop offset="0.1403" stop-color="#FFE45D"/>
<stop offset="0.487" stop-color="#FCD146"/>
<stop offset="1" stop-color="#E2871C"/>
</linearGradient>
<linearGradient id="paint61_linear_2006_9622" x1="88.9296" y1="12.0347" x2="86.6627" y2="24.989" gradientUnits="userSpaceOnUse">
<stop offset="0.1403" stop-color="#FFE45D"/>
<stop offset="0.487" stop-color="#FCD146"/>
<stop offset="1" stop-color="#E2871C"/>
</linearGradient>
<linearGradient id="paint62_linear_2006_9622" x1="88.9302" y1="12.0348" x2="86.6632" y2="24.9894" gradientUnits="userSpaceOnUse">
<stop offset="0.1403" stop-color="#FFE45D"/>
<stop offset="0.487" stop-color="#FCD146"/>
<stop offset="1" stop-color="#E2871C"/>
</linearGradient>
<linearGradient id="paint63_linear_2006_9622" x1="88.4721" y1="10.9086" x2="81.6782" y2="24.308" gradientUnits="userSpaceOnUse">
<stop offset="0.1403" stop-color="#FFE45D"/>
<stop offset="1" stop-color="#E2871C"/>
</linearGradient>
<linearGradient id="paint64_linear_2006_9622" x1="85.3822" y1="10.8031" x2="85.0178" y2="25.1954" gradientUnits="userSpaceOnUse">
<stop offset="0.1403" stop-color="#FFE45D"/>
<stop offset="1" stop-color="#E2871C"/>
</linearGradient>
<linearGradient id="paint65_linear_2006_9622" x1="54.0919" y1="25.6833" x2="59.9213" y2="41.5926" gradientUnits="userSpaceOnUse">
<stop offset="0.1403" stop-color="#FFE45D"/>
<stop offset="0.487" stop-color="#FCD146"/>
<stop offset="1" stop-color="#E2871C"/>
</linearGradient>
<linearGradient id="paint66_linear_2006_9622" x1="67.7386" y1="1.56033" x2="61.0991" y2="42.3697" gradientUnits="userSpaceOnUse">
<stop offset="0.1403" stop-color="#FFE45D"/>
<stop offset="1" stop-color="#E2871C"/>
</linearGradient>
<linearGradient id="paint67_linear_2006_9622" x1="57.8429" y1="23.5546" x2="65.5621" y2="46.6182" gradientUnits="userSpaceOnUse">
<stop offset="0.1403" stop-color="#FFE45D"/>
<stop offset="0.487" stop-color="#FCD146"/>
<stop offset="1" stop-color="#E2871C"/>
</linearGradient>
<linearGradient id="paint68_linear_2006_9622" x1="63.0887" y1="14.5425" x2="62.9337" y2="41.485" gradientUnits="userSpaceOnUse">
<stop offset="0.457" stop-color="#E2871C"/>
<stop offset="1" stop-color="#D67A0B"/>
</linearGradient>
<linearGradient id="paint69_linear_2006_9622" x1="49.1344" y1="27.5948" x2="54.9255" y2="43.3998" gradientUnits="userSpaceOnUse">
<stop offset="0.1403" stop-color="#FFE45D"/>
<stop offset="0.487" stop-color="#FCD146"/>
<stop offset="1" stop-color="#E2871C"/>
</linearGradient>
<linearGradient id="paint70_linear_2006_9622" x1="46.6116" y1="39.7372" x2="33.3321" y2="45.1625" gradientUnits="userSpaceOnUse">
<stop offset="0.1403" stop-color="#FFE45D"/>
<stop offset="0.487" stop-color="#FCD146"/>
<stop offset="1" stop-color="#E2871C"/>
</linearGradient>
<linearGradient id="paint71_linear_2006_9622" x1="70.1807" y1="24.6924" x2="61.2748" y2="43.2829" gradientUnits="userSpaceOnUse">
<stop offset="0.1403" stop-color="#FFE45D"/>
<stop offset="1" stop-color="#E2871C"/>
</linearGradient>
<linearGradient id="paint72_linear_2006_9622" x1="53.0809" y1="29.5736" x2="52.8726" y2="53.6354" gradientUnits="userSpaceOnUse">
<stop stop-color="white"/>
<stop offset="0.8344" stop-color="#7E7E7D"/>
</linearGradient>
<linearGradient id="paint73_linear_2006_9622" x1="52.0855" y1="51.044" x2="53.7048" y2="18.9796" gradientUnits="userSpaceOnUse">
<stop stop-color="white"/>
<stop offset="0.8344" stop-color="#7E7E7D"/>
</linearGradient>
<linearGradient id="paint74_linear_2006_9622" x1="10.7047" y1="32.1372" x2="43.7075" y2="51.6995" gradientUnits="userSpaceOnUse">
<stop stop-color="white"/>
<stop offset="0.8344" stop-color="#7E7E7D"/>
</linearGradient>
<linearGradient id="paint75_linear_2006_9622" x1="90.7068" y1="34.3836" x2="19.4149" y2="46.2859" gradientUnits="userSpaceOnUse">
<stop stop-color="white"/>
<stop offset="0.8344" stop-color="#7E7E7D"/>
</linearGradient>
<linearGradient id="paint76_linear_2006_9622" x1="16.6484" y1="35.392" x2="61.7266" y2="35.392" gradientUnits="userSpaceOnUse">
<stop offset="0.1403" stop-color="#FFE45D"/>
<stop offset="0.487" stop-color="#FCD146"/>
<stop offset="1" stop-color="#E2871C"/>
</linearGradient>
<linearGradient id="paint77_linear_2006_9622" x1="10.3862" y1="28.9891" x2="21.7219" y2="38.7055" gradientUnits="userSpaceOnUse">
<stop offset="0.1403" stop-color="#FFE45D"/>
<stop offset="0.487" stop-color="#FCD146"/>
<stop offset="1" stop-color="#E2871C"/>
</linearGradient>
<linearGradient id="paint78_linear_2006_9622" x1="10.5434" y1="28.807" x2="21.8792" y2="38.5234" gradientUnits="userSpaceOnUse">
<stop offset="0.1403" stop-color="#FFE45D"/>
<stop offset="0.487" stop-color="#FCD146"/>
<stop offset="1" stop-color="#E2871C"/>
</linearGradient>
<linearGradient id="paint79_linear_2006_9622" x1="39.7893" y1="29.5417" x2="40.5947" y2="35.5824" gradientUnits="userSpaceOnUse">
<stop offset="0.1403" stop-color="#FFE45D"/>
<stop offset="0.487" stop-color="#FCD146"/>
<stop offset="1" stop-color="#E2871C"/>
</linearGradient>
<linearGradient id="paint80_linear_2006_9622" x1="36.3159" y1="24.4522" x2="41.5383" y2="35.5044" gradientUnits="userSpaceOnUse">
<stop offset="0.1403" stop-color="#FFE45D"/>
<stop offset="0.487" stop-color="#FCD146"/>
<stop offset="1" stop-color="#E2871C"/>
</linearGradient>
<linearGradient id="paint81_linear_2006_9622" x1="37.4017" y1="30.3337" x2="37.8187" y2="33.4614" gradientUnits="userSpaceOnUse">
<stop offset="0.1403" stop-color="#FFE45D"/>
<stop offset="1" stop-color="#E2871C"/>
</linearGradient>
<linearGradient id="paint82_linear_2006_9622" x1="17.0623" y1="35.1976" x2="19.9859" y2="36.7147" gradientUnits="userSpaceOnUse">
<stop offset="0.1403" stop-color="#FFE45D"/>
<stop offset="1" stop-color="#E2871C"/>
</linearGradient>
<linearGradient id="paint83_linear_2006_9622" x1="8.90578" y1="41.4374" x2="20.0211" y2="65.0702" gradientUnits="userSpaceOnUse">
<stop offset="0.0854" stop-color="#FF7C67"/>
<stop offset="1" stop-color="#891005"/>
</linearGradient>
</defs>
</svg>
