<svg width="69" height="69" viewBox="0 0 69 69" fill="none" xmlns="http://www.w3.org/2000/svg">
<path d="M34.503 68.9942C53.5533 68.9942 68.9966 53.5497 68.9966 34.498C68.9966 15.4462 53.5533 0.00176791 34.503 0.00176791C15.4527 0.00176791 0.00942767 15.4462 0.00942767 34.498C0.00942767 53.5497 15.4527 68.9942 34.503 68.9942Z" fill="#FA6163"/>
<path d="M53.9016 6.01189C45.5871 0.805595 35.127 -0.852611 25.0555 2.3793C6.9157 8.19625 -3.0737 27.6215 2.74522 45.7627C5.18767 53.3826 10.0485 59.5375 16.1884 63.7132C9.52956 59.5424 4.24403 53.1002 1.65677 45.0337C-4.15974 26.8926 5.82725 7.46973 23.967 1.65036C34.4874 -1.72395 45.423 0.245623 53.9016 6.01189Z" fill="#F98288"/>
<path d="M42.8826 65.1301C61.0224 59.3131 71.0118 39.8879 65.1928 21.7467C63.6699 17.0014 61.2009 12.8305 58.0851 9.33796C62.2315 13.2191 65.4873 18.1696 67.3432 23.9625C73.1597 42.1036 63.1728 61.5265 45.033 67.3458C31.6381 71.6422 17.5626 67.3 8.76304 57.4425C17.6036 65.7142 30.5352 69.0909 42.8826 65.1301Z" fill="#F98288"/>
<path d="M34.5014 60.2761C48.7371 60.2761 60.2775 48.7349 60.2775 34.4981C60.2775 20.2613 48.7371 8.7201 34.5014 8.7201C20.2656 8.7201 8.72533 20.2613 8.72533 34.4981C8.72533 48.7349 20.2656 60.2761 34.5014 60.2761Z" fill="#DF473C"/>
<path d="M41.236 58.053C54.7926 53.706 62.2575 39.1901 57.9084 25.6325C56.5568 21.4159 54.2182 17.7881 51.2327 14.9231C54.754 17.9281 57.5271 21.8938 59.0427 26.6246C63.3894 40.1822 55.9245 54.698 42.368 59.0451C33.0278 62.0404 23.2363 59.4264 16.6257 53.0809C23.1977 58.6854 32.4099 60.8843 41.236 58.053Z" fill="#D13834"/>
<path d="M45.8208 11.3581C40.5135 9.30162 34.4966 8.97099 28.6536 10.844C15.097 15.191 7.63212 29.7068 11.9788 43.2644C14.2089 50.2206 19.1251 55.5549 25.2071 58.5309C18.1983 55.8155 12.4277 50.083 9.95384 42.3689C5.60715 28.8113 13.0721 14.298 26.6286 9.94852C33.2319 7.83414 40.0501 8.53407 45.8208 11.3581Z" fill="#D13834"/>
<path d="M34.5032 38.9174C36.9465 38.9174 38.9271 36.9366 38.9271 34.4931C38.9271 32.0497 36.9465 30.0689 34.5032 30.0689C32.0599 30.0689 30.0793 32.0497 30.0793 34.4931C30.0793 36.9366 32.0599 38.9174 34.5032 38.9174Z" fill="#FA6163"/>
<path d="M38.179 32.4826C38.7135 32.4826 39.1468 32.0492 39.1468 31.5147C39.1468 30.9801 38.7135 30.5468 38.179 30.5468C37.6445 30.5468 37.2112 30.9801 37.2112 31.5147C37.2112 32.0492 37.6445 32.4826 38.179 32.4826Z" fill="#FA6163"/>
<path d="M36.8371 31.3457C37.3716 31.3457 37.8049 30.9124 37.8049 30.3778C37.8049 29.8433 37.3716 29.4099 36.8371 29.4099C36.3026 29.4099 35.8693 29.8433 35.8693 30.3778C35.8693 30.9124 36.3026 31.3457 36.8371 31.3457Z" fill="#FA6163"/>
<path d="M35.1742 30.7761C35.7087 30.7761 36.142 30.3428 36.142 29.8082C36.142 29.2737 35.7087 28.8403 35.1742 28.8403C34.6397 28.8403 34.2064 29.2737 34.2064 29.8082C34.2064 30.3428 34.6397 30.7761 35.1742 30.7761Z" fill="#FA6163"/>
<path d="M33.4172 30.8557C33.9517 30.8557 34.385 30.4224 34.385 29.8879C34.385 29.3533 33.9517 28.92 33.4172 28.92C32.8827 28.92 32.4494 29.3533 32.4494 29.8879C32.4494 30.4224 32.8827 30.8557 33.4172 30.8557Z" fill="#FA6163"/>
<path d="M31.8098 31.5702C32.3443 31.5702 32.7776 31.1368 32.7776 30.6023C32.7776 30.0677 32.3443 29.6345 31.8098 29.6345C31.2753 29.6345 30.8419 30.0677 30.8419 30.6023C30.8419 31.1368 31.2753 31.5702 31.8098 31.5702Z" fill="#FA6163"/>
<path d="M30.5765 32.8229C31.111 32.8229 31.5443 32.3895 31.5443 31.855C31.5443 31.3205 31.111 30.8871 30.5765 30.8871C30.042 30.8871 29.6087 31.3205 29.6087 31.855C29.6087 32.3895 30.042 32.8229 30.5765 32.8229Z" fill="#FA6163"/>
<path d="M29.8838 34.4401C30.4183 34.4401 30.8516 34.0067 30.8516 33.4722C30.8516 32.9376 30.4183 32.5043 29.8838 32.5043C29.3493 32.5043 28.916 32.9376 28.916 33.4722C28.916 34.0067 29.3493 34.4401 29.8838 34.4401Z" fill="#FA6163"/>
<path d="M29.8307 36.1972C30.3652 36.1972 30.7985 35.7639 30.7985 35.2293C30.7985 34.6948 30.3652 34.2615 29.8307 34.2615C29.2962 34.2615 28.8629 34.6948 28.8629 35.2293C28.8629 35.7639 29.2962 36.1972 29.8307 36.1972Z" fill="#FA6163"/>
<path d="M30.422 37.853C30.9565 37.853 31.3898 37.4197 31.3898 36.8851C31.3898 36.3506 30.9565 35.9172 30.422 35.9172C29.8875 35.9172 29.4542 36.3506 29.4542 36.8851C29.4542 37.4197 29.8875 37.853 30.422 37.853Z" fill="#FA6163"/>
<path d="M31.578 39.1781C32.1126 39.1781 32.5459 38.7447 32.5459 38.2102C32.5459 37.6756 32.1126 37.2423 31.578 37.2423C31.0435 37.2423 30.6102 37.6756 30.6102 38.2102C30.6102 38.7447 31.0435 39.1781 31.578 39.1781Z" fill="#FA6163"/>
<path d="M33.1371 39.9891C33.6717 39.9891 34.105 39.5557 34.105 39.0212C34.105 38.4866 33.6717 38.0533 33.1371 38.0533C32.6026 38.0533 32.1694 38.4866 32.1694 39.0212C32.1694 39.5557 32.6026 39.9891 33.1371 39.9891Z" fill="#FA6163"/>
<path d="M34.8846 40.1773C35.4191 40.1773 35.8523 39.744 35.8523 39.2095C35.8523 38.6749 35.4191 38.2416 34.8846 38.2416C34.3501 38.2416 33.9168 38.6749 33.9168 39.2095C33.9168 39.744 34.3501 40.1773 34.8846 40.1773Z" fill="#FA6163"/>
<path d="M36.5812 39.7115C37.1157 39.7115 37.549 39.2782 37.549 38.7436C37.549 38.2091 37.1157 37.7757 36.5812 37.7757C36.0467 37.7757 35.6134 38.2091 35.6134 38.7436C35.6134 39.2782 36.0467 39.7115 36.5812 39.7115Z" fill="#FA6163"/>
<path d="M37.9907 38.6591C38.5252 38.6591 38.9585 38.2258 38.9585 37.6913C38.9585 37.1567 38.5252 36.7234 37.9907 36.7234C37.4562 36.7234 37.0229 37.1567 37.0229 37.6913C37.0229 38.2258 37.4562 38.6591 37.9907 38.6591Z" fill="#FA6163"/>
<path d="M38.9175 37.1651C39.452 37.1651 39.8853 36.7318 39.8853 36.1972C39.8853 35.6627 39.452 35.2293 38.9175 35.2293C38.383 35.2293 37.9497 35.6627 37.9497 36.1972C37.9497 36.7318 38.383 37.1651 38.9175 37.1651Z" fill="#FA6163"/>
<path d="M39.2336 35.4345C39.7681 35.4345 40.2014 35.0011 40.2014 34.4666C40.2014 33.932 39.7681 33.4987 39.2336 33.4987C38.6991 33.4987 38.2658 33.932 38.2658 34.4666C38.2658 35.0011 38.6991 35.4345 39.2336 35.4345Z" fill="#FA6163"/>
<path d="M38.8982 33.7087C39.4327 33.7087 39.866 33.2754 39.866 32.7408C39.866 32.2063 39.4327 31.7729 38.8982 31.7729C38.3637 31.7729 37.9304 32.2063 37.9304 32.7408C37.9304 33.2754 38.3637 33.7087 38.8982 33.7087Z" fill="#FA6163"/>
<path d="M40.9683 29.4052C41.1469 29.4487 41.492 29.3038 41.6175 29.2676C42.0205 29.1542 42.4188 29.0262 42.817 28.8983C43.43 28.6811 44.1758 28.6594 44.533 28.0318C44.7647 27.6215 45.1339 26.8105 44.6368 26.4485C44.4919 26.3423 44.311 26.2988 44.1324 26.2723C43.5676 26.1902 43.0463 26.2022 42.6432 26.6439C42.2498 27.076 41.9071 27.5515 41.5861 28.0391C41.4196 28.2901 41.2603 28.546 41.101 28.8018C41.0358 28.9056 40.8911 29.06 40.8645 29.1783C40.8331 29.3207 40.8814 29.3835 40.9683 29.4052Z" fill="#F98288"/>
<path d="M38.8503 27.508C39.0337 27.4887 39.3064 27.2328 39.4126 27.158C39.7529 26.9142 40.0835 26.6583 40.4166 26.4025C40.9186 25.9897 41.6136 25.7146 41.7343 25.0026C41.814 24.5367 41.884 23.6509 41.2927 23.4795C41.1189 23.4288 40.9355 23.4482 40.7593 23.4844C40.2018 23.6002 39.7143 23.7885 39.485 24.3412C39.2606 24.8819 39.1036 25.4467 38.966 26.0139C38.8961 26.306 38.8309 26.6004 38.7681 26.8949C38.7416 27.0156 38.6596 27.2087 38.6741 27.3293C38.6958 27.4717 38.7634 27.5176 38.8503 27.508Z" fill="#F98288"/>
<path d="M36.2097 26.4436C36.3763 26.3615 36.5452 26.0308 36.6201 25.9222C36.8566 25.577 37.081 25.2246 37.3055 24.8698C37.6361 24.3098 38.1961 23.8151 38.0682 23.1055C37.9837 22.6396 37.7471 21.7827 37.1341 21.8238C36.9555 21.8358 36.7865 21.9179 36.6345 22.0121C36.1494 22.3113 35.756 22.6541 35.7294 23.2527C35.7029 23.8368 35.7463 24.4209 35.8115 25.0026C35.8453 25.3019 35.8863 25.6012 35.9273 25.8981C35.9442 26.0188 35.9322 26.2312 35.9877 26.3398C36.0529 26.4653 36.1301 26.4822 36.2097 26.4436Z" fill="#F98288"/>
<path d="M30.6624 27.2159C30.7372 27.0469 30.6551 26.6825 30.643 26.5522C30.6044 26.1346 30.5513 25.7194 30.4982 25.3043C30.3944 24.6623 30.5079 23.9236 29.9552 23.4602C29.5932 23.1561 28.8619 22.6492 28.4178 23.074C28.2875 23.1971 28.2103 23.3685 28.1548 23.5375C27.9738 24.0782 27.8916 24.5922 28.2512 25.0701C28.6036 25.536 29.0115 25.9584 29.4339 26.3614C29.6511 26.569 29.8731 26.7742 30.0952 26.9769C30.1869 27.059 30.3124 27.2304 30.4234 27.2762C30.5537 27.3317 30.6262 27.2955 30.6624 27.2159Z" fill="#F98288"/>
<path d="M28.4105 28.9564C28.425 28.773 28.2222 28.4568 28.1667 28.3385C27.9881 27.9596 27.7974 27.5878 27.6044 27.2137C27.2882 26.6465 27.1434 25.9128 26.4652 25.6641C26.0212 25.5024 25.1619 25.2732 24.8868 25.8235C24.8071 25.9852 24.7927 26.171 24.7951 26.3496C24.8071 26.9192 24.9061 27.4334 25.4081 27.7568C25.898 28.0754 26.4242 28.3313 26.96 28.5678C27.2351 28.6909 27.5127 28.8067 27.7926 28.9202C27.9061 28.966 28.0823 29.0844 28.203 29.0916C28.3478 29.1037 28.4033 29.0433 28.4105 28.9564Z" fill="#F98288"/>
<path d="M26.8893 31.3603C26.8387 31.1817 26.5442 30.9547 26.4501 30.863C26.1532 30.5685 25.8467 30.2813 25.5402 29.9989C25.0503 29.5717 24.6641 28.9321 23.9424 28.9297C23.4694 28.9273 22.5837 29.0069 22.5137 29.6176C22.492 29.7962 22.5427 29.9748 22.6078 30.1438C22.813 30.6748 23.0808 31.1237 23.6625 31.2589C24.2321 31.3916 24.8138 31.4544 25.3978 31.4954C25.6971 31.5172 25.9988 31.5316 26.3005 31.5437C26.4236 31.5485 26.6287 31.5992 26.7445 31.563C26.8821 31.5171 26.9135 31.4448 26.8893 31.3603Z" fill="#F98288"/>
<path d="M26.2765 34.136C26.1679 33.9864 25.8131 33.8729 25.6949 33.8174C25.3159 33.6412 24.9298 33.4771 24.5436 33.313C23.9379 33.0788 23.3562 32.6082 22.678 32.8519C22.2339 33.0112 21.4278 33.3853 21.5678 33.9839C21.6088 34.1577 21.7174 34.3098 21.8357 34.445C22.2098 34.8746 22.6152 35.2053 23.2065 35.1329C23.7858 35.0629 24.3554 34.9229 24.9177 34.7636C25.2073 34.6816 25.4946 34.5922 25.7818 34.5029C25.9 34.4667 26.11 34.4425 26.2065 34.3701C26.3248 34.2881 26.3296 34.2085 26.2765 34.136Z" fill="#F98288"/>
<path d="M26.645 36.9576C26.4929 36.8539 26.1188 36.8683 25.9885 36.8562C25.571 36.82 25.1534 36.7959 24.7359 36.7742C24.0866 36.7597 23.3795 36.5159 22.8244 36.9745C22.46 37.2762 21.83 37.9038 22.1655 38.4179C22.2645 38.5675 22.4165 38.6737 22.5734 38.7606C23.073 39.0382 23.5629 39.212 24.0987 38.9417C24.62 38.6786 25.1076 38.3527 25.583 38.0124C25.8268 37.8362 26.0681 37.6551 26.3071 37.4717C26.406 37.3969 26.5943 37.3052 26.6618 37.2038C26.7415 37.0831 26.7174 37.0059 26.645 36.9576Z" fill="#F98288"/>
<path d="M42.0582 37.7541C42.1065 37.9327 42.3985 38.1645 42.4902 38.2586C42.7822 38.5579 43.084 38.8475 43.3881 39.1372C43.8708 39.5716 44.2473 40.2185 44.9689 40.233C45.4419 40.2426 46.3277 40.1775 46.4098 39.5692C46.4339 39.3906 46.3856 39.212 46.3253 39.043C46.1274 38.5072 45.8692 38.0558 45.2875 37.911C44.7203 37.771 44.1387 37.6986 43.557 37.6479C43.2577 37.6214 42.956 37.602 42.6567 37.5852C42.5337 37.5779 42.3285 37.5248 42.2127 37.5586C42.0703 37.5948 42.0365 37.6672 42.0582 37.7541Z" fill="#F98288"/>
<path d="M42.7193 34.9856C42.8255 35.1377 43.1778 35.256 43.2961 35.3139C43.6726 35.4974 44.0564 35.6662 44.4377 35.8352C45.0386 36.079 45.613 36.5593 46.296 36.3276C46.7425 36.1756 47.5559 35.8135 47.4232 35.2125C47.3846 35.0363 47.2784 34.8842 47.1625 34.7467C46.7957 34.3122 46.3974 33.9743 45.8012 34.037C45.2196 34.0974 44.6476 34.2278 44.0853 34.3774C43.7932 34.4546 43.5061 34.5391 43.2164 34.6236C43.0982 34.6574 42.8882 34.6767 42.7892 34.7491C42.6734 34.8336 42.6686 34.9132 42.7193 34.9856Z" fill="#F98288"/>
<path d="M34.5123 36.6099C35.688 36.6099 36.6411 35.6568 36.6411 34.481C36.6411 33.3053 35.688 32.3521 34.5123 32.3521C33.3367 32.3521 32.3837 33.3053 32.3837 34.481C32.3837 35.6568 33.3367 36.6099 34.5123 36.6099Z" fill="#F98288"/>
<path d="M36.2814 33.5131C36.5387 33.5131 36.7473 33.3045 36.7473 33.0473C36.7473 32.79 36.5387 32.5814 36.2814 32.5814C36.0242 32.5814 35.8156 32.79 35.8156 33.0473C35.8156 33.3045 36.0242 33.5131 36.2814 33.5131Z" fill="#F98288"/>
<path d="M35.637 32.9676C35.8943 32.9676 36.1029 32.7591 36.1029 32.5018C36.1029 32.2445 35.8943 32.036 35.637 32.036C35.3798 32.036 35.1712 32.2445 35.1712 32.5018C35.1712 32.7591 35.3798 32.9676 35.637 32.9676Z" fill="#F98288"/>
<path d="M34.8358 32.6925C35.093 32.6925 35.3016 32.4839 35.3016 32.2266C35.3016 31.9693 35.093 31.7608 34.8358 31.7608C34.5785 31.7608 34.37 31.9693 34.37 32.2266C34.37 32.4839 34.5785 32.6925 34.8358 32.6925Z" fill="#F98288"/>
<path d="M33.9911 32.7311C34.2483 32.7311 34.4569 32.5226 34.4569 32.2653C34.4569 32.008 34.2483 31.7994 33.9911 31.7994C33.7338 31.7994 33.5252 32.008 33.5252 32.2653C33.5252 32.5226 33.7338 32.7311 33.9911 32.7311Z" fill="#F98288"/>
<path d="M33.2188 33.0738C33.476 33.0738 33.6845 32.8653 33.6845 32.608C33.6845 32.3507 33.476 32.1421 33.2188 32.1421C32.9615 32.1421 32.753 32.3507 32.753 32.608C32.753 32.8653 32.9615 33.0738 33.2188 33.0738Z" fill="#F98288"/>
<path d="M32.625 33.6773C32.8823 33.6773 33.0908 33.4687 33.0908 33.2114C33.0908 32.9542 32.8823 32.7455 32.625 32.7455C32.3678 32.7455 32.1592 32.9542 32.1592 33.2114C32.1592 33.4687 32.3678 33.6773 32.625 33.6773Z" fill="#F98288"/>
<path d="M32.292 34.4544C32.5492 34.4544 32.7578 34.2459 32.7578 33.9886C32.7578 33.7313 32.5492 33.5228 32.292 33.5228C32.0347 33.5228 31.8262 33.7313 31.8262 33.9886C31.8262 34.2459 32.0347 34.4544 32.292 34.4544Z" fill="#F98288"/>
<path d="M32.2654 35.3017C32.5226 35.3017 32.7312 35.0931 32.7312 34.8359C32.7312 34.5786 32.5226 34.37 32.2654 34.37C32.0081 34.37 31.7996 34.5786 31.7996 34.8359C31.7996 35.0931 32.0081 35.3017 32.2654 35.3017Z" fill="#F98288"/>
<path d="M32.5502 36.0982C32.8075 36.0982 33.016 35.8896 33.016 35.6323C33.016 35.3751 32.8075 35.1665 32.5502 35.1665C32.2929 35.1665 32.0844 35.3751 32.0844 35.6323C32.0844 35.8896 32.2929 36.0982 32.5502 36.0982Z" fill="#F98288"/>
<path d="M33.1053 36.7354C33.3626 36.7354 33.5711 36.5268 33.5711 36.2696C33.5711 36.0123 33.3626 35.8037 33.1053 35.8037C32.8481 35.8037 32.6395 36.0123 32.6395 36.2696C32.6395 36.5268 32.8481 36.7354 33.1053 36.7354Z" fill="#F98288"/>
<path d="M33.8559 37.1264C34.1132 37.1264 34.3217 36.9178 34.3217 36.6605C34.3217 36.4033 34.1132 36.1947 33.8559 36.1947C33.5987 36.1947 33.3901 36.4033 33.3901 36.6605C33.3901 36.9178 33.5987 37.1264 33.8559 37.1264Z" fill="#F98288"/>
<path d="M34.6982 37.2157C34.9555 37.2157 35.164 37.0072 35.164 36.7499C35.164 36.4926 34.9555 36.284 34.6982 36.284C34.441 36.284 34.2324 36.4926 34.2324 36.7499C34.2324 37.0072 34.441 37.2157 34.6982 37.2157Z" fill="#F98288"/>
<path d="M35.514 36.9912C35.7712 36.9912 35.9797 36.7827 35.9797 36.5254C35.9797 36.2681 35.7712 36.0596 35.514 36.0596C35.2567 36.0596 35.0482 36.2681 35.0482 36.5254C35.0482 36.7827 35.2567 36.9912 35.514 36.9912Z" fill="#F98288"/>
<path d="M36.1897 36.4844C36.447 36.4844 36.6555 36.2758 36.6555 36.0185C36.6555 35.7613 36.447 35.5527 36.1897 35.5527C35.9325 35.5527 35.7239 35.7613 35.7239 36.0185C35.7239 36.2758 35.9325 36.4844 36.1897 36.4844Z" fill="#F98288"/>
<path d="M36.6362 35.7651C36.8935 35.7651 37.1021 35.5565 37.1021 35.2992C37.1021 35.042 36.8935 34.8334 36.6362 34.8334C36.379 34.8334 36.1704 35.042 36.1704 35.2992C36.1704 35.5565 36.379 35.7651 36.6362 35.7651Z" fill="#F98288"/>
<path d="M36.7883 34.9348C37.0456 34.9348 37.2541 34.7262 37.2541 34.469C37.2541 34.2117 37.0456 34.0031 36.7883 34.0031C36.5311 34.0031 36.3225 34.2117 36.3225 34.469C36.3225 34.7262 36.5311 34.9348 36.7883 34.9348Z" fill="#F98288"/>
<path d="M36.6266 34.1045C36.8838 34.1045 37.0924 33.8959 37.0924 33.6387C37.0924 33.3814 36.8838 33.1728 36.6266 33.1728C36.3693 33.1728 36.1608 33.3814 36.1608 33.6387C36.1608 33.8959 36.3693 34.1045 36.6266 34.1045Z" fill="#F98288"/>
</svg>
