<svg width="62" height="62" viewBox="0 0 62 62" fill="none" xmlns="http://www.w3.org/2000/svg">
<path d="M28.5999 0.142334C11.6064 1.76179 -1.16074 13.6633 0.083782 26.7249C1.04564 36.8224 10.1126 44.6311 22.0239 46.918L22.9583 56.7132C23.1056 58.2522 24.1695 59.5654 25.6535 60.0052C28.6215 60.8865 31.5404 61.234 34.4123 61.1103L28.5999 0.142334Z" fill="#E2CDBA"/>
<path d="M2.61523 34.4395C6.03277 40.3029 12.5381 44.6881 20.4823 46.5745C21.1104 40.4658 10.8852 37.0895 2.61523 34.4395Z" fill="#D6BBA5"/>
<path d="M28.5999 0.142334C11.6064 1.76179 -1.16074 13.6633 0.083782 26.7249C0.382154 29.8657 1.46772 32.7826 3.17747 35.3816C6.91104 26.2715 17.3678 19.0909 30.29 17.8601L28.5999 0.142334Z" fill="#EFDAC5"/>
<path d="M28.5999 0.142334C11.6064 1.76179 -1.16074 13.6633 0.083782 26.7249C0.154449 27.4689 0.284019 28.1971 0.441056 28.9156C0.755132 16.7589 13.006 6.09799 29.0219 4.5708L28.5999 0.142334Z" fill="#AE8265"/>
<path d="M2.43722 15.6733C0.603805 19.1007 -0.281492 22.8578 0.0855841 26.7249C0.156251 27.4688 0.285821 28.1971 0.442859 28.9156C0.550822 24.7737 2.06821 20.8183 4.624 17.3262C4.36685 17.3497 4.12736 17.3733 3.92125 17.3929C2.92014 17.0082 2.52752 16.4075 2.43722 15.6733Z" fill="#845B44"/>
<path d="M28.5981 0.142334C16.6357 1.28282 6.79336 7.52508 2.43359 15.6734C2.52389 16.4075 2.91649 17.0082 3.91565 17.3949C4.12176 17.3753 4.36321 17.3517 4.6184 17.3282C9.56312 10.5696 18.4593 5.57977 29.0201 4.57276L28.5981 0.142334Z" fill="#AE8265"/>
<path d="M19.8501 29.5339C16.6858 27.6004 10.471 34.4198 19.5026 46.3331C20.2152 46.5235 20.9396 46.6923 21.6737 46.8415C21.923 43.2257 22.5354 31.175 19.8501 29.5339Z" fill="#936649"/>
<path d="M15.2773 38.3142C15.9055 40.6207 17.2128 43.3119 19.5016 46.3329C20.2142 46.5233 20.9385 46.6922 21.6727 46.8414C21.8454 44.3287 22.1909 37.7449 21.4842 33.4107C18.1668 31.9345 16.887 35.6622 15.2773 38.3142Z" fill="#936649"/>
<path d="M15.2786 38.3143C16.8882 35.6623 18.1681 31.9347 21.4875 33.4108C21.1773 31.5087 20.6689 30.0345 19.8503 29.5359C17.4889 28.0911 13.4314 31.5263 15.2786 38.3143Z" fill="#845B44"/>
<path d="M28.1719 0.183577C45.1653 -1.43588 59.9505 7.83917 61.1969 20.9008C62.1588 30.9983 54.7309 40.3794 43.4673 44.8765L44.4017 54.6718C44.549 56.2107 43.75 57.7006 42.3779 58.4132C39.6297 59.8383 36.8306 60.7315 33.9862 61.1516L28.1719 0.183577Z" fill="#E2CDBA"/>
<path d="M60.1669 28.9529C57.9193 35.3581 52.3602 40.8917 44.9126 44.2444C43.142 38.3653 52.5466 33.1183 60.1669 28.9529Z" fill="#D6BBA5"/>
<path d="M36.6288 53.2014C33.274 54.1083 29.4011 54.0671 26.4154 53.1877C25.4477 52.903 24.6566 52.218 23.8989 51.5525C23.1805 50.9224 22.4208 50.2177 22.248 49.2794C22.7466 51.6683 22.727 54.2811 22.9586 56.7132C23.1059 58.2521 24.1698 59.5654 25.6538 60.0051C28.4726 60.8413 31.2463 61.1829 33.9827 61.1515C34.0534 61.1416 34.124 61.122 34.1967 61.1102C34.2693 61.1083 34.3419 61.1122 34.4106 61.069C37.1077 60.6234 39.7656 59.7656 42.3764 58.4111C46.0295 56.5169 44.1607 50.4199 43.6405 47.3616C43.293 49.036 42.1035 50.4415 40.6902 51.4053C39.5222 52.2003 38.1285 52.797 36.6288 53.2014Z" fill="#D6BBA5"/>
<path d="M28.1719 0.183577C45.1653 -1.43588 59.9505 7.83917 61.1969 20.9008C61.4953 24.0416 60.9829 27.1116 59.7953 29.9874C54.4089 21.7468 42.7823 16.6706 29.862 17.9033L28.1719 0.183577Z" fill="#EFDAC5"/>
<path d="M28.1719 0.183577C45.1653 -1.43588 59.9505 7.83917 61.1969 20.9008C61.2676 21.6448 61.2794 22.3848 61.2617 23.119C58.6568 11.241 44.6118 3.08681 28.5959 4.61204L28.1719 0.183577Z" fill="#AE8265"/>
<path d="M56.7963 10.4912C59.2441 13.5103 60.8243 17.0318 61.1934 20.8989C61.2641 21.6429 61.2758 22.3829 61.2581 23.1171C60.3709 19.0714 58.1311 15.4732 54.9629 12.5268C55.22 12.5033 55.4595 12.4797 55.6656 12.4601C56.5745 11.8947 56.8473 11.2293 56.7963 10.4912Z" fill="#845B44"/>
<path d="M28.1719 0.183546C40.1342 -0.956941 50.9777 3.31449 56.7998 10.4911C56.8509 11.2292 56.578 11.8927 55.6692 12.4619C55.4631 12.4816 55.2216 12.5051 54.9664 12.5287C48.8341 6.82625 39.1547 3.60697 28.5939 4.61201L28.1719 0.183546Z" fill="#AE8265"/>
<path d="M42.3169 27.3924C45.0592 24.8975 52.4498 30.4193 45.8307 43.8225C45.1672 44.1444 44.488 44.4467 43.795 44.7314C42.8685 41.2294 39.9908 29.5105 42.3169 27.3924Z" fill="#936649"/>
<path d="M48.4649 35.1499C48.2843 37.533 47.5089 40.4225 45.8306 43.8223C45.1671 44.1443 44.4879 44.4466 43.795 44.7312C43.1511 42.2951 41.569 35.8958 41.4414 31.5066C44.4232 29.4318 46.3841 32.8493 48.4649 35.1499Z" fill="#936649"/>
<path d="M48.465 35.1501C46.3843 32.8495 44.4233 29.43 41.4416 31.5068C41.3866 29.5812 41.6084 28.0383 42.317 27.3924C44.3625 25.5296 48.999 28.1364 48.465 35.1501Z" fill="#845B44"/>
</svg>
