<svg width="69" height="59" viewBox="0 0 69 59" fill="none" xmlns="http://www.w3.org/2000/svg">
<path d="M66.6471 46.4756C64.8199 50.0104 61.8721 52.9227 58.4128 54.9027C54.9653 56.9145 51.0686 58.1664 47.0759 58.6535C39.0771 59.7397 30.7722 58.2183 23.2967 54.8458C15.8969 51.3678 9.02878 46.0822 4.47752 38.7581C2.28181 35.086 0.600933 30.9318 0.136554 26.4429C-0.33119 21.9842 0.394013 17.2158 2.5342 13.07C4.75346 8.96607 8.26991 5.65379 12.2239 3.49973C16.2047 1.34399 20.5861 0.338094 24.8715 0.0468691C33.5113 -0.384948 41.786 2.20428 48.8728 6.27641C55.9176 10.464 61.899 16.389 65.5619 23.5424C67.4346 27.084 68.6174 30.982 68.9202 34.9471C69.2551 38.9004 68.5265 42.9691 66.6471 46.4756ZM66.2938 46.2915C68.0908 42.8319 68.7469 38.8535 68.3734 34.9939C68.01 31.1226 66.6825 27.3718 64.7627 23.9876C60.8895 17.189 54.7651 11.8432 47.8617 8.19783C40.9044 4.65626 32.9964 2.7315 25.1996 3.46458C21.3213 3.83615 17.4885 4.89895 14.1117 6.80866C10.7382 8.70329 7.86443 11.4934 6.06075 14.9044C4.27053 18.3221 3.59924 22.2603 3.95594 26.0965C4.29918 29.9443 5.60479 33.6851 7.50437 37.0676C11.3372 43.8612 17.4313 49.2322 24.3179 52.9059C31.2601 56.476 39.1663 58.4409 46.9901 57.7379C50.8801 57.3814 54.7348 56.332 58.1419 54.424C61.544 52.5327 64.4565 49.7309 66.2938 46.2915Z" fill="#F2E4D9"/>
<path d="M5.65359 39.369C3.45788 35.6969 1.77705 31.5427 1.31267 27.0538C0.844927 22.5951 1.57008 17.8267 3.71026 13.6809C5.92952 9.57697 9.44602 6.2647 13.4 4.11064C17.3809 1.9549 21.7622 0.948994 26.0476 0.657769C33.5164 0.284532 40.7075 2.17415 47.0978 5.3224C40.4181 1.81598 32.8047 -0.3498 24.8715 0.0468691C20.5861 0.338094 16.2064 1.34399 12.2239 3.49973C8.26991 5.65379 4.75346 8.96607 2.5342 13.07C0.394013 17.2175 -0.332873 21.9842 0.136554 26.4429C0.600933 30.9318 2.28181 35.086 4.47752 38.7581C8.65525 45.4831 14.7931 50.4674 21.4964 53.9336C15.2542 50.4992 9.58567 45.699 5.65359 39.369Z" fill="#CC6077"/>
<path d="M58.4128 54.9027C61.8721 52.9227 64.8182 50.0104 66.6471 46.4756C68.5265 42.9691 69.2551 38.9004 68.9219 34.9437C68.7032 32.09 68.0134 29.2765 66.955 26.6003C66.632 25.9241 66.3073 25.2496 65.9371 24.5985C62.0639 17.7999 55.9395 12.4541 49.0361 8.80874C48.8493 8.71334 48.6558 8.633 48.469 8.54095C55.1201 12.1746 61.0039 17.3898 64.761 23.9859C66.6808 27.3702 68.0083 31.121 68.3717 34.9922C68.7452 38.8518 68.0891 42.8302 66.2921 46.2898C64.4548 49.7293 61.5423 52.531 58.1385 54.4223C54.7314 56.3304 50.8767 57.3798 46.9867 57.7363C39.3968 58.4175 31.7379 56.5764 24.9472 53.2055C25.1306 53.306 25.3073 53.4181 25.4907 53.5169C32.4328 57.0869 40.339 59.0518 48.1628 58.3488C48.9216 58.2785 49.6754 58.1597 50.4292 58.0375C53.2339 57.3798 55.9412 56.3454 58.4128 54.9027Z" fill="#CC6077"/>
</svg>
