<svg width="121" height="175" viewBox="0 0 121 175" fill="none" xmlns="http://www.w3.org/2000/svg">
<path d="M34.8701 96.3876L26.0762 88.4219L-11.9283 148.052L43.6647 104.354L34.8701 96.3876Z" fill="#C9C8C3"/>
<mask id="mask0_2006_9205" style="mask-type:luminance" maskUnits="userSpaceOnUse" x="-12" y="88" width="56" height="61">
<path d="M34.8701 96.3866L26.0762 88.4209L-11.9283 148.051L43.6647 104.353L34.8701 96.3866Z" fill="white"/>
</mask>
<g mask="url(#mask0_2006_9205)">
<path d="M74.7461 88.5568L4.10742 92.0479L4.20585 94.0394L74.8445 90.5484L74.7461 88.5568Z" fill="#DDDDDB"/>
<path d="M69.2148 94.6642L-1.42383 98.1553L-1.3254 100.147L69.3132 96.6558L69.2148 94.6642Z" fill="#DDDDDB"/>
<path d="M63.6836 100.771L-6.95508 104.262L-6.85665 106.253L63.782 102.762L63.6836 100.771Z" fill="#DDDDDB"/>
<path d="M58.1523 106.878L-12.4863 110.369L-12.3879 112.361L58.2507 108.87L58.1523 106.878Z" fill="#DDDDDB"/>
<path d="M64.2578 112.409L-6.38086 115.9L-6.28243 117.892L64.3562 114.401L64.2578 112.409Z" fill="#DDDDDB"/>
<path d="M58.7265 118.517L-11.9121 122.008L-11.8137 123.999L58.825 120.508L58.7265 118.517Z" fill="#DDDDDB"/>
<path d="M53.1953 124.623L-17.4434 128.114L-17.3449 130.106L53.2937 126.615L53.1953 124.623Z" fill="#DDDDDB"/>
<path d="M47.664 130.73L-22.9746 134.221L-22.8762 136.212L47.7625 132.721L47.664 130.73Z" fill="#DDDDDB"/>
<path d="M42.1308 136.837L-28.5078 140.328L-28.4094 142.32L42.2293 138.829L42.1308 136.837Z" fill="#DDDDDB"/>
</g>
<path d="M12.0544 110.425C12.0544 110.425 -12.9815 78.2555 20.1745 71.4204C20.1745 71.4204 2.63864 35.5201 30.6272 36.437C30.6272 36.437 40.5104 37.8071 43.4885 35.4484C46.4672 33.0903 68.3819 2.38458 104.632 47.0169C104.632 47.0169 94.5754 44.1661 92.4762 53.46C92.4762 53.46 114.781 97.2088 72.6131 95.3895C72.6131 95.3895 71.1892 137.342 22.1164 122.328L12.0544 110.425Z" fill="#FCB9D0"/>
<path d="M24.4069 71.4725C24.4069 71.4725 9.38722 40.7231 33.3593 41.5095C33.3593 41.5095 41.8251 42.6819 44.3767 40.6628C46.927 38.6426 63.4022 12.5342 91.192 45.539C91.192 45.539 84.9497 45.956 86.3343 56.0898C86.3343 56.0898 105.439 93.5612 69.3223 92.0024C69.3223 92.0024 68.8679 131.947 26.8359 119.088C26.8347 119.087 -11.7433 82.8453 24.4069 71.4725Z" fill="#FCC3D8"/>
<path d="M27.8006 71.9874C27.8006 71.9874 15.9618 46.087 36.3439 46.0218C36.3439 46.0218 43.5146 46.7671 45.748 44.9568C47.9809 43.1472 62.8101 20.255 85.4493 47.696C85.4493 47.696 80.1224 48.2451 80.9901 56.8901C80.9901 56.8901 96.0989 88.4285 65.4017 88.2043C65.4017 88.2043 65.3436 121.567 29.9601 111.836C29.9601 111.836 -1.83384 85.8914 27.8006 71.9874Z" fill="#FCCDE0"/>
<path d="M74.5765 58.165C79.1741 67.198 74.5864 76.5081 66.3858 81.3381C65.0815 82.1078 66.3452 84.0807 67.6416 83.3172C77.0398 77.7787 81.7421 67.1049 76.5545 56.9105C75.8672 55.5619 73.8981 56.8323 74.5765 58.165Z" fill="white"/>
</svg>
