<svg width="52" height="45" viewBox="0 0 52 45" fill="none" xmlns="http://www.w3.org/2000/svg">
<path d="M2.14894 33.7667L0.0452511 14.671C-0.339773 11.1748 1.76523 7.88342 5.10065 6.76711L24.1645 0.385466C25.8954 -0.193812 27.7783 -0.119767 29.4582 0.593659L46.8087 7.96399C49.6733 9.18091 51.4834 12.0459 51.3527 15.1553L50.5731 33.6865C50.4311 37.0642 48.0386 39.9262 44.7394 40.6644L27.2761 44.5731C26.0949 44.8374 24.8671 44.8109 23.6985 44.4955L7.63074 40.1623C4.66161 39.3622 2.48605 36.8238 2.14894 33.7667Z" fill="#B8DDF7"/>
<path d="M5.06224 37.2682C4.85754 35.5596 23.2272 31.7137 25.6802 31.3465C28.1332 30.9798 28.8658 27.5006 30.1476 28.0499C31.4294 28.5991 29.7813 30.0651 32.8942 31.3465C36.007 32.6279 42.8042 36.5574 45.8948 37.2682C48.9855 37.979 36.3733 41.9068 33.0775 42.0279C29.7817 42.149 28.317 43.4552 25.0208 42.9852C21.725 42.5153 12.5698 40.3384 9.63984 39.4129C6.71035 38.4869 5.24561 38.7957 5.06224 37.2682Z" fill="url(#paint0_linear_2006_8025)"/>
<path d="M29.3228 25.1659C30.0092 22.8314 27.1254 7.86247 27.6747 6.35199C28.2239 4.84151 26.7831 1.54573 25.7182 1.54573C24.6533 1.54573 21.7695 2.30793 21.7695 2.30793C21.7695 2.30793 25.4773 0.0352474 26.9878 0.722106C28.4983 1.40896 31.6569 2.66595 31.6569 2.66595C31.6569 2.66595 28.6355 2.09539 29.0475 4.01789C29.4596 5.9404 28.4983 6.727 29.0475 9.08026C29.5967 11.4335 30.146 25.1663 29.4596 26.1276L29.3228 25.1659Z" fill="url(#paint1_linear_2006_8025)"/>
<path d="M19.5728 3.33105C19.5728 3.33105 2.8456 6.93347 1.44531 10.8024C1.44531 10.8024 4.29553 10.6069 5.05991 9.08028C5.8243 7.55368 8.44891 7.50665 10.5091 7.06674C12.5692 6.62684 19.5728 3.33105 19.5728 3.33105Z" fill="url(#paint2_linear_2006_8025)"/>
<path d="M25.7194 2.61444C25.5252 1.71112 28.5 5.584 26.7147 7.06704C24.9294 8.55008 20.2603 9.37326 19.5734 11.7766C18.887 14.18 19.1614 25.5782 16.4148 26.1279C13.6683 26.6771 5.5658 36.2997 4.33015 35.5396C3.09407 34.7796 3.50609 29.7185 2.95687 27.992C2.40764 26.2655 2.13281 20.8896 2.13281 20.8896C2.13281 20.8896 4.46735 22.7415 5.84063 21.4823C7.21391 20.2232 9.54844 14.7296 12.1578 11.7771C14.7667 8.82448 26.5095 6.2922 25.7194 2.61444Z" fill="url(#paint3_linear_2006_8025)"/>
<path d="M26.714 9.51344C27.1809 8.63189 27.8125 20.008 28.0873 22.2441C28.3621 24.4802 28.272 28.6 27.2872 29.1492C26.302 29.6984 24.7915 30.9345 23.281 30.6597C21.7705 30.3849 16.6895 32.7111 16.6895 32.7111C16.6895 32.7111 21.6334 29.7185 21.7706 27.992C21.9078 26.2655 24.7919 22.6469 23.4187 17.7509C22.7989 15.5419 25.2035 12.365 26.714 9.51344Z" fill="url(#paint4_linear_2006_8025)"/>
<path d="M26.7146 1.13372C26.7146 1.13372 27.6759 1.83321 27.8819 2.47913C28.0879 3.12505 28.2194 3.88029 28.2225 4.15512C28.2251 4.42995 28.486 2.29664 29.118 2.09541C29.7499 1.89419 31.1929 2.47957 31.1929 2.47957C31.1929 2.47957 29.1149 0.590598 27.6763 0.592775C26.2372 0.594953 26.7146 1.13372 26.7146 1.13372Z" fill="url(#paint5_linear_2006_8025)"/>
<path d="M6.93945 37.1832C6.93945 37.1832 15.9344 33.8185 17.8569 34.0934C19.7794 34.3682 25.6632 33.5272 27.2873 32.7114C28.9115 31.896 30.1476 31.278 30.7656 31.6212C31.3837 31.9644 33.8554 33.8869 34.8855 33.9557C35.9155 34.0246 42.1474 37.61 44.2236 37.5264C44.2236 37.5264 43.3312 38.0756 41.2022 37.1143C39.0737 36.1531 35.0222 35.123 34.4046 35.123C33.7866 35.123 31.6193 33.7497 31.1925 33.5437C30.7656 33.3377 27.8131 34.7702 26.371 34.6034C24.9289 34.4366 20.809 34.299 20.2598 34.917C19.7106 35.535 15.3399 35.0542 14.7101 35.2602C14.0807 35.4662 8.81623 37.0973 6.93945 37.1832Z" fill="url(#paint6_linear_2006_8025)"/>
<path d="M28.915 27.4325C29.5291 27.4325 30.216 27.5697 30.216 26.8832C30.216 26.2343 29.1319 21.8975 28.9394 19.8086C28.9281 19.6871 28.9198 19.573 28.915 19.4676C28.8283 17.5556 28.3693 23.6563 28.915 24.8919C29.4607 26.128 28.2556 27.1115 28.6519 27.4438" fill="url(#paint7_linear_2006_8025)"/>
<path d="M30.2162 3.33072C30.7724 3.22532 32.6195 2.85031 33.1688 3.33072C33.718 3.81156 40.31 6.35211 41.1336 6.42049C41.9577 6.48931 48 8.66008 49.0301 10.8017C49.0301 10.8017 46.49 8.82385 44.567 8.75503C43.2974 8.70973 43.4477 10.3718 43.1907 11.1701C42.7508 12.5373 41.3915 11.8418 40.3196 11.7538C38.4384 11.5987 36.5717 11.8195 34.7372 12.2368C34.4188 12.3091 34.0952 12.3936 33.8256 12.577C33.2837 12.9454 33.2702 13.6262 33.3025 14.2168C33.3865 15.7547 33.8212 17.6881 33.5673 19.2025C33.4479 19.9142 32.9553 20.7082 32.6439 21.3524C32.2985 22.0662 31.9553 22.9243 31.4357 23.5336C31.1949 23.8158 30.8342 24.2605 30.8342 23.5867C30.8386 23.2561 29.8042 21.6642 30.2162 19.8789C30.6282 18.0936 29.667 14.665 30.2162 13.5299C30.7654 12.3945 28.7767 9.44232 29.3934 8.34344C30.0102 7.24455 29.346 3.49579 30.2162 3.33072Z" fill="url(#paint8_linear_2006_8025)"/>
<path d="M9.27344 39.998C9.27344 39.998 23.1434 43.3627 24.3795 43.3627C25.6156 43.3627 27.5325 43.7747 28.2219 43.7059C28.9114 43.637 32.0012 41.9894 34.1985 42.4698C34.1985 42.4698 32.0155 42.5016 31.658 43.0874C31.2999 43.6732 27.1801 43.9807 26.6383 44.1863C26.0965 44.3923 24.9292 44.7355 24.1739 44.1863C23.4187 43.6371 18.9557 42.8818 18.6808 42.6758C18.406 42.4702 9.63668 40.7964 9.27344 39.998Z" fill="url(#paint9_linear_2006_8025)"/>
<path d="M40.3102 37.6826C40.3102 37.6826 42.9196 39.1056 44.2241 39.3116C45.5285 39.5176 35.9844 42.2406 35.9844 42.2406C35.9844 42.2406 45.1165 40.5472 46.6958 39.3116C48.2751 38.0755 46.4732 38.6029 45.5202 38.3738C44.5677 38.1443 40.7911 38.1134 40.3102 37.6826Z" fill="url(#paint10_linear_2006_8025)"/>
<path d="M4.74256 38.0755C4.58577 37.7415 6.29877 37.3887 6.29877 37.3887C6.29877 37.3887 5.70382 37.8464 6.02395 38.0755C6.34408 38.3046 8.44995 38.3961 9.27401 38.762C10.0981 39.1282 13.6116 40.4989 13.6116 40.4989C13.6116 40.4989 9.18254 39.2654 8.40422 39.174C7.62677 39.0825 5.42942 39.5403 4.74256 38.0755Z" fill="url(#paint11_linear_2006_8025)"/>
<path d="M31.1921 25.4865C31.1921 25.4865 31.7953 26.9255 31.6577 27.9913C31.5205 29.0571 31.429 30.3389 32.7104 30.5219C33.9922 30.7048 34.7706 32.2614 35.9836 32.2614C37.1966 32.2614 38.3869 29.0571 38.6613 26.8598C38.9361 24.6624 42.8726 22.0992 43.6967 21.4581C44.5207 20.8174 45.894 16.0565 44.887 15.6902C43.88 15.3239 38.9361 14.5917 38.6613 16.2394C38.3865 17.8875 37.3795 23.7221 35.2741 23.7343C33.1686 23.7473 30.8842 24.5422 31.1921 25.4865Z" fill="url(#paint12_linear_2006_8025)"/>
<path d="M38.2031 32.711C38.2031 32.711 41.3055 33.4323 41.6518 34.6031C41.998 35.7738 46.2734 36.8392 47.3196 36.8392C48.3658 36.8392 49.8309 35.3744 49.8309 34.1841C49.8309 32.9937 50.0992 21.6294 50.655 20.085C50.655 20.085 49.6023 21.0005 49.03 21.6412C48.4577 22.2819 48.9668 27.1086 46.3779 27.991C43.7886 28.8743 38.2937 30.9628 38.2031 32.711Z" fill="url(#paint13_linear_2006_8025)"/>
<defs>
<linearGradient id="paint0_linear_2006_8025" x1="27.9681" y1="8.06635" x2="24.4891" y2="53.4762" gradientUnits="userSpaceOnUse">
<stop stop-color="#447FBB"/>
<stop offset="1" stop-color="#447FBB" stop-opacity="0"/>
</linearGradient>
<linearGradient id="paint1_linear_2006_8025" x1="26.1273" y1="-12.1143" x2="27.5005" y2="22.0804" gradientUnits="userSpaceOnUse">
<stop stop-color="#447FBB"/>
<stop offset="1" stop-color="#447FBB" stop-opacity="0"/>
</linearGradient>
<linearGradient id="paint2_linear_2006_8025" x1="11.7136" y1="-8.6563" x2="9.71091" y2="17.4854" gradientUnits="userSpaceOnUse">
<stop stop-color="white"/>
<stop offset="1" stop-color="white" stop-opacity="0.1"/>
</linearGradient>
<linearGradient id="paint3_linear_2006_8025" x1="24.7799" y1="33.4573" x2="12.4204" y2="15.0553" gradientUnits="userSpaceOnUse">
<stop stop-color="white"/>
<stop offset="1" stop-color="white" stop-opacity="0.1"/>
</linearGradient>
<linearGradient id="paint4_linear_2006_8025" x1="26.9924" y1="30.6429" x2="20.1245" y2="18.1434" gradientUnits="userSpaceOnUse">
<stop stop-color="white"/>
<stop offset="1" stop-color="white" stop-opacity="0.1"/>
</linearGradient>
<linearGradient id="paint5_linear_2006_8025" x1="29.8357" y1="3.55968" x2="28.3849" y2="0.919304" gradientUnits="userSpaceOnUse">
<stop stop-color="white"/>
<stop offset="1" stop-color="white" stop-opacity="0.1"/>
</linearGradient>
<linearGradient id="paint6_linear_2006_8025" x1="25.5819" y1="22.0769" x2="25.5819" y2="38.9689" gradientUnits="userSpaceOnUse">
<stop stop-color="white"/>
<stop offset="1" stop-color="white" stop-opacity="0.1"/>
</linearGradient>
<linearGradient id="paint7_linear_2006_8025" x1="29.3931" y1="6.29857" x2="29.3931" y2="29.1867" gradientUnits="userSpaceOnUse">
<stop stop-color="white"/>
<stop offset="1" stop-color="white" stop-opacity="0.1"/>
</linearGradient>
<linearGradient id="paint8_linear_2006_8025" x1="39.3839" y1="16.3677" x2="34.0374" y2="7.31968" gradientUnits="userSpaceOnUse">
<stop stop-color="white"/>
<stop offset="1" stop-color="white" stop-opacity="0.1"/>
</linearGradient>
<linearGradient id="paint9_linear_2006_8025" x1="24.5656" y1="46.0235" x2="20.207" y2="38.6472" gradientUnits="userSpaceOnUse">
<stop stop-color="white"/>
<stop offset="1" stop-color="white" stop-opacity="0.1"/>
</linearGradient>
<linearGradient id="paint10_linear_2006_8025" x1="44.696" y1="42.5213" x2="41.5375" y2="40.324" gradientUnits="userSpaceOnUse">
<stop stop-color="white"/>
<stop offset="1" stop-color="white" stop-opacity="0.1"/>
</linearGradient>
<linearGradient id="paint11_linear_2006_8025" x1="3.84303" y1="37.7624" x2="8.46645" y2="38.6779" gradientUnits="userSpaceOnUse">
<stop stop-color="white"/>
<stop offset="1" stop-color="white" stop-opacity="0.1"/>
</linearGradient>
<linearGradient id="paint12_linear_2006_8025" x1="41.5033" y1="31.5603" x2="38.3905" y2="22.7713" gradientUnits="userSpaceOnUse">
<stop stop-color="white"/>
<stop offset="1" stop-color="white" stop-opacity="0.1"/>
</linearGradient>
<linearGradient id="paint13_linear_2006_8025" x1="48.444" y1="37.7347" x2="45.324" y2="28.9252" gradientUnits="userSpaceOnUse">
<stop stop-color="white"/>
<stop offset="1" stop-color="white" stop-opacity="0.1"/>
</linearGradient>
</defs>
</svg>
