<svg width="64" height="82" viewBox="0 0 64 82" fill="none" xmlns="http://www.w3.org/2000/svg">
<path d="M25.279 66.5081L23.5945 62.2094C21.9019 62.8448 18.0178 63.0849 14.2541 61.1419C10.7435 59.3301 8.42361 56.1948 7.35908 51.8232C5.32807 43.4831 9.63962 42.3757 13.8088 41.3041C14.5651 41.1098 15.28 40.9261 15.8975 40.6942L14.213 36.3955C13.8362 36.5369 13.2426 36.6893 12.6139 36.851C10.3523 37.432 7.2547 38.2284 4.95237 40.5652C2.20125 43.3582 1.47164 47.5052 2.78289 52.891C4.51763 60.0146 8.78489 63.5249 12.0593 65.2146C16.9072 67.7162 22.1915 67.6667 25.279 66.5081Z" fill="white"/>
<path d="M2.785 52.8903C1.4734 47.5046 2.20335 43.3576 4.95448 40.5646C5.93326 39.5711 7.05578 38.858 8.19657 38.3196C8.96062 37.9591 9.73204 37.6773 10.475 37.4444C10.4961 37.4379 10.5168 37.4314 10.5379 37.4248C10.6971 37.3753 10.8549 37.3278 11.0113 37.2824C11.0412 37.2738 11.0711 37.2652 11.1006 37.2566C11.2482 37.2143 11.394 37.1734 11.5378 37.1341C11.5701 37.1252 11.6024 37.1163 11.6344 37.1077C11.7789 37.0684 11.9205 37.0309 12.0604 36.9941C12.0878 36.9869 12.1156 36.9797 12.1426 36.9725C12.3036 36.9305 12.4621 36.8896 12.616 36.85C13.2444 36.6883 13.838 36.5359 14.2151 36.3945L14.3754 36.8039L15.8992 40.6936C15.2817 40.9254 14.5669 41.1091 13.8106 41.3035C12.6469 41.6024 11.4724 41.9045 10.4279 42.3658C10.0375 41.63 9.65156 40.9192 9.27095 40.2309C9.00982 39.763 8.49565 39.257 7.03082 40.9502C4.77735 43.7201 4.24421 47.6339 5.45494 52.6062C7.18968 59.7299 11.4569 63.2401 14.7314 64.9299C15.2589 65.2023 15.792 65.441 16.3269 65.6547C19.4225 66.7861 19.5957 65.8604 19.4611 65.3251C19.2186 64.4194 18.966 63.4912 18.6936 62.5366C20.4399 62.7764 21.9838 62.6512 23.0357 62.3811C23.0336 62.3811 23.0315 62.3811 23.0294 62.3811C23.2364 62.3278 23.43 62.2707 23.597 62.2081L23.6613 62.3725L25.2811 66.5068C24.7687 66.6991 24.1944 66.8601 23.5731 66.9843C23.5738 66.9843 23.5745 66.9843 23.5752 66.9843C23.5717 66.985 23.5681 66.9853 23.5646 66.986C23.468 67.0052 23.3671 67.0211 23.2684 67.0386C23.1562 67.0586 23.0452 67.0792 22.9303 67.0964C22.8382 67.1102 22.743 67.1215 22.6491 67.1336C22.5219 67.1504 22.3947 67.1673 22.2646 67.181C22.1747 67.1907 22.0826 67.1975 21.9912 67.2058C21.8524 67.2182 21.7132 67.2295 21.5712 67.2385C21.4823 67.244 21.3923 67.2478 21.3024 67.2516C21.1534 67.2584 21.0036 67.2636 20.8518 67.2667C20.764 67.2684 20.6754 67.2688 20.5868 67.2691C20.4297 67.2698 20.2712 67.2681 20.1113 67.2643C20.066 67.2633 20.022 67.2643 19.9764 67.2629C19.976 67.2619 19.976 67.2608 19.9757 67.2602C17.4937 67.1828 14.7138 66.5814 12.0621 65.213C8.787 63.5242 4.51974 60.014 2.785 52.8903Z" fill="#EFEFEF"/>
<path d="M5.19979 41.1903C2.44866 43.9833 1.71906 48.1303 3.03031 53.5161C3.25067 54.4212 3.51249 55.2674 3.80736 56.0597C3.41093 55.0916 3.06475 54.0383 2.785 52.89C1.4734 47.5042 2.20335 43.3572 4.95448 40.5642C7.25681 38.2274 10.3545 37.431 12.616 36.85C13.2444 36.6883 13.838 36.5359 14.2151 36.3945L14.4604 37.0206C14.0837 37.162 13.4901 37.3144 12.8613 37.4761C10.5998 38.0571 7.50211 38.8531 5.19979 41.1903Z" fill="#E0E0E0"/>
<path d="M3.56445 25.2313C6.14583 31.8197 12.3601 39.1478 18.1084 53.819C25.8792 73.652 21.0981 88.2241 48.0144 78.1199C74.9306 68.0154 61.421 60.3097 53.6502 40.4767C47.9019 25.8058 47.5164 16.2896 44.935 9.70117" fill="white"/>
<path d="M53.6502 40.4767C53.8881 41.0838 54.1313 41.6793 54.3787 42.2641C53.8624 42.9693 53.1286 43.5263 52.1263 43.9023C44.786 46.6578 46.4568 21.3 39.3305 22.4139C32.2042 23.5278 36.0434 33.7734 31.3319 35.5419C26.6204 37.3104 24.8358 29.0987 21.3129 30.2652C18.8004 31.0973 15.6054 34.6495 10.5238 34.1635L10.5533 34.182C9.76257 34.1504 8.96865 34.1026 8.18914 33.9932C6.2365 30.6646 4.60509 27.8878 3.56445 25.2317L44.935 9.70117C47.5164 16.2896 47.9019 25.8058 53.6502 40.4767Z" fill="#EFEFEF"/>
<path d="M43.4175 10.2715C45.6868 16.0632 45.8871 24.4803 50.9402 37.3771C57.7713 54.8114 66.9683 62.5911 45.1406 70.7853C23.313 78.9795 24.8368 67.1753 18.0058 49.7407C12.9527 36.8439 7.35132 30.4543 5.08203 24.6626" fill="#F4B506"/>
<path d="M53.4256 43.2132C53.0541 43.485 52.6233 43.7161 52.1263 43.9029C44.786 46.6584 46.4568 21.3007 39.3305 22.4146C32.2042 23.5285 36.0434 33.774 31.3319 35.5425C26.6204 37.3111 24.8358 29.0993 21.3129 30.2658C18.8004 31.098 15.6054 34.6502 10.5238 34.1641L10.5534 34.1827C10.463 34.1789 10.3731 34.1741 10.2827 34.1703C8.06195 30.4144 6.18065 27.4673 5.08203 24.6626L43.4175 10.2715C45.6868 16.0632 45.8871 24.4803 50.9398 37.3771C51.7538 39.4542 52.6011 41.3931 53.4256 43.2132Z" fill="#EAA907"/>
<path d="M5.08203 24.662L13.987 21.319C15.7702 24.8997 18.2546 29.1252 20.9896 35.0438C33.4627 60.2835 37.9518 67.1416 49.3643 62.1463C58.2531 56.7083 51.888 48.7456 46.0966 33.9639C42.1973 24.0115 40.822 17.044 39.2936 11.8185L43.4178 10.2705C45.6871 16.0622 45.8874 24.4793 50.9402 37.3761C57.7713 54.8104 66.9683 62.5901 45.1406 70.7843C23.313 78.9786 24.8368 67.1743 18.0058 49.7397C12.9527 36.8433 7.35132 30.4534 5.08203 24.662Z" fill="#EAA907"/>
<path d="M3.56445 25.2313L5.67067 24.4404C8.70155 30.3835 13.9676 37.5622 18.8935 50.1346C26.6643 69.9676 21.8833 84.5397 48.7995 74.4356C57.8559 71.0357 62.3355 67.9077 63.9971 64.4976C64.1131 69.4482 60.2208 73.537 48.0144 78.1195C21.0981 88.2237 25.8789 73.6516 18.1084 53.8186C12.3605 39.1477 6.14583 31.8194 3.56445 25.2313Z" fill="#EFEFEF"/>
<path d="M5.08203 24.6626L10.1843 22.7472C12.816 27.8351 16.9465 34.1256 21.0321 44.5531C27.8631 61.9873 27.2885 73.4352 45.2499 66.6927C63.2113 59.9501 54.9636 51.814 48.1325 34.3798C44.0469 23.9523 42.8211 16.5716 41.3018 11.0658L43.4171 10.2715C45.6864 16.0632 45.8867 24.4803 50.9395 37.3771C57.7706 54.8114 66.9676 62.5911 45.1399 70.7853C23.3123 78.9795 24.8361 67.1753 18.0051 49.7407C12.9527 36.8439 7.35132 30.454 5.08203 24.6626Z" fill="#DDA00A"/>
<path d="M5.08203 24.662L10.1843 22.7466C12.1131 26.4756 14.8473 30.8534 17.7787 37.0297C31.2571 63.3204 36.2462 70.399 50.3238 64.3693C61.3845 58.0155 54.2009 49.866 48.1328 34.3788C44.0473 23.9513 42.8214 16.5706 41.3021 11.0648L43.4175 10.2705C45.6868 16.0622 45.8871 24.4793 50.9398 37.3761C57.7709 54.8104 66.9679 62.5901 45.1403 70.7843C23.3126 78.9786 24.8365 67.1743 18.0054 49.7397C12.9527 36.8433 7.35132 30.4534 5.08203 24.662Z" fill="#E2A00C"/>
<path d="M46.28 21.8181C42.8973 23.7882 36.4771 26.6665 28.9604 29.4881C21.4436 32.31 14.7039 34.3719 10.8426 35.1212C8.3793 30.9026 6.27203 27.6989 5.08203 24.6617L43.4175 10.2705C44.6078 13.3081 45.2295 17.0695 46.28 21.8181Z" fill="#FFFADC"/>
<path d="M43.6965 11.0339C43.7412 11.1611 43.7854 11.2877 43.8287 11.4174C43.8557 11.4986 43.8814 11.5822 43.9077 11.6644C43.945 11.781 43.9826 11.897 44.0192 12.0153C44.0469 12.1061 44.0736 12.1987 44.101 12.2905C44.1344 12.4034 44.1682 12.5158 44.2009 12.6307C44.229 12.7288 44.256 12.8289 44.2834 12.9283C44.314 13.0394 44.3449 13.1502 44.3752 13.2627C44.4033 13.3686 44.431 13.476 44.4588 13.5833C44.4869 13.692 44.5154 13.8004 44.5432 13.9104C44.572 14.0247 44.6004 14.1406 44.6286 14.2565C44.6546 14.3625 44.6806 14.4681 44.7062 14.5754C44.7361 14.6999 44.7656 14.8262 44.7952 14.9528C44.8183 15.0522 44.8415 15.152 44.8647 15.2528C44.8964 15.3907 44.928 15.5304 44.9596 15.6707C44.98 15.7612 45 15.8513 45.0204 15.9428C45.0559 16.1028 45.0914 16.2641 45.1269 16.4268C45.1413 16.4929 45.1557 16.5589 45.1701 16.6257C45.2134 16.8252 45.2566 17.0265 45.3002 17.2304C45.3033 17.2456 45.3065 17.2607 45.3097 17.2759C45.6084 18.6797 45.9184 20.1906 46.2779 21.8157C46.2783 21.8167 46.2783 21.8174 46.2786 21.8185C45.2271 22.4311 43.8814 23.1312 42.3009 23.8904C41.5081 22.8071 40.5476 22.2237 39.3298 22.4139C36.3885 22.8735 35.3159 24.8894 34.7382 27.2221C32.9156 27.9693 30.9773 28.7309 28.9593 29.4884C27.3089 30.108 25.6961 30.6907 24.1431 31.2312C23.2719 30.4135 22.3704 29.9146 21.3122 30.2652C18.7997 31.0973 15.6047 34.6496 10.5231 34.1635L10.5526 34.182C10.4623 34.1783 10.3724 34.1734 10.282 34.1697C10.2114 34.0499 10.1418 33.9333 10.0715 33.815C10.0121 33.7149 9.95238 33.6141 9.89369 33.5154C9.81496 33.3829 9.73729 33.2532 9.65962 33.1225C9.31767 32.549 8.98414 31.9924 8.66327 31.4541C8.64394 31.4214 8.62496 31.3897 8.60564 31.3571C8.49563 31.1723 8.38668 30.9893 8.27949 30.8084C8.23732 30.7375 8.19655 30.6677 8.15508 30.5975C8.07038 30.4544 7.98639 30.3116 7.9038 30.1709C7.85565 30.0891 7.80891 30.0082 7.76146 29.9267C7.68731 29.7998 7.61385 29.6732 7.54146 29.5479C7.49085 29.4606 7.44129 29.3739 7.39174 29.2872C7.32391 29.1688 7.25678 29.0508 7.19036 28.9339C7.14045 28.8458 7.0916 28.7584 7.04275 28.6711C6.97914 28.5572 6.91623 28.444 6.85403 28.3315C6.80588 28.2442 6.75808 28.1568 6.71064 28.0701C6.64984 27.9586 6.59044 27.8479 6.5314 27.7378C6.48536 27.6518 6.43967 27.5658 6.39468 27.4805C6.33705 27.3711 6.28082 27.2624 6.22529 27.154C6.18171 27.0697 6.13813 26.9851 6.09596 26.9012C6.04078 26.7918 5.98736 26.6834 5.93394 26.5747C5.89387 26.4935 5.85346 26.412 5.8148 26.3311C5.76067 26.2186 5.70901 26.1072 5.657 25.9954C5.62185 25.92 5.58601 25.844 5.55156 25.7687C5.49568 25.6455 5.44262 25.5234 5.38955 25.4009C5.36249 25.3383 5.33367 25.275 5.30731 25.2128C5.22894 25.0284 5.15373 24.8447 5.08203 24.6617L43.4175 10.2705C43.4902 10.4563 43.5605 10.6448 43.6294 10.8357C43.6515 10.9011 43.6737 10.9682 43.6965 11.0339Z" fill="#F9F1CD"/>
<path d="M10.8426 35.1219C10.8422 35.1212 10.8415 35.1202 10.8412 35.1195C9.99842 33.676 9.19677 32.3499 8.45978 31.1101C8.4517 31.0967 8.44397 31.0833 8.43589 31.0699C8.32869 30.8896 8.22361 30.7121 8.11923 30.5353C8.08444 30.4764 8.05 30.4176 8.01556 30.3591C7.93051 30.2147 7.84651 30.0712 7.76357 29.9288C7.71683 29.8486 7.67044 29.7688 7.6244 29.689C7.55165 29.5634 7.4796 29.4386 7.40861 29.3147C7.35659 29.2243 7.30563 29.1345 7.25467 29.0447C7.19036 28.9319 7.12675 28.819 7.06384 28.7072C7.00972 28.6105 6.95665 28.5149 6.90358 28.4189C6.84559 28.3144 6.7876 28.2094 6.73067 28.1055C6.67619 28.0054 6.62313 27.9064 6.56971 27.8073C6.51699 27.7093 6.46427 27.6112 6.41296 27.5142C6.35849 27.4107 6.30577 27.3081 6.2527 27.2056C6.20526 27.1138 6.15711 27.0216 6.11107 26.9304C6.05694 26.8238 6.00528 26.7182 5.95291 26.6122C5.91039 26.5262 5.86716 26.4395 5.82569 26.3542C5.77157 26.2424 5.72061 26.1313 5.6686 26.0202C5.63204 25.9418 5.59409 25.863 5.55859 25.7849C5.50201 25.6604 5.44859 25.5369 5.39482 25.4134C5.36705 25.3494 5.33753 25.285 5.31047 25.2214C5.23105 25.0343 5.15478 24.8482 5.08203 24.6624L13.987 21.3193C15.5214 24.4003 17.5749 27.9611 19.8604 32.6636C16.1793 33.8412 13.043 34.695 10.8426 35.1219Z" fill="#F9F1CD"/>
<path d="M43.6969 11.0341C43.7416 11.1614 43.7859 11.288 43.8291 11.4177C43.8562 11.4989 43.8818 11.5825 43.9082 11.6647C43.9454 11.7813 43.983 11.8973 44.0196 12.0156C44.0473 12.1064 44.074 12.199 44.1015 12.2908C44.1348 12.4036 44.1686 12.5161 44.2013 12.631C44.2294 12.7291 44.2565 12.8292 44.2839 12.9286C44.3144 13.0397 44.3454 13.1505 44.3756 13.263C44.4037 13.3689 44.4315 13.4762 44.4592 13.5836C44.4873 13.6923 44.5158 13.8006 44.5436 13.9107C44.5724 14.0249 44.6009 14.1409 44.629 14.2568C44.655 14.3628 44.681 14.4684 44.7066 14.5757C44.7365 14.7002 44.766 14.8265 44.7956 14.9531C44.8188 15.0525 44.842 15.1522 44.8652 15.253C44.8968 15.391 44.9284 15.5307 44.96 15.671C44.9804 15.7615 45.0005 15.8516 45.0208 15.9431C45.0563 16.1031 45.0918 16.2644 45.1273 16.4271C45.1417 16.4932 45.1562 16.5592 45.1706 16.626C45.2138 16.8255 45.257 17.0267 45.3006 17.2307C45.3038 17.2459 45.3069 17.261 45.3101 17.2761C45.6088 18.68 45.9188 20.1909 46.2783 21.816C46.2787 21.817 46.2787 21.8177 46.279 21.8187C45.2883 22.3956 44.0354 23.051 42.5723 23.7596C41.1198 18.9243 40.2348 15.0401 39.293 11.8195L43.4172 10.2715C43.4899 10.4572 43.5602 10.6458 43.6291 10.8367C43.652 10.9014 43.6741 10.9684 43.6969 11.0341Z" fill="#F9F1CD"/>
<path d="M10.8426 35.121C10.8422 35.1203 10.8415 35.1193 10.8412 35.1186C9.99842 33.6752 9.19677 32.349 8.45978 31.1092C8.4517 31.0958 8.44397 31.0824 8.43589 31.069C8.32869 30.8887 8.22361 30.7112 8.11923 30.5344C8.08444 30.4756 8.05 30.4167 8.01556 30.3583C7.93051 30.2138 7.84651 30.0703 7.76357 29.9279C7.71683 29.8478 7.67044 29.7679 7.6244 29.6881C7.55165 29.5626 7.4796 29.4377 7.40861 29.3139C7.35659 29.2234 7.30563 29.1336 7.25467 29.0438C7.19036 28.931 7.12675 28.8181 7.06384 28.7063C7.00972 28.6097 6.95665 28.514 6.90358 28.4181C6.84559 28.3135 6.7876 28.2086 6.73067 28.1047C6.67619 28.0046 6.62313 27.9055 6.56971 27.8064C6.51699 27.7084 6.46427 27.6103 6.41296 27.5133C6.35849 27.4098 6.30577 27.3073 6.2527 27.2048C6.20526 27.1129 6.15711 27.0207 6.11107 26.9296C6.05694 26.8229 6.00528 26.7173 5.95291 26.6113C5.91039 26.5253 5.86716 26.4387 5.82569 26.3533C5.77157 26.2415 5.72061 26.1304 5.6686 26.0193C5.63204 25.9409 5.59409 25.8621 5.55859 25.784C5.50201 25.6595 5.44859 25.536 5.39482 25.4125C5.36705 25.3485 5.33753 25.2842 5.31047 25.2205C5.23105 25.0334 5.15478 24.8473 5.08203 24.6615L10.1843 22.7461C11.7571 25.7871 13.8657 29.2585 16.1797 33.7849C14.0805 34.39 12.2656 34.8451 10.8426 35.121Z" fill="#F2E9C0"/>
<path d="M43.6982 11.0339C43.7428 11.1611 43.7871 11.2877 43.8303 11.4174C43.8574 11.4986 43.8831 11.5822 43.9094 11.6644C43.9467 11.781 43.9843 11.897 44.0208 12.0153C44.0486 12.1061 44.0753 12.1987 44.1027 12.2905C44.1361 12.4034 44.1698 12.5158 44.2025 12.6307C44.2306 12.7288 44.2577 12.8289 44.2851 12.9283C44.3157 13.0394 44.3466 13.1502 44.3768 13.2627C44.405 13.3686 44.4327 13.476 44.4605 13.5833C44.4886 13.692 44.5171 13.8004 44.5448 13.9104C44.5737 14.0247 44.6021 14.1406 44.6302 14.2565C44.6562 14.3625 44.6822 14.4681 44.7079 14.5754C44.7378 14.6999 44.7673 14.8262 44.7968 14.9528C44.82 15.0522 44.8432 15.152 44.8664 15.2528C44.898 15.3907 44.9297 15.5304 44.9613 15.6707C44.9817 15.7612 45.0017 15.8513 45.0221 15.9428C45.0576 16.1028 45.0931 16.2641 45.1286 16.4268C45.143 16.4929 45.1574 16.5589 45.1718 16.6257C45.215 16.8252 45.2583 17.0265 45.3018 17.2304C45.305 17.2456 45.3082 17.2607 45.3113 17.2759C45.6101 18.6797 45.92 20.1906 46.2796 21.8157C46.2799 21.8167 46.2799 21.8174 46.2803 21.8185C45.706 22.1532 45.0418 22.5144 44.302 22.8962C42.9816 18.1541 42.1919 14.2875 41.3027 11.0648L43.4181 10.2705C43.4908 10.4563 43.5611 10.6448 43.63 10.8357C43.6532 10.9011 43.6754 10.9682 43.6982 11.0339Z" fill="#F2E9C0"/>
<path d="M61.135 55.8164C65.3281 64.1458 66.3807 69.6623 53.9764 75.6116L51.9141 73.2021C65.8978 67.2257 62.2185 58.0762 61.135 55.8164Z" fill="#EFEFEF"/>
<path d="M48.0144 78.1199C42.8235 80.0683 38.8128 81.0986 35.6621 81.3508C38.0888 78.7016 43.9787 78.9166 52.9399 74.4008C61.1613 70.2579 63.1772 66.125 63.82 62.8408C64.8645 68.5599 61.5556 73.0365 48.0144 78.1199Z" fill="#E0E0E0"/>
<path opacity="0.4" d="M38.9095 17.6405C38.7274 18.6454 38.6508 19.6141 38.6076 20.5715C38.5774 21.0531 38.5809 21.523 38.571 21.9977C38.5665 22.4704 38.5847 22.9355 38.5904 23.4047C38.6491 25.2695 38.8515 27.0852 39.1151 28.8802C39.6735 32.4593 40.5982 35.9128 41.8001 39.2713C42.4036 40.95 43.0713 42.6006 43.8434 44.2559C44.6152 45.9075 45.4886 47.5508 46.5092 49.1439C47.5435 50.7308 48.692 52.282 50.0394 53.703C50.7142 54.4117 51.4291 55.0932 52.2037 55.7217C52.579 56.0419 52.9972 56.3354 53.4014 56.6281C53.7665 56.8741 54.1373 57.1121 54.5288 57.3306C54.6392 57.3922 54.7766 57.3874 54.8838 57.3206C55.0395 57.2236 55.0876 57.0237 54.9938 56.8679C54.131 55.4382 53.355 53.9604 52.6461 52.4529C51.8768 50.854 51.1771 49.2224 50.5276 47.5698C49.228 44.2652 48.0594 40.8998 46.874 37.5341L45.0507 32.5033C44.4384 30.828 43.8452 29.1458 43.214 27.477L41.3422 22.4628L39.4173 17.4668L38.9095 17.6405Z" fill="white"/>
<path d="M46.6758 40.124C47.236 41.2782 47.7329 42.454 48.2197 43.6308L49.6529 47.1669C50.1186 48.3485 50.6018 49.5223 51.0787 50.6998C51.5929 51.8601 52.0944 53.028 52.5358 54.2355C51.8466 53.1553 51.2084 52.0397 50.6 50.9093C50.0216 49.7651 49.5074 48.5921 49.028 47.407C48.5585 46.2181 48.1192 45.0189 47.7287 43.8045C47.3333 42.5912 46.9738 41.368 46.6758 40.124Z" fill="white"/>
<path d="M0.455039 26.4506C2.51944 31.7194 6.20963 32.1938 9.83164 32.3396L9.80211 32.3211C14.8837 32.8071 18.0783 29.2549 20.5912 28.4228C24.1137 27.2563 25.8987 35.468 30.6102 33.6995C35.3217 31.931 31.4829 21.6854 38.6088 20.5715C45.7351 19.4576 44.0643 44.8154 51.4046 42.0599C60.6339 38.5951 47.17 19.8477 49.5107 10.2052L49.5082 10.2063C49.8523 8.68095 49.7704 7.0882 49.1778 5.57595C47.3995 1.03679 41.7173 -1.05064 36.4864 0.912944C34.8054 1.54385 33.3779 2.51773 32.2704 3.69768C29.9498 0.501857 25.6355 -0.883802 21.7225 0.585105C17.9427 2.00413 15.705 5.64888 15.9697 9.40646C15.5845 9.5076 15.1996 9.62697 14.8169 9.77042C10.9556 11.2201 8.43709 14.4554 8.1967 17.784C6.91709 17.4555 5.53168 17.4989 4.2106 17.9946C0.807539 19.2722 -0.874132 23.058 0.455039 26.4506Z" fill="#FFFADC"/>
<path d="M44.5666 36.7962C44.8358 36.6951 44.9964 37.1044 44.7269 37.2056C44.4577 37.3064 44.2971 36.8973 44.5666 36.7962Z" fill="#FFCF64"/>
<path d="M35.0334 43.8804C35.5718 43.6785 35.8934 44.4969 35.3543 44.6992C34.8162 44.9014 34.4943 44.083 35.0334 43.8804Z" fill="#FFCF64"/>
<path d="M44.4768 53.6314C45.0152 53.4295 45.3368 54.2479 44.7977 54.4501C44.2596 54.6524 43.9377 53.8337 44.4768 53.6314Z" fill="#FFCF64"/>
<path d="M30.807 37.1558C31.345 36.9539 31.6669 37.7723 31.1278 37.9745C30.5894 38.1768 30.2678 37.3584 30.807 37.1558Z" fill="#FFCF64"/>
<path d="M36.5355 56.9244C37.0739 56.7224 37.3955 57.5408 36.8563 57.7431C36.3179 57.945 35.9964 57.1266 36.5355 56.9244Z" fill="#FFCF64"/>
<path d="M40.5216 42.9896C40.7908 42.8884 40.9518 43.2978 40.6819 43.3989C40.413 43.5001 40.252 43.0907 40.5216 42.9896Z" fill="#FFCF64"/>
<path d="M36.1819 28.9329C36.4511 28.8318 36.6117 29.2412 36.3421 29.3423C36.0729 29.4431 35.9123 29.0341 36.1819 28.9329Z" fill="#FFCF64"/>
<path d="M51.299 57.2269C51.5682 57.1257 51.7291 57.5351 51.4592 57.6362C51.1904 57.737 51.0294 57.328 51.299 57.2269Z" fill="#FFCF64"/>
<path d="M22.098 39.771C22.6364 39.5691 22.958 40.3875 22.4188 40.5898C21.8804 40.7921 21.5589 39.9737 22.098 39.771Z" fill="#F4B506"/>
<path d="M20.5862 49.9996C21.1246 49.7976 21.4462 50.616 20.907 50.8183C20.369 51.0206 20.047 50.2018 20.5862 49.9996Z" fill="#F4B506"/>
<path d="M30.8343 61.5269C31.3727 61.325 31.6943 62.1434 31.1552 62.3456C30.6168 62.5479 30.2952 61.7292 30.8343 61.5269Z" fill="#F4B506"/>
<path d="M33.0648 71.2847C33.6032 71.0828 33.9248 71.9012 33.3856 72.1035C32.8472 72.3057 32.5256 71.4873 33.0648 71.2847Z" fill="#F4B506"/>
<path d="M47.6077 63.4371C48.1461 63.2351 48.4676 64.0535 47.9285 64.2558C47.3905 64.4577 47.0685 63.6393 47.6077 63.4371Z" fill="#F4B506"/>
<path d="M57.5803 58.5503C58.1187 58.3484 58.4403 59.1668 57.9012 59.3691C57.3631 59.5714 57.0412 58.7526 57.5803 58.5503Z" fill="#F4B506"/>
<path d="M53.5548 48.8997C53.824 48.7986 53.9846 49.208 53.7151 49.3091C53.4462 49.4102 53.2852 49.0009 53.5548 48.8997Z" fill="#F4B506"/>
<path d="M47.6134 67.513C47.8826 67.4119 48.0432 67.8212 47.7737 67.9224C47.5048 68.0232 47.3438 67.6141 47.6134 67.513Z" fill="#F4B506"/>
<path d="M29.463 69.1331C29.7322 69.032 29.8932 69.4413 29.6233 69.5425C29.3544 69.6436 29.1935 69.2346 29.463 69.1331Z" fill="#F4B506"/>
<path d="M28.468 53.3411C28.4666 53.3125 28.4722 53.285 28.4852 53.2589C28.4965 53.2317 28.5133 53.2093 28.5358 53.1911C28.5559 53.1691 28.5801 53.1529 28.6096 53.1433C28.629 53.1388 28.6486 53.1343 28.668 53.1299C28.7073 53.1264 28.7449 53.1323 28.7808 53.1477C28.7969 53.1574 28.8135 53.1674 28.8296 53.177C28.8613 53.2018 28.8841 53.2327 28.8989 53.2695L28.9344 53.36C28.9467 53.3879 28.9509 53.4164 28.9474 53.4457C28.9488 53.4742 28.9432 53.5017 28.9298 53.5279C28.9185 53.5551 28.9017 53.5774 28.8792 53.5956C28.8592 53.6177 28.8349 53.6338 28.8054 53.6435C28.7861 53.6479 28.7664 53.6524 28.747 53.6569C28.7077 53.6603 28.6701 53.6545 28.6342 53.639C28.6181 53.6294 28.6015 53.6194 28.5854 53.6097C28.5541 53.585 28.5309 53.554 28.5165 53.5172L28.481 53.4267C28.4687 53.3992 28.4645 53.3707 28.468 53.3411Z" fill="#F4B506"/>
<path d="M17.0686 40.7513C17.3378 40.6502 17.4984 41.0595 17.2288 41.1607C16.9596 41.2615 16.799 40.8524 17.0686 40.7513Z" fill="#F4B506"/>
<path d="M37.5482 31.8838C38.4901 31.5302 39.0531 32.9626 38.1098 33.3169C37.168 33.6702 36.6049 32.2381 37.5482 31.8838Z" fill="#EAA907"/>
<path d="M29.8745 43.1787C30.8164 42.8251 31.3794 44.2575 30.4362 44.6115C29.4943 44.9655 28.9309 43.5331 29.8745 43.1787Z" fill="#EAA907"/>
<path d="M41.9723 49.1299C42.9142 48.7763 43.4772 50.2087 42.5336 50.5627C41.5917 50.9163 41.0287 49.4839 41.9723 49.1299Z" fill="#EAA907"/>
<path d="M41.152 58.6836C42.0938 58.33 42.6569 59.7624 41.7136 60.1164C40.7714 60.47 40.2083 59.0376 41.152 58.6836Z" fill="#EAA907"/>
<path d="M25.066 36.0508C26.0079 35.6972 26.5709 37.1296 25.6276 37.4839C24.6854 37.8372 24.1224 36.4048 25.066 36.0508Z" fill="#EAA907"/>
<path d="M48.1633 56.8054C48.8364 56.5529 49.2384 57.576 48.5643 57.8288C47.8917 58.0813 47.4896 57.0582 48.1633 56.8054Z" fill="#EAA907"/>
<path d="M32.8001 51.4567C33.4727 51.2042 33.8751 52.2273 33.2011 52.4802C32.5284 52.7327 32.1263 51.7096 32.8001 51.4567Z" fill="#EAA907"/>
<path d="M36.6342 38.487C37.3069 38.2345 37.7093 39.2576 37.0352 39.5104C36.3625 39.7629 35.9601 38.7399 36.6342 38.487Z" fill="#EAA907"/>
<path d="M24.8588 60.4365C25.8006 60.0829 26.3637 61.5154 25.4204 61.8693C24.4785 62.2233 23.9155 60.7909 24.8588 60.4365Z" fill="#D6930D"/>
<path d="M39.234 68.96C40.1759 68.6063 40.7389 70.0388 39.7956 70.3928C38.8534 70.7468 38.2904 69.3143 39.234 68.96Z" fill="#D6930D"/>
<path d="M53.3785 60.6377C54.3204 60.2841 54.8834 61.7165 53.9401 62.0708C52.9979 62.4241 52.4349 60.9917 53.3785 60.6377Z" fill="#D6930D"/>
<path d="M23.4293 43.5205C24.3712 43.1669 24.9342 44.5993 23.9909 44.9533C23.0487 45.307 22.4857 43.8749 23.4293 43.5205Z" fill="#D6930D"/>
<path d="M19.0933 34.8913C19.7663 34.6388 20.1683 35.6619 19.4943 35.9147C18.8213 36.1676 18.4192 35.1442 19.0933 34.8913Z" fill="#D6930D"/>
<path d="M18.1223 45.9558C18.7953 45.7033 19.1974 46.7263 18.5233 46.9792C17.8507 47.2317 17.4486 46.2086 18.1223 45.9558Z" fill="#D6930D"/>
<path d="M31.2083 57.1452C31.8813 56.8927 32.2833 57.9158 31.6093 58.1686C30.9366 58.4215 30.5345 57.3981 31.2083 57.1452Z" fill="#D6930D"/>
<path d="M33.6674 66.4021C34.3401 66.1496 34.7425 67.1726 34.0684 67.4255C33.3957 67.678 32.9933 66.6549 33.6674 66.4021Z" fill="#D6930D"/>
<path d="M56.2631 52.8298C56.9361 52.5773 57.3382 53.6004 56.6641 53.8532C55.9914 54.1061 55.589 53.0826 56.2631 52.8298Z" fill="#D6930D"/>
<path d="M0.185119 22.5255C0.187579 22.5148 0.190743 22.5045 0.193204 22.4942C0.214642 22.4078 0.237836 22.3215 0.263141 22.2362C0.268764 22.2166 0.275091 22.1973 0.281065 22.178C0.304261 22.102 0.328159 22.0263 0.354166 21.951C0.362952 21.9255 0.372088 21.9004 0.381226 21.8753C0.397041 21.8309 0.411803 21.7866 0.428672 21.7425C0.428672 21.7446 0.428672 21.7467 0.428672 21.7491C1.0669 20.0768 2.3915 18.6774 4.21024 17.9946C5.53097 17.4989 6.91673 17.4552 8.19634 17.784C8.43673 14.4554 10.9552 11.2201 14.8165 9.77042C15.1993 9.62697 15.5841 9.5076 15.9693 9.40646C15.9046 8.48762 15.9904 7.57566 16.2111 6.70119C16.2114 6.69947 16.2118 6.69775 16.2121 6.69603C16.2656 6.48516 16.3271 6.27635 16.3959 6.07029C17.2088 3.63885 19.0912 1.57275 21.7221 0.585105C25.6351 -0.883802 29.9495 0.501857 32.2701 3.69768C33.3775 2.51773 34.8054 1.54385 36.486 0.912944C41.717 -1.05064 47.3988 1.03713 49.1775 5.57595C49.4783 6.34343 49.646 7.13155 49.6948 7.92139C49.6526 7.79548 49.6126 7.66923 49.5637 7.54435C47.7854 3.00554 42.1032 0.91776 36.8723 2.88135C35.5153 3.39082 34.3229 4.1239 33.3311 5.00834C32.9628 5.33652 32.3931 5.3004 32.0631 4.93541C29.6486 2.26695 25.7086 1.20191 22.1084 2.55351C18.5486 3.88997 16.3562 7.20069 16.3344 10.7206C16.332 11.1041 16.086 11.4419 15.7134 11.5613C15.543 11.616 15.3725 11.6748 15.2028 11.7388C11.6841 13.0598 9.28056 15.8638 8.69997 18.8697C8.61246 19.3231 8.19142 19.6472 7.72365 19.5904C6.69602 19.4649 5.62692 19.5767 4.59683 19.9633C3.78428 20.2685 3.07225 20.7184 2.47374 21.2699C1.57544 22.2905 0.280362 24.3931 2.64911 27.3419C4.7346 29.7685 7.51594 30.0692 10.2586 30.1796L10.2291 30.1611C15.3107 30.6471 18.5053 27.0949 21.0182 26.2628C24.5407 25.0962 26.3257 33.308 31.0372 31.5395C32.4437 31.0114 33.0882 29.7276 33.49 28.1572C33.0763 30.6368 32.625 32.9437 30.6102 33.6998C25.8987 35.4684 24.1141 27.2566 20.5912 28.4231C18.0787 29.2553 14.8837 32.8071 9.8021 32.3214L9.83162 32.34C6.20962 32.1941 2.51943 31.7197 0.45503 26.4509C-0.0573795 25.1454 -0.121693 23.7821 0.185119 22.5255Z" fill="#F2E9C0"/>
<path d="M39.0354 18.4107C46.1617 17.2968 44.4909 42.6549 51.8312 39.899C53.294 39.35 54.1852 38.416 54.6611 37.1962C54.5416 39.4824 53.6398 41.2204 51.4042 42.0594C44.0639 44.8149 45.7347 19.4571 38.6084 20.571C35.6787 21.0289 34.6026 23.0307 34.0234 25.352C34.5478 22.2223 35.2194 19.0072 39.0354 18.4107Z" fill="#F2E9C0"/>
<path d="M29.0443 7.86035C28.2669 7.89097 27.4941 7.96527 26.7255 8.10494C25.9572 8.24185 25.1953 8.45548 24.4706 8.77197C23.7491 9.09637 23.0722 9.53119 22.5162 10.0912C21.9602 10.6451 21.5234 11.3321 21.3477 12.0782C21.6995 11.3978 22.1876 10.8209 22.7559 10.3403C23.3266 9.86281 23.9701 9.47168 24.6551 9.17136C25.3397 8.86279 26.0658 8.63884 26.8032 8.43725C27.5419 8.23773 28.2961 8.0702 29.0443 7.86035Z" fill="#F2E9C0"/>
<path d="M42.7369 8.85523C42.2807 8.61271 41.7694 8.46891 41.2489 8.40424C40.7273 8.33613 40.1949 8.35608 39.6744 8.44105C39.1557 8.53393 38.6478 8.6932 38.1811 8.93091C37.7144 9.16552 37.2839 9.47135 36.9395 9.85182C37.3981 9.61583 37.8532 9.40977 38.321 9.2443C38.7891 9.08193 39.2657 8.95224 39.7517 8.87278C40.2364 8.78505 40.7294 8.74824 41.226 8.74446C41.724 8.74343 42.2238 8.78574 42.7369 8.85523Z" fill="#F2E9C0"/>
<path d="M16.3754 21.0899C15.7241 21.0363 15.0648 21.0813 14.4185 21.1945C13.7708 21.3049 13.1371 21.4931 12.5267 21.7349C11.9194 21.984 11.3342 22.2874 10.7951 22.6558C10.2549 23.0215 9.75482 23.4443 9.33203 23.9321C9.87818 23.5819 10.4208 23.2482 10.9796 22.9469C11.5395 22.6483 12.1095 22.3734 12.6978 22.1405C13.283 21.8997 13.885 21.7012 14.4972 21.5271C15.1105 21.3548 15.7357 21.2172 16.3754 21.0899Z" fill="#F2E9C0"/>
<path d="M30.4855 18.3705C29.9397 18.3154 29.3752 18.4052 28.8523 18.6013C28.3265 18.795 27.8433 19.1032 27.4367 19.4905C27.0357 19.8834 26.7148 20.3526 26.5103 20.8648C26.3036 21.3743 26.2048 21.9261 26.2551 22.461C26.3915 21.9423 26.5784 21.4576 26.8273 21.0093C27.0785 20.5638 27.384 20.1524 27.7512 19.8022C28.1129 19.4465 28.5371 19.1527 28.9953 18.9119C29.4564 18.6739 29.9541 18.4971 30.4855 18.3705Z" fill="#F2E9C0"/>
<path d="M49.8782 35.1774C50.5509 34.9249 50.9533 35.948 50.2792 36.2009C49.6065 36.4534 49.2045 35.4303 49.8782 35.1774Z" fill="#F2E9C0"/>
<path d="M47.9994 21.4431C48.6725 21.1906 49.0745 22.2136 48.4004 22.4665C47.7278 22.7193 47.3254 21.6963 47.9994 21.4431Z" fill="#F2E9C0"/>
<path d="M32.4312 7.44503C33.1042 7.19253 33.5062 8.2156 32.8322 8.46844C32.1591 8.72129 31.7571 7.69822 32.4312 7.44503Z" fill="#F2E9C0"/>
<path d="M19.5171 17.28C20.1898 17.0275 20.5922 18.0506 19.9181 18.3034C19.2451 18.5559 18.843 17.5328 19.5171 17.28Z" fill="#F2E9C0"/>
<path d="M29.2397 25.5759C29.9123 25.3234 30.3147 26.3465 29.6407 26.5993C28.968 26.8521 28.5656 25.8291 29.2397 25.5759Z" fill="#F2E9C0"/>
<path d="M5.70069 24.5446C6.37336 24.2921 6.77577 25.3152 6.1017 25.5681C5.42868 25.8206 5.02662 24.7975 5.70069 24.5446Z" fill="#F2E9C0"/>
<path d="M13.8805 16.9795C14.8224 16.6259 15.3854 18.0583 14.4421 18.4123C13.4999 18.7663 12.9369 17.3338 13.8805 16.9795Z" fill="#F2E9C0"/>
<path d="M31.1578 13.4024C32.0997 13.0487 32.6627 14.4812 31.7194 14.8352C30.7772 15.1888 30.2142 13.7567 31.1578 13.4024Z" fill="#F2E9C0"/>
<path d="M45.726 6.16702C46.6678 5.81338 47.2309 7.24582 46.2872 7.60015C45.3457 7.95344 44.7827 6.521 45.726 6.16702Z" fill="#F2E9C0"/>
<path d="M48.5524 26.9209C49.4942 26.5673 50.0573 27.9997 49.114 28.3541C48.1717 28.7077 47.6087 27.2753 48.5524 26.9209Z" fill="#F2E9C0"/>
<path d="M13.9567 25.5733C14.8985 25.2196 15.4616 26.6521 14.5183 27.0061C13.576 27.36 13.013 25.9276 13.9567 25.5733Z" fill="#F2E9C0"/>
<path d="M22.2575 5.31643C23.1993 4.96279 23.7624 6.39524 22.8187 6.74956C21.8768 7.10286 21.3138 5.67041 22.2575 5.31643Z" fill="#F2E9C0"/>
<path d="M42.8746 13.7823C43.8165 13.4286 44.3795 14.8611 43.4359 15.215C42.494 15.5687 41.931 14.1362 42.8746 13.7823Z" fill="#F2E9C0"/>
<path d="M21.8714 21.396C22.4098 21.1941 22.7314 22.0125 22.1923 22.2148C21.6539 22.4171 21.3323 21.5987 21.8714 21.396Z" fill="white"/>
<path d="M25.5237 12.0259C26.0621 11.824 26.3837 12.6424 25.8445 12.8447C25.3065 13.0469 24.9845 12.2285 25.5237 12.0259Z" fill="white"/>
<path d="M36.229 13.6167C36.7671 13.4148 37.089 14.2332 36.5499 14.4355C36.0114 14.6374 35.6895 13.819 36.229 13.6167Z" fill="white"/>
<path d="M41.6605 3.37163C42.1989 3.1697 42.5205 3.98809 41.9813 4.19036C41.4429 4.3923 41.1214 3.5739 41.6605 3.37163Z" fill="white"/>
<path d="M47.76 15.4175C48.2984 15.2156 48.62 16.034 48.0809 16.2363C47.5428 16.4385 47.2209 15.6201 47.76 15.4175Z" fill="white"/>
<path d="M49.4808 31.1851C50.0189 30.9832 50.3408 31.8016 49.8017 32.0038C49.2632 32.2061 48.9417 31.3877 49.4808 31.1851Z" fill="white"/>
<path d="M17.0005 12.2134C17.5389 12.0115 17.8605 12.8299 17.3213 13.0322C16.7829 13.2344 16.461 12.4157 17.0005 12.2134Z" fill="white"/>
<path d="M9.28938 26.1197C9.8278 25.9177 10.1494 26.7361 9.61025 26.9384C9.07183 27.1407 8.75026 26.3223 9.28938 26.1197Z" fill="white"/>
<path d="M30.012 28.6255C30.5505 28.4236 30.872 29.242 30.3329 29.4443C29.7945 29.6462 29.4729 28.8278 30.012 28.6255Z" fill="white"/>
</svg>
