<svg width="89" height="114" viewBox="0 0 89 114" fill="none" xmlns="http://www.w3.org/2000/svg">
<path d="M76.2265 82.4962C73.9708 85.0877 69.9539 85.0457 67.6967 82.4069L52.0032 64.0625L54.6442 60.4012L75.0241 73.8915C77.9305 75.8154 78.4992 79.8853 76.2265 82.4962Z" fill="#F7931E"/>
<g opacity="0.53">
<path d="M56.7967 67.4986C59.6941 70.4634 67.2191 78.4679 69.5086 81.8625C68.3175 80.209 56.8401 67.5462 56.7967 67.4986Z" fill="#F9D9A0"/>
<path d="M55.6176 65.0861C61.0899 70.269 67.9052 76.9996 72.4517 81.6473C67.802 77.2448 60.5718 70.1482 55.6176 65.0861Z" fill="#F9D9A0"/>
<path d="M59.168 66.6348C63.0121 69.6846 68.8707 74.5316 73.4027 78.5016C69.5562 75.451 63.6951 70.5982 59.168 66.6348Z" fill="#F9D9A0"/>
<path d="M65.7246 73.9032C67.6564 75.5699 71.2072 78.942 73.0896 80.9252C71.0266 79.1463 67.488 75.7597 65.7246 73.9032Z" fill="#F9D9A0"/>
</g>
<path opacity="0.66" d="M74.8931 73.8043L64.088 66.6512L54.6456 60.4004L52.0048 64.0619L59.2945 72.5841C61.3878 69.2505 65.7719 68.743 68.6487 71.1543C72.5487 74.4235 75.5068 77.6877 74.9128 79.7192C73.9136 83.1357 71.5245 83.9335 69.0694 83.581C71.3692 84.9898 74.4404 84.6131 76.2833 82.43C78.5073 79.7959 77.7869 75.7202 74.8931 73.8043Z" fill="#F38F13"/>
<path d="M54.753 60.4108C65.3639 68.3678 74.5592 73.777 75.6891 74.8959C77.6191 76.8391 78.0936 80.0127 76.3051 82.485C78.3252 80.3524 78.2833 76.7788 76.1376 74.449C75.0408 73.2514 62.1733 64.7727 54.753 60.4108Z" fill="#99550B"/>
<path d="M25.2799 68.6591C30.2271 75.6989 35.6394 81.1537 40.5533 81.1963C51.0268 81.2876 70.7433 59.1044 69.3927 48.7984C68.7593 43.9663 62.6634 39.2727 55.0444 35.2219L25.2799 68.6591Z" fill="#57AB10"/>
<path d="M69.3148 48.9391C71.2653 59.7814 51.4309 81.8249 40.2148 81.2236C45.3103 80.7785 51.1578 76.0904 54.7857 72.6307C60.3306 67.4207 69.5625 56.4964 69.3148 48.9391Z" fill="#457F0D"/>
<path d="M29.3557 74.0478C30.545 75.3993 31.7447 76.6126 32.9434 77.6357C34.2956 78.3272 35.6309 78.7136 36.9314 78.7249C47.4528 78.8172 67.2605 56.6753 65.9039 46.3872C65.5662 43.8275 63.6832 41.3063 60.8465 38.8992L29.3557 74.0478Z" fill="#F7D39D"/>
<path d="M59.7564 37.6402C51.539 32.4117 39.894 27.9796 31.8168 25.2493C26.2772 23.3767 19.9388 25.217 15.8407 29.8668C11.7693 34.4863 10.7178 40.9615 13.2014 46.2232C16.0903 52.3445 20.3933 60.8888 25.0863 67.8343C27.2617 70.8153 28.9773 73.0837 31.0981 75.3413C32.4351 76.0355 34.3342 76.1792 35.6199 76.1902C46.0219 76.2795 65.6034 54.0284 64.2616 43.6929C64.2605 43.6837 64.2591 43.6746 64.258 43.6655C64.0603 42.1912 63.3093 40.8426 62.2432 39.7967C61.5004 39.068 60.6665 38.3485 59.7564 37.6402Z" fill="#FF276B"/>
<path d="M24.566 51.0602C24.566 51.0602 24.0901 55.8303 26.9478 57.4175C29.8055 59.0048 30.8474 52.9618 24.566 51.0602Z" fill="#6F2A19"/>
<path d="M35.5259 39.0592C35.5259 39.0592 40.1599 37.9908 42.0763 40.6535C43.9927 43.3163 38.1767 45.1093 35.5259 39.0592Z" fill="#6F2A19"/>
<path opacity="0.47" d="M17.4247 28.5658C25.9308 29.1121 36.6228 30.7535 44.2437 35.2206C57.9527 43.2568 72.3792 51.8034 56.6363 72.9493C64.265 65.633 70.5907 55.2077 69.461 48.7392C68.2058 38.9917 45.2462 29.8113 31.9741 25.2895C27.037 23.6075 21.4615 24.9172 17.4247 28.5658Z" fill="#D3A3A3"/>
<path d="M48.0913 55.5254C49.4983 56.7748 49.643 58.9227 48.4144 60.3227C47.1858 61.723 45.0493 61.8451 43.6422 60.5955C42.2352 59.346 40.9668 53.709 40.9668 53.709C40.9668 53.709 46.6843 54.2759 48.0913 55.5254Z" fill="#6F2A19"/>
<path opacity="0.26" d="M41.7622 54.6213C41.7622 54.6213 42.8281 57.9969 44.0486 59.3647C45.2688 60.7322 46.7556 60.3292 47.1572 59.8671C47.5587 59.405 46.4705 57.8591 45.0108 57.9436C43.551 58.0282 41.7622 54.6213 41.7622 54.6213Z" fill="#00B3D9"/>
<path opacity="0.26" d="M25.6578 52.5604C25.6578 52.5604 25.4745 55.221 26.6174 56.2376C27.7604 57.2542 27.6669 53.7096 25.6578 52.5604Z" fill="#00B3D9"/>
<path opacity="0.26" d="M37.1018 40.0077C37.1018 40.0077 39.2333 42.6307 40.3865 41.7514C41.5394 40.8722 37.1018 40.0077 37.1018 40.0077Z" fill="#00B3D9"/>
<path opacity="0.26" d="M17.0254 41.2043C17.7007 50.38 31.9558 71.3441 35.7884 72.8962C42.0987 75.4517 54.1605 64.0726 56.7487 54.2731C59.337 44.4734 28.5294 31.582 24.5907 31.8069C20.6521 32.0317 16.4656 33.5946 17.0254 41.2043Z" fill="#00B3D9"/>
<path opacity="0.52" d="M15.273 41.2531C15.6627 45.2264 25.454 62.1812 27.4585 65.6767C24.7034 61.8178 13.9318 46.1772 13.2451 41.5747C12.7422 38.7735 12.8554 35.5146 14.4027 33.3088C15.0071 32.447 16.3664 33.0449 16.1641 34.0841C15.9933 34.9613 14.7078 36.6905 15.273 41.2531Z" fill="#00B3D9"/>
</svg>
