<svg width="104" height="136" viewBox="0 0 104 136" fill="none" xmlns="http://www.w3.org/2000/svg">
<path d="M8.42376 0.228326C28.4494 5.17025 48.3899 20.5513 63.6131 34.0378C80.4442 48.9481 93.7906 67.1174 103.854 87.155C104.069 87.5839 103.512 88.1773 103.142 87.746C89.8228 72.2053 75.0531 58.0283 58.891 45.4659C50.3333 38.8141 41.5588 32.5728 32.1766 27.1292C23.0077 21.8102 12.8289 17.937 4.01205 12.1324C-1.72046 8.35882 0.890823 -1.63048 8.42376 0.228326Z" fill="white"/>
<path d="M20.3719 68.4729C46.9826 75.7211 68.5943 90.0089 89.8526 107.061C90.3787 107.483 89.7459 108.394 89.168 108.035C67.3955 94.4766 42.1998 87.1027 17.4658 81.0753C9.35851 79.0997 12.3409 66.2858 20.3719 68.4729Z" fill="white"/>
<path d="M46.3738 123.893C56.3804 118.038 67.9526 124.682 77.7495 127.5C78.229 127.637 78.2154 128.455 77.6583 128.421C72.6604 128.107 67.84 129.644 63.1894 131.369C58.9952 132.924 54.2916 135.248 49.7703 135.102C44.0634 134.919 40.8855 127.105 46.3738 123.893Z" fill="white"/>
</svg>
