<svg width="301" height="244" viewBox="0 0 301 244" fill="none" xmlns="http://www.w3.org/2000/svg">
<path d="M43.6275 179.398C41.9515 176.499 40.0195 173.824 38.0665 171.105C35.8735 168.053 33.7775 165.09 30.8615 162.679C27.5285 159.923 22.2435 164.392 24.4075 168.137C26.1525 171.157 28.4535 173.548 30.8935 176.009C33.4575 178.595 35.9665 181.18 38.7755 183.502C41.2805 185.573 45.2555 182.213 43.6275 179.398Z" fill="#5E2BFF"/>
<path d="M202.594 163.188C215.875 162.6 227.181 155.619 239.496 164.423C242.2 166.356 244.897 162.329 242.416 160.267C235.463 154.487 227.272 152.175 218.25 153.101C206.797 154.275 198.486 158.513 190.308 148.094C188.397 145.657 183.789 147.621 184.689 150.764C187.168 159.413 193.716 163.582 202.594 163.188Z" fill="#5E2BFF"/>
<path d="M267.408 228.216C278.194 227.195 288.89 222.026 298.275 216.876C302.637 214.484 299.564 207.996 294.95 209.91C285.2 213.949 274.285 215.871 265.032 220.939C261.071 223.106 263.073 228.627 267.408 228.216Z" fill="#CF5F7F"/>
<path d="M125.784 238.991C122.466 232.915 118.873 227.497 120.891 220.328C122.187 215.726 125.475 211.69 127.968 207.683C132.09 201.059 133.492 194.48 129.2 187.598C128.029 185.722 124.926 187.072 126.021 189.116C132.071 200.403 120.03 207.398 115.594 216.588C110.994 226.123 114.052 235.571 121.679 242.457C123.775 244.35 127.06 241.329 125.784 238.991Z" fill="#FC6DAB"/>
<path d="M194.912 13.464C198.145 8.83397 202.639 6.46497 208.299 6.70397C212.557 6.88497 213.132 0.445973 208.852 0.089973C201.003 -0.560027 191.796 2.24597 189.557 10.66C188.699 13.875 192.828 16.447 194.912 13.464Z" fill="#82DCDC"/>
<path d="M168.085 43.7643C163.47 40.5453 157.452 39.1293 152.243 37.0853C149.72 36.0973 148.261 39.4953 150.154 41.0713C154.562 44.7413 160.444 48.1343 166.078 49.2953C169.171 49.9313 170.404 45.3813 168.085 43.7643Z" fill="#82DCDC"/>
<path d="M101.528 5.09134C101.925 0.347343 94.5687 -0.267654 94.1717 4.47635C93.7757 9.21935 101.131 9.83434 101.528 5.09134Z" fill="#5E2BFF"/>
<path d="M77.8981 72.4806C85.6721 70.7696 92.0403 63.6706 96.7683 57.6056C99.4613 54.1516 94.0292 50.5086 91.2802 53.7516C89.0972 56.3256 86.6572 58.6186 84.0512 60.7616C81.2022 63.1066 78.1443 64.9326 75.5913 67.6296C73.8303 69.4936 74.9271 73.1336 77.8981 72.4806Z" fill="#FC6DAB"/>
<path d="M130.177 99.4277C129.097 97.4137 127.702 96.3337 125.703 95.2887C124.091 94.4457 122.83 94.3207 121.788 93.3747C120.548 92.2457 118.34 92.5847 117.161 93.5817C115.534 94.9567 115.443 97.2977 116.714 98.9277C117.778 100.292 119.201 101.217 120.705 102.028C121.542 102.479 122.38 102.821 123.253 103.185C123.644 103.348 123.992 103.534 124.398 103.654C124.459 103.672 125.436 104.195 124.923 103.869C127.779 105.683 131.951 102.737 130.177 99.4277Z" fill="#FC6DAB"/>
<path d="M6.88651 67.3962C13.5505 60.1022 21.2816 55.0732 30.0306 50.6192C32.6416 49.2892 31.3505 45.2932 28.4485 45.7662C17.5195 47.5522 8.80253 55.7582 1.67753 63.7352C-1.07247 66.8142 4.16951 70.3692 6.88651 67.3962Z" fill="#F7F6C5"/>
</svg>
