<svg width="83" height="73" viewBox="0 0 83 73" fill="none" xmlns="http://www.w3.org/2000/svg">
<path d="M2.7666 11.8298L30.5179 1.50595C34.9517 -0.143782 39.7745 -0.445747 44.3796 0.637892L79.725 8.95436C81.7488 9.4305 83.1308 11.3015 82.9902 13.376L80.411 51.4483C80.3082 52.9667 79.4009 54.3144 78.0324 54.9805L46.3385 70.4084C41.7726 72.6307 36.5143 72.9605 31.7072 71.3257L5.64346 62.4624C4.01657 61.9092 2.88296 60.4301 2.77231 58.7154L0.00896426 16.0851C-0.112392 14.2134 1.00837 12.4837 2.7666 11.8298Z" fill="#B8DDF7"/>
<path d="M7.48487 57.9693C7.80682 56.1975 17.1348 55.2467 22.9863 53.2207C28.8386 51.1948 36.4911 44.668 38.2915 44.668C40.0919 44.668 45.9441 47.5941 49.9959 48.2694C54.0471 48.9447 73.3541 48.6477 74.8297 51.6452C76.3052 54.6434 61.2499 61.9991 52.6972 65.3749C44.1444 68.7515 42.5682 71.2271 33.7906 69.2012C25.0123 67.176 7.03443 60.445 7.48487 57.9693Z" fill="url(#paint0_linear_2006_8041)"/>
<path d="M1.60481 17.433C3.74639 15.5976 38.6013 24.1854 41.1484 27.5619C43.6947 30.9378 33.5665 30.4881 29.5146 33.8639C25.4634 37.2397 13.9838 50.7445 9.70783 50.5197C5.43109 50.2948 4.75578 57.2999 4.75578 57.2999C4.75578 57.2999 4.08047 49.6188 4.30534 43.5417C4.5302 37.4653 0.0293176 18.7836 1.60481 17.433Z" fill="url(#paint1_linear_2006_8041)"/>
<path d="M10.0088 62.1489C10.0088 62.1489 4.61417 60.9289 3.40632 55.3965C3.40632 55.3965 2.65605 61.6984 10.0088 62.1489Z" fill="url(#paint2_linear_2006_8041)"/>
<path d="M79.6324 44.668C79.6324 44.668 79.3326 51.4953 78.8821 52.5454C78.4317 53.5955 74.9316 55.3966 74.9316 55.3966C74.9316 55.3966 76.732 53.7461 77.2824 51.1948C77.8313 48.6442 79.6324 44.668 79.6324 44.668Z" fill="url(#paint3_linear_2006_8041)"/>
<path d="M29.2039 64.1C31.3347 64.629 36.5566 63.9501 37.6067 61.5494C38.6568 59.1487 39.1765 51.7959 40.7927 51.4961C42.4088 51.1963 40.9768 59.5991 40.7927 61.5494C40.6085 63.5004 40.6142 65.3942 40.7927 67.2517C40.9711 69.1092 29.9534 68.6023 20.6504 63.8002C20.6504 63.8002 23.8021 64.8503 25.0021 63.8002C26.2028 62.7494 27.7048 63.7274 29.2039 64.1Z" fill="url(#paint4_linear_2006_8041)"/>
<path d="M1.58093 16.0483C1.58093 16.0483 0.07254 14.5477 3.69538 13.0472C7.31822 11.5467 6.71786 14.0973 9.2692 15.1481C11.8205 16.1989 19.9221 16.3488 21.7232 16.7986C23.5243 17.249 30.4266 20.0994 35.0781 22.2003C39.7296 24.3012 37.7793 24.3012 37.7793 24.3012C37.7793 24.3012 28.0259 20.0994 23.9747 19.3492C19.9236 18.5989 11.0703 18.8402 9.71964 17.5945C8.36831 16.3481 1.58093 16.0483 1.58093 16.0483Z" fill="url(#paint5_linear_2006_8041)"/>
<path d="M2.6468 14.7607C4.50355 13.5793 5.57148 13.7199 6.69652 14.2824C7.82157 14.8449 10.3836 17.3584 20.5126 17.619C20.5126 17.619 15.7111 18.2208 8.47046 16.364C4.23156 15.2768 1.20052 15.6809 2.6468 14.7607Z" fill="url(#paint6_linear_2006_8041)"/>
<path d="M43.47 53.7833C43.47 53.7833 44.0325 41.854 43.47 38.8158C42.9074 35.7769 42.0073 27.2242 44.595 25.7615C47.1835 24.2988 64.6273 20.1305 67.2158 18.4444C69.8043 16.7583 78.095 12.2567 79.6327 13.1568C81.1703 14.057 71.1549 34.2114 66.3156 36.176C61.4764 38.1405 44.8206 54.7592 44.1453 58.7725C43.47 62.7865 43.9204 60.7613 43.47 53.7833Z" fill="url(#paint7_linear_2006_8041)"/>
<path d="M79.7912 30.4883C79.7912 30.4883 80.0447 43.5426 79.1445 44.6684C78.2443 45.7934 76.556 48.0821 76.3312 50.033C76.1063 51.984 75.3453 55.1507 71.7168 56.5977C68.0882 58.0447 63.1098 62.4349 61.9262 62.1494C60.7426 61.8646 70.2541 55.4941 70.2541 51.4879C70.2541 47.4817 75.7572 38.8162 77.282 38.8162C78.8068 38.8162 79.7912 30.4883 79.7912 30.4883Z" fill="url(#paint8_linear_2006_8041)"/>
<path d="M40.4302 36.9268C40.4302 36.9268 41.4147 43.6549 41.2041 47.1436C40.9935 50.6322 30.9773 48.0437 26.1381 49.0567C21.2981 50.0697 38.8548 34.3633 40.4302 36.9268Z" fill="url(#paint9_linear_2006_8041)"/>
<path d="M36.6055 21.3716C36.6055 21.3716 41.4447 22.6094 42.2321 23.8472C43.0202 25.0851 47.1842 23.96 48.8717 22.6094C50.56 21.2588 64.2897 19.1165 64.7401 18.4433C65.1906 17.7701 73.068 14.9568 71.8302 14.7313C70.5923 14.5064 63.7486 19.3414 61.8247 18.4433C59.9009 17.5453 54.1614 19.7597 52.9236 19.5527C51.6858 19.3456 45.8335 22.7222 44.7085 22.0469C43.5827 21.3716 36.6055 21.3716 36.6055 21.3716Z" fill="url(#paint10_linear_2006_8041)"/>
<path d="M71.9609 8.09181C71.9609 8.09181 76.5439 8.65432 77.2813 9.5545C78.0188 10.4547 75.1069 10.7923 74.9306 11.3549C74.755 11.9174 75.0919 13.2138 74.0797 13.8598L76.7809 12.5856C76.7809 12.5856 81.1055 12.133 81.2825 10.9758C81.4596 9.81934 75.0184 7.97973 71.9609 8.09181Z" fill="url(#paint11_linear_2006_8041)"/>
<path d="M20.5117 19.5527C20.5117 19.5527 24.4508 19.7962 26.2512 20.4715C28.0515 21.1468 33.2655 23.0599 33.2655 23.0599L20.5117 19.5527Z" fill="url(#paint12_linear_2006_8041)"/>
<path d="M73.7435 11.2996C73.5208 11.9985 74.306 13.4397 73.2374 13.8609C72.168 14.2821 70.5925 14.1543 69.5796 14.7247C68.5666 15.2951 62.7708 18.3897 62.0955 17.9963C61.4201 17.6023 70.2549 14.2721 69.636 13.0393C69.017 11.8064 72.8255 9.55565 71.9624 8.76826C71.0994 7.98016 66.5414 6.85511 66.5978 6.63024C66.6542 6.40538 76.2891 8.76968 76.6254 9.55635C76.9609 10.3416 74.1376 10.0618 73.7435 11.2996Z" fill="url(#paint13_linear_2006_8041)"/>
<path d="M7.47698 12.3222C7.76181 11.1472 19.2136 5.81108 20.6498 6.61417C22.0861 7.41726 18.6503 9.01631 20.6498 10.9737C22.6494 12.9311 33.228 13.9441 34.5787 16.4197C35.9293 18.8954 43.5819 17.0908 45.6078 18.4435C47.6337 19.7963 37.7304 20.6601 34.3538 19.5529C30.978 18.4457 24.9002 15.4075 20.5113 15.2947C16.1218 15.1819 6.87805 14.79 7.47698 12.3222Z" fill="url(#paint14_linear_2006_8041)"/>
<path d="M39.3069 0.889581C36.9619 1.20154 30.6414 2.24021 27.828 3.8157C25.0147 5.39119 28.9531 6.88529 32.5545 6.53265C36.1559 6.18 42.233 6.8546 43.4709 9.21819C44.7087 11.5818 42.3458 13.592 44.371 14.7249C46.3963 15.8578 49.2103 15.4616 49.5479 17.1791C49.8856 18.8967 48.1973 19.4221 47.9725 20.0596C47.9725 20.0596 51.9308 17.8787 54.2844 17.7124C56.638 17.5461 62.0398 17.741 60.9147 15.7864C59.789 13.8319 51.1241 13.1808 51.5739 10.9743C52.0236 8.76774 56.7508 7.19225 56.5259 5.95442C56.3011 4.71587 43.9963 0.266381 39.3069 0.889581Z" fill="url(#paint15_linear_2006_8041)"/>
<defs>
<linearGradient id="paint0_linear_2006_8041" x1="40.9925" y1="70.703" x2="41.2926" y2="48.495" gradientUnits="userSpaceOnUse">
<stop stop-color="#447FBB"/>
<stop offset="1" stop-color="#447FBB" stop-opacity="0"/>
</linearGradient>
<linearGradient id="paint1_linear_2006_8041" x1="8.67866" y1="19.258" x2="20.6079" y2="38.6149" gradientUnits="userSpaceOnUse">
<stop stop-color="white"/>
<stop offset="1" stop-color="white" stop-opacity="0.1"/>
</linearGradient>
<linearGradient id="paint2_linear_2006_8041" x1="3.38476" y1="58.7726" x2="10.0087" y2="58.7726" gradientUnits="userSpaceOnUse">
<stop stop-color="#447FBB"/>
<stop offset="1" stop-color="#447FBB" stop-opacity="0"/>
</linearGradient>
<linearGradient id="paint3_linear_2006_8041" x1="74.9314" y1="50.0321" x2="79.6322" y2="50.0321" gradientUnits="userSpaceOnUse">
<stop stop-color="#447FBB"/>
<stop offset="1" stop-color="#447FBB" stop-opacity="0"/>
</linearGradient>
<linearGradient id="paint4_linear_2006_8041" x1="33.1153" y1="69.2748" x2="32.0649" y2="63.5728" gradientUnits="userSpaceOnUse">
<stop stop-color="#BBDEFB"/>
<stop offset="1" stop-color="#BBDEFB" stop-opacity="0.1"/>
</linearGradient>
<linearGradient id="paint5_linear_2006_8041" x1="19.2528" y1="26.7821" x2="20.1531" y2="13.2774" gradientUnits="userSpaceOnUse">
<stop stop-color="#447FBB"/>
<stop offset="1" stop-color="#447FBB" stop-opacity="0"/>
</linearGradient>
<linearGradient id="paint6_linear_2006_8041" x1="1.73677" y1="14.1349" x2="20.1637" y2="17.9798" gradientUnits="userSpaceOnUse">
<stop stop-color="white"/>
<stop offset="1" stop-color="white" stop-opacity="0.1"/>
</linearGradient>
<linearGradient id="paint7_linear_2006_8041" x1="43.4014" y1="22.0755" x2="64.6715" y2="39.4066" gradientUnits="userSpaceOnUse">
<stop stop-color="white"/>
<stop offset="1" stop-color="white" stop-opacity="0.1"/>
</linearGradient>
<linearGradient id="paint8_linear_2006_8041" x1="78.9175" y1="52.6525" x2="71.6024" y2="46.913" gradientUnits="userSpaceOnUse">
<stop stop-color="white"/>
<stop offset="1" stop-color="white" stop-opacity="0.1"/>
</linearGradient>
<linearGradient id="paint9_linear_2006_8041" x1="42.2694" y1="50.2857" x2="34.0486" y2="43.8355" gradientUnits="userSpaceOnUse">
<stop stop-color="white"/>
<stop offset="1" stop-color="white" stop-opacity="0.1"/>
</linearGradient>
<linearGradient id="paint10_linear_2006_8041" x1="56.7019" y1="24.3986" x2="54.1135" y2="17.6462" gradientUnits="userSpaceOnUse">
<stop stop-color="#447FBB"/>
<stop offset="1" stop-color="#447FBB" stop-opacity="0"/>
</linearGradient>
<linearGradient id="paint11_linear_2006_8041" x1="78.6565" y1="14.9021" x2="76.3946" y2="9.00169" gradientUnits="userSpaceOnUse">
<stop stop-color="#447FBB"/>
<stop offset="1" stop-color="#447FBB" stop-opacity="0"/>
</linearGradient>
<linearGradient id="paint12_linear_2006_8041" x1="23.2017" y1="19.5485" x2="28.0409" y2="21.8556" gradientUnits="userSpaceOnUse">
<stop stop-color="white"/>
<stop offset="1" stop-color="white" stop-opacity="0.1"/>
</linearGradient>
<linearGradient id="paint13_linear_2006_8041" x1="75.8676" y1="11.945" x2="67.3708" y2="12.2263" gradientUnits="userSpaceOnUse">
<stop stop-color="white"/>
<stop offset="1" stop-color="white" stop-opacity="0.1"/>
</linearGradient>
<linearGradient id="paint14_linear_2006_8041" x1="29.954" y1="11.057" x2="22.8639" y2="20.848" gradientUnits="userSpaceOnUse">
<stop stop-color="white"/>
<stop offset="1" stop-color="white" stop-opacity="0.1"/>
</linearGradient>
<linearGradient id="paint15_linear_2006_8041" x1="48.7923" y1="3.91728" x2="42.1038" y2="13.1537" gradientUnits="userSpaceOnUse">
<stop stop-color="white"/>
<stop offset="1" stop-color="white" stop-opacity="0.1"/>
</linearGradient>
</defs>
</svg>
