<svg width="64" height="97" viewBox="0 0 64 97" fill="none" xmlns="http://www.w3.org/2000/svg">
<path d="M64 96.7488C62.1083 95.8013 60.2651 94.7684 58.4767 93.6648C56.6776 92.5772 54.9091 91.4468 53.2047 90.2371C49.7788 87.843 46.4917 85.2828 43.4168 82.517C37.2442 77.0195 31.7273 70.8488 27.368 63.9687C23.0209 57.0867 19.9025 49.5327 18.0322 41.7079C16.2054 33.871 15.5867 25.7819 16.0437 17.7402L15.8771 17.7295C15.1972 25.7699 15.5888 33.911 17.2149 41.8693C18.9392 49.8036 21.9373 57.5204 26.2097 64.5946C30.4707 71.6615 35.8295 78.2072 42.2777 83.6634C45.4907 86.3964 48.9123 88.9106 52.5362 91.1319C56.1522 93.3572 59.9241 95.375 63.9331 96.8923L64 96.7488Z" fill="#604136"/>
<path d="M15.2579 -0.000976562C15.2579 -0.000976562 26.9887 12.5834 15.935 23.0886C4.28178 13.1679 15.2579 -0.000976562 15.2579 -0.000976562Z" fill="#604136"/>
<path d="M15.2579 -0.000976562C15.2579 -0.000976562 15.5448 0.306619 15.9869 0.866443C13.5264 4.77321 9.26401 13.9659 17.4073 21.5026C16.9652 22.035 16.486 22.5648 15.935 23.088C4.28178 13.1679 15.2579 -0.000976562 15.2579 -0.000976562Z" fill="#4C322A"/>
<path d="M0.0957031 12.4525C0.0957031 12.4525 12.888 13.3773 15.8455 22.9777C18.4234 13.2812 31.1709 11.916 31.1709 11.916C31.1709 11.916 29.972 26.5148 16.457 27.2174C16.457 27.2228 16.4577 27.2275 16.4577 27.2321C16.2769 27.2388 16.1067 27.2321 15.9295 27.2341C15.7522 27.2388 15.5828 27.2508 15.4012 27.2508C15.4012 27.2455 15.4012 27.2408 15.4012 27.2361C1.86775 26.9999 0.0957031 12.4525 0.0957031 12.4525Z" fill="#604136"/>
<path d="M0.0917969 12.4521C0.0917969 12.4521 0.858569 12.5089 2.05607 12.7317C3.08412 16.6992 6.52213 25.3915 16.9615 25.573C16.9615 25.5783 16.9615 25.583 16.9615 25.5877C17.1423 25.5883 17.3124 25.5757 17.4897 25.571C17.667 25.569 17.8372 25.5757 18.018 25.569C18.018 25.5637 18.0173 25.559 18.0173 25.5543C22.0711 25.3435 25.01 23.8788 27.148 21.9371C24.9595 24.6629 21.6019 26.9482 16.4531 27.2158C16.4531 27.2211 16.4538 27.2258 16.4538 27.2305C16.273 27.2371 16.1028 27.2304 15.9256 27.2324C15.7483 27.2371 15.5788 27.2491 15.3973 27.2491C15.3973 27.2438 15.3973 27.2391 15.3973 27.2345C1.86384 26.9996 0.0917969 12.4521 0.0917969 12.4521Z" fill="#4C322A"/>
<path d="M0 24.9132C0 24.9132 12.8222 25.3496 16.1933 34.8293C18.3484 25.0427 31.0261 23.1924 31.0261 23.1924C31.0261 23.1924 30.4622 37.8252 16.9886 39.0416C16.9886 39.047 16.9893 39.0516 16.99 39.0563C16.8091 39.0696 16.639 39.0697 16.4624 39.0783C16.2859 39.0897 16.1164 39.1084 15.9356 39.115C15.9349 39.1097 15.9356 39.105 15.9349 39.1003C2.40141 39.3813 0 24.9132 0 24.9132Z" fill="#604136"/>
<path d="M0 24.9141C0 24.9141 0.768907 24.9414 1.97495 25.1189C3.17387 29.0444 6.98708 37.5979 17.425 37.3817C17.4257 37.387 17.425 37.3917 17.4257 37.3964C17.6065 37.3897 17.776 37.371 17.9525 37.3597C18.1291 37.351 18.3 37.351 18.4801 37.3376C18.4801 37.3323 18.4794 37.3276 18.4787 37.323C22.5197 36.958 25.3931 35.3826 27.4443 33.3608C25.376 36.1679 22.1203 38.5794 16.9871 39.0431C16.9871 39.0485 16.9878 39.0531 16.9886 39.0578C16.8077 39.0712 16.6376 39.0712 16.461 39.0798C16.2844 39.0912 16.115 39.1099 15.9342 39.1165C15.9334 39.1112 15.9342 39.1065 15.9334 39.1018C2.40141 39.3821 0 24.9141 0 24.9141Z" fill="#4C322A"/>
<path d="M1.57422 38.6292C1.57422 38.6292 14.3644 37.6764 18.8803 46.7283C19.8158 36.7742 32.1817 33.5654 32.1817 33.5654C32.1817 33.5654 33.4226 48.1609 20.1889 50.8272C20.1896 50.8326 20.191 50.8366 20.1917 50.8419C20.0137 50.8746 19.845 50.8933 19.6699 50.9207C19.4954 50.9507 19.3302 50.9881 19.1508 51.0141C19.1494 51.0087 19.1494 51.0041 19.148 50.9994C5.74055 52.7409 1.57422 38.6292 1.57422 38.6292Z" fill="#604136"/>
<path d="M1.57227 38.6287C1.57227 38.6287 2.33904 38.5727 3.55932 38.6187C5.23382 42.388 10.0737 50.4725 20.4162 49.1286C20.4169 49.134 20.4176 49.1386 20.419 49.1433C20.5977 49.1173 20.7636 49.0799 20.938 49.0499C21.1124 49.0225 21.2819 49.0038 21.4592 48.9712C21.4585 48.9658 21.457 48.9618 21.4563 48.9565C25.4254 48.1571 28.086 46.2815 29.8744 44.0508C28.1657 47.0628 25.2282 49.8106 20.1869 50.8261C20.1876 50.8314 20.189 50.8355 20.1898 50.8408C20.0118 50.8735 19.843 50.8922 19.6679 50.9195C19.4935 50.9496 19.3283 50.9869 19.1489 51.0129C19.1475 51.0076 19.1475 51.003 19.146 50.9983C5.7386 52.7405 1.57227 38.6287 1.57227 38.6287Z" fill="#4C322A"/>
<path d="M5.60742 52.1981C5.60742 52.1981 18.2851 50.3484 23.513 59.0581C23.6497 49.066 35.7229 44.9971 35.7229 44.9971C35.7229 44.9971 38.1286 59.4644 25.1455 63.0529C25.1469 63.0576 25.1483 63.0623 25.1497 63.0676C24.9753 63.113 24.808 63.143 24.6357 63.183C24.4641 63.2257 24.3025 63.2738 24.126 63.3125C24.1245 63.3078 24.1238 63.3031 24.1224 63.2978C10.8915 65.9775 5.60742 52.1981 5.60742 52.1981Z" fill="#604136"/>
<path d="M5.60742 52.1983C5.60742 52.1983 6.36779 52.0882 7.58807 52.0488C9.55946 55.69 15.0329 63.4115 25.238 61.3443C25.2394 61.349 25.2402 61.3537 25.2416 61.359C25.4181 61.3203 25.5805 61.2716 25.7513 61.2296C25.9229 61.1895 26.0902 61.1595 26.2654 61.1141C26.2639 61.1094 26.2625 61.1048 26.2611 61.0995C30.1555 60.0232 32.658 57.966 34.2634 55.616C32.8004 58.7394 30.0914 61.686 25.1455 63.0532C25.1469 63.0578 25.1483 63.0625 25.1497 63.0678C24.9753 63.1132 24.808 63.1432 24.6357 63.1833C24.4641 63.226 24.3025 63.274 24.126 63.3127C24.1245 63.3081 24.1238 63.3034 24.1224 63.298C10.8908 65.9777 5.60742 52.1983 5.60742 52.1983Z" fill="#4C322A"/>
<path d="M11.5293 65.5297C11.5293 65.5297 23.7855 61.9712 30.3091 69.8755C28.8938 59.9714 40.2074 54.2998 40.2074 54.2998C40.2074 54.2998 44.8329 68.2854 32.5446 73.6054C32.5468 73.6101 32.5489 73.6141 32.551 73.6194C32.3852 73.6881 32.2243 73.7409 32.0605 73.8036C31.8975 73.869 31.7444 73.939 31.5764 74.0011C31.5742 73.9964 31.5728 73.9918 31.5707 73.9871C18.8958 78.4417 11.5293 65.5297 11.5293 65.5297Z" fill="#604136"/>
<path d="M11.5332 65.53C11.5332 65.53 12.2686 65.3178 13.469 65.1116C15.9843 68.4452 22.5983 75.338 32.3741 71.9023C32.3763 71.9069 32.3777 71.9116 32.3798 71.9163C32.5485 71.8542 32.7016 71.7835 32.8639 71.7188C33.0277 71.656 33.1886 71.6033 33.3545 71.5346C33.3523 71.5299 33.3502 71.5259 33.3481 71.5206C37.0338 69.9252 39.1903 67.5484 40.4142 65.0049C39.4516 68.2944 37.2289 71.5793 32.5471 73.6058C32.5493 73.6104 32.5514 73.6144 32.5535 73.6198C32.3876 73.6885 32.2267 73.7412 32.063 73.8039C31.9 73.8693 31.7469 73.9394 31.5789 74.0014C31.5767 73.9968 31.5753 73.9921 31.5732 73.9874C18.8998 78.442 11.5332 65.53 11.5332 65.53Z" fill="#4C322A"/>
<path d="M20.3008 79.0468C20.3008 79.0468 31.6884 73.5066 39.6053 80.2005C36.3367 70.6888 46.3966 63.2256 46.3966 63.2256C46.3966 63.2256 53.5965 76.2203 42.5108 83.4994C42.5136 83.5041 42.5165 83.5074 42.5193 83.5114C42.3691 83.6068 42.221 83.6849 42.0715 83.7743C41.9234 83.8657 41.7867 83.9605 41.6322 84.0492C41.6294 84.0452 41.6265 84.0412 41.6237 84.0365C29.9954 90.5289 20.3008 79.0468 20.3008 79.0468Z" fill="#604136"/>
<path d="M20.3008 79.0469C20.3008 79.0469 20.9843 78.7152 22.1269 78.3136C25.2339 81.1761 33.0475 86.8597 42.0181 81.852C42.021 81.856 42.0238 81.8607 42.0267 81.8647C42.1804 81.7753 42.3178 81.6805 42.4659 81.5898C42.6154 81.501 42.7635 81.4223 42.9137 81.3269C42.9109 81.3229 42.908 81.3189 42.9052 81.3149C46.23 79.1316 47.9024 76.4339 48.625 73.7275C48.3003 77.1252 46.7348 80.727 42.5115 83.5001C42.5143 83.5041 42.5172 83.5081 42.52 83.5121C42.3698 83.6075 42.2217 83.6856 42.0722 83.775C41.9241 83.8664 41.7874 83.9612 41.6329 84.0499C41.6301 84.0459 41.6272 84.0419 41.6244 84.0372C29.9954 90.5289 20.3008 79.0469 20.3008 79.0469Z" fill="#4C322A"/>
<path d="M13.1991 24.1388C11.6605 22.8096 10.0686 21.5799 8.53152 20.2954C7.75407 19.6635 7.00083 19.009 6.26894 18.337C5.54987 17.6544 4.81799 16.9772 4.23633 16.1611C4.57166 17.0993 5.19105 17.9314 5.85815 18.688C6.52667 19.452 7.27706 20.144 8.0595 20.7952C9.63718 22.0843 11.3366 23.238 13.1991 24.1388Z" fill="#E2CFB7"/>
<path d="M18.5332 24.0469C20.3594 23.0821 22.0125 21.871 23.5375 20.5278C24.2936 19.8499 25.0162 19.1326 25.6548 18.3466C26.292 17.5672 26.878 16.7151 27.1763 15.7656C26.6274 16.601 25.9225 17.303 25.2305 18.0103C24.525 18.7069 23.7988 19.3875 23.0463 20.0454C21.5611 21.3819 20.0183 22.6657 18.5332 24.0469Z" fill="#E2CFB7"/>
<path d="M13.6005 36.0913C12.0057 34.8222 10.3611 33.6545 8.76987 32.4287C7.96537 31.8269 7.18507 31.2017 6.424 30.5584C5.67574 29.9038 4.91538 29.2553 4.29883 28.4619C4.67474 29.3867 5.32973 30.1941 6.02958 30.9247C6.73085 31.6627 7.51044 32.3253 8.32064 32.9459C9.95243 34.1743 11.7003 35.2619 13.6005 36.0913Z" fill="#E2CFB7"/>
<path d="M18.9258 35.7953C20.7085 34.7617 22.3075 33.4886 23.7727 32.0881C24.4989 31.3821 25.1902 30.6381 25.7933 29.8274C26.3963 29.0247 26.9452 28.1506 27.2015 27.1904C26.6896 28.0458 26.0154 28.7745 25.3547 29.5071C24.6805 30.2304 23.9842 30.9377 23.2608 31.6243C21.8355 33.0175 20.3497 34.3587 18.9258 35.7953Z" fill="#E2CFB7"/>
<path d="M16.458 48.2616C14.7173 47.1733 12.9403 46.1911 11.2088 45.1462C10.3353 44.6357 9.48307 44.0986 8.64866 43.5414C7.82494 42.9723 6.98911 42.4098 6.2793 41.6885C6.76627 42.5666 7.51666 43.2979 8.30123 43.9478C9.08865 44.605 9.94512 45.1789 10.8258 45.708C12.5986 46.7523 14.4689 47.6437 16.458 48.2616Z" fill="#E2CFB7"/>
<path d="M21.7109 47.3925C23.3541 46.1727 24.7859 44.7355 26.0695 43.1861C26.7038 42.4061 27.299 41.5921 27.7988 40.722C28.2986 39.8592 28.7365 38.9317 28.8732 37.9502C28.4695 38.8557 27.89 39.6517 27.324 40.4511C26.743 41.2418 26.1386 42.0198 25.5049 42.7804C24.2597 44.3185 22.949 45.8111 21.7109 47.3925Z" fill="#E2CFB7"/>
<path d="M21.2238 60.7574C19.4012 59.7946 17.5501 58.9398 15.7404 58.0197C14.8284 57.5719 13.9356 57.0962 13.0592 56.5998C12.192 56.09 11.3142 55.5882 10.5488 54.9189C11.1049 55.7604 11.9115 56.4369 12.7459 57.0301C13.5839 57.63 14.4838 58.1425 15.4043 58.6075C17.254 59.523 19.1905 60.2803 21.2238 60.7574Z" fill="#E2CFB7"/>
<path d="M26.3926 59.5216C27.9339 58.1897 29.2461 56.6557 30.4023 55.0209C30.9725 54.1989 31.5001 53.3455 31.9294 52.4427C32.3587 51.5472 32.7211 50.5917 32.7788 49.6035C32.4491 50.535 31.9344 51.3691 31.4339 52.2065C30.9177 53.0359 30.3774 53.8546 29.8064 54.6566C28.6879 56.2767 27.5004 57.8574 26.3926 59.5216Z" fill="#E2CFB7"/>
<path d="M28.306 71.869C26.3531 71.1643 24.3895 70.5718 22.4559 69.9079C21.4841 69.589 20.5272 69.24 19.5825 68.8683C18.6455 68.482 17.6986 68.1057 16.8379 67.5479C17.5185 68.3045 18.4213 68.8637 19.3397 69.3368C20.2617 69.8158 21.2313 70.2002 22.2145 70.5351C24.1866 71.1897 26.22 71.6748 28.306 71.869Z" fill="#E2CFB7"/>
<path d="M33.2266 69.9419C34.5451 68.4145 35.6052 66.7177 36.4951 64.9421C36.9316 64.0507 37.3217 63.1346 37.6058 62.183C37.892 61.2389 38.1013 60.2433 38.0059 59.2578C37.8243 60.224 37.4449 61.1201 37.0796 62.0162C36.698 62.9077 36.2901 63.7905 35.8494 64.6626C34.9943 66.4188 34.0645 68.1449 33.2266 69.9419Z" fill="#E2CFB7"/>
<path d="M38.0101 82.4958C35.9547 82.1274 33.91 81.8706 31.8816 81.5389C30.865 81.3868 29.8576 81.2027 28.8573 80.9938C27.862 80.7696 26.8588 80.5561 25.9062 80.1504C26.7193 80.7816 27.7139 81.182 28.7071 81.4949C29.7052 81.8132 30.7318 82.03 31.7635 82.1962C33.8274 82.5118 35.9205 82.6512 38.0101 82.4958Z" fill="#E2CFB7"/>
<path d="M42.4902 79.78C43.4984 78.0571 44.2203 76.2108 44.7599 74.3158C45.0205 73.3663 45.2312 72.3995 45.3302 71.416C45.4327 70.4391 45.4512 69.4249 45.17 68.4707C45.1743 69.4516 44.97 70.397 44.7806 71.3392C44.5741 72.2794 44.3399 73.2169 44.0708 74.1484C43.5617 76.0193 42.9744 77.8723 42.4902 79.78Z" fill="#E2CFB7"/>
<path d="M15.1412 4.85059C15.0052 7.01382 15.0842 9.16504 15.2159 11.3129C15.369 13.4595 15.5762 15.6027 16.0012 17.7332C16.1393 15.57 16.0596 13.4188 15.9265 11.2709C15.7712 9.12433 15.5634 6.98112 15.1412 4.85059Z" fill="#E2CFB7"/>
</svg>
