<svg width="128" height="130" viewBox="0 0 128 130" fill="none" xmlns="http://www.w3.org/2000/svg">
<path d="M72.3207 65.9476L66.0332 72.3623L110.007 102.887L78.6086 59.5324L72.3207 65.9476Z" fill="#C9C8C3"/>
<mask id="mask0_2006_9230" style="mask-type:luminance" maskUnits="userSpaceOnUse" x="66" y="59" width="45" height="44">
<path d="M72.3227 65.9476L66.0352 72.3623L110.009 102.887L78.6106 59.5324L72.3227 65.9476Z" fill="white"/>
</mask>
<g mask="url(#mask0_2006_9230)">
<path d="M67.5868 35.5514L68.123 89.0889L69.6325 89.0737L69.0962 35.5363L67.5868 35.5514Z" fill="#DDDDDB"/>
<path d="M72.0419 39.9176L72.5781 93.4551L74.0875 93.44L73.5513 39.9025L72.0419 39.9176Z" fill="#DDDDDB"/>
<path d="M76.495 44.2839L77.0312 97.8213L78.5407 97.8062L78.0044 44.2687L76.495 44.2839Z" fill="#DDDDDB"/>
<path d="M80.952 48.6501L81.4883 102.188L82.9977 102.172L82.4614 48.6349L80.952 48.6501Z" fill="#DDDDDB"/>
<path d="M85.3173 44.195L85.8535 97.7324L87.3629 97.7173L86.8267 44.1799L85.3173 44.195Z" fill="#DDDDDB"/>
<path d="M89.7723 48.5612L90.3086 102.099L91.818 102.084L91.2818 48.5461L89.7723 48.5612Z" fill="#DDDDDB"/>
<path d="M94.2255 52.9274L94.7617 106.465L96.2711 106.45L95.7349 52.9123L94.2255 52.9274Z" fill="#DDDDDB"/>
<path d="M98.6805 57.2936L99.2168 110.831L100.726 110.816L100.19 57.2785L98.6805 57.2936Z" fill="#DDDDDB"/>
<path d="M103.136 61.6598L103.672 115.197L105.181 115.182L104.645 61.6447L103.136 61.6598Z" fill="#DDDDDB"/>
</g>
<path d="M82.2586 83.6253C82.2586 83.6253 57.179 101.605 52.9965 76.321C52.9965 76.321 25.3178 88.5162 26.8453 67.372C26.8453 67.372 28.1761 59.9368 26.4807 57.6138C24.7857 55.2903 2.21171 37.7986 37.0531 11.7078C37.0531 11.7078 34.597 19.2297 41.5646 21.0945C41.5646 21.0945 75.3222 5.52587 72.6898 37.3688C72.6898 37.3688 104.381 39.6957 91.5627 76.3687L82.2586 83.6253Z" fill="#FCB9D0"/>
<path d="M53.1618 73.1205C53.1618 73.1205 29.4544 83.5657 30.7635 65.4558C30.7635 65.4558 31.9025 59.0869 30.4512 57.0967C28.9991 55.1074 9.74063 41.8672 35.5345 21.8293C35.5345 21.8293 35.6639 26.5636 43.3707 25.8181C43.3707 25.8181 72.2845 12.4832 70.0294 39.7565C70.0294 39.7565 100.231 41.2903 89.2523 72.7016C89.2514 72.7025 60.6876 100.804 53.1618 73.1205Z" fill="#FCC3D8"/>
<path d="M53.6519 70.5695C53.6519 70.5695 33.7073 78.7531 34.2653 63.3335C34.2653 63.3335 35.0426 57.9316 33.7398 56.1882C32.4374 54.4452 15.5629 42.5459 36.9946 26.2384C36.9946 26.2384 37.2512 30.2842 43.8165 29.8854C43.8165 29.8854 68.1233 19.3962 67.0391 42.6099C67.0391 42.6099 92.2739 43.6478 83.8588 70.1232C83.8588 70.1232 63.2865 93.4002 53.6519 70.5695Z" fill="#FCCDE0"/>
<path d="M44.5907 34.7738C51.5605 31.5651 58.4663 35.3127 61.8756 41.6599C62.419 42.6694 63.949 41.7723 63.4101 40.7689C59.5006 33.4948 51.5666 29.6198 43.7007 33.2402C42.6601 33.7199 43.5624 35.2472 44.5907 34.7738Z" fill="white"/>
</svg>
