<svg width="53" height="64" viewBox="0 0 53 64" fill="none" xmlns="http://www.w3.org/2000/svg">
<path d="M6.14663 21.3419C6.14663 21.3419 1.89384 13.6746 11.5594 13.929C21.225 14.1834 27.3719 7.12996 31.2786 7.38389C35.1853 7.63783 37.4191 12.4907 35.9526 15.4355C34.4862 18.3804 7.06742 23.0199 7.06742 23.0199L6.14663 21.3419Z" fill="#E22323"/>
<path d="M11.851 15.0397C21.5165 15.2941 27.6634 8.24065 31.5701 8.49459C33.8827 8.64529 35.6008 10.4095 36.3202 12.4331C35.916 9.98454 34.0081 7.56135 31.2784 7.38392C27.3722 7.12952 21.2253 14.1834 11.5592 13.929C4.38737 13.7405 4.87864 17.9113 5.60956 20.0769C5.19986 17.8482 5.77639 14.8798 11.851 15.0397Z" fill="#EF3C37"/>
<path d="M9.25958 19.2317C9.54531 18.1957 5.40036 18.0592 4.92153 18.0726C-1.35167 18.2505 0.0106268 26.2335 0.390374 30.5444C0.977507 37.2056 2.72646 43.7152 4.92752 50.011C6.36954 54.1347 8.6259 58.3364 12.1298 61.0716C15.4429 63.6579 20.9944 63.9174 24.0204 60.7186C24.5895 60.1167 25.7527 58.1456 25.1002 57.2358C25.0997 57.2345 6.05754 30.69 9.25958 19.2317Z" fill="#E22323"/>
<path d="M7.97712 20.8556C8.20985 20.0113 4.83222 19.9003 4.44233 19.9113C-0.669965 20.0561 0.440245 26.5615 0.749941 30.0746C1.22831 35.5031 2.65329 40.8076 4.44741 45.9378C5.62213 49.2984 7.46141 52.7221 10.3164 54.9508C13.0166 57.0583 17.5404 57.2699 20.006 54.6628C20.4701 54.1724 21.418 52.5663 20.8857 51.8248C20.8853 51.8239 5.36774 30.1931 7.97712 20.8556Z" fill="#EF3C37"/>
<path opacity="0.64" d="M7.35533 20.9061C7.60558 20.2853 5.05012 19.9065 4.75287 19.8807C0.857697 19.5456 1.13421 24.5833 1.06323 27.2783C0.954011 31.4431 1.57433 35.5959 2.48959 39.6487C3.08917 42.3032 4.18786 45.0642 6.16218 47.0058C8.02911 48.8419 11.4468 49.3963 13.5465 47.6312C13.9414 47.2989 14.8014 46.162 14.4622 45.5523C14.4618 45.5514 4.56023 27.7705 7.35533 20.9061Z" fill="#F75C5C"/>
<path opacity="0.64" d="M9.15545 46.2196C7.18067 44.278 6.08245 41.5175 5.48287 38.8625C4.56715 34.8097 3.94683 30.6564 4.05652 26.4921C4.10675 24.5745 3.98277 21.4729 5.30912 19.9622C5.03722 19.9147 4.82614 19.8866 4.75287 19.8802C0.857697 19.5451 1.13421 24.5828 1.06323 27.2779C0.954011 31.4426 1.57433 35.5954 2.48959 39.6482C3.08917 42.3027 4.18786 45.0637 6.16218 47.0053C7.92219 48.7359 11.0583 49.3262 13.1714 47.91C11.6819 47.8496 10.1836 47.2307 9.15545 46.2196Z" fill="#F75C5C"/>
<path d="M33.5746 12.8952C32.817 12.1334 36.36 9.978 36.7836 9.75448C42.3351 6.82757 45.0703 14.4502 46.857 18.3914C49.618 24.4821 51.2927 31.0106 52.4684 37.5755C53.2385 41.8758 53.3371 46.6438 51.6287 50.7478C50.0134 54.6282 45.3057 57.5818 41.0986 56.2818C40.3068 56.037 38.3256 54.8918 38.4473 53.7788C38.4477 53.7775 41.9931 21.3022 33.5746 12.8952Z" fill="#E22323"/>
<path d="M35.4886 13.6795C34.8711 13.0588 37.7584 11.3024 38.1036 11.1204C42.6273 8.73499 44.8565 14.9469 46.3123 18.1586C48.5623 23.1216 49.9273 28.4422 50.885 33.7918C51.5127 37.2957 51.5929 41.1817 50.2011 44.5257C48.8849 47.6876 45.0487 50.0947 41.6199 49.0352C40.9747 48.8356 39.3603 47.9028 39.4594 46.9954C39.4594 46.9954 42.3485 20.5307 35.4886 13.6795Z" fill="#EF3C37"/>
<path opacity="0.64" d="M36.0561 13.4184C35.533 13.0004 37.5733 11.4151 37.8194 11.2469C41.0477 9.04119 43.2814 13.565 44.6672 15.8776C46.8084 19.451 48.3085 23.3734 49.5021 27.3529C50.2837 29.9595 50.6833 32.904 49.9173 35.565C49.1929 38.0812 46.489 40.2436 43.7925 39.7376C43.2851 39.6422 41.9777 39.0744 41.974 38.3766C41.974 38.3766 41.8629 18.0242 36.0561 13.4184Z" fill="#F75C5C"/>
<path opacity="0.64" d="M49.502 27.3529C48.3084 23.373 46.8083 19.451 44.6672 15.8776C43.2814 13.565 41.0476 9.04119 37.8193 11.2469C37.7584 11.2883 37.5884 11.4165 37.375 11.5916C39.2724 12.2557 40.6881 15.0181 41.6739 16.6633C43.815 20.2368 45.3151 24.1592 46.5088 28.1387C47.2904 30.7453 47.6899 33.6897 46.924 36.3507C46.5249 37.7365 45.5244 39.0117 44.2565 39.7961C46.7926 39.9915 49.2343 37.9365 49.9173 35.5645C50.6837 32.904 50.2841 29.9595 49.502 27.3529Z" fill="#F75C5C"/>
<path d="M17.3471 16.8282C17.3471 16.8282 23.3756 3.63433 13.9939 4.05786C13.9939 4.05786 13.4086 1.23049 16.3018 0C16.3018 0 20.4026 1.27658 21.7049 7.1327C23.0073 12.9888 26.8145 14.3424 26.8145 14.3424C26.8145 14.3424 23.8461 18.5735 17.3471 16.8282Z" fill="#2D6012"/>
<path d="M16.6917 0.158099C16.4475 0.0456502 16.3018 0.000488281 16.3018 0.000488281C13.4086 1.23098 13.9939 4.05834 13.9939 4.05834C14.0105 4.05742 14.0243 4.0588 14.0404 4.05834C15.4801 3.29977 16.4221 1.83562 16.6917 0.158099Z" fill="#3F830C"/>
<path d="M21.7049 7.13283C20.6477 2.37862 17.7461 0.643026 16.6917 0.158203C16.6157 0.630582 16.4811 1.08268 16.3027 1.5099C20.5758 5.01103 22.1243 12.4327 26.2135 15.0103C26.6163 14.6236 26.8144 14.3425 26.8144 14.3425C26.8144 14.3425 23.0073 12.9885 21.7049 7.13283Z" fill="#224C0F"/>
<path d="M15.6817 2.61963C15.2498 3.21506 14.6991 3.7114 14.041 4.05797C23.3522 3.68283 17.3472 16.8283 17.3472 16.8283C18.1025 17.0311 18.8044 17.1454 19.4653 17.203C19.469 17.0108 19.5215 16.7832 19.6326 16.5103C21.4945 10.1256 20.0571 5.69447 15.6817 2.61963Z" fill="#337010"/>
<path d="M26.2141 15.0096C22.1249 12.4321 20.5764 5.01087 16.3033 1.50928C16.1374 1.90608 15.9287 2.27844 15.6816 2.61902C20.0566 5.69386 21.494 10.125 19.633 16.5097C19.522 16.7821 19.4694 17.0102 19.4657 17.2024C23.0273 17.5126 25.2338 15.9507 26.2141 15.0096Z" fill="#2D6012"/>
<path d="M35.8714 12.3445C29.8245 8.81298 22.6766 16.9291 22.6766 16.9291C22.6766 16.9291 12.4635 13.3713 8.93195 19.4182C5.40039 25.4652 13.3728 64.9671 32.9316 59.0313C52.884 54.5923 41.9183 15.8761 35.8714 12.3445Z" fill="#E22323"/>
<path d="M34.2299 12.5423C28.883 9.41952 22.5624 16.596 22.5624 16.596C22.5624 16.596 13.5314 13.4502 10.4082 18.7971C7.28539 24.1439 14.3351 59.0746 31.6307 53.8259C49.2732 49.9008 39.5768 15.6651 34.2299 12.5423Z" fill="#EF3C37"/>
<path opacity="0.64" d="M31.3862 13.8109C27.3509 11.454 22.5806 16.8705 22.5806 16.8705C22.5806 16.8705 15.7645 14.4962 13.4077 18.5319C11.0508 22.5676 16.3714 48.9301 29.4248 44.9685C42.7399 42.0057 35.4219 16.1677 31.3862 13.8109Z" fill="#F75C5C"/>
<path opacity="0.64" d="M18.1969 17.2738C18.4467 16.8462 18.749 16.4941 19.0854 16.2C17.0401 16.0728 14.6271 16.4429 13.4077 18.5315C11.0508 22.5668 16.3714 48.9297 29.4248 44.9682C30.2907 44.7755 31.0677 44.4843 31.7659 44.1105C20.5016 44.3345 15.9931 21.0469 18.1969 17.2738Z" fill="#F75C5C"/>
</svg>
