<svg width="113" height="33" viewBox="0 0 113 33" fill="none" xmlns="http://www.w3.org/2000/svg">
<path d="M18.703 33C25.9187 33 31.7682 31.0372 31.7682 28.616C31.7682 26.1949 25.9187 24.2321 18.703 24.2321C11.4872 24.2321 5.63769 26.1949 5.63769 28.616C5.63769 31.0372 11.4872 33 18.703 33Z" fill="#679FB7"/>
<path d="M72.2838 28.616C72.2838 31.0372 66.4343 33 59.2186 33C52.0032 33 46.1537 31.0372 46.1537 28.616C46.1537 26.1949 52.0032 24.2321 59.2186 24.2321C66.4343 24.2321 72.2838 26.1949 72.2838 28.616Z" fill="#679FB7"/>
<path d="M113 28.616C113 31.0372 107.151 33 99.9347 33C92.7193 33 86.8699 31.0372 86.8699 28.616C86.8699 26.1949 92.7193 24.2321 99.9347 24.2321C107.151 24.2321 113 26.1949 113 28.616Z" fill="#679FB7"/>
<path d="M0.534726 16.174C0.534726 16.174 3.74388 26.9346 6.55189 28.5288C9.35991 30.1229 22.4974 31.4182 25.6063 27.3331C28.7151 23.2481 30.771 15.9747 30.771 15.9747L0.534726 16.174Z" fill="#212426"/>
<path d="M31.1557 12.9526C31.1557 20.106 24.1814 25.9052 15.5776 25.9052C6.9743 25.9052 0 20.106 0 12.9526C0 5.79917 6.9743 2.05407e-08 15.5776 2.05407e-08C24.1814 -0.000398521 31.1557 5.79877 31.1557 12.9526Z" fill="#5F6B6C"/>
<path d="M29.1488 12.9534C29.1488 13.9657 28.9763 14.9501 28.6554 15.8827C27.0668 20.5061 21.8078 23.9133 15.578 23.9133C9.48065 23.9133 4.31391 20.6532 2.60503 16.1776C2.21592 15.1573 2.00733 14.0733 2.00733 12.9534C2.00733 6.90751 8.09269 1.9935 15.578 1.9935C23.0634 1.9935 29.1488 6.90791 29.1488 12.9534Z" fill="#212426"/>
<path d="M28.6554 15.8827C27.0668 20.5061 21.8078 23.9133 15.578 23.9133C9.48065 23.9133 4.31391 20.6532 2.60503 16.1776C2.57294 14.6113 2.88182 12.1922 4.61878 9.92048C5.34886 8.96439 6.33568 8.03578 7.65544 7.20682C13.1391 3.77139 24.7322 4.95108 27.8811 12.4755V12.4795C28.3024 13.4954 28.5747 14.6312 28.6554 15.8827Z" fill="#EBE6DD"/>
<path d="M28.6554 15.8827C27.0668 20.5061 21.8078 23.9133 15.578 23.9133C9.48065 23.9133 4.31391 20.6532 2.60503 16.1776C2.57294 14.6113 2.88182 12.1922 4.61878 9.92048C4.14944 12.0487 3.61993 17.162 8.6904 19.3942C14.844 22.1043 27.9694 20.9888 27.8811 12.4795C28.3024 13.4954 28.5747 14.6312 28.6554 15.8827Z" fill="#D7C9B7"/>
<path d="M21.3942 8.90062C20.0869 8.0876 16.2295 6.65883 15.2266 9.00025C14.2238 11.3417 18.0848 11.5908 20.0404 12.3879C21.996 13.1849 24.7538 14.7791 24.804 13.3344C24.8541 11.8897 23.686 10.3254 21.3942 8.90062Z" fill="white"/>
<path d="M11.3155 10.5446C12.5617 10.5446 13.5719 9.92009 13.5719 9.14971C13.5719 8.37933 12.5617 7.75481 11.3155 7.75481C10.0693 7.75481 9.05904 8.37933 9.05904 9.14971C9.05904 9.92009 10.0693 10.5446 11.3155 10.5446Z" fill="white"/>
<path d="M41.3179 16.174C41.3179 16.174 44.527 26.9346 47.3351 28.5288C50.1431 30.1229 63.2802 31.4182 66.389 27.3331C69.4979 23.2481 71.5538 15.9747 71.5538 15.9747L41.3179 16.174Z" fill="#212426"/>
<path d="M71.9384 12.9526C71.9384 20.106 64.9638 25.9052 56.3604 25.9052C47.7571 25.9052 40.7828 20.106 40.7828 12.9526C40.7828 5.79917 47.7571 2.05407e-08 56.3604 2.05407e-08C64.9641 -0.000398521 71.9384 5.79877 71.9384 12.9526Z" fill="#5F6B6C"/>
<path d="M69.9315 12.9534C69.9315 13.9657 69.759 14.9501 69.4385 15.8827C67.85 20.5061 62.591 23.9133 56.3608 23.9133C50.2634 23.9133 45.0967 20.6532 43.3882 16.1776C42.9991 15.1573 42.7905 14.0733 42.7905 12.9534C42.7905 6.90751 48.8759 1.9935 56.3612 1.9935C63.8462 1.9935 69.9315 6.90791 69.9315 12.9534Z" fill="#212426"/>
<path d="M69.4385 15.8827C67.85 20.5061 62.591 23.9133 56.3608 23.9133C50.2634 23.9133 45.0967 20.6532 43.3882 16.1776C43.3561 14.6113 43.6646 12.1922 45.4015 9.92048C46.1316 8.96439 47.1184 8.03578 48.4382 7.20682C53.9219 3.77139 65.5149 4.95108 68.6635 12.4755V12.4795C69.0851 13.4954 69.3583 14.6312 69.4385 15.8827Z" fill="#EF1B1B"/>
<path d="M69.4385 15.8827C67.85 20.5061 62.591 23.9133 56.3608 23.9133C50.2634 23.9133 45.0967 20.6532 43.3882 16.1776C43.3561 14.6113 43.6646 12.1922 45.4015 9.92048C44.9322 12.0487 44.4027 17.162 49.4732 19.3942C55.6263 22.1043 68.7522 20.9888 68.6635 12.4795C69.0851 13.4954 69.3583 14.6312 69.4385 15.8827Z" fill="#A52020"/>
<path d="M62.1774 8.90062C60.8705 8.0876 57.0127 6.65883 56.0098 9.00025C55.0073 11.3417 58.868 11.5908 60.8235 12.3879C62.7791 13.1849 65.537 14.7791 65.5871 13.3344C65.6373 11.8897 64.4687 10.3254 62.1774 8.90062Z" fill="white"/>
<path d="M52.0986 10.5446C53.3448 10.5446 54.3551 9.92009 54.3551 9.14971C54.3551 8.37933 53.3448 7.75481 52.0986 7.75481C50.8525 7.75481 49.8422 8.37933 49.8422 9.14971C49.8422 9.92009 50.8525 10.5446 52.0986 10.5446Z" fill="white"/>
<path d="M82.2346 16.174C82.2346 16.174 85.4438 26.9346 88.2518 28.5288C91.0598 30.1229 104.197 31.4182 107.306 27.3331C110.415 23.2481 112.471 15.9747 112.471 15.9747L82.2346 16.174Z" fill="#212426"/>
<path d="M97.2775 25.9052C105.881 25.9052 112.856 20.1061 112.856 12.9526C112.856 5.79907 105.881 0 97.2775 0C88.674 0 81.6995 5.79907 81.6995 12.9526C81.6995 20.1061 88.674 25.9052 97.2775 25.9052Z" fill="#5F6B6C"/>
<path d="M110.848 12.9534C110.848 13.9657 110.676 14.9501 110.355 15.8827C108.767 20.5061 103.507 23.9133 97.2775 23.9133C91.1801 23.9133 86.0134 20.6532 84.3045 16.1776C83.915 15.1573 83.7068 14.0733 83.7068 12.9534C83.7068 6.90751 89.7922 1.9935 97.2775 1.9935C104.763 1.9935 110.848 6.90791 110.848 12.9534Z" fill="#212426"/>
<path d="M110.355 15.8827C108.767 20.5061 103.507 23.9133 97.2775 23.9133C91.1801 23.9133 86.0134 20.6532 84.3045 16.1776C84.2724 14.6113 84.5809 12.1922 86.3179 9.92048C87.048 8.96439 88.0348 8.03578 89.3545 7.20682C94.8382 3.77139 106.431 4.95108 109.58 12.4755V12.4795C110.002 13.4954 110.275 14.6312 110.355 15.8827Z" fill="#FDA830"/>
<path d="M110.355 15.8827C108.767 20.5061 103.507 23.9133 97.2775 23.9133C91.1801 23.9133 86.0134 20.6532 84.3045 16.1776C84.2724 14.6113 84.5809 12.1922 86.3179 9.92048C85.8485 12.0487 85.319 17.162 90.3895 19.3942C96.543 22.1043 109.669 20.9888 109.58 12.4795C110.002 13.4954 110.275 14.6312 110.355 15.8827Z" fill="#D17F34"/>
<path d="M103.094 8.90062C101.787 8.0876 97.9294 6.65883 96.9266 9.00025C95.9237 11.3417 99.7847 11.5908 101.74 12.3879C103.696 13.1849 106.454 14.7791 106.504 13.3344C106.554 11.8897 105.385 10.3254 103.094 8.90062Z" fill="white"/>
<path d="M93.0154 10.5446C94.2616 10.5446 95.2718 9.92009 95.2718 9.14971C95.2718 8.37933 94.2616 7.75481 93.0154 7.75481C91.7692 7.75481 90.7589 8.37933 90.7589 9.14971C90.7589 9.92009 91.7692 10.5446 93.0154 10.5446Z" fill="white"/>
</svg>
