<svg width="73" height="84" viewBox="0 0 73 84" fill="none" xmlns="http://www.w3.org/2000/svg">
<path d="M67.2273 39.2136C63.9398 37.8111 61.4207 46.9388 58.0797 47.7591C54.6739 48.5959 50.8457 43.8393 47.5016 44.1681C44.0048 44.5119 40.669 49.957 37.3768 49.8822C33.7793 49.801 30.5317 44.1708 27.353 43.7657C23.5537 43.2806 19.6832 47.9401 16.7684 47.2788C10.5764 45.8745 12.4177 41.0574 7.46503 39.1881C7.46503 39.1881 6.25238 39.9956 5.18945 41.5566C5.18945 41.5566 13.7716 44.1932 16.7287 75.8953C17.4879 84.0343 56.7746 87.2119 59.811 77.0659C59.811 77.0659 59.1467 48.664 68.0476 40.8876C68.0476 40.8876 67.7879 39.4524 67.2273 39.2136Z" fill="#9AE5D3"/>
<path d="M7.63133 43.1979C7.70272 43.197 9.04967 43.1668 11.3514 42.8814C11.0761 42.3975 10.7964 41.916 10.4624 41.459C8.70072 41.6512 7.68482 41.6745 7.62305 41.6754L7.63133 43.1979Z" fill="#D2F7ED"/>
<path d="M55.7338 66.2866C57.1094 67.424 58.5177 68.5263 59.9591 69.587C59.9897 68.9744 60.0262 68.3361 60.069 67.6767C58.9445 66.8392 57.8401 65.9762 56.7562 65.0903C58.1508 63.43 59.5202 61.6752 60.8566 59.8206C60.9828 58.9157 61.1241 58.0054 61.2821 57.0976C59.5076 59.6756 57.6689 62.0669 55.7846 64.2856C53.4687 62.3431 51.2495 60.3018 49.1295 58.1995C51.9094 55.8959 54.6682 53.3034 57.3538 50.3875C58.7636 51.8755 60.2212 53.3417 61.7259 54.7751C61.8486 54.1884 61.979 53.6063 62.1176 53.0304C60.8317 51.7982 59.5812 50.5417 58.3659 49.2686C61.067 46.2309 63.6872 42.8564 66.1725 39.1074C63.3775 39.7097 61.0538 47.0291 58.0785 47.7596C58.0467 47.7675 58.0147 47.7751 57.9823 47.7818C57.8178 47.9685 57.6528 48.1547 57.4879 48.3393C57.3363 48.1771 57.1859 48.0155 57.0355 47.8534C56.1134 47.8046 55.1675 47.4389 54.2158 46.9552C54.9538 47.7908 55.706 48.6229 56.4739 49.4497C53.7633 52.367 50.9796 54.9526 48.176 57.2438C45.4264 54.4548 42.85 51.5706 40.4542 48.6764C40.0292 48.9734 39.6057 49.2337 39.1832 49.4363C41.6013 52.3894 44.2057 55.3386 46.9891 58.1957C42.7869 61.5011 38.558 64.1603 34.4802 66.2998C30.7762 62.4725 27.3952 58.4831 24.3564 54.5483C27.9465 53.3184 31.8609 51.6991 35.9257 49.5688C35.4167 49.3669 34.914 49.0788 34.4171 48.7375C30.5397 50.6912 26.818 52.1792 23.4108 53.3117C21.8002 51.1834 20.2912 49.0784 18.886 47.0307C18.3677 47.2214 17.867 47.3395 17.3882 47.344C18.8034 49.4354 20.3288 51.5921 21.9609 53.7782C18.7186 54.7889 15.7993 55.4743 13.3496 55.9391C13.4805 56.4096 13.6106 56.8951 13.7386 57.3962C16.345 56.8915 19.4556 56.1421 22.9056 55.0309C25.9511 59.029 29.3487 63.0992 33.0798 67.0176C28.3863 69.3657 23.9262 71.0316 19.9807 72.2136C18.512 70.6757 17.0955 69.1136 15.732 67.5413C15.8593 68.4012 15.9824 69.2894 16.1004 70.207C16.8376 71.0363 17.5892 71.8624 18.3556 72.6816C17.7045 72.8618 17.0699 73.0285 16.4531 73.1827C16.507 73.6753 16.5594 74.1756 16.6102 74.6834C17.5386 74.4513 18.5066 74.1915 19.5096 73.9005C22.2935 76.7999 25.2609 79.6126 28.4031 82.2454C29.4244 82.4473 30.4835 82.6255 31.5681 82.7779C27.8574 79.8794 24.3766 76.7095 21.1379 73.409C25.0834 72.1737 29.4964 70.4635 34.1186 68.0953C36.9385 70.9866 39.9417 73.7823 43.1208 76.3907C39.7729 78.9709 36.4134 81.1458 33.1326 82.9784C33.9285 83.0711 34.7343 83.1494 35.5452 83.2143C38.4049 81.5075 41.3101 79.5378 44.203 77.2661C46.5052 79.1005 48.897 80.834 51.3749 82.4323C52.133 82.2624 52.857 82.0708 53.5406 81.8549C50.7421 80.1498 48.0514 78.265 45.4721 76.2493C48.9558 73.4005 52.4098 70.1029 55.7338 66.2866ZM35.5199 67.36C39.5798 65.1807 43.7782 62.4888 47.9442 59.164C50.1123 61.3402 52.3859 63.4555 54.7604 65.4708C51.3999 69.2853 47.9083 72.5674 44.391 75.3911C41.2633 72.8725 38.3035 70.1665 35.5199 67.36Z" fill="#D2F7ED"/>
<path opacity="0.43" d="M59.8119 77.066C59.8119 77.066 59.2908 54.7894 65.3548 44.292C60.6532 48.5397 60.4471 69.8776 33.5828 75.4494C27.851 76.6385 21.4616 71.69 15.0664 63.4989C15.7155 67.0362 16.2858 71.1386 16.7296 75.8952C17.4888 84.0342 56.7755 87.212 59.8119 77.066Z" fill="#9AE5D3"/>
<path d="M62.2442 52.0709C60.2193 59.1734 59.4411 69.636 59.5244 77.0214C57.2213 86.6267 22.1016 84.2311 17.2188 77.2347C20.6741 82.5845 39.1164 84.9834 50.3759 82.9319C59.7437 81.1451 60.0051 77.6177 60.0987 77.1074C60.1269 76.1826 59.8861 62.449 62.4904 52.1353C63.1718 49.4354 64.029 46.7607 65.3542 44.292C63.9269 46.7059 63.0063 49.3799 62.2442 52.0709Z" fill="#64A090"/>
<path opacity="0.38" d="M42.8923 61.5999C42.8923 66.6947 37.145 70.8253 30.0555 70.8253C22.9662 70.8253 17.2188 66.6947 17.2188 61.5999C17.2188 56.5046 22.966 52.374 30.0555 52.374C37.1448 52.374 42.8923 56.5046 42.8923 61.5999Z" fill="#D2F7ED"/>
<path d="M67.0221 34.2197C67.0221 34.2197 70.3647 35.2365 71.0954 37.3577C71.8269 39.4784 72.162 45.6122 63.3273 48.2161C54.4922 50.82 36.4756 48.7956 31.939 53.7552C31.939 53.7552 29.1717 46.8768 40.2761 41.459C51.3816 36.0416 67.0221 34.2197 67.0221 34.2197Z" fill="#C27FAE"/>
<path d="M58.2621 10.4327C55.653 3.85328 40.5967 7.19938 34.8114 7.19938C29.0263 7.19938 23.7727 0 23.7727 0C23.5671 8.75518 28.6404 12.2011 33.318 13.497C26.983 12.747 19.524 11.5339 14.5892 11.5339C7.44259 11.5339 4.15289 18.5303 9.0306 24.1988C13.9083 29.8675 33.7598 28.1463 44.9902 24.7053C56.2202 21.2633 60.871 17.0121 58.2621 10.4327Z" fill="#F5B0E1"/>
<path d="M58.08 10.0234C57.6431 11.3153 56.4125 12.4387 54.848 14.1357C51.4334 17.8381 37.7392 19.2039 25.1692 21.2111C17.7064 22.4029 11.8439 17.9594 8.31174 14.1514C6.12054 16.7051 6.02364 20.7044 9.03045 24.1986C13.9082 29.8673 33.7597 28.1462 44.9901 24.7051C56.2203 21.2635 60.871 17.0122 58.2622 10.4326C58.2073 10.2938 58.1465 10.1573 58.08 10.0234Z" fill="#C27FAE"/>
<path d="M3.98954 37.3579C3.98954 37.3579 0.0196425 35.7381 1.08346 30.6771C2.14728 25.6161 6.91623 24.7018 6.91623 24.7018C6.91623 24.7018 43.8446 23.2189 56.9743 17.879C59.6476 16.7917 63.457 15.7259 69.2432 20.6811C75.0299 25.6358 72.8787 32.3978 63.9335 36.5477C54.9881 40.6982 38.3793 43.431 35.8674 47.3786C33.3552 51.3267 31.9366 53.7554 31.9366 53.7554C31.9366 53.7554 7.84217 50.3144 4.58088 46.4676C1.31982 42.6215 3.98954 37.3579 3.98954 37.3579Z" fill="#D5A3D4"/>
<path d="M71.3776 38.626C71.5305 40.5358 70.9864 42.4779 69.8218 43.9549C67.5697 46.8697 63.4725 48.0578 59.8247 48.5703C50.9589 49.8551 36.5093 49.1999 31.6723 53.2133C27.0878 52.5684 7.89905 49.721 4.58203 46.4671C8.00581 50.3 32.2619 54.4577 32.2619 54.4577C38.5776 47.7657 68.2999 54.4646 71.2755 41.4989C71.4949 40.5538 71.5144 39.5734 71.3776 38.626Z" fill="#BA5AA1"/>
<path d="M60.0653 17.0211C60.0657 17.0206 60.0658 17.02 60.0658 17.0195C58.8878 17.1547 57.8674 17.5153 56.9744 17.8788C43.8446 23.2187 6.91629 24.7015 6.91629 24.7015C6.91629 24.7015 2.14734 25.6158 1.08352 30.6768C0.0194803 35.7376 3.98961 37.3576 3.98961 37.3576C3.98961 37.3576 11.281 30.288 27.1284 30.288C42.9757 30.288 58.0384 25.0083 60.0653 17.0211Z" fill="#F5B0E1"/>
<path d="M69.2441 20.6807C72.652 23.4372 73.9125 26.7983 71.8442 30.7022C67.0677 40.7815 39.5331 42.609 36.1046 47.7298C34.7355 49.7455 33.3684 51.7657 31.9375 53.7548C32.0863 53.4701 35.4065 47.1503 36.048 46.5127C38.7264 43.4264 51.0455 40.2385 55.7177 38.741C60.2984 37.3204 66.7588 35.2267 69.9238 31.5825C70.9563 30.2772 71.9783 28.8667 72.0656 26.9711C72.2285 24.8189 71.2963 23.2 70.1712 21.6897L69.8638 21.3546L69.2441 20.6807Z" fill="#BA5AA1"/>
<path opacity="0.37" d="M2.89592 31.7903L2.95323 31.6092C4.92531 25.9898 11.6811 23.8136 18.1455 24.4098C32.1752 25.9002 41.1108 28.292 47.7775 25.8613C40.4483 30.2538 26.2158 27.7098 15.9948 28.1107C8.31573 28.5615 6.52024 32.7897 6.40206 32.8816C6.39647 32.8913 6.40208 32.8729 6.40007 32.8693C6.10216 33.8365 5.07616 34.3797 4.10881 34.0813C3.14101 33.7843 2.59846 32.7583 2.89592 31.7903Z" fill="#F9CDEE"/>
<path d="M15.1242 46.0877C15.7142 44.5617 17.0522 42.9226 18.3542 41.8857C20.5132 40.0823 23.0238 39.2777 23.3313 39.1396C31.2856 36.6234 45.7681 38.508 50.6476 36.2295C47.5088 38.5386 39.2803 39.1808 32.4819 40.1197C28.9178 40.6466 21.6681 41.2435 18.046 46.3063L17.7693 46.7058C17.7349 46.7584 17.3969 47.3053 17.4305 47.2531C17.0453 47.8576 16.2431 48.036 15.6383 47.6508C15.107 47.3133 14.9053 46.653 15.1242 46.0877Z" fill="#F5B0E1"/>
<path d="M16.7018 10.0234C16.7018 10.0234 12.3313 12.5091 13.3517 13.5295C14.3721 14.5499 18.5323 16.3304 19.1457 15.7167C19.7592 15.1032 18.0342 9.18045 16.7018 10.0234Z" fill="#6F3404"/>
<path d="M25.1032 11.5334C25.1032 11.5334 21.0443 17.4175 22.419 17.7756C23.7939 18.1341 28.9657 18.0001 29.555 16.7577C30.1441 15.5154 26.4126 11.0869 25.1032 11.5334Z" fill="#6F3404"/>
<path d="M10.8315 28.2166C10.8315 28.2166 7.88534 30.1151 8.60559 31.8174C9.32562 33.5194 16.7236 31.8828 16.7236 31.1628C16.7236 30.4425 13.7774 27.1691 10.8315 28.2166Z" fill="#6F3404"/>
<path d="M40.2113 24.9807C39.6487 25.0906 35.3826 30.1807 35.841 31.2282C36.2992 32.2757 45.1374 31.061 45.1374 29.2642C45.1374 27.4674 42.0285 24.6246 40.2113 24.9807Z" fill="#6F3404"/>
<path opacity="0.24" d="M40.3468 25.9199C40.3468 25.9199 36.363 30.5922 37.6724 30.2885C38.9815 29.9841 45.5083 28.7951 40.3468 25.9199Z" fill="#FFB3D0"/>
<path opacity="0.24" d="M25.2948 12.8921C25.2948 12.8921 22.6367 16.4106 23.3789 16.7163C24.1206 17.0216 27.5249 16.4979 27.5249 15.3629C27.5249 14.2286 25.9888 12.6036 25.2948 12.8921Z" fill="#FFB3D0"/>
<path d="M37.2518 13.996C37.2518 13.996 44.1578 15.8414 44.0331 14.4262C43.908 13.0109 42.0433 8.1847 40.6754 8.04772C39.3071 7.90984 36.3912 12.9131 37.2518 13.996Z" fill="#6F3404"/>
<path opacity="0.24" d="M38.4657 13.3586C38.4657 13.3586 42.6731 14.6792 42.7109 13.8779C42.7499 13.0764 41.112 10.0466 40.0432 10.4275C38.9743 10.8091 37.9606 12.802 38.4657 13.3586Z" fill="#FFB3D0"/>
</svg>
