<svg width="81" height="180" viewBox="0 0 81 180" fill="none" xmlns="http://www.w3.org/2000/svg">
<path d="M57.2627 94.1094H51.9297V179.443H57.2627V94.1094Z" fill="#D7E2FF"/>
<path d="M57.2627 175.443L51.9297 179.443V176.027L57.2627 172.027V175.443Z" fill="#C5D5F9"/>
<path d="M57.2627 165.443L51.9297 169.443V166.027L57.2627 162.027V165.443Z" fill="#C5D5F9"/>
<path d="M57.2627 155.443L51.9297 159.443V156.027L57.2627 152.027V155.443Z" fill="#C5D5F9"/>
<path d="M57.2627 145.443L51.9297 149.443V146.027L57.2627 142.027V145.443Z" fill="#C5D5F9"/>
<path d="M57.2627 135.443L51.9297 139.443V136.025L57.2627 132.025V135.443Z" fill="#C5D5F9"/>
<path d="M57.2627 125.443L51.9297 129.443V126.025L57.2627 122.025V125.443Z" fill="#C5D5F9"/>
<path d="M57.2627 115.443L51.9297 119.443V116.025L57.2627 112.025V115.443Z" fill="#C5D5F9"/>
<path d="M57.2627 105.443L51.9297 109.443V106.025L57.2627 102.025V105.443Z" fill="#C5D5F9"/>
<path d="M51.9297 96.0254V99.4434L57.2627 95.4434V94.1094H54.4847L51.9297 96.0254Z" fill="#C5D5F9"/>
<path d="M116.781 70.54C116.781 62.653 114.361 55.335 110.228 49.276C110.741 47.27 111.043 45.178 111.043 43.01C111.043 29.051 99.728 17.737 85.771 17.737C83.242 17.737 80.803 18.118 78.499 18.809C73.751 7.74799 62.763 0 49.964 0C38.997 0 29.367 5.69101 23.845 14.277C23.459 14.252 23.077 14.218 22.687 14.218C12.443 14.218 4.13901 22.521 4.13901 32.765C4.13901 37.331 5.79902 41.507 8.53702 44.74C3.24402 50.42 0 58.035 0 66.41C0 78.152 6.36901 88.4 15.837 93.908C14.786 96.551 14.191 99.426 14.191 102.445C14.191 115.23 24.556 125.597 37.343 125.597C40.565 125.597 43.632 124.935 46.419 123.745C50.772 127.364 56.365 129.544 62.47 129.544C75.349 129.544 85.949 119.849 87.409 107.36C104.226 103.542 116.781 88.513 116.781 70.54Z" fill="#FFCAF4"/>
<path d="M111.393 70.0085C111.393 62.8485 109.197 56.2055 105.445 50.7055C105.911 48.8855 106.185 46.9865 106.185 45.0205C106.185 32.3485 95.9137 22.0775 83.2447 22.0775C80.9487 22.0775 78.7347 22.4255 76.6437 23.0525C72.3337 13.0115 62.3597 5.97852 50.7417 5.97852C40.7877 5.97852 32.0467 11.1445 27.0337 18.9395C26.6827 18.9165 26.3357 18.8845 25.9817 18.8845C16.6827 18.8845 9.14569 26.4235 9.14569 35.7205C9.14569 39.8675 10.6527 43.6565 13.1377 46.5915C8.3327 51.7455 5.38867 58.6575 5.38867 66.2615C5.38867 76.9195 11.1697 86.2205 19.7637 91.2205C18.8107 93.6205 18.2707 96.2285 18.2707 98.9705C18.2707 110.576 27.6787 119.987 39.2867 119.987C42.2107 119.987 44.9957 119.385 47.5247 118.307C51.4767 121.592 56.5527 123.57 62.0937 123.57C73.7837 123.57 83.4067 114.77 84.7327 103.434C99.9967 99.9635 111.393 86.3215 111.393 70.0085Z" fill="#FFD7F7"/>
<path d="M105.043 69.3825C105.043 63.0795 103.11 57.2325 99.8083 52.3925C100.218 50.7895 100.459 49.1175 100.459 47.3865C100.459 36.2325 91.4193 27.1915 80.2673 27.1915C78.2463 27.1915 76.2973 27.4965 74.4573 28.0485C70.6623 19.2105 61.8833 13.0195 51.6563 13.0195C42.8943 13.0195 35.2004 17.5685 30.7874 24.4275C30.4784 24.4075 30.1733 24.3805 29.8613 24.3805C21.6763 24.3805 15.0423 31.0155 15.0423 39.2005C15.0423 42.8485 16.3683 46.1845 18.5563 48.7685C14.3273 53.3055 11.7363 59.3895 11.7363 66.0835C11.7363 75.4645 16.8253 83.6515 24.3893 88.0545C23.5503 90.1655 23.0753 92.4625 23.0753 94.8745C23.0753 105.092 31.3563 113.373 41.5743 113.373C44.1473 113.373 46.5993 112.846 48.8253 111.894C52.3053 114.787 56.7723 116.529 61.6503 116.529C71.9403 116.529 80.4113 108.781 81.5783 98.8015C95.0133 95.7495 105.043 83.7425 105.043 69.3825Z" fill="#FFE1F9"/>
<path d="M81.7406 35.9524C81.4446 35.9154 82.8536 36.1964 83.1986 36.2884C84.4996 36.6364 85.7196 37.1774 86.8866 37.8434C91.2326 40.3294 92.7466 44.9114 92.4906 49.7024C92.4046 51.3134 94.9046 51.3064 94.9906 49.7024C95.4326 41.3994 90.1256 34.4814 81.7406 33.4524C80.1426 33.2554 80.1606 35.7574 81.7406 35.9524Z" fill="white"/>
</svg>
