<svg width="37" height="36" viewBox="0 0 37 36" fill="none" xmlns="http://www.w3.org/2000/svg">
<path d="M10.774 0H25.894C31.654 0 36.334 4.68 36.334 10.44V25.56C36.334 28.3289 35.2341 30.9843 33.2762 32.9422C31.3183 34.9001 28.6628 36 25.894 36H10.774C5.01398 36 0.333984 31.32 0.333984 25.56V10.44C0.333984 7.67114 1.43391 5.01569 3.39179 3.05781C5.34967 1.09993 8.00512 0 10.774 0ZM10.414 3.6C8.69538 3.6 7.04717 4.28271 5.83193 5.49795C4.6167 6.71318 3.93398 8.3614 3.93398 10.08V25.92C3.93398 29.502 6.83198 32.4 10.414 32.4H26.254C27.9726 32.4 29.6208 31.7173 30.836 30.5021C32.0513 29.2868 32.734 27.6386 32.734 25.92V10.08C32.734 6.498 29.836 3.6 26.254 3.6H10.414ZM27.784 6.3C28.3807 6.3 28.953 6.53705 29.375 6.95901C29.7969 7.38097 30.034 7.95326 30.034 8.55C30.034 9.14674 29.7969 9.71903 29.375 10.141C28.953 10.5629 28.3807 10.8 27.784 10.8C27.1872 10.8 26.6149 10.5629 26.193 10.141C25.771 9.71903 25.534 9.14674 25.534 8.55C25.534 7.95326 25.771 7.38097 26.193 6.95901C26.6149 6.53705 27.1872 6.3 27.784 6.3ZM18.334 9C20.7209 9 23.0101 9.94821 24.6979 11.636C26.3858 13.3239 27.334 15.6131 27.334 18C27.334 20.3869 26.3858 22.6761 24.6979 24.364C23.0101 26.0518 20.7209 27 18.334 27C15.947 27 13.6579 26.0518 11.97 24.364C10.2822 22.6761 9.33398 20.3869 9.33398 18C9.33398 15.6131 10.2822 13.3239 11.97 11.636C13.6579 9.94821 15.947 9 18.334 9ZM18.334 12.6C16.9018 12.6 15.5283 13.1689 14.5156 14.1816C13.5029 15.1943 12.934 16.5678 12.934 18C12.934 19.4322 13.5029 20.8057 14.5156 21.8184C15.5283 22.8311 16.9018 23.4 18.334 23.4C19.7662 23.4 21.1397 22.8311 22.1524 21.8184C23.1651 20.8057 23.734 19.4322 23.734 18C23.734 16.5678 23.1651 15.1943 22.1524 14.1816C21.1397 13.1689 19.7662 12.6 18.334 12.6Z" fill="white"/>
</svg>
