<svg width="37" height="36" viewBox="0 0 37 36" fill="none" xmlns="http://www.w3.org/2000/svg">
<path d="M32.666 0C33.7269 0 34.7443 0.421427 35.4944 1.17157C36.2446 1.92172 36.666 2.93913 36.666 4V32C36.666 33.0609 36.2446 34.0783 35.4944 34.8284C34.7443 35.5786 33.7269 36 32.666 36H4.66602C3.60515 36 2.58773 35.5786 1.83759 34.8284C1.08744 34.0783 0.666016 33.0609 0.666016 32V4C0.666016 2.93913 1.08744 1.92172 1.83759 1.17157C2.58773 0.421427 3.60515 0 4.66602 0H32.666ZM31.666 31V20.4C31.666 18.6708 30.9791 17.0124 29.7564 15.7897C28.5336 14.5669 26.8752 13.88 25.146 13.88C23.446 13.88 21.466 14.92 20.506 16.48V14.26H14.926V31H20.506V21.14C20.506 19.6 21.746 18.34 23.286 18.34C24.0286 18.34 24.7408 18.635 25.2659 19.1601C25.791 19.6852 26.086 20.3974 26.086 21.14V31H31.666ZM8.42602 11.12C9.31714 11.12 10.1718 10.766 10.8019 10.1359C11.432 9.50576 11.786 8.65113 11.786 7.76C11.786 5.9 10.286 4.38 8.42602 4.38C7.52958 4.38 6.66987 4.73611 6.03599 5.36998C5.40212 6.00385 5.04602 6.86357 5.04602 7.76C5.04602 9.62 6.56602 11.12 8.42602 11.12ZM11.206 31V14.26H5.66602V31H11.206Z" fill="white"/>
</svg>
