<svg width="60" height="60" viewBox="0 0 60 60" fill="none" xmlns="http://www.w3.org/2000/svg">
<g id="Vector">
<path d="M28.9243 14.4622C28.9243 22.4494 22.4493 28.9243 14.4621 28.9243C6.47492 28.9243 0 22.4494 0 14.4622C0 6.47493 6.47492 0 14.4621 0C22.4493 0 28.9243 6.47493 28.9243 14.4622Z" fill="#FCAD97"/>
<path d="M60 45.5378C60 53.5251 53.5251 60 45.5379 60C37.5507 60 31.0757 53.5251 31.0757 45.5378C31.0757 37.5506 37.5507 31.0757 45.5379 31.0757C53.5251 31.0757 60 37.5506 60 45.5378Z" fill="#FCAD97"/>
<path d="M0 31.0757H28.9243V44.7012C28.9243 53.1505 22.0748 60 13.6255 60H0V31.0757Z" fill="#FCAD97"/>
<path d="M31.0757 15.2988C31.0757 6.84952 37.9252 0 46.3745 0H60V28.9243H31.0757V15.2988Z" fill="#FCAD97"/>
</g>
</svg>
