<svg width="60" height="60" viewBox="0 0 60 60" fill="none" xmlns="http://www.w3.org/2000/svg">
<path id="Vector" fill-rule="evenodd" clip-rule="evenodd" d="M12.9767 52.3959L12.9767 60H17.0233V52.3959C17.0233 49.4286 19.4288 47.0232 22.3961 47.0232H37.6041C40.5711 47.0232 42.9768 49.4286 42.9768 52.3959V60H47.0232V52.3959C47.0232 49.4286 49.4289 47.0232 52.3962 47.0232H60V42.9768H52.3962C49.4289 42.9768 47.0232 40.5714 47.0232 37.6041V22.396C47.0232 19.4287 49.4289 17.0233 52.3962 17.0233L52.4106 17.0233H60V12.9767H52.3962C49.4289 12.9767 47.0232 10.5713 47.0232 7.60398V0L42.9768 1.7688e-07V7.60398C42.9768 10.5713 40.5711 12.9767 37.6041 12.9767H22.3961C19.4288 12.9767 17.0233 10.5713 17.0233 7.60398V1.31134e-06L12.9767 1.48822e-06V7.60398C12.9767 10.5713 10.5712 12.9767 7.60395 12.9767L7.58934 12.9767H0L2.25155e-08 17.0233H7.58892L7.60395 17.0233C10.5712 17.0233 12.9767 19.4287 12.9767 22.396V37.6041C12.9767 40.5714 10.5712 42.9768 7.60395 42.9768H0L2.25155e-08 47.0232H7.60395C10.5712 47.0232 12.9767 49.4286 12.9767 52.3959ZM42.9768 22.396C42.9768 19.4287 40.5711 17.0233 37.6041 17.0233L37.5888 17.0233H22.4107L22.3961 17.0233C19.4288 17.0233 17.0233 19.4287 17.0233 22.396V37.6041C17.0233 40.5714 19.4288 42.9768 22.3961 42.9768H37.6041C40.5711 42.9768 42.9768 40.5714 42.9768 37.6041V22.396Z" fill="#FCAD97"/>
</svg>
