<svg width="36" height="30" viewBox="0 0 36 30" fill="none" xmlns="http://www.w3.org/2000/svg">
<path fill-rule="evenodd" clip-rule="evenodd" d="M18 0.5C19.539 0.5 21.1176 0.539875 22.6476 0.605125L24.4548 0.692125L26.1846 0.795438L27.8046 0.906L29.2842 1.022C30.8901 1.14505 32.4014 1.83479 33.5519 2.96972C34.7024 4.10464 35.4183 5.61197 35.5734 7.22619L35.6454 7.9965L35.7804 9.64587C35.9064 11.3551 36 13.2183 36 15C36 16.7817 35.9064 18.6449 35.7804 20.3541L35.6454 22.0035L35.5734 22.7738C35.4182 24.3883 34.7021 25.8959 33.5512 27.0308C32.4004 28.1658 30.8887 28.8554 29.2824 28.978L27.8064 29.0922L26.1864 29.2046L24.4548 29.3079L22.6476 29.3949C21.0993 29.4624 19.5498 29.4975 18 29.5C16.4502 29.4975 14.9007 29.4624 13.3524 29.3949L11.5452 29.3079L9.8154 29.2046L8.1954 29.0922L6.7158 28.978C5.10986 28.8549 3.59856 28.1652 2.44808 27.0303C1.2976 25.8954 0.581743 24.388 0.4266 22.7738L0.3546 22.0035L0.2196 20.3541C0.0824989 18.5727 0.00925135 16.7868 0 15C0 13.2183 0.0936 11.3551 0.2196 9.64587L0.3546 7.9965L0.4266 7.22619C0.581683 5.61225 1.29728 4.10516 2.44739 2.97027C3.59751 1.83538 5.10838 1.14546 6.714 1.022L8.1918 0.906L9.8118 0.795438L11.5434 0.692125L13.3506 0.605125C14.8995 0.537568 16.4496 0.502519 18 0.5ZM14.4 10.6047V19.3953C14.4 20.2327 15.3 20.7547 16.02 20.3378L23.58 15.9425C23.7445 15.8471 23.8811 15.7098 23.9762 15.5444C24.0712 15.3789 24.1212 15.1911 24.1212 15C24.1212 14.8089 24.0712 14.6211 23.9762 14.4556C23.8811 14.2902 23.7445 14.1529 23.58 14.0575L16.02 9.664C15.8558 9.56852 15.6695 9.51827 15.4798 9.5183C15.2902 9.51833 15.1039 9.56864 14.9397 9.66417C14.7755 9.7597 14.6392 9.89709 14.5444 10.0625C14.4497 10.2279 14.3999 10.4155 14.4 10.6065V10.6047Z" fill="white"/>
</svg>
